<svg xmlns="http://www.w3.org/2000/svg" viewBox="0 0 294334 333333" shape-rendering="geometricPrecision" text-rendering="geometricPrecision" image-rendering="optimizeQuality" fill-rule="evenodd" clip-rule="evenodd"><defs><style>.fil0{fill:#ffffff}</style></defs><g id="Layer_x0020_1"><g id="_489768256"><path class="fil0" d="M178012 139855c-9581 0-17146 8237-17146 18491s7733 18491 17146 18491c9581 0 17146-8237 17146-18491s-7733-18491-17146-18491zm-61354 0c-9581 0-17146 8237-17146 18491s7733 18491 17146 18491c9581 0 17146-8237 17146-18491 168-10254-7564-18491-17146-18491z"/><path class="fil0" d="M259706 0H34459C15465 0 0 15465 0 34459v225247c0 18995 15465 34459 34459 34459h190620l-8909-30761 21516 19835 20339 18659 36309 31434V34458C294166 15464 278701-1 259706-1zm-64885 217683s-6052-7228-11094-13448c22020-6219 30425-19835 30425-19835-6892 4539-13448 7733-19331 9918-8405 3530-16474 5715-24374 7228-16137 3026-30929 2185-43537-168-9581-1849-17818-4370-24710-7228-3866-1513-8068-3362-12271-5715-504-336-1009-504-1513-840-336-168-504-337-672-337-3026-1681-4707-2857-4707-2857s8068 13280 29417 19667c-5043 6388-11263 13784-11263 13784-37149-1177-51269-25383-51269-25383 0-53622 24205-97159 24205-97159 24206-17986 47067-17482 47067-17482l1681 2017c-30257 8573-44041 21853-44041 21853s3698-2017 9918-4707c17987-7901 32274-9918 38158-10590 1009-168 1849-336 2857-336 10254-1345 21853-1681 33955-337 15969 1849 33115 6556 50596 15969 0 0-13280-12607-41855-21180l2354-2689s23029-504 47066 17482c0 0 24206 43537 24206 97159 0-168-14120 24038-51269 25215z"/></g></g></svg>