<svg width="28" height="28" viewBox="0 0 28 28" fill="none" xmlns="http://www.w3.org/2000/svg">
<g clip-path="url(#clip0)">
<path d="M12.5514 12.8816C12.0954 12.8816 11.7354 13.2776 11.7354 13.7606C11.7354 14.2437 12.1034 14.6397 12.5514 14.6397C13.0074 14.6397 13.3674 14.2437 13.3674 13.7606C13.3754 13.2776 13.0074 12.8816 12.5514 12.8816ZM15.4715 12.8816C15.0155 12.8816 14.6555 13.2776 14.6555 13.7606C14.6555 14.2437 15.0235 14.6397 15.4715 14.6397C15.9275 14.6397 16.2875 14.2437 16.2875 13.7606C16.2875 13.2776 15.9275 12.8816 15.4715 12.8816Z" fill="#8d9695"/>
<path d="M19.36 6.2373H8.63984C7.73583 6.2373 6.99982 6.96588 6.99982 7.86868V18.5756C6.99982 19.4784 7.73583 20.207 8.63984 20.207H17.712L17.288 18.7419L18.312 19.6843L19.28 20.5712L21 22.0759V7.86868C21 6.96588 20.264 6.2373 19.36 6.2373ZM16.2719 16.5799C16.2719 16.5799 15.9839 16.2394 15.7439 15.9385C16.792 15.6454 17.192 14.9961 17.192 14.9961C16.864 15.2099 16.5519 15.3603 16.2719 15.4633C15.8719 15.6296 15.4879 15.7405 15.1119 15.8038C14.3439 15.9464 13.6399 15.9068 13.0399 15.7959C12.5839 15.7088 12.1919 15.5821 11.8639 15.4554C11.6799 15.3841 11.4799 15.297 11.2799 15.1861C11.2559 15.1703 11.2319 15.1624 11.2079 15.1465C11.1919 15.1386 11.1839 15.1307 11.1759 15.1228C11.0319 15.0436 10.9519 14.9881 10.9519 14.9881C10.9519 14.9881 11.3359 15.6217 12.3519 15.9226C12.1119 16.2235 11.8159 16.5799 11.8159 16.5799C10.0479 16.5245 9.37585 15.3762 9.37585 15.3762C9.37585 12.8262 10.5279 10.7592 10.5279 10.7592C11.6799 9.90394 12.7759 9.9277 12.7759 9.9277L12.8559 10.0227C11.4159 10.4345 10.7519 11.0602 10.7519 11.0602C10.7519 11.0602 10.9279 10.9651 11.2239 10.8305C12.0799 10.4583 12.7599 10.3553 13.0399 10.3316C13.0879 10.3237 13.1279 10.3157 13.1759 10.3157C13.6639 10.2524 14.2159 10.2366 14.7919 10.2999C15.5519 10.387 16.3679 10.6088 17.2 11.0602C17.2 11.0602 16.568 10.4662 15.2079 10.0544L15.3199 9.9277C15.3199 9.9277 16.4159 9.90394 17.568 10.7592C17.568 10.7592 18.72 12.8262 18.72 15.3762C18.72 15.3762 18.04 16.5245 16.2719 16.5799Z" fill="#8d9695"/>
</g>
<defs>
<clipPath id="clip0">
<rect width="16" height="16" fill="white" transform="translate(6 6)"/>
</clipPath>
</defs>
</svg>
