<svg width="24" height="24" viewBox="0 0 24 24" fill="none" xmlns="http://www.w3.org/2000/svg">
<path fill-rule="evenodd" clip-rule="evenodd" d="M21.6001 5.93826C20.862 6.30164 20.0609 6.52011 19.2405 6.58181C20.1124 6.08188 20.754 5.26059 21.0281 4.29363C20.2342 4.77324 19.3633 5.11192 18.4539 5.29471C17.3048 4.07539 15.5292 3.67852 13.9703 4.29261C12.4115 4.9067 11.3836 6.408 11.3749 8.08342C11.3749 8.44095 11.4464 8.72697 11.4464 9.01299C8.14391 8.87735 5.06395 7.31126 3.00875 4.72267C2.63654 5.37654 2.4395 6.11545 2.43671 6.86783C2.42321 8.25593 3.12582 9.55305 4.29585 10.3001C3.64599 10.2777 3.00994 10.1065 2.43671 9.79955V9.87105C2.43426 11.8207 3.81292 13.4991 5.72595 13.8754C5.37397 13.958 5.01472 14.0059 4.65337 14.0184C4.38916 14.0301 4.12457 14.0061 3.86681 13.9469C4.41969 15.6208 5.96572 16.766 7.7281 16.8071C6.27711 17.9426 4.49357 18.5706 2.65122 18.5947C2.31594 18.6065 1.98035 18.5826 1.65015 18.5232C3.52999 19.7247 5.71165 20.3693 7.94262 20.3823C15.5222 20.3823 19.598 14.0899 19.598 8.72697V8.22643C20.3589 7.55088 21.0316 6.78209 21.6001 5.93826Z" fill="#39D0D8"/>
</svg>
