<svg width="28" height="28" viewBox="0 0 28 28" fill="none" xmlns="http://www.w3.org/2000/svg">
<path d="M10.894 12.7234L14.0017 9.61701L17.1107 12.726L18.9179 10.9175L14.0017 6L9.08554 10.9162L10.894 12.7234Z" fill="#F3BA2F"/>
<path d="M6 14.0007L7.80784 12.1929L9.61569 14.0007L7.80784 15.8086L6 14.0007Z" fill="#F3BA2F"/>
<path d="M10.894 15.2776L14.0017 18.3853L17.1107 15.2764L18.9192 17.0823L18.9179 17.0836L14.0017 22.0011L9.08554 17.0861L9.08301 17.0836L10.894 15.2776Z" fill="#F3BA2F"/>
<path d="M18.3848 14.0012L20.1926 12.1934L22.0005 14.0012L20.1926 15.8091L18.3848 14.0012Z" fill="#F3BA2F"/>
<path d="M15.8356 13.9998L14.0018 12.1648L12.6457 13.5209L12.489 13.6763L12.168 13.9973L12.1655 13.9998L12.168 14.0036L14.0018 15.8361L15.8356 14.0011L15.8368 13.9998H15.8356Z" fill="#F3BA2F"/>
</svg>
