<svg width="28" height="28" viewBox="0 0 28 28" fill="none" xmlns="http://www.w3.org/2000/svg">
<path d="M21.8466 16.4467C21.8002 16.4002 21.7451 16.3634 21.6845 16.3382C21.6239 16.3131 21.5589 16.3002 21.4933 16.3002C21.4276 16.3002 21.3626 16.3131 21.302 16.3382C21.2414 16.3634 21.1863 16.4002 21.1399 16.4467L19.6599 17.9267V11.1C19.659 10.4372 19.3954 9.80186 18.9267 9.33321C18.4581 8.86456 17.8227 8.60088 17.1599 8.6H13.2599C13.1273 8.6 13.0001 8.65268 12.9064 8.74645C12.8126 8.84022 12.7599 8.96739 12.7599 9.1C12.7599 9.23261 12.8126 9.35979 12.9064 9.45356C13.0001 9.54732 13.1273 9.6 13.2599 9.6H17.1599C17.9866 9.6 18.6599 10.2733 18.6599 11.1V17.9267L17.1799 16.4467C17.0862 16.353 16.9591 16.3003 16.8266 16.3003C16.6941 16.3003 16.567 16.353 16.4733 16.4467C16.3796 16.5404 16.3269 16.6675 16.3269 16.8C16.3269 16.9325 16.3796 17.0596 16.4733 17.1533L18.8066 19.4867C18.9033 19.5847 19.0313 19.6333 19.1599 19.6333C19.2886 19.6333 19.4153 19.5853 19.5133 19.4867L21.8466 17.1533C21.8932 17.107 21.9302 17.052 21.9554 16.9914C21.9807 16.9307 21.9937 16.8657 21.9937 16.8C21.9937 16.7343 21.9807 16.6693 21.9554 16.6086C21.9302 16.548 21.8932 16.493 21.8466 16.4467ZM14.7399 18.6333H10.8399C10.0133 18.6333 9.33993 17.96 9.33993 17.1333V10.3067L10.8199 11.7867C10.9139 11.8804 11.0412 11.933 11.1739 11.933C11.3066 11.933 11.434 11.8804 11.5279 11.7867C11.5744 11.7403 11.6112 11.6852 11.6364 11.6246C11.6615 11.564 11.6744 11.499 11.6744 11.4333C11.6744 11.3677 11.6615 11.3027 11.6364 11.2421C11.6112 11.1815 11.5744 11.1264 11.5279 11.08L9.19459 8.74667C9.14831 8.70007 9.09326 8.66308 9.03262 8.63784C8.97198 8.6126 8.90694 8.59961 8.84126 8.59961C8.77558 8.59961 8.71054 8.6126 8.6499 8.63784C8.58926 8.66308 8.53422 8.70007 8.48793 8.74667L6.1546 11.08C6.10819 11.1264 6.07139 11.1815 6.04628 11.2421C6.02116 11.3027 6.00824 11.3677 6.00824 11.4333C6.00824 11.499 6.02116 11.5639 6.04628 11.6246C6.07139 11.6852 6.10819 11.7403 6.1546 11.7867C6.201 11.8331 6.25608 11.8699 6.31671 11.895C6.37733 11.9201 6.44231 11.933 6.50793 11.933C6.57355 11.933 6.63853 11.9201 6.69915 11.895C6.75978 11.8699 6.81486 11.8331 6.86126 11.7867L8.34126 10.3067V17.1333C8.34214 17.7961 8.60582 18.4315 9.07447 18.9001C9.54312 19.3688 10.1785 19.6325 10.8413 19.6333H14.7413C14.8739 19.6333 15.001 19.5807 15.0948 19.4869C15.1886 19.3931 15.2413 19.2659 15.2413 19.1333C15.2413 19.0007 15.1886 18.8736 15.0948 18.7798C15.001 18.686 14.8739 18.6333 14.7413 18.6333H14.7399Z" fill="#39D0D8"/>
</svg>
