<svg width="28" height="28" viewBox="0 0 28 28" fill="none" xmlns="http://www.w3.org/2000/svg">
<path fill-rule="evenodd" clip-rule="evenodd" d="M20.4 9.95892C19.9078 10.2012 19.3738 10.3468 18.8269 10.388C19.4081 10.0547 19.8359 9.50714 20.0186 8.8625C19.4893 9.18224 18.9087 9.40803 18.3025 9.52989C17.5364 8.71701 16.3527 8.45243 15.3134 8.86182C14.2742 9.27121 13.5889 10.2721 13.5831 11.389C13.5831 11.6274 13.6308 11.8181 13.6308 12.0087C11.4292 11.9183 9.37585 10.8743 8.00571 9.14853C7.75757 9.58444 7.62621 10.077 7.62435 10.5786C7.61535 11.504 8.08376 12.3688 8.86377 12.8668C8.43054 12.8519 8.0065 12.7377 7.62435 12.5331V12.5808C7.62272 13.8806 8.54183 14.9995 9.81718 15.2503C9.58253 15.3054 9.34302 15.3374 9.10213 15.3457C8.92599 15.3535 8.74959 15.3375 8.57775 15.298C8.94634 16.4139 9.97702 17.1774 11.1519 17.2048C10.1846 17.9618 8.99559 18.3805 7.76736 18.3966C7.54384 18.4044 7.32011 18.3884 7.09998 18.3489C8.3532 19.1499 9.80764 19.5796 11.295 19.5883C16.348 19.5883 19.0652 15.3933 19.0652 11.8181V11.4844C19.5725 11.034 20.0209 10.5215 20.4 9.95892Z" fill="#39d0d8"/>
</svg>
