<svg width="24" height="24" viewBox="0 0 24 24" fill="none" xmlns="http://www.w3.org/2000/svg">
<path d="M18.4285 16.0714C17.6652 16.0714 16.9607 16.3393 16.4089 16.7866L10.8589 12.7714C10.9518 12.2613 10.9518 11.7387 10.8589 11.2286L16.4089 7.21339C16.9607 7.66071 17.6652 7.92857 18.4285 7.92857C20.2018 7.92857 21.6428 6.4875 21.6428 4.71429C21.6428 2.94107 20.2018 1.5 18.4285 1.5C16.6553 1.5 15.2143 2.94107 15.2143 4.71429C15.2143 5.025 15.2571 5.32232 15.3402 5.60625L10.0687 9.42321C9.28658 8.38661 8.04372 7.71429 6.64283 7.71429C4.27497 7.71429 2.35712 9.63214 2.35712 12C2.35712 14.3679 4.27497 16.2857 6.64283 16.2857C8.04372 16.2857 9.28658 15.6134 10.0687 14.5768L15.3402 18.3938C15.2571 18.6777 15.2143 18.9777 15.2143 19.2857C15.2143 21.0589 16.6553 22.5 18.4285 22.5C20.2018 22.5 21.6428 21.0589 21.6428 19.2857C21.6428 17.5125 20.2018 16.0714 18.4285 16.0714ZM18.4285 3.32143C19.1973 3.32143 19.8214 3.94554 19.8214 4.71429C19.8214 5.48304 19.1973 6.10714 18.4285 6.10714C17.6598 6.10714 17.0357 5.48304 17.0357 4.71429C17.0357 3.94554 17.6598 3.32143 18.4285 3.32143ZM6.64283 14.3571C5.34372 14.3571 4.28569 13.2991 4.28569 12C4.28569 10.7009 5.34372 9.64286 6.64283 9.64286C7.94194 9.64286 8.99997 10.7009 8.99997 12C8.99997 13.2991 7.94194 14.3571 6.64283 14.3571ZM18.4285 20.6786C17.6598 20.6786 17.0357 20.0545 17.0357 19.2857C17.0357 18.517 17.6598 17.8929 18.4285 17.8929C19.1973 17.8929 19.8214 18.517 19.8214 19.2857C19.8214 20.0545 19.1973 20.6786 18.4285 20.6786Z" fill="#39d0d8"/>
</svg>
  