<svg width="24" height="24" viewBox="0 0 24 24" fill="none" xmlns="http://www.w3.org/2000/svg">
<path d="M20.9469 1.5C21.8469 1.5 22.4469 2.1 22.4469 3V4.425C22.4469 6.6 21.6219 8.625 20.0469 10.275L17.1969 13.05V18.75C17.1969 18.975 17.1219 19.2 16.8969 19.35L13.1469 22.35C12.9969 22.425 12.8469 22.5 12.6969 22.5C12.6219 22.5 12.5469 22.5 12.3969 22.425C12.1719 22.35 11.9469 22.125 11.9469 21.825L11.1969 16.575L12.6969 16.35L13.2969 20.325L15.7719 18.375V12.75C15.7719 12.525 15.8469 12.375 15.9969 12.225L19.0719 9.225C20.3469 7.875 21.0219 6.225 21.0219 4.425V3H19.5969C17.8719 3 16.0719 3.75 14.8719 4.95L11.7969 8.025C11.5719 8.175 11.4219 8.25 11.1969 8.25H5.57192L3.62192 10.725L7.59692 11.325L7.37192 12.825L2.12192 12.075C1.82192 12 1.59692 11.85 1.52192 11.625C1.44692 11.4 1.44692 11.1 1.59692 10.875L4.59692 7.125C4.74692 6.825 4.97192 6.75 5.19692 6.75H10.8969L13.7469 3.9C15.2469 2.4 17.4219 1.5 19.5219 1.5H20.9469ZM11.3863 11.4998L12.4469 12.5604L6.45425 18.5531L5.39359 17.4925L11.3863 11.4998Z" fill="#39D0D8"/>
</svg>
