<svg width="20" height="21" viewBox="0 0 20 21" fill="none" xmlns="http://www.w3.org/2000/svg">
<path d="M8.55233 9.54541C8.09633 9.54541 7.73633 9.94137 7.73633 10.4244C7.73633 10.9075 8.10433 11.3035 8.55233 11.3035C9.00833 11.3035 9.36833 10.9075 9.36833 10.4244C9.37633 9.94137 9.00833 9.54541 8.55233 9.54541ZM11.4723 9.54541C11.0163 9.54541 10.6563 9.94137 10.6563 10.4244C10.6563 10.9075 11.0243 11.3035 11.4723 11.3035C11.9283 11.3035 12.2883 10.9075 12.2883 10.4244C12.2883 9.94137 11.9283 9.54541 11.4723 9.54541Z" fill="#39D0D8"/>
<path d="M15.36 2.90161H4.64C3.736 2.90161 3 3.63018 3 4.53296V15.2397C3 16.1425 3.736 16.8711 4.64 16.8711H13.712L13.288 15.406L14.312 16.3484L15.28 17.2353L17 18.74V4.53296C17 3.63018 16.264 2.90161 15.36 2.90161ZM12.272 13.2441C12.272 13.2441 11.984 12.9036 11.744 12.6026C12.792 12.3096 13.192 11.6602 13.192 11.6602C12.864 11.8741 12.552 12.0245 12.272 12.1275C11.872 12.2938 11.488 12.4046 11.112 12.468C10.344 12.6105 9.64 12.5709 9.04 12.4601C8.584 12.373 8.192 12.2463 7.864 12.1195C7.68 12.0483 7.48 11.9612 7.28 11.8503C7.256 11.8345 7.232 11.8265 7.208 11.8107C7.192 11.8028 7.184 11.7949 7.176 11.7869C7.032 11.7078 6.952 11.6523 6.952 11.6523C6.952 11.6523 7.336 12.2859 8.352 12.5868C8.112 12.8877 7.816 13.2441 7.816 13.2441C6.048 13.1886 5.376 12.0404 5.376 12.0404C5.376 9.49038 6.528 7.42347 6.528 7.42347C7.68 6.5682 8.776 6.59195 8.776 6.59195L8.856 6.68699C7.416 7.09878 6.752 7.7244 6.752 7.7244C6.752 7.7244 6.928 7.62937 7.224 7.49474C8.08 7.12254 8.76 7.01959 9.04 6.99583C9.088 6.98791 9.128 6.97999 9.176 6.97999C9.664 6.91664 10.216 6.9008 10.792 6.96416C11.552 7.05127 12.368 7.27301 13.2 7.7244C13.2 7.7244 12.568 7.13046 11.208 6.71866L11.32 6.59195C11.32 6.59195 12.416 6.5682 13.568 7.42347C13.568 7.42347 14.72 9.49038 14.72 12.0404C14.72 12.0404 14.04 13.1886 12.272 13.2441Z" fill="#39D0D8"/>
</svg>
