<svg width="24" height="25" viewBox="0 0 24 25" fill="none" xmlns="http://www.w3.org/2000/svg">
<path fill-rule="evenodd" clip-rule="evenodd" d="M5.53117 11.9764L13.5861 8.5068C17.4219 6.91137 18.2189 6.63424 18.7384 6.6251C18.8527 6.62308 19.1082 6.6514 19.2736 6.78568C19.4134 6.89905 19.4518 7.05225 19.4702 7.15971C19.4887 7.26717 19.5115 7.51211 19.4933 7.70346C19.2855 9.88743 18.386 15.1875 17.9285 17.6336C17.7348 18.6687 17.3539 19.0158 16.9846 19.0497C16.1825 19.1235 15.5734 18.5196 14.7965 18.0104L11.7141 15.9399C10.3504 15.0413 11.2344 14.5473 12.0116 13.7402C12.215 13.5288 15.749 10.3144 15.8174 10.0228C15.8257 9.9863 15.8339 9.85039 15.7531 9.77857C15.6724 9.70674 15.5531 9.73161 15.4671 9.75086C15.3452 9.77854 13.4032 11.0621 9.64113 13.6017C9.08989 13.9802 8.59058 14.1647 8.14326 14.155C7.65009 14.1443 6.70145 13.8761 5.99623 13.6469C5.13123 13.3657 4.44375 13.2171 4.50364 12.7396C4.5348 12.4908 4.87731 12.2365 5.53115 11.9765L5.53117 11.9764Z" fill="#39D0D8"/>
</svg>
