<svg t="1626753095382" class="icon" viewBox="0 0 1024 1024" version="1.1" xmlns="http://www.w3.org/2000/svg" p-id="1192" width="32" height="32"><path d="M730.47792 491.709885c0 0 129.105427-229.116211-244.296959-108.85829 46.810119-36.676317 39.247886-111.410416 2.514263-137.952932-136.705522-98.743932-470.802716 216.430284-470.802716 403.764903 0 113.905236 122.752742 262.011412 402.478608 262.011412 351.906815 0 461.994096-192.401008 461.994096-286.039665C882.365212 495.491001 730.47792 491.709885 730.47792 491.709885zM431.944709 861.389482c-163.92035 15.276938-305.192887-62.470797-315.500651-173.688831-10.422374-111.180172 114.058732-213.704197 278.017968-228.962715 163.92035-15.257495 305.192887 62.470797 315.53749 173.669388C720.345142 743.606938 595.902922 846.131987 431.944709 861.389482z" p-id="1193" fill="#39d0d8"></path><path d="M374.060371 538.980491c-88.763626 15.027252-150.274562 88.87926-137.377834 164.860768 12.858866 76.020394 95.212502 125.477806 183.976128 110.469997 88.724741-15.027252 150.2367-88.820931 137.377834-164.860768C545.138748 573.431118 462.823997 523.991102 374.060371 538.980491zM358.63096 755.832378c-28.67304 7.869225-57.80759-7.023974-65.080228-33.278941-7.196912-26.331715 10.191106-54.025451 38.826284-61.932538 28.67304-7.907087 57.80759 6.986111 65.041342 33.278941C404.653133 720.192669 387.302977 747.887428 358.63096 755.832378zM433.095929 671.425989c-14.739702 0-26.696012-11.918447-26.696012-26.65815 0-14.72026 11.95631-26.676569 26.696012-26.676569 14.739702 0 26.657126 11.975752 26.657126 26.676569C459.754079 659.507542 447.835631 671.425989 433.095929 671.425989z" p-id="1194" fill="#39d0d8"></path><path d="M950.689321 207.647247C891.769396 132.318608 797.343817 99.653651 684.878372 115.678626c-18.961864 2.687202-32.166607 20.24816-29.459962 39.228443 2.667759 18.922978 20.171412 32.070416 39.210024 29.421077 111.37153-15.890922 171.040515 27.13808 201.478757 66.059532 39.957037 51.14689 51.243081 124.039038 28.039613 181.327812-7.196912 17.752316 1.343601 37.981033 19.11536 45.159526 4.28049 1.727341 8.655124 2.552126 13.012362 2.552126 13.684674 0 26.657126-8.176217 32.127721-21.649066C1020.643556 378.227274 1005.500671 277.718139 950.689321 207.647247z" p-id="1195" fill="#39d0d8"></path><path d="M718.213595 241.521752c-18.885116 2.705622-32.088836 20.266579-29.383214 39.210024 2.705622 18.942421 20.171412 32.088836 39.210024 29.421077 31.858592-4.568039 56.67479 3.090385 71.567989 22.128997 13.414521 17.196661 17.388019 42.433438 9.749038 61.414745-7.196912 17.752316 1.382487 37.96159 19.11536 45.159526 4.317329 1.727341 8.655124 2.533706 13.012362 2.533706 13.684674 0 26.696012-8.176217 32.127721-21.649066 17.10047-42.145889 9.480932-93.235474-19.384489-130.161479C836.513932 266.893606 795.270599 230.504838 718.213595 241.521752z" p-id="1196" fill="#39d0d8"></path></svg>