<svg width="18" height="19" viewBox="0 0 18 19" fill="none" xmlns="http://www.w3.org/2000/svg">
<g clip-path="url(#clip0)">
<path d="M10.1531 9.48622C10.1531 12.3091 7.88021 14.5975 5.07663 14.5975C2.27305 14.5975 0 12.3086 0 9.48622C0 6.66384 2.27287 4.37476 5.07663 4.37476C7.88038 4.37476 10.1531 6.66333 10.1531 9.48622ZM15.7221 9.48622C15.7221 12.1434 14.5857 14.2983 13.1838 14.2983C11.7819 14.2983 10.6455 12.1434 10.6455 9.48622C10.6455 6.82907 11.7818 4.67417 13.1836 4.67417C14.5855 4.67417 15.722 6.82838 15.722 9.48622H15.7221ZM18 9.48622C18 11.8664 17.6004 13.7971 17.1073 13.7971C16.6142 13.7971 16.2147 11.8669 16.2147 9.48622C16.2147 7.10555 16.6143 5.17538 17.1073 5.17538C17.6002 5.17538 18 7.10538 18 9.48622Z" fill="#39D0D8"/>
</g>
<defs>
<clipPath id="clip0">
<rect width="18" height="18" fill="white" transform="translate(0 0.625)"/>
</clipPath>
</defs>
</svg>
