<svg width="20" height="21" viewBox="0 0 20 21" fill="none" xmlns="http://www.w3.org/2000/svg">
<path fill-rule="evenodd" clip-rule="evenodd" d="M18 5.57371C17.3848 5.87653 16.7173 6.05858 16.0336 6.11C16.7602 5.6934 17.2949 5.00899 17.5233 4.20319C16.8617 4.60286 16.1359 4.8851 15.3781 5.03742C14.4206 4.02132 12.9409 3.69059 11.6418 4.20233C10.3428 4.71408 9.48621 5.96516 9.47894 7.36134C9.47894 7.65928 9.53853 7.89764 9.53853 8.13599C6.78647 8.02295 4.21984 6.71788 2.50717 4.56072C2.19699 5.10561 2.03279 5.72137 2.03047 6.34835C2.01922 7.5051 2.60473 8.58604 3.57975 9.20857C3.0382 9.18995 2.50816 9.04725 2.03047 8.79145V8.85104C2.02843 10.4758 3.17731 11.8744 4.77151 12.188C4.47819 12.2569 4.17881 12.2968 3.87769 12.3071C3.65751 12.3169 3.43702 12.2969 3.22222 12.2475C3.68295 13.6425 4.97131 14.5968 6.43996 14.6311C5.2308 15.5773 3.74452 16.1007 2.20923 16.1208C1.92983 16.1306 1.65017 16.1106 1.375 16.0612C2.94154 17.0624 4.75959 17.5996 6.61873 17.6104C12.935 17.6104 16.3315 12.3667 16.3315 7.89764V7.48052C16.9656 6.91756 17.5262 6.27691 18 5.57371Z" fill="#39D0D8"/>
</svg>
