<?xml version="1.0" standalone="no"?><!DOCTYPE svg PUBLIC "-//W3C//DTD SVG 1.1//EN" "http://www.w3.org/Graphics/SVG/1.1/DTD/svg11.dtd"><svg t="1629256595705" class="icon" viewBox="0 0 1024 1024" version="1.1" xmlns="http://www.w3.org/2000/svg" p-id="3149" xmlns:xlink="http://www.w3.org/1999/xlink" preserveAspectRatio="none"><defs><style type="text/css"></style></defs><path d="M920.34 103.66v255.25q1.2 21.57 15.58 35.95 14.38 14.38 35.95 14.38t35.95-14.38q14.38-14.38 15.58-35.95V52.13q-1.2-21.57-15.58-35.95Q993.44 1.8 971.87 0.6H665.09q-21.57 1.2-35.95 15.58-14.38 14.38-14.38 35.95t14.38 35.95q14.38 14.38 35.95 15.58h255.25zM103.06 665.69q-1.2-21.57-15.58-35.95-14.38-14.38-35.95-14.38t-35.95 14.38Q1.2 644.12 0 665.69v306.78q1.2 21.57 15.58 35.95 14.38 14.38 35.95 15.58h306.78q21.57-1.2 35.95-15.58 14.38-14.38 14.38-35.95t-14.38-35.95q-14.38-14.38-35.95-15.58H103.06V665.69zM935.92 16.18L577.61 374.49q-9.59 9.58-13.19 22.76-3.59 13.19 0 26.37 3.6 13.18 13.19 22.77t22.77 13.19q13.18 3.59 26.36 0 13.19-3.6 22.77-13.19l358.31-358.31q10.79-9.59 14.38-22.77 3.6-13.18 0-26.96-3.59-13.78-13.18-23.37-9.59-9.59-23.37-13.19-13.78-3.59-26.96 0-13.18 3.59-22.77 14.38zM87.48 1008.42l358.31-358.31q14.38-15.58 14.38-35.35 0-19.77-15.58-35.35-15.58-15.58-35.35-15.58-19.77 0-35.35 14.38L15.58 936.52Q1.2 952.1 1.2 972.47q0 20.37 14.98 35.35t35.35 14.98q20.37 0 35.95-14.38z" p-id="3150"></path></svg>