<?xml version="1.0" standalone="no"?><!DOCTYPE svg PUBLIC "-//W3C//DTD SVG 1.1//EN" "http://www.w3.org/Graphics/SVG/1.1/DTD/svg11.dtd"><svg t="1628580119725" class="icon" preserveAspectRatio="none" viewBox="0 0 1024 1024" version="1.1" xmlns="http://www.w3.org/2000/svg" p-id="1382" xmlns:xlink="http://www.w3.org/1999/xlink"><defs><style type="text/css"></style></defs><path d="M236.8 679.1l-70 121.3c-6.9 12 3.3 26.6 17 24.1l92.2-16.6c7.8-1.4 15.5 3 18.2 10.5l31.7 88.2c4.7 13 22.4 14.6 29.4 2.6l64.1-111c-73-19.6-136.5-61.9-182.6-119.1z m549-1.5C740 735.1 676.7 777.7 604 797.8l64.3 111.4c6.9 12 24.7 10.4 29.4-2.6l31.7-88.1c2.7-7.5 10.4-11.9 18.2-10.5l92.2 16.6c13.6 2.5 23.9-12.2 17-24.1l-71-122.9zM510.7 158.4c-165.6 0-300.4 134.8-300.4 300.4 0 63.9 20.2 123.1 54.4 171.9 54.4 77.6 144.3 128.5 246 128.5 165.7 0 300.4-134.8 300.4-300.4S676.4 158.4 510.7 158.4z m89.7 423.7l-88.6-46.6-88.6 46.6 16.9-98.7-71.7-69.9 99.1-14.4 44.3-89.8 44.3 89.8 99.1 14.4-71.7 69.9 16.9 98.7z" p-id="1383" fill="#45eba2"></path></svg>