<svg width="131" height="40" viewBox="0 0 131 40" fill="none" xmlns="http://www.w3.org/2000/svg">
<g clip-path="url(#clip0)">
<path d="M18.1652 32.7634C12.1191 32.7634 7.2168 27.8612 7.2168 21.815C7.2168 15.9323 17.103 5.55589 17.5115 5.14737L18.0018 4.57544L18.492 5.14737C18.9005 5.55589 29.0318 15.9323 29.0318 21.815C29.1135 27.8612 24.2113 32.7634 18.1652 32.7634ZM18.0835 6.69975C17.1847 7.6802 15.3872 9.6411 13.5897 12.0922C10.4033 16.3409 8.68747 19.6907 8.68747 21.815C8.68747 27.0441 12.9361 31.2927 18.1652 31.2927C23.3942 31.2927 27.6429 27.0441 27.6429 21.815C27.6429 19.6907 25.9271 16.3409 22.6589 12.0922C20.8614 9.72281 18.9822 7.6802 18.0835 6.69975Z" fill="url(#paint0_linear)"/>
<path d="M18.1667 36.2764C10.1597 36.2764 3.70508 29.8218 3.70508 21.8148C3.70508 14.0529 14.5717 3.18622 15.062 2.696C15.3888 2.45088 15.7973 2.45088 16.1241 2.696C16.3692 3.02281 16.3692 3.43134 16.1241 3.75815C15.9607 3.83986 5.17575 14.6248 5.17575 21.8148C5.17575 29.0048 10.9768 34.8058 18.1667 34.8058C25.3567 34.8058 31.1577 29.0048 31.1577 21.8148C31.1577 18.8734 29.2785 14.7882 25.6835 10.0494C22.9056 6.37269 20.1276 3.59474 20.1276 3.59474C19.8008 3.34963 19.8008 2.85941 20.1276 2.53259C20.3727 2.20577 20.863 2.20577 21.1898 2.53259C21.68 3.02281 32.7101 14.0529 32.7101 21.8148C32.6284 29.8218 26.1737 36.2764 18.1667 36.2764Z" fill="url(#paint1_linear)"/>
<path d="M18.166 39.7892C8.52492 39.7892 0.599609 31.8638 0.599609 22.2227C0.599609 18.2192 2.64222 13.317 6.56402 7.59768C9.50537 3.43076 12.365 0.407707 12.5284 0.244299C12.7735 -0.0825184 13.2638 -0.0825184 13.5906 0.244299C13.9174 0.489411 13.9174 0.979637 13.5906 1.30645C13.5906 1.30645 10.6492 4.32951 7.78958 8.49643C4.03119 13.8889 2.07029 18.6278 2.07029 22.3044C2.07029 31.2102 9.34196 38.4002 18.166 38.4002C26.9901 38.4002 34.2618 31.0468 34.2618 22.2227C34.2618 18.5461 32.3009 13.8072 28.5425 8.41472C25.6828 4.32951 22.7415 1.30645 22.7415 1.22475C22.4963 0.897933 22.4963 0.489411 22.7415 0.162594C23.0683 -0.0825184 23.4768 -0.0825184 23.8036 0.162594C24.2121 0.734524 35.7324 12.6633 35.7324 22.2227C35.7324 31.8638 27.8888 39.7892 18.166 39.7892Z" fill="url(#paint2_linear)"/>
<path d="M43.3301 25.7368L46.8434 25.4099C47.0885 26.5538 47.497 27.4525 48.1506 28.0245C48.8043 28.5964 49.703 28.8415 50.7652 28.8415C51.909 28.8415 52.8078 28.5964 53.3797 28.1062C53.9516 27.616 54.2784 27.044 54.2784 26.3904C54.2784 25.9819 54.115 25.5733 53.8699 25.3282C53.6248 25.0014 53.2163 24.7563 52.5627 24.5929C52.1541 24.4295 51.1737 24.1844 49.703 23.7759C47.7421 23.2856 46.4348 22.7137 45.6178 21.9784C44.5556 20.9979 43.9837 19.7723 43.9837 18.3834C43.9837 17.4846 44.2288 16.5859 44.7191 15.8505C45.2093 15.1152 45.9446 14.4616 46.9251 14.053C47.9055 13.6445 49.0494 13.3994 50.4383 13.3994C52.7261 13.3994 54.3602 13.8896 55.504 14.8701C56.6479 15.8505 57.2198 17.1578 57.3015 18.7919L53.7065 18.9553C53.5431 18.0566 53.2163 17.4029 52.7261 16.9944C52.2358 16.5859 51.5005 16.3408 50.4383 16.3408C49.3762 16.3408 48.5592 16.5859 47.9872 16.9944C47.5787 17.2395 47.4153 17.648 47.4153 18.1383C47.4153 18.5468 47.5787 18.9553 47.9872 19.2004C48.4774 19.6089 49.5396 20.0175 51.3371 20.426C53.1346 20.8345 54.3602 21.243 55.2589 21.7332C56.0759 22.1418 56.7296 22.7954 57.2198 23.5307C57.71 24.2661 57.9551 25.2465 57.9551 26.3904C57.9551 27.4525 57.71 28.3513 57.1381 29.25C56.5662 30.1488 55.7491 30.8024 54.687 31.2109C53.6248 31.6195 52.3175 31.8646 50.7652 31.8646C48.4774 31.8646 46.7617 31.3743 45.5361 30.3122C44.3105 29.25 43.5752 27.7794 43.3301 25.7368Z" fill="white"/>
<path d="M60.8965 31.6192V13.6443H74.1326V16.6673H64.4915V20.6709H73.4789V23.6939H64.4915V28.5962H74.4594V31.6192H60.8965Z" fill="white"/>
<path d="M77.6465 31.6192V13.6443H85.245C87.1242 13.6443 88.5131 13.8077 89.4119 14.1345C90.3106 14.4613 90.9643 15.0333 91.4545 15.8503C91.9447 16.6673 92.2715 17.6478 92.2715 18.7099C92.2715 20.0172 91.863 21.1611 91.046 22.0598C90.2289 22.9586 89.0851 23.4488 87.5327 23.6939C88.3497 24.1841 88.9217 24.6744 89.4936 25.1646C89.9838 25.7365 90.7192 26.717 91.5362 28.1059L93.7422 31.6192H89.4119L86.7974 27.6974C85.8986 26.3084 85.245 25.4097 84.9182 25.0829C84.5913 24.7561 84.1828 24.511 83.856 24.3475C83.4475 24.1841 82.8756 24.1841 82.0585 24.1841H81.3232V31.6192H77.6465ZM81.2415 21.2428H83.9377C85.6535 21.2428 86.7157 21.1611 87.2059 20.9977C87.6144 20.8343 87.9412 20.5891 88.1863 20.2623C88.4314 19.9355 88.5131 19.4453 88.5131 18.9551C88.5131 18.3831 88.3497 17.8929 88.0229 17.4844C87.6961 17.0759 87.2876 16.9125 86.634 16.749C86.3071 16.749 85.4901 16.6673 84.0194 16.6673H81.1598L81.2415 21.2428Z" fill="white"/>
<path d="M95.6211 13.6443H99.2161V23.3671C99.2161 24.9195 99.2978 25.8999 99.3795 26.3901C99.5429 27.1255 99.8697 27.6974 100.523 28.1876C101.095 28.5962 101.912 28.8413 102.893 28.8413C103.955 28.8413 104.69 28.5962 105.18 28.1876C105.671 27.7791 105.998 27.2889 106.161 26.6353C106.243 26.0633 106.324 25.0012 106.324 23.6122V13.6443H109.919V23.0403C109.919 25.1646 109.838 26.717 109.593 27.6157C109.429 28.5145 109.021 29.2498 108.53 29.9034C108.04 30.4754 107.305 30.9656 106.406 31.3741C105.507 31.7826 104.363 31.946 102.974 31.946C101.259 31.946 99.9514 31.7826 99.0527 31.3741C98.1539 30.9656 97.5003 30.4754 96.9284 29.8217C96.4381 29.1681 96.1113 28.5145 95.9479 27.8608C95.7028 26.7987 95.6211 25.328 95.6211 23.2854V13.6443Z" fill="white"/>
<path d="M113.678 31.6192V13.6443H119.07L122.338 25.8182L125.525 13.6443H130.917V31.5375H127.567V17.4844L124.054 31.6192H120.541L117.028 17.4844V31.6192H113.678Z" fill="white"/>
</g>
<defs>
<linearGradient id="paint0_linear" x1="18.1248" y1="32.7634" x2="18.1248" y2="4.606" gradientUnits="userSpaceOnUse">
<stop stop-color="#05AAC5"/>
<stop offset="1" stop-color="#71E0EC"/>
</linearGradient>
<linearGradient id="paint1_linear" x1="18.2076" y1="36.2764" x2="18.2076" y2="2.3454" gradientUnits="userSpaceOnUse">
<stop stop-color="#05AAC5"/>
<stop offset="1" stop-color="#71E0EC"/>
</linearGradient>
<linearGradient id="paint2_linear" x1="18.166" y1="39.7892" x2="18.166" y2="0.0189585" gradientUnits="userSpaceOnUse">
<stop stop-color="#05AAC5"/>
<stop offset="1" stop-color="#71E0EC"/>
</linearGradient>
<clipPath id="clip0">
<rect width="130.4" height="39.79" fill="white" transform="translate(0.599609)"/>
</clipPath>
</defs>
</svg>
