<svg width="107" height="33" viewBox="0 0 107 33" fill="none" xmlns="http://www.w3.org/2000/svg">
<g clip-path="url(#clip0)">
<path d="M15.1338 27.214C10.2214 27.214 6.23828 23.2309 6.23828 18.3185C6.23828 13.5388 14.2708 5.1079 14.6028 4.77597L15.0011 4.31128L15.3994 4.77597C15.7313 5.1079 23.963 13.5388 23.963 18.3185C24.0294 23.2309 20.0463 27.214 15.1338 27.214ZM15.0674 6.03728C14.3372 6.8339 12.8768 8.42713 11.4163 10.4187C8.82728 13.8707 7.43321 16.5924 7.43321 18.3185C7.43321 22.5671 10.8852 26.0191 15.1338 26.0191C19.3825 26.0191 22.8345 22.5671 22.8345 18.3185C22.8345 16.5924 21.4404 13.8707 18.785 10.4187C17.3245 8.49352 15.7977 6.8339 15.0674 6.03728Z" fill="url(#paint0_linear)"/>
<path d="M15.1349 30.0684C8.62916 30.0684 3.38477 24.824 3.38477 18.3183C3.38477 12.0118 12.2139 3.18262 12.6122 2.78432C12.8778 2.58516 13.2097 2.58516 13.4752 2.78432C13.6744 3.04985 13.6744 3.38178 13.4752 3.64732C13.3425 3.7137 4.57969 12.4765 4.57969 18.3183C4.57969 24.1602 9.293 28.8735 15.1349 28.8735C20.9767 28.8735 25.69 24.1602 25.69 18.3183C25.69 15.9285 24.1632 12.6093 21.2423 8.75894C18.9852 5.77163 16.7281 3.51455 16.7281 3.51455C16.4626 3.31539 16.4626 2.91709 16.7281 2.65155C16.9272 2.38601 17.3256 2.38601 17.5911 2.65155C17.9894 3.04985 26.9513 12.0118 26.9513 18.3183C26.885 24.824 21.6406 30.0684 15.1349 30.0684Z" fill="url(#paint1_linear)"/>
<path d="M15.134 32.9229C7.30064 32.9229 0.861328 26.4835 0.861328 18.6501C0.861328 15.3973 2.52095 11.4142 5.70741 6.76728C8.09726 3.38166 10.4207 0.925424 10.5535 0.792655C10.7526 0.527116 11.151 0.527116 11.4165 0.792655C11.682 0.991809 11.682 1.39012 11.4165 1.65566C11.4165 1.65566 9.02665 4.11189 6.70318 7.49751C3.64949 11.8789 2.05625 15.7292 2.05625 18.7165C2.05625 25.9525 7.96449 31.7943 15.134 31.7943C22.3036 31.7943 28.2118 25.8197 28.2118 18.6501C28.2118 15.6628 26.6186 11.8125 23.5649 7.43112C21.2414 4.11189 18.8516 1.65566 18.8516 1.58927C18.6524 1.32373 18.6524 0.991809 18.8516 0.72627C19.1171 0.527116 19.449 0.527116 19.7146 0.72627C20.0465 1.19096 29.4067 10.8831 29.4067 18.6501C29.4067 26.4835 23.0338 32.9229 15.134 32.9229Z" fill="url(#paint2_linear)"/>
<path d="M35.5801 21.5048L38.4346 21.2393C38.6338 22.1687 38.9657 22.8989 39.4968 23.3636C40.0279 23.8283 40.7581 24.0274 41.6211 24.0274C42.5505 24.0274 43.2807 23.8283 43.7454 23.43C44.2101 23.0317 44.4756 22.567 44.4756 22.0359C44.4756 21.704 44.3429 21.372 44.1437 21.1729C43.9445 20.9073 43.6126 20.7082 43.0815 20.5754C42.7496 20.4426 41.953 20.2435 40.7581 19.9116C39.1649 19.5133 38.1027 19.0486 37.4388 18.4511C36.5758 17.6545 36.1112 16.6587 36.1112 15.5302C36.1112 14.7999 36.3103 14.0697 36.7086 13.4723C37.1069 12.8748 37.7044 12.3437 38.501 12.0118C39.2976 11.6799 40.227 11.4807 41.3555 11.4807C43.2143 11.4807 44.542 11.879 45.4714 12.6756C46.4008 13.4723 46.8655 14.5344 46.9319 15.8621L44.0109 15.9949C43.8782 15.2646 43.6126 14.7336 43.2143 14.4016C42.816 14.0697 42.2185 13.8706 41.3555 13.8706C40.4925 13.8706 39.8287 14.0697 39.364 14.4016C39.0321 14.6008 38.8993 14.9327 38.8993 15.331C38.8993 15.663 39.0321 15.9949 39.364 16.194C39.7623 16.526 40.6253 16.8579 42.0858 17.1898C43.5462 17.5217 44.542 17.8536 45.2722 18.252C45.9361 18.5839 46.4672 19.115 46.8655 19.7124C47.2638 20.3099 47.4629 21.1065 47.4629 22.0359C47.4629 22.8989 47.2638 23.6291 46.7991 24.3593C46.3344 25.0896 45.6706 25.6207 44.8076 25.9526C43.9445 26.2845 42.8824 26.4837 41.6211 26.4837C39.7623 26.4837 38.3682 26.0853 37.3725 25.2223C36.3767 24.3593 35.7792 23.1644 35.5801 21.5048Z" fill="white"/>
<path d="M49.8535 26.2843V11.6797H60.6078V14.1359H52.7744V17.3888H60.0768V19.845H52.7744V23.8281H60.8734V26.2843H49.8535Z" fill="white"/>
<path d="M63.4629 26.2843V11.6797H69.6367C71.1635 11.6797 72.2921 11.8125 73.0223 12.078C73.7525 12.3435 74.2836 12.8082 74.6819 13.4721C75.0802 14.1359 75.3457 14.9325 75.3457 15.7955C75.3457 16.8577 75.0138 17.7871 74.35 18.5173C73.6861 19.2475 72.7567 19.6459 71.4954 19.845C72.1593 20.2433 72.624 20.6416 73.0887 21.0399C73.487 21.5046 74.0844 22.3012 74.7483 23.4298L76.5407 26.2843H73.0223L70.898 23.0979C70.1677 21.9693 69.6367 21.2391 69.3711 20.9735C69.1056 20.708 68.7737 20.5089 68.5081 20.3761C68.1762 20.2433 67.7115 20.2433 67.0477 20.2433H66.4502V26.2843H63.4629ZM66.3838 17.8535H68.5745C69.9686 17.8535 70.8316 17.7871 71.2299 17.6543C71.5618 17.5215 71.8274 17.3224 72.0265 17.0568C72.2257 16.7913 72.2921 16.393 72.2921 15.9947C72.2921 15.53 72.1593 15.1317 71.8937 14.7998C71.6282 14.4678 71.2963 14.3351 70.7652 14.2023C70.4997 14.2023 69.8358 14.1359 68.6409 14.1359H66.3174L66.3838 17.8535Z" fill="white"/>
<path d="M78.0664 11.6797H80.9873V19.5795C80.9873 20.8408 81.0537 21.6374 81.1201 22.0357C81.2529 22.6332 81.5184 23.0979 82.0495 23.4962C82.5142 23.8281 83.178 24.0272 83.9746 24.0272C84.8376 24.0272 85.4351 23.8281 85.8334 23.4962C86.2317 23.1642 86.4973 22.7659 86.63 22.2349C86.6964 21.7702 86.7628 20.9072 86.7628 19.7786V11.6797H89.6837V19.3139C89.6837 21.0399 89.6173 22.3012 89.4182 23.0315C89.2854 23.7617 88.9535 24.3592 88.5552 24.8902C88.1569 25.3549 87.5594 25.7532 86.8292 26.0852C86.099 26.4171 85.1696 26.5499 84.041 26.5499C82.647 26.5499 81.5848 26.4171 80.8546 26.0852C80.1243 25.7532 79.5933 25.3549 79.1286 24.8239C78.7303 24.2928 78.4647 23.7617 78.3319 23.2306C78.1328 22.3676 78.0664 21.1727 78.0664 19.5131V11.6797Z" fill="white"/>
<path d="M92.7383 26.2843V11.6797H97.1197L99.7751 21.571L102.364 11.6797H106.745V26.2179H104.024V14.7998L101.169 26.2843H98.3146L95.4601 14.7998V26.2843H92.7383Z" fill="white"/>
</g>
<defs>
<linearGradient id="paint0_linear" x1="15.101" y1="27.214" x2="15.101" y2="4.33611" gradientUnits="userSpaceOnUse">
<stop stop-color="#05AAC5"/>
<stop offset="1" stop-color="#71E0EC"/>
</linearGradient>
<linearGradient id="paint1_linear" x1="15.1681" y1="30.0684" x2="15.1681" y2="2.49946" gradientUnits="userSpaceOnUse">
<stop stop-color="#05AAC5"/>
<stop offset="1" stop-color="#71E0EC"/>
</linearGradient>
<linearGradient id="paint2_linear" x1="15.134" y1="32.9229" x2="15.134" y2="0.609566" gradientUnits="userSpaceOnUse">
<stop stop-color="#05AAC5"/>
<stop offset="1" stop-color="#71E0EC"/>
</linearGradient>
<clipPath id="clip0">
<rect width="105.95" height="32.3293" fill="white" transform="translate(0.861328 0.59375)"/>
</clipPath>
</defs>
</svg>
