<svg width="140" height="27" viewBox="0 0 140 27" fill="none" xmlns="http://www.w3.org/2000/svg">
<path d="M47.4686 14.3219H52.733C53.4723 14.3219 54.0718 14.9258 54.0718 15.6708C54.0718 16.4158 53.4723 17.0198 52.733 17.0198H46.3833C46.2842 17.0198 46.1883 17.0555 46.113 17.1204L44.1958 18.773C43.9023 19.0259 44.0799 19.5102 44.4661 19.5102H52.415C52.4182 19.5102 52.4207 19.5076 52.4207 19.5043C52.4207 19.5008 52.4239 19.498 52.4271 19.4983C52.5274 19.5062 52.6282 19.5102 52.7304 19.5102C54.8392 19.5102 56.5484 17.7913 56.5484 15.6708C56.5484 13.6572 55.0072 12.0056 53.0458 11.8444C53.0426 11.8441 53.0401 11.8413 53.0401 11.8379C53.0401 11.8343 53.0375 11.8314 53.0337 11.8314H47.3623C46.6228 11.8314 46.0233 11.2275 46.0233 10.4825C46.0233 9.73744 46.6228 9.13346 47.3623 9.13346H53.7034C53.8075 9.13346 53.9084 9.09394 53.985 9.02268L55.765 7.37008C56.044 7.11157 55.8621 6.64307 55.4834 6.64307H47.4686C47.4682 6.64307 47.468 6.64339 47.468 6.64377C47.468 6.64415 47.4677 6.64441 47.4673 6.64441C47.4332 6.64351 47.399 6.64307 47.3648 6.64307C45.2562 6.64307 43.5469 8.362 43.5469 10.4825C43.5469 12.6029 45.2562 14.3219 47.3648 14.3219C47.399 14.3219 47.4332 14.3214 47.4673 14.3205C47.4677 14.3205 47.468 14.3208 47.468 14.3212C47.468 14.3215 47.4682 14.3219 47.4686 14.3219Z" fill="white"/>
<path d="M78.1318 6.64307C77.9013 6.64307 77.7148 6.83065 77.7148 7.06203V19.0913C77.7148 19.3227 77.9013 19.5102 78.1318 19.5102H87.7713C87.8862 19.5102 87.9966 19.4623 88.0752 19.3779L89.2819 18.0839C89.5315 17.8164 89.3425 17.3785 88.978 17.3785H80.5611C80.3313 17.3785 80.1448 17.1909 80.1448 16.9595V7.06203C80.1448 6.83065 79.9578 6.64307 79.7279 6.64307H78.1318Z" fill="white"/>
<path fill-rule="evenodd" clip-rule="evenodd" d="M62.6914 6.64307C62.6908 6.64307 62.6901 6.64358 62.6901 6.64422C62.6901 6.64479 62.6895 6.6453 62.6889 6.6453C61.4566 6.69868 60.4677 7.69015 60.414 8.92487C60.414 8.92544 60.4134 8.92595 60.4134 8.92595C60.4127 8.92595 60.4127 8.92608 60.4121 8.92634C60.4121 8.92653 60.4121 8.92678 60.4121 8.9271V17.0187C60.4121 17.0193 60.4127 17.0198 60.4127 17.0198C60.4134 17.0198 60.414 17.0203 60.414 17.021C60.4127 17.055 60.4121 17.0892 60.4121 17.1236C60.4121 18.4066 61.4222 19.4531 62.6889 19.508C62.6895 19.508 62.6901 19.5085 62.6901 19.5091V19.5096V19.5099C62.6908 19.5101 62.6908 19.5102 62.6914 19.5102H71.4377C71.4384 19.5102 71.439 19.5097 71.439 19.5091L71.4396 19.5085V19.5081L71.4403 19.508C72.707 19.4531 73.717 18.4066 73.717 17.1236C73.717 17.0892 73.7164 17.055 73.7151 17.021C73.7151 17.0203 73.7158 17.0198 73.7164 17.0198C73.7164 17.0198 73.717 17.0193 73.717 17.0187V8.9271C73.717 8.92647 73.7164 8.92595 73.7158 8.92595C73.7151 8.92595 73.7151 8.92544 73.7151 8.92487C73.6615 7.69015 72.6725 6.69868 71.4403 6.6453C71.4396 6.6453 71.439 6.64479 71.439 6.64422C71.439 6.64358 71.4384 6.64307 71.4377 6.64307H62.6914ZM64.3214 8.92595L64.3208 8.92621V8.92666C64.3208 8.92704 64.3208 8.92736 64.3201 8.92736C63.5502 8.96094 62.9315 9.58459 62.8983 10.3613C62.8983 10.3617 62.8983 10.362 62.8976 10.362C62.8976 10.362 62.897 10.3623 62.897 10.3627V15.4526C62.897 15.453 62.8976 15.4533 62.8976 15.4533C62.8983 15.4533 62.8983 15.4536 62.8983 15.454C62.8976 15.4754 62.897 15.4969 62.897 15.5185C62.897 16.3256 63.5285 16.9839 64.3201 17.0184C64.3208 17.0184 64.3208 17.0187 64.3208 17.0191V17.0195L64.3214 17.0197V17.0198H69.8077V17.0198L69.8084 17.0194V17.0191C69.8084 17.0187 69.8084 17.0184 69.809 17.0184C70.6007 16.9839 71.2321 16.3256 71.2321 15.5185C71.2321 15.4969 71.2315 15.4754 71.2309 15.454V15.4538V15.4536L71.2315 15.4533C71.2315 15.4533 71.2321 15.453 71.2321 15.4526V10.3627C71.2321 10.3623 71.2315 10.362 71.2315 10.362C71.2309 10.362 71.2309 10.3617 71.2309 10.3613C71.1977 9.58459 70.579 8.96094 69.809 8.92736C69.8084 8.92736 69.8084 8.92704 69.8084 8.92666V8.92634L69.8077 8.92608V8.92595H64.3214Z" fill="white"/>
<path fill-rule="evenodd" clip-rule="evenodd" d="M103.299 19.0913C103.299 19.3227 103.484 19.5102 103.712 19.5102H105.347C105.575 19.5102 105.76 19.3227 105.76 19.0913V9.13454C105.76 9.13397 105.759 9.13346 105.759 9.13346V9.13333L105.758 9.1332C105.758 9.13301 105.758 9.13269 105.758 9.13237C105.759 9.09834 105.76 9.06412 105.76 9.0297C105.76 7.74671 104.759 6.70021 103.505 6.6453C103.504 6.6453 103.503 6.64479 103.503 6.64422C103.503 6.64358 103.503 6.64307 103.502 6.64307H95.1051C95.1045 6.64307 95.1039 6.64358 95.1039 6.64415C95.1039 6.64479 95.1032 6.64524 95.1026 6.64524C95.0694 6.64377 95.0355 6.64307 95.0017 6.64307C93.6986 6.64307 92.6426 7.7116 92.6426 9.0297C92.6426 9.06412 92.6432 9.09834 92.6445 9.13237C92.6445 9.13294 92.6445 9.13346 92.6439 9.13346C92.6432 9.13346 92.6426 9.13397 92.6426 9.13454V19.0913C92.6426 19.3227 92.8277 19.5102 93.0557 19.5102H94.6908C94.9187 19.5102 95.1039 19.3227 95.1039 19.0913V14.9483C95.1039 14.7169 95.289 14.5294 95.5176 14.5294H102.885C103.113 14.5294 103.299 14.7169 103.299 14.9483V19.0913ZM95.1039 12.2426V10.1712C95.1039 9.36886 95.7468 8.71839 96.5398 8.71839H101.863C102.656 8.71839 103.299 9.36886 103.299 10.1712V12.2426C103.299 12.474 103.113 12.6616 102.885 12.6616H95.5176C95.289 12.6616 95.1039 12.474 95.1039 12.2426Z" fill="white"/>
<path fill-rule="evenodd" clip-rule="evenodd" d="M137.808 19.5102C137.577 19.5102 137.39 19.3227 137.39 19.0913V14.9483C137.39 14.7169 137.204 14.5294 136.973 14.5294H129.524C129.293 14.5294 129.107 14.7169 129.107 14.9483V19.0913C129.107 19.3227 128.92 19.5102 128.689 19.5102H127.039C126.808 19.5102 126.621 19.3227 126.621 19.0913V9.13454V9.13429L126.622 9.1339C126.622 9.13365 126.622 9.13346 126.622 9.13346C126.623 9.13346 126.624 9.13294 126.624 9.13237C126.622 9.09834 126.621 9.06412 126.621 9.0297C126.621 7.7116 127.687 6.64307 129.003 6.64307C129.037 6.64307 129.072 6.64377 129.105 6.64524C129.106 6.64524 129.107 6.64479 129.107 6.64415C129.107 6.64358 129.107 6.64307 129.107 6.64307H137.596C137.597 6.64307 137.598 6.64358 137.598 6.64422C137.598 6.64479 137.598 6.6453 137.598 6.6453C138.865 6.70021 139.876 7.74671 139.876 9.0297C139.876 9.06412 139.874 9.09834 139.873 9.13237C139.873 9.13294 139.874 9.13346 139.874 9.13346C139.874 9.13346 139.875 9.13358 139.875 9.13384C139.875 9.13403 139.876 9.13428 139.876 9.13454V19.0913C139.876 19.3227 139.689 19.5102 139.458 19.5102H137.808ZM129.107 10.1712V12.2426C129.107 12.474 129.293 12.6616 129.524 12.6616H136.973C137.204 12.6616 137.39 12.474 137.39 12.2426V10.1712C137.39 9.36886 136.741 8.71839 135.941 8.71839H130.556C129.755 8.71839 129.107 9.36886 129.107 10.1712Z" fill="white"/>
<path d="M111.912 6.64307C112.033 6.64307 112.148 6.69683 112.227 6.79017L119.559 15.5306C119.808 15.827 120.287 15.6483 120.287 15.2588V7.06203C120.287 6.83065 120.471 6.64307 120.7 6.64307H122.335C122.563 6.64307 122.748 6.83065 122.748 7.06203V19.0913C122.748 19.3227 122.563 19.5102 122.335 19.5102H120.302C120.293 19.5102 120.287 19.5032 120.287 19.4946C120.287 19.4908 120.285 19.4872 120.283 19.4843L112.828 10.8048C112.576 10.5132 112.103 10.6933 112.103 11.0803V19.0913C112.103 19.3227 111.918 19.5102 111.69 19.5102H110.044C109.816 19.5102 109.631 19.3227 109.631 19.0913V7.06203C109.631 6.83065 109.816 6.64307 110.044 6.64307H111.912Z" fill="white"/>
<path d="M5.53946 19.9524C5.74332 19.7487 6.01971 19.6343 6.30792 19.6343H32.8973C33.3817 19.6343 33.6242 20.22 33.2815 20.5623L28.0275 25.8122C27.8237 26.0159 27.5473 26.1303 27.2591 26.1303H0.669648C0.18531 26.1303 -0.0571786 25.5446 0.285421 25.2022L5.53946 19.9524Z" fill="url(#paint0_linear)"/>
<path d="M5.53946 0.340119C5.74332 0.136385 6.01971 0.0219727 6.30792 0.0219727H32.8973C33.3817 0.0219727 33.6242 0.607699 33.2815 0.950107L28.0275 6.19993C27.8237 6.4036 27.5473 6.51801 27.2591 6.51801H0.669648C0.18531 6.51801 -0.0571786 5.93229 0.285421 5.58994L5.53946 0.340119Z" fill="url(#paint1_linear)"/>
<path d="M28.0275 10.0842C27.8237 9.88053 27.5473 9.76611 27.2591 9.76611H0.669648C0.18531 9.76611 -0.0571786 10.3518 0.285421 10.6942L5.53946 15.944C5.74332 16.1477 6.01971 16.2622 6.30792 16.2622H32.8973C33.3817 16.2622 33.6242 15.6764 33.2815 15.334L28.0275 10.0842Z" fill="url(#paint2_linear)"/>
<defs>
<linearGradient id="paint0_linear" x1="22.6493" y1="-7.14065" x2="4.24708" y2="28.1069" gradientUnits="userSpaceOnUse">
<stop stop-color="#00FFA3"/>
<stop offset="1" stop-color="#DC1FFF"/>
</linearGradient>
<linearGradient id="paint1_linear" x1="22.6493" y1="-7.13988" x2="4.24709" y2="28.1076" gradientUnits="userSpaceOnUse">
<stop stop-color="#00FFA3"/>
<stop offset="1" stop-color="#DC1FFF"/>
</linearGradient>
<linearGradient id="paint2_linear" x1="22.6493" y1="-7.13983" x2="4.24709" y2="28.1077" gradientUnits="userSpaceOnUse">
<stop stop-color="#00FFA3"/>
<stop offset="1" stop-color="#DC1FFF"/>
</linearGradient>
</defs>
</svg>
