<svg width="172" height="33" viewBox="0 0 172 33" fill="none" xmlns="http://www.w3.org/2000/svg">
<path d="M58.2692 17.7422H64.7483C65.6583 17.7422 66.3962 18.4855 66.3962 19.4024C66.3962 20.3194 65.6583 21.0628 64.7483 21.0628H56.9334C56.8114 21.0628 56.6934 21.1067 56.6007 21.1866L54.2411 23.2205C53.8798 23.5318 54.0984 24.1279 54.5738 24.1279H64.357C64.3609 24.1279 64.3641 24.1246 64.3641 24.1206C64.3641 24.1162 64.368 24.1128 64.3719 24.1132C64.4953 24.1229 64.6195 24.1279 64.7452 24.1279C67.3407 24.1279 69.4443 22.0122 69.4443 19.4024C69.4443 16.9242 67.5473 14.8915 65.1334 14.693C65.1294 14.6927 65.1263 14.6892 65.1263 14.685C65.1263 14.6806 65.1232 14.677 65.1184 14.677H58.1383C57.2281 14.677 56.4903 13.9337 56.4903 13.0168C56.4903 12.0998 57.2281 11.3565 58.1383 11.3565H65.9427C66.0708 11.3565 66.195 11.3078 66.2893 11.2201L68.4801 9.18617C68.8235 8.868 68.5995 8.29138 68.1336 8.29138H58.2692C58.2687 8.29138 58.2684 8.29177 58.2684 8.29225C58.2684 8.29272 58.268 8.29303 58.2675 8.29303C58.2256 8.29193 58.1835 8.29138 58.1413 8.29138C55.5462 8.29138 53.4424 10.407 53.4424 13.0168C53.4424 15.6266 55.5462 17.7422 58.1413 17.7422C58.1835 17.7422 58.2256 17.7417 58.2675 17.7406C58.268 17.7406 58.2684 17.7409 58.2684 17.7413C58.2684 17.7418 58.2687 17.7422 58.2692 17.7422Z" fill="white"/>
<path d="M96.0073 8.29138C95.7236 8.29138 95.4941 8.52225 95.4941 8.80703V23.6123C95.4941 23.8971 95.7236 24.1279 96.0073 24.1279H107.871C108.013 24.1279 108.149 24.0689 108.245 23.965L109.73 22.3725C110.038 22.0432 109.805 21.5042 109.356 21.5042H98.9972C98.7143 21.5042 98.4849 21.2734 98.4849 20.9886V8.80703C98.4849 8.52225 98.2547 8.29138 97.9718 8.29138H96.0073Z" fill="white"/>
<path fill-rule="evenodd" clip-rule="evenodd" d="M77.0055 8.29138C77.0047 8.29138 77.0039 8.29201 77.0039 8.2928C77.0039 8.2935 77.0031 8.29413 77.0024 8.29413C75.4858 8.35983 74.2686 9.58009 74.2026 11.0998C74.2026 11.1005 74.2018 11.1011 74.2018 11.1011C74.201 11.1011 74.201 11.1012 74.2002 11.1016C74.2002 11.1018 74.2002 11.1021 74.2002 11.1025V21.0614C74.2002 21.0621 74.201 21.0628 74.201 21.0628C74.2018 21.0628 74.2026 21.0634 74.2026 21.0642C74.201 21.1061 74.2002 21.1482 74.2002 21.1905C74.2002 22.7695 75.4433 24.0575 77.0024 24.1251C77.0031 24.1251 77.0039 24.1257 77.0039 24.1265V24.1272V24.1275C77.0047 24.1278 77.0047 24.1279 77.0055 24.1279H87.7702C87.771 24.1279 87.7718 24.1272 87.7718 24.1265L87.7726 24.1257V24.1253L87.7733 24.1251C89.3324 24.0575 90.5755 22.7695 90.5755 21.1905C90.5755 21.1482 90.5747 21.1061 90.5731 21.0642C90.5731 21.0634 90.5739 21.0628 90.5747 21.0628C90.5747 21.0628 90.5755 21.0621 90.5755 21.0614V11.1025C90.5755 11.1017 90.5747 11.1011 90.5739 11.1011C90.5731 11.1011 90.5731 11.1005 90.5731 11.0998C90.5071 9.58009 89.2899 8.35983 87.7733 8.29413C87.7726 8.29413 87.7718 8.2935 87.7718 8.2928C87.7718 8.29201 87.771 8.29138 87.7702 8.29138H77.0055ZM79.0117 11.1011L79.0109 11.1014V11.102C79.0109 11.1024 79.0109 11.1028 79.0101 11.1028C78.0624 11.1442 77.301 11.9117 77.2601 12.8677C77.2601 12.8681 77.2601 12.8685 77.2593 12.8685C77.2593 12.8685 77.2585 12.8689 77.2585 12.8694V19.1339C77.2585 19.1343 77.2593 19.1347 77.2593 19.1347C77.2601 19.1347 77.2601 19.1351 77.2601 19.1356C77.2593 19.1619 77.2585 19.1884 77.2585 19.215C77.2585 20.2083 78.0357 21.0185 79.0101 21.061C79.0109 21.061 79.0109 21.0614 79.0109 21.0619V21.0624L79.0117 21.0626V21.0628H85.764V21.0627L85.7648 21.0623V21.0619C85.7648 21.0614 85.7648 21.061 85.7656 21.061C86.74 21.0185 87.5172 20.2083 87.5172 19.215C87.5172 19.1884 87.5164 19.1619 87.5156 19.1356V19.1354V19.1351L87.5164 19.1347C87.5164 19.1347 87.5172 19.1343 87.5172 19.1339V12.8694C87.5172 12.8689 87.5164 12.8685 87.5164 12.8685C87.5156 12.8685 87.5156 12.8681 87.5156 12.8677C87.4747 11.9117 86.7133 11.1442 85.7656 11.1028C85.7648 11.1028 85.7648 11.1024 85.7648 11.102V11.1016L85.764 11.1012V11.1011H79.0117Z" fill="white"/>
<path fill-rule="evenodd" clip-rule="evenodd" d="M126.983 23.6123C126.983 23.8971 127.211 24.1279 127.492 24.1279H129.504C129.785 24.1279 130.012 23.8971 130.012 23.6123V11.3578C130.012 11.3571 130.012 11.3565 130.011 11.3565V11.3563L130.01 11.3562C130.01 11.3559 130.01 11.3555 130.01 11.3551C130.012 11.3133 130.012 11.2711 130.012 11.2288C130.012 9.64972 128.781 8.36171 127.237 8.29413C127.236 8.29413 127.235 8.2935 127.235 8.2928C127.235 8.29201 127.235 8.29138 127.234 8.29138H116.899C116.898 8.29138 116.897 8.29201 116.897 8.29272C116.897 8.2935 116.897 8.29405 116.896 8.29405C116.855 8.29225 116.813 8.29138 116.772 8.29138C115.168 8.29138 113.868 9.6065 113.868 11.2288C113.868 11.2711 113.869 11.3133 113.871 11.3551C113.871 11.3558 113.871 11.3565 113.87 11.3565C113.869 11.3565 113.868 11.3571 113.868 11.3578V23.6123C113.868 23.8971 114.096 24.1279 114.377 24.1279H116.389C116.67 24.1279 116.897 23.8971 116.897 23.6123V18.5132C116.897 18.2285 117.125 17.9976 117.407 17.9976H126.474C126.755 17.9976 126.983 18.2285 126.983 18.5132V23.6123ZM116.897 15.1832V12.6336C116.897 11.6462 117.689 10.8456 118.665 10.8456H125.216C126.192 10.8456 126.983 11.6462 126.983 12.6336V15.1832C126.983 15.4679 126.755 15.6988 126.474 15.6988H117.407C117.125 15.6988 116.897 15.4679 116.897 15.1832Z" fill="white"/>
<path fill-rule="evenodd" clip-rule="evenodd" d="M169.455 24.1279C169.171 24.1279 168.941 23.8971 168.941 23.6123V18.5132C168.941 18.2285 168.711 17.9976 168.427 17.9976H159.259C158.975 17.9976 158.746 18.2285 158.746 18.5132V23.6123C158.746 23.8971 158.515 24.1279 158.232 24.1279H156.2C155.917 24.1279 155.687 23.8971 155.687 23.6123V11.3578V11.3575L155.687 11.357C155.687 11.3567 155.688 11.3565 155.688 11.3565C155.689 11.3565 155.69 11.3558 155.69 11.3551C155.688 11.3133 155.687 11.2711 155.687 11.2288C155.687 9.6065 156.999 8.29138 158.618 8.29138C158.66 8.29138 158.702 8.29225 158.744 8.29405C158.745 8.29405 158.746 8.2935 158.746 8.29272C158.746 8.29201 158.746 8.29138 158.746 8.29138H169.194C169.195 8.29138 169.196 8.29201 169.196 8.2928C169.196 8.2935 169.196 8.29413 169.197 8.29413C170.756 8.36171 172 9.64972 172 11.2288C172 11.2711 171.998 11.3133 171.997 11.3551C171.997 11.3558 171.997 11.3565 171.998 11.3565C171.998 11.3565 171.999 11.3566 171.999 11.3569C171.999 11.3572 172 11.3575 172 11.3578V23.6123C172 23.8971 171.769 24.1279 171.486 24.1279H169.455ZM158.746 12.6336V15.1832C158.746 15.4679 158.975 15.6988 159.259 15.6988H168.427C168.711 15.6988 168.941 15.4679 168.941 15.1832V12.6336C168.941 11.6462 168.142 10.8456 167.157 10.8456H160.529C159.544 10.8456 158.746 11.6462 158.746 12.6336Z" fill="white"/>
<path d="M137.585 8.29138C137.734 8.29138 137.876 8.35755 137.972 8.47243L146.997 19.2299C147.303 19.5947 147.892 19.3747 147.892 18.8954V8.80703C147.892 8.52225 148.119 8.29138 148.401 8.29138H150.413C150.694 8.29138 150.922 8.52225 150.922 8.80703V23.6123C150.922 23.8971 150.694 24.1279 150.413 24.1279H147.911C147.9 24.1279 147.892 24.1193 147.892 24.1086C147.892 24.104 147.89 24.0995 147.888 24.096L138.712 13.4135C138.402 13.0547 137.82 13.2763 137.82 13.7526V23.6123C137.82 23.8971 137.592 24.1279 137.312 24.1279H135.286C135.005 24.1279 134.777 23.8971 134.777 23.6123V8.80703C134.777 8.52225 135.005 8.29138 135.286 8.29138H137.585Z" fill="white"/>
<path d="M6.66395 24.6724C6.91486 24.4217 7.25503 24.2809 7.60974 24.2809H40.3352C40.9313 24.2809 41.2298 25.0018 40.808 25.4231L34.3416 31.8844C34.0907 32.1352 33.7505 32.276 33.3958 32.276H0.670336C0.0742277 32.276 -0.22422 31.5551 0.197441 31.1337L6.66395 24.6724Z" fill="url(#paint0_linear)"/>
<path d="M6.66395 0.534143C6.91486 0.283394 7.25503 0.142578 7.60974 0.142578H40.3352C40.9313 0.142578 41.2298 0.863472 40.808 1.2849L34.3416 7.74622C34.0907 7.99689 33.7505 8.13771 33.3958 8.13771H0.670336C0.0742277 8.13771 -0.22422 7.41681 0.197441 6.99547L6.66395 0.534143Z" fill="url(#paint1_linear)"/>
<path d="M34.3416 12.5269C34.0907 12.2762 33.7505 12.1354 33.3958 12.1354H0.670336C0.0742277 12.1354 -0.22422 12.8563 0.197441 13.2776L6.66395 19.7389C6.91486 19.9897 7.25503 20.1305 7.60974 20.1305H40.3352C40.9313 20.1305 41.2298 19.4096 40.808 18.9882L34.3416 12.5269Z" fill="url(#paint2_linear)"/>
<defs>
<linearGradient id="paint0_linear" x1="27.7222" y1="-8.67288" x2="5.07333" y2="34.7087" gradientUnits="userSpaceOnUse">
<stop stop-color="#00FFA3"/>
<stop offset="1" stop-color="#DC1FFF"/>
</linearGradient>
<linearGradient id="paint1_linear" x1="27.7222" y1="-8.672" x2="5.07334" y2="34.7096" gradientUnits="userSpaceOnUse">
<stop stop-color="#00FFA3"/>
<stop offset="1" stop-color="#DC1FFF"/>
</linearGradient>
<linearGradient id="paint2_linear" x1="27.7222" y1="-8.67194" x2="5.07334" y2="34.7096" gradientUnits="userSpaceOnUse">
<stop stop-color="#00FFA3"/>
<stop offset="1" stop-color="#DC1FFF"/>
</linearGradient>
</defs>
</svg>
