<svg width="24" height="24" viewBox="0 0 24 24" fill="none" xmlns="http://www.w3.org/2000/svg">
<path d="M11.25 23.25C11.25 23.6642 11.5858 24 12 24C12.4142 24 12.75 23.6642 12.75 23.25H11.25ZM12.75 0.75C12.75 0.335786 12.4142 0 12 0C11.5858 0 11.25 0.335786 11.25 0.75H12.75ZM6.75 13.875C6.75 14.2892 7.08579 14.625 7.5 14.625C7.91421 14.625 8.25 14.2892 8.25 13.875H6.75ZM8.25 2.70165C8.25 2.28743 7.91421 1.95165 7.5 1.95165C7.08579 1.95165 6.75 2.28743 6.75 2.70165H8.25ZM15.75 13.875C15.75 14.2892 16.0858 14.625 16.5 14.625C16.9142 14.625 17.25 14.2892 17.25 13.875H15.75ZM17.25 2.70152C17.25 2.28731 16.9142 1.95152 16.5 1.95152C16.0858 1.95152 15.75 2.28731 15.75 2.70152H17.25ZM15.182 18.182L15.7123 18.7123L15.182 18.182ZM8.81802 18.182L8.28769 18.7123H8.28769L8.81802 18.182ZM12 14.4901L11.5513 15.091L12 15.4261L12.4487 15.091L12 14.4901ZM16.425 5.16L16.1465 4.46364L16.0538 4.50071L15.974 4.56073L16.425 5.16ZM12 8.49L11.549 9.08927L12 9.42865L12.451 9.08927L12 8.49ZM7.575 5.16L8.02597 4.56073L7.94622 4.50071L7.85354 4.46364L7.575 5.16ZM15.75 6V15H17.25V6H15.75ZM15.75 15C15.75 15.9946 15.3549 16.9484 14.6517 17.6517L15.7123 18.7123C16.6969 17.7277 17.25 16.3924 17.25 15H15.75ZM14.6517 17.6517C13.9484 18.3549 12.9946 18.75 12 18.75V20.25C13.3924 20.25 14.7277 19.6969 15.7123 18.7123L14.6517 17.6517ZM12 18.75C11.0054 18.75 10.0516 18.3549 9.34835 17.6517L8.28769 18.7123C9.27226 19.6969 10.6076 20.25 12 20.25V18.75ZM9.34835 17.6517C8.64509 16.9484 8.25 15.9946 8.25 15H6.75C6.75 16.3924 7.30312 17.7277 8.28769 18.7123L9.34835 17.6517ZM8.25 15V6H6.75V15H8.25ZM7.05128 11.731L11.5513 15.091L12.4487 13.8891L7.94872 10.5291L7.05128 11.731ZM12.4487 15.091L16.9487 11.731L16.0513 10.5291L11.5513 13.8891L12.4487 15.091ZM16.2215 4.43364L16.1465 4.46364L16.7035 5.85636L16.7785 5.82636L16.2215 4.43364ZM15.974 4.56073L11.549 7.89073L12.451 9.08927L16.876 5.75927L15.974 4.56073ZM12.451 7.89073L8.02597 4.56073L7.12403 5.75927L11.549 9.08927L12.451 7.89073ZM7.85354 4.46364L7.77854 4.43364L7.22146 5.82636L7.29646 5.85636L7.85354 4.46364ZM12.75 23.25V0.75H11.25V23.25H12.75ZM8.25 13.875V2.70165H6.75V13.875H8.25ZM17.25 13.875V2.70152H15.75V13.875H17.25Z" fill="#39D0D8"/>
</svg>
