<svg width="146" height="22" viewBox="0 0 146 22" fill="none" xmlns="http://www.w3.org/2000/svg">
<g clip-path="url(#clip0)">
<path fill-rule="evenodd" clip-rule="evenodd" d="M26.9894 5.6041V11.8464H20.8298V6.4071C20.8298 5.96361 20.47 5.6041 20.0263 5.6041H17.9473V20.4796C17.9473 20.9232 18.3069 21.2828 18.7508 21.2828H20.8298V14.3639H26.9894V20.4796C26.9894 20.9232 27.349 21.2828 27.7929 21.2828H29.8718V6.4071C29.8718 5.96361 29.5121 5.6041 29.0682 5.6041H26.9894Z" fill="white"/>
<path fill-rule="evenodd" clip-rule="evenodd" d="M39.0803 9.30048V16.7302C39.0803 17.4053 38.7359 18.0453 38.1511 18.383C36.5189 19.3257 34.8298 18.1481 34.8298 16.5955V10.1035C34.8298 9.65999 34.4701 9.30048 34.0263 9.30048H31.939V16.8602C31.939 19.2927 33.93 21.2828 36.3635 21.2828H37.5466C39.9802 21.2828 41.9711 19.2927 41.9711 16.8602V10.1035C41.9711 9.65999 41.6115 9.30048 41.1678 9.30048H39.0803Z" fill="white"/>
<path fill-rule="evenodd" clip-rule="evenodd" d="M71.1425 21.2828H73.2215V10.7615C73.2215 10.3178 72.8616 9.95828 72.418 9.95828H70.3391V20.4796C70.3391 20.9233 70.6988 21.2828 71.1425 21.2828Z" fill="#2483FF"/>
<path fill-rule="evenodd" clip-rule="evenodd" d="M71.7802 8.81811C72.6687 8.81811 73.3889 8.09816 73.3889 7.2101C73.3889 6.32203 72.6687 5.60226 71.7802 5.60226C70.8917 5.60226 70.1716 6.32203 70.1716 7.2101C70.1716 8.09816 70.8917 8.81811 71.7802 8.81811Z" fill="#2483FF"/>
<path fill-rule="evenodd" clip-rule="evenodd" d="M52.1151 16.3079C52.1151 17.7373 50.9453 18.6888 49.5152 18.6888C48.0851 18.6888 46.9151 17.7373 46.9151 16.3079V14.2681C46.9151 12.8386 48.0851 11.8871 49.5152 11.8871C50.9453 11.8871 52.1151 12.8386 52.1151 14.2681V16.3079ZM49.5152 9.29315C46.4916 9.29315 44.0178 11.455 44.0178 14.4771V16.1117C44.0178 19.1338 46.4916 21.2828 49.5152 21.2828C52.5386 21.2828 55.0126 19.1338 55.0126 16.1117V14.4771C55.0126 11.455 52.5386 9.29315 49.5152 9.29315Z" fill="white"/>
<path fill-rule="evenodd" clip-rule="evenodd" d="M65.1988 16.3078C65.1988 17.7373 64.0288 18.6888 62.5987 18.6888C61.1688 18.6888 59.9986 17.7373 59.9986 16.3078V14.2681C59.9986 12.8386 61.1688 11.8871 62.5987 11.8871C64.0288 11.8871 65.1988 12.8386 65.1988 14.2681V16.3078ZM62.5987 9.29315C61.6537 9.29315 60.7627 9.50435 59.9839 9.88696V6.39373C59.9839 5.95006 59.624 5.59055 59.1804 5.59055H57.1013V16.1117C57.1013 19.1339 59.5752 21.2828 62.5987 21.2828C65.6223 21.2828 68.0961 19.1339 68.0961 16.1117V14.4771C68.0961 11.455 65.6223 9.29315 62.5987 9.29315Z" fill="#2483FF"/>
<path fill-rule="evenodd" clip-rule="evenodd" d="M122.675 16.3575C122.675 17.7721 121.517 18.7139 120.102 18.7139C118.686 18.7139 117.528 17.7721 117.528 16.3575V14.3386C117.528 12.924 118.686 11.9823 120.102 11.9823C121.517 11.9823 122.675 12.924 122.675 14.3386V16.3575ZM120.102 9.41505H120.102C119.167 9.41505 118.284 9.62387 117.514 10.0024V6.39628C117.514 5.95738 117.158 5.60153 116.718 5.60153H114.661V16.1634C114.661 19.1544 117.109 21.2811 120.102 21.2811H120.102C123.094 21.2811 125.542 19.1544 125.542 16.1634V14.5454C125.542 11.5545 123.094 9.41505 120.102 9.41505Z" fill="white"/>
<path fill-rule="evenodd" clip-rule="evenodd" d="M145.773 21.2274V19.4183C145.773 18.99 145.426 18.6433 144.998 18.6448C144.564 18.6463 144.02 18.6477 143.561 18.6477C142.39 18.6477 142.444 18.0625 142.444 16.5453V6.38823C142.444 5.96088 142.098 5.61456 141.671 5.61456H139.56V16.8921C139.56 19.6232 140.265 21.2274 143.214 21.2274C144.354 21.2274 145.18 21.1951 145.773 21.2276L145.773 21.2274Z" fill="white"/>
<path fill-rule="evenodd" clip-rule="evenodd" d="M90.5278 11.9122H84.9501V13.4313C84.9501 13.888 85.3204 14.2582 85.7771 14.2582H88.4266V15.6013C88.4266 16.5922 88.179 17.3235 87.6674 17.8389C87.0394 18.4871 86.1702 18.8296 85.1544 18.8296C84.239 18.8296 83.3676 18.5128 82.8239 17.9824C82.0681 17.2419 81.9052 16.4378 81.9052 13.453C81.9052 10.4852 82.0681 9.68473 82.8236 8.94498C83.3813 8.40103 84.469 7.98945 85.3707 7.98945C88.4198 7.98945 89.4438 9.07112 90.2078 10.056H90.3077V7.8536C90.3077 7.528 90.1522 7.22367 89.8978 7.02035C88.6205 5.99845 87.3472 5.625 85.1544 5.625C83.3835 5.625 81.8692 6.18123 80.6541 7.27812C78.976 8.79263 78.9762 10.5015 78.9766 13.3325V13.5734C78.9762 16.4044 78.976 18.1131 80.6541 19.6276C81.8524 20.7095 83.4087 21.2811 85.1544 21.2811C86.988 21.2811 88.6021 20.6642 89.822 19.4973L89.8224 19.4969C90.911 18.4519 91.355 16.4507 91.355 14.3698V12.7389C91.355 12.2824 90.9847 11.9122 90.5278 11.9122Z" fill="white"/>
<path fill-rule="evenodd" clip-rule="evenodd" d="M99.6163 21.2274V19.4183C99.6163 18.99 99.2694 18.6433 98.841 18.6448C98.4075 18.6463 97.8637 18.6477 97.4041 18.6477C96.233 18.6477 96.2876 18.0625 96.2876 16.5453V6.38823C96.2876 5.96088 95.9413 5.61456 95.514 5.61456H93.4036V16.8921C93.4036 19.6232 94.1079 21.2274 97.0572 21.2274C98.1968 21.2274 99.0235 21.1951 99.6161 21.2276L99.6163 21.2274Z" fill="white"/>
<path fill-rule="evenodd" clip-rule="evenodd" d="M109.711 16.3575C109.711 17.7721 108.553 18.7139 107.138 18.7139C105.723 18.7139 104.565 17.7721 104.565 16.3575V14.3387C104.565 12.9241 105.723 11.9823 107.138 11.9823C108.553 11.9823 109.711 12.9241 109.711 14.3387V16.3575ZM107.138 9.41507C104.146 9.41507 101.697 11.5546 101.697 14.5455V16.1634C101.697 19.1545 104.146 21.2811 107.138 21.2811C110.131 21.2811 112.579 19.1545 112.579 16.1634V14.5455C112.579 11.5546 110.131 9.41507 107.138 9.41507Z" fill="white"/>
<path fill-rule="evenodd" clip-rule="evenodd" d="M134.644 15.9098V18.8872C134.422 18.9302 134.176 18.9645 133.91 18.9889C133.257 19.0503 132.672 19.0615 131.993 18.9997C131.727 18.9757 131.481 18.9079 131.263 18.7997C131.052 18.6947 130.879 18.5454 130.736 18.343C130.6 18.1513 130.531 17.868 130.531 17.5012C130.531 16.9297 130.734 16.5205 131.154 16.2497C131.601 15.9613 132.277 15.8149 133.166 15.8149C133.405 15.8149 133.697 15.8286 134.042 15.8559C134.267 15.8739 134.469 15.8919 134.644 15.9098ZM136.187 10.4234C135.332 9.74085 134.082 9.3949 132.471 9.3949C131.873 9.3949 131.243 9.43853 130.6 9.52433C130.085 9.59308 129.355 9.69153 128.849 9.80813C128.644 9.85543 128.606 10.0166 128.606 10.2096V11.7487C128.606 12.023 128.609 12.2725 128.9 12.2017C129.442 12.0697 130.493 11.8369 130.779 11.7898C131.23 11.7155 131.722 11.6781 132.24 11.6781C133.047 11.6781 133.662 11.8224 134.068 12.106C134.45 12.3733 134.644 12.8821 134.644 13.618V13.7071C134.5 13.6939 134.343 13.6812 134.171 13.6697C133.849 13.648 133.437 13.637 132.934 13.637C132.248 13.637 131.583 13.7148 130.959 13.8682C130.325 14.0244 129.755 14.2657 129.265 14.586C128.766 14.9127 128.366 15.3272 128.076 15.8193C127.783 16.3148 127.635 16.8952 127.635 17.5435C127.635 18.202 127.762 18.7753 128.012 19.247C128.264 19.723 128.627 20.1199 129.09 20.4262C129.545 20.7287 130.104 20.9498 130.75 21.0844C131.378 21.2149 132.09 21.2811 132.865 21.2811C133.429 21.2811 137.493 21.2239 137.493 19.2907C137.493 17.0505 137.493 13.7021 137.493 13.7021C137.493 12.2191 137.054 11.116 136.187 10.4234Z" fill="white"/>
<path fill-rule="evenodd" clip-rule="evenodd" d="M9.31654 6.69237C9.31654 3.5702 7.79491 0.885287 6.63755 0.0109701C6.63278 0.00822014 6.54896 -0.0388965 6.55611 0.0859535L6.55446 0.0898035C6.45835 6.11799 3.37731 7.75185 1.68346 9.95277C-2.22553 15.0318 1.4098 20.6004 5.1117 21.6296C7.18303 22.2055 4.63335 20.6107 4.30504 17.2421C3.90794 13.1706 9.31654 10.0628 9.31654 6.69237Z" fill="white"/>
<path fill-rule="evenodd" clip-rule="evenodd" d="M11.0927 8.74478C11.069 8.72865 11.0352 8.71765 11.012 8.75615C10.9483 9.51497 10.1728 11.1382 9.18989 12.6287C5.8561 17.6845 7.75593 20.1217 8.82415 21.4307C9.44447 22.1906 8.82415 21.4307 10.3746 20.6541C10.496 20.5933 13.3997 18.9656 13.7141 15.2572C14.0185 11.666 11.8606 9.4024 11.0927 8.74478Z" fill="#2483FF"/>
</g>
<defs>
<clipPath id="clip0">
<rect width="145.773" height="21.7452" fill="white"/>
</clipPath>
</defs>
</svg>
