<svg width="172" height="32" viewBox="0 0 172 32" fill="none" xmlns="http://www.w3.org/2000/svg">
<path opacity="0.75" d="M1.46 6V20H2.96V18.3H3.16C3.76 19.32 4.82 20.28 6.84 20.28C9.4 20.28 11.46 18.26 11.46 15.12C11.46 11.96 9.4 9.96 6.84 9.96C4.82 9.96 3.76 10.92 3.2 11.86H3V6H1.46ZM6.46 11.3C8.5 11.3 9.9 12.76 9.9 15.12C9.9 17.48 8.5 18.92 6.46 18.92C4.44 18.92 2.98 17.46 2.98 15.12C2.98 12.78 4.44 11.3 6.46 11.3ZM22.7052 20V10.24H21.1852V15.18C21.1852 17.62 19.8252 18.88 17.9652 18.88C16.2652 18.88 15.2052 18.02 15.2052 16.06V10.24H13.6852V16.16C13.6852 18.78 15.4052 20.18 17.5452 20.18C19.5652 20.18 20.5452 19.28 21.0252 18.36H21.2252V20H22.7052ZM25.1002 7.18C25.1002 7.92 25.6402 8.46 26.3802 8.46C27.1202 8.46 27.6802 7.92 27.6802 7.18C27.6802 6.46 27.1202 5.92 26.3802 5.92C25.6402 5.92 25.1002 6.46 25.1002 7.18ZM27.1602 10.24H25.6202V20H27.1602V10.24ZM31.5938 6H30.0538V20H31.5938V6ZM33.2473 11.52H36.2673V18.36C36.2673 19.38 36.8873 20 37.8673 20H40.5673V18.72H38.3473C37.9873 18.72 37.7873 18.52 37.7873 18.12V11.52H41.0073V10.24H37.7873V6.74H36.2673V10.24H33.2473V11.52ZM48.7306 15.12C48.7306 18.18 50.7506 20.28 53.7106 20.28C56.6706 20.28 58.7106 18.18 58.7106 15.12C58.7106 12.04 56.6706 9.96 53.7106 9.96C50.7506 9.96 48.7306 12.04 48.7306 15.12ZM50.2506 15.12C50.2506 12.9 51.6306 11.32 53.7106 11.32C55.7906 11.32 57.1706 12.84 57.1706 15.12C57.1706 17.38 55.7906 18.92 53.7106 18.92C51.6306 18.92 50.2506 17.44 50.2506 15.12ZM60.9913 10.24V20H62.5313V15.06C62.5313 12.62 63.8713 11.36 65.7513 11.36C67.4313 11.36 68.4913 12.22 68.4913 14.18V20H70.0113V14.08C70.0113 11.46 68.2913 10.04 66.1513 10.04C64.1313 10.04 63.1513 10.96 62.6913 11.88H62.4913V10.24H60.9913Z" fill="#ABC4FF"/>
<path d="M82.2272 15.6301H86.512C87.1137 15.6301 87.6017 16.1217 87.6017 16.7281C87.6017 17.3345 87.1137 17.8261 86.512 17.8261H81.3438C81.2632 17.8261 81.1851 17.8551 81.1238 17.908L79.5633 19.253C79.3245 19.4589 79.469 19.8531 79.7834 19.8531H86.2532C86.2558 19.8531 86.2579 19.8509 86.2579 19.8482C86.2579 19.8454 86.2605 19.8431 86.2631 19.8434C86.3446 19.8498 86.4267 19.8531 86.5099 19.8531C88.2263 19.8531 89.6175 18.454 89.6175 16.7281C89.6175 15.0892 88.363 13.7449 86.7666 13.6136C86.764 13.6134 86.7619 13.6111 86.7619 13.6084C86.7619 13.6055 86.7599 13.6031 86.7567 13.6031H82.1406C81.5387 13.6031 81.0508 13.1115 81.0508 12.5051C81.0508 11.8987 81.5387 11.4071 82.1406 11.4071H87.3019C87.3866 11.4071 87.4687 11.375 87.531 11.317L88.9799 9.97187C89.2069 9.76146 89.0588 9.38013 88.7507 9.38013H82.2272C82.2269 9.38013 82.2267 9.38039 82.2267 9.3807C82.2267 9.38101 82.2264 9.38122 82.2261 9.38122C82.1983 9.38049 82.1705 9.38013 82.1426 9.38013C80.4265 9.38013 79.0352 10.7792 79.0352 12.5051C79.0352 14.231 80.4265 15.6301 82.1426 15.6301C82.1705 15.6301 82.1983 15.6298 82.2261 15.629C82.2264 15.629 82.2267 15.6292 82.2267 15.6295C82.2267 15.6299 82.2269 15.6301 82.2272 15.6301Z" fill="#F1F1F2"/>
<path d="M107.183 9.38013C106.995 9.38013 106.844 9.5328 106.844 9.72113V19.5121C106.844 19.7004 106.995 19.8531 107.183 19.8531H115.029C115.123 19.8531 115.212 19.8141 115.276 19.7453L116.258 18.6922C116.462 18.4744 116.308 18.118 116.011 18.118H109.16C108.973 18.118 108.822 17.9653 108.822 17.777V9.72113C108.822 9.5328 108.669 9.38013 108.482 9.38013H107.183Z" fill="#F1F1F2"/>
<path fill-rule="evenodd" clip-rule="evenodd" d="M94.6169 9.38013C94.6164 9.38013 94.6159 9.38054 94.6159 9.38106C94.6159 9.38153 94.6154 9.38195 94.6148 9.38195C93.6119 9.42539 92.8069 10.2324 92.7633 11.2374C92.7633 11.2378 92.7628 11.2382 92.7628 11.2382C92.7622 11.2382 92.7622 11.2383 92.7617 11.2385C92.7617 11.2387 92.7617 11.2389 92.7617 11.2392V17.8252C92.7617 17.8256 92.7622 17.8261 92.7622 17.8261C92.7628 17.8261 92.7633 17.8265 92.7633 17.827C92.7622 17.8547 92.7617 17.8826 92.7617 17.9105C92.7617 18.9548 93.5838 19.8066 94.6148 19.8512C94.6154 19.8512 94.6159 19.8517 94.6159 19.8522V19.8526V19.8529C94.6164 19.853 94.6164 19.8531 94.6169 19.8531H101.736C101.736 19.8531 101.737 19.8526 101.737 19.8522L101.737 19.8517V19.8513L101.738 19.8512C102.769 19.8066 103.591 18.9548 103.591 17.9105C103.591 17.8826 103.59 17.8547 103.589 17.827C103.589 17.8265 103.59 17.8261 103.59 17.8261C103.59 17.8261 103.591 17.8256 103.591 17.8252V11.2392C103.591 11.2387 103.59 11.2382 103.59 11.2382C103.589 11.2382 103.589 11.2378 103.589 11.2374C103.546 10.2324 102.741 9.42539 101.738 9.38195C101.737 9.38195 101.737 9.38153 101.737 9.38106C101.737 9.38054 101.736 9.38013 101.736 9.38013H94.6169ZM95.9436 11.2382L95.9431 11.2384V11.2388C95.9431 11.2391 95.9431 11.2394 95.9426 11.2394C95.3159 11.2667 94.8123 11.7743 94.7853 12.4065C94.7853 12.4068 94.7853 12.4071 94.7848 12.4071C94.7848 12.4071 94.7843 12.4073 94.7843 12.4076V16.5504C94.7843 16.5508 94.7848 16.551 94.7848 16.551C94.7853 16.551 94.7853 16.5513 94.7853 16.5516C94.7848 16.569 94.7843 16.5865 94.7843 16.6041C94.7843 17.261 95.2982 17.7968 95.9426 17.8249C95.9431 17.8249 95.9431 17.8252 95.9431 17.8255V17.8258L95.9436 17.826V17.8261H100.409V17.826L100.41 17.8258V17.8255C100.41 17.8252 100.41 17.8249 100.41 17.8249C101.055 17.7968 101.568 17.261 101.568 16.6041C101.568 16.5865 101.568 16.569 101.567 16.5516V16.5514V16.5513L101.568 16.551C101.568 16.551 101.568 16.5508 101.568 16.5504V12.4076C101.568 12.4073 101.568 12.4071 101.568 12.4071C101.567 12.4071 101.567 12.4068 101.567 12.4065C101.54 11.7743 101.037 11.2667 100.41 11.2394C100.41 11.2394 100.41 11.2391 100.41 11.2388V11.2385L100.409 11.2383V11.2382H95.9436Z" fill="#F1F1F2"/>
<path fill-rule="evenodd" clip-rule="evenodd" d="M127.667 19.5121C127.667 19.7004 127.818 19.8531 128.004 19.8531H129.334C129.52 19.8531 129.671 19.7004 129.671 19.5121V11.408C129.671 11.4075 129.67 11.4071 129.67 11.4071V11.407L129.669 11.4069C129.669 11.4068 129.669 11.4065 129.669 11.4062C129.67 11.3785 129.671 11.3507 129.671 11.3227C129.671 10.2784 128.856 9.42664 127.835 9.38195C127.835 9.38195 127.834 9.38153 127.834 9.38106C127.834 9.38054 127.834 9.38013 127.833 9.38013H120.998C120.998 9.38013 120.997 9.38054 120.997 9.38101C120.997 9.38153 120.997 9.38189 120.996 9.38189C120.969 9.3807 120.942 9.38013 120.914 9.38013C119.854 9.38013 118.994 10.2498 118.994 11.3227C118.994 11.3507 118.995 11.3785 118.996 11.4062C118.996 11.4067 118.996 11.4071 118.995 11.4071C118.995 11.4071 118.994 11.4075 118.994 11.408V19.5121C118.994 19.7004 119.145 19.8531 119.33 19.8531H120.661C120.847 19.8531 120.997 19.7004 120.997 19.5121V16.14C120.997 15.9517 121.148 15.799 121.334 15.799H127.331C127.517 15.799 127.667 15.9517 127.667 16.14V19.5121ZM120.997 13.9378V12.2517C120.997 11.5987 121.521 11.0693 122.166 11.0693H126.499C127.144 11.0693 127.667 11.5987 127.667 12.2517V13.9378C127.667 14.1261 127.517 14.2788 127.331 14.2788H121.334C121.148 14.2788 120.997 14.1261 120.997 13.9378Z" fill="#F1F1F2"/>
<path fill-rule="evenodd" clip-rule="evenodd" d="M155.757 19.8531C155.57 19.8531 155.418 19.7004 155.418 19.5121V16.14C155.418 15.9517 155.266 15.799 155.078 15.799H149.015C148.827 15.799 148.675 15.9517 148.675 16.14V19.5121C148.675 19.7004 148.523 19.8531 148.336 19.8531H146.992C146.805 19.8531 146.652 19.7004 146.652 19.5121V11.408V11.4078L146.653 11.4075C146.653 11.4073 146.653 11.4071 146.653 11.4071C146.654 11.4071 146.654 11.4067 146.654 11.4062C146.653 11.3785 146.652 11.3507 146.652 11.3227C146.652 10.2498 147.52 9.38013 148.591 9.38013C148.619 9.38013 148.647 9.3807 148.674 9.38189C148.675 9.38189 148.675 9.38153 148.675 9.38101C148.675 9.38054 148.676 9.38013 148.676 9.38013H155.585C155.586 9.38013 155.586 9.38054 155.586 9.38106C155.586 9.38153 155.586 9.38195 155.587 9.38195C156.618 9.42664 157.441 10.2784 157.441 11.3227C157.441 11.3507 157.44 11.3785 157.438 11.4062C157.438 11.4067 157.439 11.4071 157.44 11.4071C157.44 11.4071 157.44 11.4072 157.44 11.4074C157.44 11.4076 157.441 11.4078 157.441 11.408V19.5121C157.441 19.7004 157.288 19.8531 157.101 19.8531H155.757ZM148.675 12.2517V13.9378C148.675 14.1261 148.827 14.2788 149.015 14.2788H155.078C155.266 14.2788 155.418 14.1261 155.418 13.9378V12.2517C155.418 11.5987 154.89 11.0693 154.238 11.0693H149.855C149.203 11.0693 148.675 11.5987 148.675 12.2517Z" fill="#F1F1F2"/>
<path d="M134.679 9.38013C134.778 9.38013 134.871 9.42388 134.935 9.49986L140.903 16.6139C141.106 16.8552 141.495 16.7097 141.495 16.3927V9.72113C141.495 9.5328 141.646 9.38013 141.832 9.38013H143.163C143.348 9.38013 143.499 9.5328 143.499 9.72113V19.5121C143.499 19.7004 143.348 19.8531 143.163 19.8531H141.508C141.501 19.8531 141.495 19.8474 141.495 19.8403C141.495 19.8373 141.494 19.8343 141.492 19.832L135.424 12.7675C135.219 12.5302 134.834 12.6767 134.834 12.9917V19.5121C134.834 19.7004 134.684 19.8531 134.498 19.8531H133.158C132.973 19.8531 132.822 19.7004 132.822 19.5121V9.72113C132.822 9.5328 132.973 9.38013 133.158 9.38013H134.679Z" fill="#F1F1F2"/>
<rect x="94" y="31" width="78" height="1" fill="url(#paint0_linear)"/>
<defs>
<linearGradient id="paint0_linear" x1="172.129" y1="31.5" x2="170.113" y2="43.8887" gradientUnits="userSpaceOnUse">
<stop stop-color="#00FFA3"/>
<stop offset="1" stop-color="#DC1FFF"/>
</linearGradient>
</defs>
</svg>
