<svg width="1320" height="506" fill="none" xmlns="http://www.w3.org/2000/svg"><mask id="a" maskUnits="userSpaceOnUse" x="0" y="0" width="1320" height="506"><path fill="url(#paint0_radial)" d="M0 0h1320v506H0z"/></mask><g mask="url(#a)" stroke-width="1.8" stroke-miterlimit="10" stroke-linecap="round" stroke-dasharray="0.1 20"><path d="M-115-32c21 0 40 1 58 3l50 5a666 666 0 00133 4h85a304 304 0 0184 10l44 10c14 2 29 4 44 4s29-2 43-6c15-5 27-12 38-21a101 101 0 0171-21c14 0 28 3 43 5l41 6 34 2 35-1a624 624 0 00129-20c15-4 31-6 47-7l47-3a1806 1806 0 0181 0h90c13-1 25-2 36-1 18 2 30 13 41 28 11 13 23 28 39 34 10 4 21 5 31 4s20-4 29-7l29-11 32-12c12-3 25-5 41-5" stroke="url(#paint1_linear)"/><path d="M-119-18c21 0 41 1 59 3l51 7a573 573 0 0082 6h141a345 345 0 0184 9l44 8c14 3 29 4 44 4 14-1 29-3 43-7 14-5 25-13 36-21 8-7 18-14 30-18 13-4 27-5 41-5l42 6a398 398 0 0076 8h34a619 619 0 0097-12l35-9c14-5 30-8 45-9a640 640 0 01107-2l59 1 49 1c13-1 25-2 36-1 18 3 30 14 42 29 12 13 24 28 40 34 11 4 22 4 33 3s21-4 30-7l30-12 33-11c12-3 25-5 41-5" stroke="url(#paint2_linear)"/><path d="M-123-5c21 0 41 2 59 5 18 2 35 6 52 9a510 510 0 0084 8l36-1h109a398 398 0 0184 8l44 7c15 2 29 3 44 2a114 114 0 0077-29c8-7 18-13 30-18 13-4 27-6 40-5l42 6a406 406 0 0076 8h35a607 607 0 0062-3 322 322 0 0071-19c15-5 30-8 45-10l46-2 59 1 58 2 49 1c13 1 25-1 36 1 18 3 30 14 42 29 12 13 25 28 42 34 11 4 23 4 34 3l31-8 31-12 34-11c12-4 26-6 42-6" stroke="url(#paint3_linear)"/><path d="M-128 9c22 0 42 2 60 5l53 11a469 469 0 0087 9h147a466 466 0 0185 7l45 5c14 2 28 3 43 2 14-1 28-4 41-9s22-12 32-20c9-7 19-15 31-20 14-5 27-6 41-5s28 4 41 6l41 8 35 1h35a582 582 0 0063-3 272 272 0 0073-20c14-6 28-9 43-11s31-3 46-3l58 2 57 3 49 2c12 1 24-1 35 1 19 3 31 16 44 30l19 20c7 6 14 11 23 14 12 4 24 4 36 2 11-1 22-5 32-8l33-12c11-4 22-9 35-12 12-3 26-5 43-5" stroke="url(#paint4_linear)"/><path d="M-133 22c22 0 42 3 61 7 18 3 36 8 53 12a436 436 0 0090 11h111l40-1a548 548 0 0185 6 885 885 0 0087 5c15-1 29-4 41-9 13-5 22-13 31-21 10-7 19-15 31-20 13-5 27-6 40-5 14 0 28 3 42 7 14 3 27 6 40 7l36 1 34 1a571 571 0 0064-2 239 239 0 0074-22c13-7 28-10 43-12 14-3 30-3 45-3 19-1 38 0 57 1l56 5 49 3c12 1 24-1 35 1 19 4 31 17 44 31 12 13 26 28 44 33 12 4 25 4 37 3 12-2 23-6 33-9l35-12c11-5 23-9 36-12 13-4 27-6 44-6" stroke="url(#paint5_linear)"/><path d="M-139 35c23 1 43 4 62 8l55 13a412 412 0 0092 13l38-1h116l41 1 45 4a871 871 0 0087 3c14-1 28-4 40-10 12-5 22-13 31-21 9-7 18-15 30-20 13-6 26-7 40-6s27 4 41 8c14 3 27 6 40 7 12 2 24 1 36 2l34 1a553 553 0 0065-1 213 213 0 0075-24c13-7 27-11 41-14l45-3 57 2 55 6 49 4c12 1 24-1 36 2 12 2 22 9 31 17l26 27c9 9 19 16 32 20 12 3 24 3 35 2 13-2 26-5 38-9l36-13 38-12c13-3 27-5 44-6" stroke="url(#paint6_linear)"/><path d="M-144 49a297 297 0 0190 15l42 11a346 346 0 0081 9h116l40-1 41 1 46 4a869 869 0 0087 2c14-2 28-5 40-10 12-6 21-14 30-22 9-7 17-15 29-21 13-5 27-6 40-5 14 1 28 4 41 8l40 8 36 1 34 2a538 538 0 0065 0 193 193 0 0076-26c12-7 23-12 37-14 16-4 33-4 49-4l55 2 56 6 48 5c13 1 25 0 36 3 13 2 23 9 32 18 9 8 17 18 27 26 9 9 20 17 33 20 12 4 24 3 36 1 13-1 26-5 38-8l38-13c13-5 26-9 40-12 13-4 28-6 45-6" stroke="url(#paint7_linear)"/><path d="M-150 62a280 280 0 0192 15l42 12a330 330 0 0083 9h159l41 1 46 3a859 859 0 0088 1c14-2 27-5 40-10 11-6 20-14 29-22 8-8 17-16 29-21 13-6 26-7 40-6 13 1 27 5 40 8 14 4 27 8 40 9 12 2 24 1 36 2l34 2a514 514 0 0065 1c14-1 27-5 40-10s25-11 36-18c12-7 23-12 38-15 15-4 32-5 48-5l55 3 55 7 49 6c12 1 25 0 36 2 13 3 23 10 32 19 10 8 18 18 28 27 10 8 20 16 34 19 12 3 25 2 37 1 14-2 27-5 39-9l40-13c13-4 26-9 41-12 14-3 28-6 46-6" stroke="url(#paint8_linear)"/><path d="M-156 76a314 314 0 0194 15l43 10a381 381 0 0085 10h40l39 2h40l41-1 41-1 45 2a1131 1131 0 0087 0 110 110 0 0070-28c9-8 18-15 30-20 13-5 26-6 39-5s27 4 40 8c14 3 27 6 40 7l36 1 34 2a656 656 0 0067 2 170 170 0 0076-28c11-7 23-12 37-15 15-4 31-4 47-4 19 0 37 2 55 4l55 6c16 3 33 5 49 6 12 0 25-1 37 1 13 3 23 9 33 18l29 26c10 8 21 16 35 19 13 4 25 3 37 1 15-1 28-5 41-8l41-13 42-12c14-3 29-5 47-5" stroke="url(#paint9_linear)"/><path d="M-161 89a360 360 0 0195 14l44 10 46 8 41 1 41 2 39 3a769 769 0 0081 0c13-1 26-3 40-3h44l44 1c14 0 28 0 42-2a117 117 0 0071-26c9-6 18-13 30-17 13-4 26-5 39-4s26 4 39 7l40 6h35l35 2 35 3 36-1a169 169 0 0076-26c11-7 22-12 36-15 15-3 31-4 47-4l54 5 53 7c16 2 33 4 49 4 13 1 26-1 38 1 14 2 24 8 35 15l31 25c11 9 22 16 36 19 13 4 26 3 38 1 15-1 29-4 42-8l42-11a581 581 0 0190-17" stroke="url(#paint10_linear)"/><path d="M-167 102a422 422 0 0197 13l46 9 47 7 42 1 40 4 40 4a518 518 0 0081 1l39-5 43-1h43a512 512 0 0081-9c12-3 21-8 31-15 9-7 19-12 31-16 19-6 38-4 58-1 19 4 38 9 57 9h36l36 2 37 3h38a173 173 0 0077-25c10-7 21-12 35-15 15-3 30-4 45-3 18 0 36 2 53 5l53 7c16 2 32 4 48 4 13 0 26-3 39-1 14 1 26 6 37 13l34 24c11 7 23 14 37 17s27 3 39 1c15-1 29-4 43-7l43-11a677 677 0 0192-14" stroke="url(#paint11_linear)"/><path d="M-172 116a503 503 0 0199 11l47 7c16 3 31 5 48 6l42 2 41 5 40 6a397 397 0 0081 2l39-7 41-3h42a644 644 0 0080-8c11-4 21-8 31-14 9-6 20-11 31-14 19-5 38-3 56 1 19 3 38 7 57 8l35-2c13 0 26 1 38 3l40 3 39 1c14-1 28-3 42-7 13-4 25-9 37-17 10-7 20-12 34-15s29-3 44-2l51 6 51 7c16 2 32 4 48 3 14 0 27-3 40-3 14 1 27 5 39 11l37 21c13 7 25 13 40 16 14 3 28 3 43 2l40-7 44-9a786 786 0 0193-13" stroke="url(#paint12_linear)"/><path d="M-176 129a609 609 0 01100 9l48 6 49 5c14 1 29 0 43 2 14 1 28 4 42 7l39 8 42 6c13 0 27 0 40-2 12-3 24-7 37-9 13-3 27-4 40-5l40-1 40-2c13-2 27-3 39-6s22-6 32-12c9-5 20-9 31-11 18-4 36-2 55 1 18 3 36 7 54 7l36-2 40 2 41 4 42 2c15-1 29-2 43-6 14-3 26-8 38-16 10-7 20-12 33-15 14-3 29-3 43-2 16 1 33 4 49 7l50 7c15 2 31 4 46 3s27-5 41-5c15 0 29 3 42 8l40 19c14 6 28 11 42 14s29 3 43 1l42-5 45-8a931 931 0 0194-11" stroke="url(#paint13_linear)"/><path d="M-181 143a758 758 0 01102 6l50 5 50 4a348 348 0 0185 11l40 10c13 3 27 6 41 7s27 1 40-2l36-11 39-6 39-3 39-2c13-1 26-2 38-5 12-2 22-5 32-10 10-4 20-7 31-9 18-3 36-1 53 2 18 3 36 7 53 6l36-2 42 2 44 5 45 2c14 0 29-1 43-4s27-8 39-16c10-7 19-12 32-15 14-3 28-2 41-1 16 1 32 4 48 7l48 8c15 2 30 3 46 2 13-1 27-6 40-7 16-1 31 1 46 5l43 16c15 5 29 10 45 13 14 2 29 2 43 1l43-5 45-6a1135 1135 0 0195-8" stroke="url(#paint14_linear)"/><path d="M-185 156a986 986 0 01104 5l51 3 50 2c15 1 30 0 44 3 14 2 28 6 42 10l40 12c14 4 28 8 42 9 13 1 27 1 39-2s23-9 35-13a610 610 0 0175-11l38-2a452 452 0 0071-13 141 141 0 0182-4c17 3 34 6 52 6 12-1 23-3 35-3l44 2 47 5a556 556 0 0091 0c15-3 28-7 40-15 10-6 19-12 31-15 13-2 27-2 40-1l46 8 46 8c15 2 30 3 45 2 14-2 27-7 41-9 17-2 32-1 48 2l47 13a271 271 0 0091 12c15 0 29-2 43-3l46-5a1409 1409 0 0195-6" stroke="url(#paint15_linear)"/><path d="M-188 170a1350 1350 0 01105 2l52 2 51 2c15 0 30-1 44 2 15 2 29 7 43 12l40 14c14 5 28 9 42 10 13 2 26 2 38-2 13-3 23-10 35-15a434 434 0 0172-14l37-2 38-3 32-6c10-3 21-5 32-6 17-1 33 2 50 5 16 2 33 5 50 4 12-1 23-3 35-3 16-1 31 0 46 2l49 5a647 647 0 0094 2c15-2 29-7 42-14 9-7 17-13 29-15 13-3 26-2 38 0l45 8 44 8c15 2 30 3 44 1 15-2 27-7 41-10 18-4 35-3 51-1l50 11a345 345 0 0094 10l44-2 46-3a1815 1815 0 0195-4" stroke="url(#paint16_linear)"/><path d="M-191 183a2076 2076 0 01107 1l52 1h52c15 0 30 0 44 3 15 3 30 8 44 13l40 16c13 5 27 10 42 12 12 2 26 1 38-3 12-3 21-11 33-16 11-5 22-8 34-11a331 331 0 0172-8l38-3 32-4c11-2 21-3 32-3 17 0 33 3 49 5s32 4 49 3l35-4 47 2 51 6a748 748 0 0098 4c15-2 30-7 42-14 9-6 16-12 29-15 11-2 24-1 36 0l43 9c14 4 29 7 43 9 15 2 29 2 44 0 14-2 27-8 41-12 17-4 35-4 53-3l53 9a442 442 0 0096 9l45-2 46-2a2597 2597 0 0195-2" stroke="url(#paint17_linear)"/><path d="M-192 196a4562 4562 0 01106 0H20c15 0 30-1 45 2 15 4 29 9 43 15l40 18c13 6 27 10 42 13 13 2 26 1 38-3 12-5 21-13 32-19 10-5 21-9 33-12a579 579 0 0172-9l36-2 33-2c11-1 22-2 33-1 16 0 31 3 47 6 16 2 32 3 48 1 12-1 24-4 36-4 16-1 32 0 48 2l53 6a851 851 0 0099 5c16-2 30-6 43-14 9-6 16-12 28-14 11-3 23-1 35 0l42 10 42 9c14 2 29 2 43 0 15-3 27-10 41-14 18-5 36-6 55-5 18 1 36 4 55 7a640 640 0 0099 8l44-1 46-1a4184 4184 0 0196-1" stroke="url(#paint18_linear)"/><path d="M-193 210l53-1h53l53-1h54c15 0 30-1 45 2 15 4 30 10 44 16l39 19c13 6 27 11 42 14 13 2 27 1 38-4 12-5 21-14 32-20 9-6 20-10 31-14l34-7 37-3h37l33-1 34 1c15 1 31 4 46 7 16 2 32 2 48-1l35-5c16-1 33 0 49 2l54 6a965 965 0 00101 6c16-2 30-5 42-13 9-7 16-12 28-15 11-2 23 0 34 2 14 2 28 6 42 10 13 3 27 7 41 9s29 2 43-1 26-10 40-15c19-5 37-7 56-6 19 0 38 3 57 5 19 3 37 6 55 7l45 2 45-1h46a12362 12362 0 0195 0" stroke="url(#paint19_linear)"/><path d="M-193 223a25441 25441 0 00212-2c16 0 31-1 46 2 15 4 30 10 44 16l39 19c14 6 27 11 42 14 13 2 26 1 38-4s21-14 32-20c9-6 20-10 31-14 11-3 22-6 34-7a377 377 0 0173-3h34c11 0 22 0 33 2 16 1 32 5 48 7 15 1 31 1 47-2 12-2 23-5 35-6 16-1 32 0 48 1l55 6a1123 1123 0 00101 6c16-1 31-4 43-12 9-6 16-12 28-14 11-2 23-1 34 2 14 2 27 6 41 10 13 4 26 7 40 9s29 2 43-1 26-10 40-15c13-4 27-5 41-6l41 2 44 5a671 671 0 0089 5h185" stroke="url(#paint20_linear)"/><path d="M-192 237h105a3343 3343 0 00105-1c15 0 30-2 45 0 15 3 30 8 44 14l40 18c14 6 27 11 42 13 13 3 26 2 38-2s21-13 32-19a219 219 0 0165-19l36-2 36-1h34l34 2 49 7c17 2 33 2 50-2 12-2 23-6 35-7 16-2 32-1 48 0l55 5 55 5c14 0 30 2 46 1 15-1 31-4 43-11 9-6 17-11 29-13 11-2 23 0 34 2l38 10c12 4 25 7 38 9 14 2 28 2 41 0 15-3 27-10 41-13 14-4 28-5 42-6l42 2 44 5c15 1 29 3 44 3l43-2a948 948 0 0191 0l45 1 49 1" stroke="url(#paint21_linear)"/><path d="M-191 250l53 1 52 1a1836 1836 0 00101 0c15-1 30-4 45-2s30 6 45 12l40 16c13 5 27 10 42 12 12 3 26 3 38-1s22-12 33-17a230 230 0 0164-16l36-2h69c12 0 23 0 34 2l54 6c18 2 36 2 54-2 11-3 22-7 34-9a1132 1132 0 01103 2l54 4c15 1 31 2 47 1 15-1 31-3 44-10 9-4 18-9 29-11 11-1 22 1 32 3l35 11c12 4 23 7 36 9 12 2 26 3 39 0 14-2 26-8 41-11 14-4 28-5 43-5l43 2 44 3 44 2 42-3a559 559 0 0190-1l46 2 49 1" stroke="url(#paint22_linear)"/><path d="M-188 264l51 1 51 2a1234 1234 0 0098 0c15-1 29-4 44-3s30 5 45 9l41 14c13 5 27 9 42 12 13 2 26 2 39-1 12-3 22-10 33-15a243 243 0 0163-13l35-1h35l35 1c11 0 23 0 34 2l59 6c20 2 40 1 59-4 11-3 22-8 34-10a963 963 0 01102-1l55 3c14 1 31 2 47 1 15-1 31-3 44-9 10-4 19-8 30-9 10-1 20 1 29 4l32 11c10 4 20 8 32 10 11 3 24 3 36 2 14-2 26-8 41-11 20-4 40-4 60-4l60 3c19 2 38 2 58 1 14 0 27-3 41-5a389 389 0 0189-1l45 3 49 2" stroke="url(#paint23_linear)"/><path d="M-185 277l50 2 50 4a899 899 0 0094 0c15-1 28-5 43-5s30 3 45 6l41 13c14 4 28 8 42 10 13 2 27 2 40-1 12-2 22-9 34-12a181 181 0 0163-10h33l34 1 36 1 35 2 43 5 44 2c14 0 28-2 42-6 12-4 22-9 34-11 15-4 31-5 47-5h55l55 2 47 1c16-1 32-3 46-8 9-4 18-7 28-8 10 0 19 2 27 5l27 12c9 5 18 9 28 11 11 3 22 4 34 3 13-1 26-6 39-9l47-3c16-1 31 0 46 1l45 1 45-1 41-8a603 603 0 0188-1l44 4 49 2" stroke="url(#paint24_linear)"/><path d="M-181 290l49 3 48 5a697 697 0 0090 2c14-2 27-7 42-8s30 1 45 4l41 10c14 3 28 7 43 9 13 1 26 2 39-1 13-2 24-7 36-10a188 188 0 0161-6l33 1 33 3 36 1c13 0 25 0 37 2l47 4c16 2 32 3 48 2s31-3 46-7c12-4 22-10 34-13 15-4 31-6 47-7l55-1 55 1h47c16-1 32-2 47-7 9-3 17-6 28-6 8 1 16 3 23 7 16 7 30 19 47 25 9 3 20 4 30 4 13-1 26-5 39-7l49-4 47 1a980 980 0 0090-3c14-2 27-7 41-10l42-3 44 2 44 5 49 2" stroke="url(#paint25_linear)"/><path d="M-176 304l47 3 46 6 45 5c14 0 28 0 42-2s26-7 40-9 30-2 45 0l42 8c14 3 28 6 42 7 13 2 27 3 40 0 13-1 24-6 36-8a198 198 0 0161-2c11 0 21 2 32 3l32 3 37 1 37 2 52 5c17 1 35 2 52 1s34-3 50-9l34-14a656 656 0 01102-11h54l48-1c17 0 33-2 48-6 9-2 17-5 27-4 8 1 15 4 21 8 13 8 23 20 37 27 11 5 22 6 33 5l32-5 50-3 49 1a716 716 0 0091-7l41-11c14-3 28-4 41-4 15 0 29 1 44 3l43 5c15 2 31 3 47 3" stroke="url(#paint26_linear)"/><path d="M-172 317l49 4 47 8 41 5c13 0 25 0 38-2s24-8 38-11 29-3 44-2l42 5c14 2 28 5 43 6 13 2 26 2 40 1l37-7a207 207 0 0160 2l31 4a635 635 0 0069 6l38 2 44 3a760 760 0 0083 0c14-1 26-4 38-8s22-11 34-16a591 591 0 01101-15l56-1h48c17-1 33-2 48-6 17-3 32-4 45 7 10 10 17 22 29 29 9 6 19 7 30 7l31-3c17-2 35-3 52-3l48-1 47-1c15-2 31-4 46-8 13-3 26-10 40-13 14-4 28-5 41-5 15 0 29 2 43 4l41 6c15 2 31 3 48 3" stroke="url(#paint27_linear)"/><path d="M-166 331c16 0 32 2 47 4l46 9 39 5c12 2 25 1 36-1 13-3 24-10 37-13 13-4 28-5 43-5 14 0 28 2 42 4l43 5c13 1 27 2 40 0 13-1 25-4 38-4 20-1 39 1 59 5l30 5a467 467 0 0069 7l39 2 47 3a800 800 0 0089 0c14-2 27-4 40-9l34-17a539 539 0 01156-20l49-2c17 0 33-1 49-4 16-2 31-2 41 10 9 10 12 22 22 30 8 7 17 9 27 9l31-3 53-2 49-1 47-2c15-2 30-5 46-10 13-4 25-11 39-15s27-5 41-5 28 2 41 4l41 7c15 2 30 4 47 4" stroke="url(#paint28_linear)"/><path d="M-161 344c16 0 31 2 47 5l45 10 37 6c12 1 24 1 34-1 13-4 23-11 36-15 13-5 27-7 42-7 14-1 28 0 42 1l42 4c14 2 27 2 41 2 13-1 25-3 38-3 20 0 40 4 59 8l29 6a371 371 0 0069 8l39 1 50 4a836 836 0 0094-1c14-2 28-5 41-10s22-13 34-18c14-7 30-11 46-14a498 498 0 01110-10l49-2c17 0 33-1 50-3 16-1 31 0 39 13 6 10 7 22 15 31 13 15 37 10 55 9l54-2 50-1c16-1 32-1 47-4 15-2 30-5 45-10 13-5 26-13 39-17 13-5 27-6 40-6 14 0 27 2 41 4l39 8c14 2 29 4 46 4" stroke="url(#paint29_linear)"/><path d="M-155 358c15 0 31 2 46 5l44 10 36 8c12 1 23 1 33-2 12-4 22-12 34-17 13-5 27-8 42-9h41l42 4 41 2 38-1c20 1 40 5 59 10s37 10 57 12c13 2 26 3 40 3l39 1 52 4a857 857 0 0097-1c15-2 29-5 43-11 12-5 21-13 33-19 14-7 30-12 46-15a463 463 0 01109-12l50-2 50-1c16-1 33 0 39 14 5 10 3 22 10 32 10 15 36 11 53 11l55-1a1135 1135 0 0096-6c15-2 30-6 45-12 13-5 25-14 38-19s26-7 39-7l40 5 38 9 45 5" stroke="url(#paint30_linear)"/><path d="M-150 371c16 0 31 2 46 6l44 11c12 3 24 6 35 7 12 2 22 1 32-2 12-4 21-13 33-18s26-9 41-11l40-1 42 4c13 1 26 3 41 3l38 2c20 1 40 6 59 11a387 387 0 00135 16l53 3a859 859 0 0099 0c15-2 30-6 43-12 12-5 21-14 32-20 14-7 30-12 45-16a433 433 0 01110-14l50-1h51c16 0 34 1 40 16 3 10 0 21 6 31 9 15 36 12 53 12l56 1a850 850 0 0094-7c15-2 30-6 44-13 12-6 24-15 37-21 12-5 26-7 38-7 14 0 26 3 39 5l37 10c13 3 28 5 45 5" stroke="url(#paint31_linear)"/><path d="M-144 384c15 1 31 3 45 6l44 10c11 3 23 6 34 7 11 2 22 1 31-1 12-4 21-12 33-17 12-6 25-9 40-11 12-2 25-2 39-2l41 3 38 4a1475 1475 0 0170 8l29 7a471 471 0 0098 12l39 1 53 2a1010 1010 0 0098-1c15-2 30-5 43-10 12-4 22-12 33-17 14-7 30-11 45-15a510 510 0 01107-13 1445 1445 0 01101-4c16 0 33 2 40 16 5 9 3 21 10 30 10 15 35 12 53 12h55a878 878 0 0092-5c14-3 28-7 41-13 12-6 24-15 36-20 13-5 25-7 38-7s25 2 37 5l37 8c13 3 27 5 44 5" stroke="url(#paint32_linear)"/><path d="M-139 398c16 0 31 2 46 5l42 9c12 3 23 6 34 7s22 1 31-2c12-3 21-10 32-15 12-5 25-9 39-11 12-2 25-2 38-2a402 402 0 0185 8l46 7 47 8a737 737 0 0099 9l40 1 52 2a1241 1241 0 0097-2c15-2 30-4 44-8 12-4 22-10 33-15a615 615 0 01148-26 1482 1482 0 0198-4c16-1 34 2 42 14 6 9 7 20 15 28 12 14 36 12 54 12h54a915 915 0 0088-4c14-2 27-6 40-12 12-6 23-14 35-19s24-7 36-7c13 0 25 1 36 4l36 8c14 3 28 5 44 5" stroke="url(#paint33_linear)"/><path d="M-133 411c15 1 30 2 45 5l41 8 34 6c11 1 22 1 31-1 12-3 21-9 32-14 12-5 24-8 37-11a228 228 0 0177 0l38 6 40 8a1148 1148 0 00107 13l47 1 47 1h53a1641 1641 0 0096-2c14-1 29-3 43-6l33-11a410 410 0 0192-18 1214 1214 0 01145-11c17 0 34 2 45 13 8 8 12 18 21 25 15 12 37 11 57 11l52 1a971 971 0 0085-3c13-2 25-5 38-11 11-5 21-13 33-18s24-7 35-7c12 0 24 1 35 4l35 7c13 2 27 4 44 4" stroke="url(#paint34_linear)"/><path d="M-128 425c15 0 30 1 44 4l42 7 33 5c11 1 22 1 31-1 12-2 21-8 32-12a195 195 0 0172-14 266 266 0 0176 10l40 10a410 410 0 0062 7 1180 1180 0 0096 2h48a5981 5981 0 00147-3l43-4 32-8a719 719 0 0188-15 1505 1505 0 01138-11c18 0 36 2 50 11 10 7 17 16 28 22 9 5 18 7 29 8l30 1a1946 1946 0 0194 4l38-2c12-2 24-5 36-10 10-5 20-13 32-17 11-5 22-7 33-7 11-1 23 1 34 2l35 7 43 4" stroke="url(#paint35_linear)"/><path d="M-123 438c19 0 37 3 55 5l50 8c16 2 30 3 44 0 12-2 21-7 32-11a226 226 0 01147-1l37 11a257 257 0 0064 6l34-1 33-1 40-1h40l47-1a3728 3728 0 00141-6l35-4 35-5a3669 3669 0 01132-15c14-2 29-2 44-3 18 0 37 2 53 10 13 5 24 13 37 18 10 4 20 6 31 6l32 2 48 2 41 3 36-1c11-1 22-3 34-8 10-4 19-12 30-16 11-5 21-7 32-8l33 2 34 6c13 2 27 3 43 3" stroke="url(#paint36_linear)"/><path d="M-119 452c19 0 38 2 55 4l50 6c15 2 30 2 44 0 11-2 21-6 32-9a280 280 0 0168-13 192 192 0 0175 13c12 4 24 10 38 13a312 312 0 00101 1l35-3 40-1h39l47-2 47-2a4310 4310 0 01126-3 546 546 0 0075-7l41-5 47-6c16-1 32-2 48-1 16 0 31 3 46 7s29 11 45 15c11 2 22 4 33 4l34 2c17 0 32 2 46 3l39 4 34 1c10-1 21-3 31-7s19-11 29-15c10-5 20-7 31-8 10-1 21 0 32 1l34 5 42 3" stroke="url(#paint37_linear)"/><path d="M-115 465c19 0 38 2 55 3l49 5c16 1 31 2 45 0 11-2 21-4 32-8l32-8a207 207 0 0169-2l39 12c12 5 23 12 37 15 11 3 22 4 34 4 11 0 23 0 34-2l36-4a877 877 0 0177-7l40-1 50-2 50-2 42-1 42 1 30 3h34l38-4 38-6a906 906 0 0195-6c15 0 31 1 47 4l53 11c12 2 23 3 35 3l35 2 44 4 37 5c11 1 22 3 32 2 11 0 20-1 30-5 9-3 18-10 28-15 9-4 19-6 29-7h31l34 4 42 2" stroke="url(#paint38_linear)"/><path d="M-112 478c20 0 38 1 56 3l49 3h44l41-8c13-4 27-7 42-9a147 147 0 0186 14c12 6 23 13 37 17 11 3 23 4 35 4s23-1 35-3l38-7a696 696 0 0177-8l41-2 49-3a2269 2269 0 0192-3c14 0 28 1 41 3 10 1 20 5 30 7a366 366 0 0067-1l35-6a996 996 0 0174-7 742 742 0 0168 3l30 3a881 881 0 0068 6l36 1 42 5 36 6c21 4 40 6 59 0 8-3 16-10 26-14 9-4 18-6 28-7 9-2 19-1 30-1l33 3 43 1" stroke="url(#paint39_linear)"/><path d="M-110 492l56 1 49 3 44-1c14-1 27-4 40-7 14-4 28-7 43-9a140 140 0 0185 16c11 6 22 15 36 19 12 3 24 4 36 4 12-1 24-2 35-5l39-8a606 606 0 0179-11l41-1 49-4a1458 1458 0 0191-4c14 0 27 2 41 5 10 2 19 7 29 10s20 4 31 4l32-2 33-6 35-5a1580 1580 0 01107-1l33 2 34 2 39 1a447 447 0 0178 7l34 7c20 4 39 7 56 1 9-2 17-8 25-12 9-4 18-7 27-8l30-1 33 2 42 1" stroke="url(#paint40_linear)"/><path d="M-108 505l56 1 49 1a660 660 0 0075-4l31-7 31-5a117 117 0 0173 18c11 6 22 16 36 20 12 4 24 5 36 4l36-5 40-10a539 539 0 0180-12l41-2 48-5a1083 1083 0 0191-4c14 0 28 2 41 6l29 14c9 3 19 5 29 5 11 1 21 0 31-1l30-6 34-6a2503 2503 0 01108-3l37 1 36 1h40a393 393 0 0177 8l33 7c20 5 38 9 56 4l24-12c8-4 16-6 25-8l30-2 32 1 43 1" stroke="url(#paint41_linear)"/><path d="M-107 519H42c10 0 20 0 31-2l30-7c10-3 20-5 31-6a106 106 0 0172 18c12 7 22 17 37 22 11 4 24 5 36 4 12 0 25-3 37-6l40-10a512 512 0 0178-13l43-3 49-6a862 862 0 0190-5c14 1 28 3 41 8 10 4 19 11 29 16 9 5 19 8 29 9 20 2 39-3 58-8a565 565 0 0167-11l38-1h37l39 1h78a305 305 0 0188 10c14 4 27 8 40 10s25 3 36 0c8-2 16-8 24-12 8-3 16-6 25-7 9-2 18-2 28-2a772 772 0 0176 1" stroke="url(#paint42_linear)"/></g><defs><linearGradient id="paint1_linear" x1="1358.8" y1="-46.6" x2="1341" y2="132.2" gradientUnits="userSpaceOnUse"><stop stop-color="#DA2EEF"/><stop offset=".5" stop-color="#2B6AFF"/><stop offset="1" stop-color="#39D0D8"/></linearGradient><linearGradient id="paint2_linear" x1="1364" y1="-33.2" x2="1345.5" y2="149.6" gradientUnits="userSpaceOnUse"><stop stop-color="#DA2EEF"/><stop offset=".5" stop-color="#2B6AFF"/><stop offset="1" stop-color="#39D0D8"/></linearGradient><linearGradient id="paint3_linear" x1="1370" y1="-21" x2="1349.9" y2="170.2" gradientUnits="userSpaceOnUse"><stop stop-color="#DA2EEF"/><stop offset=".5" stop-color="#2B6AFF"/><stop offset="1" stop-color="#39D0D8"/></linearGradient><linearGradient id="paint4_linear" x1="1376.5" y1="-8.8" x2="1354.7" y2="190.9" gradientUnits="userSpaceOnUse"><stop stop-color="#DA2EEF"/><stop offset=".5" stop-color="#2B6AFF"/><stop offset="1" stop-color="#39D0D8"/></linearGradient><linearGradient id="paint5_linear" x1="1383.5" y1="3.4" x2="1360.1" y2="211.3" gradientUnits="userSpaceOnUse"><stop stop-color="#DA2EEF"/><stop offset=".5" stop-color="#2B6AFF"/><stop offset="1" stop-color="#39D0D8"/></linearGradient><linearGradient id="paint6_linear" x1="1391" y1="15.5" x2="1366" y2="230.9" gradientUnits="userSpaceOnUse"><stop stop-color="#DA2EEF"/><stop offset=".5" stop-color="#2B6AFF"/><stop offset="1" stop-color="#39D0D8"/></linearGradient><linearGradient id="paint7_linear" x1="1398.6" y1="27.7" x2="1372.4" y2="249.2" gradientUnits="userSpaceOnUse"><stop stop-color="#DA2EEF"/><stop offset=".5" stop-color="#2B6AFF"/><stop offset="1" stop-color="#39D0D8"/></linearGradient><linearGradient id="paint8_linear" x1="1406.4" y1="39.7" x2="1379.5" y2="265.4" gradientUnits="userSpaceOnUse"><stop stop-color="#DA2EEF"/><stop offset=".5" stop-color="#2B6AFF"/><stop offset="1" stop-color="#39D0D8"/></linearGradient><linearGradient id="paint9_linear" x1="1414.2" y1="53.5" x2="1389.3" y2="271.6" gradientUnits="userSpaceOnUse"><stop stop-color="#DA2EEF"/><stop offset=".5" stop-color="#2B6AFF"/><stop offset="1" stop-color="#39D0D8"/></linearGradient><linearGradient id="paint10_linear" x1="1421.9" y1="68.3" x2="1398.9" y2="279.1" gradientUnits="userSpaceOnUse"><stop stop-color="#DA2EEF"/><stop offset=".5" stop-color="#2B6AFF"/><stop offset="1" stop-color="#39D0D8"/></linearGradient><linearGradient id="paint11_linear" x1="1429.4" y1="84.2" x2="1407.4" y2="290.9" gradientUnits="userSpaceOnUse"><stop stop-color="#DA2EEF"/><stop offset=".5" stop-color="#2B6AFF"/><stop offset="1" stop-color="#39D0D8"/></linearGradient><linearGradient id="paint12_linear" x1="1436.5" y1="100.5" x2="1415.9" y2="301.3" gradientUnits="userSpaceOnUse"><stop stop-color="#DA2EEF"/><stop offset=".5" stop-color="#2B6AFF"/><stop offset="1" stop-color="#39D0D8"/></linearGradient><linearGradient id="paint13_linear" x1="1443.1" y1="117" x2="1424.1" y2="310.6" gradientUnits="userSpaceOnUse"><stop stop-color="#DA2EEF"/><stop offset=".5" stop-color="#2B6AFF"/><stop offset="1" stop-color="#39D0D8"/></linearGradient><linearGradient id="paint14_linear" x1="1449.2" y1="133.6" x2="1431.8" y2="319.5" gradientUnits="userSpaceOnUse"><stop stop-color="#DA2EEF"/><stop offset=".5" stop-color="#2B6AFF"/><stop offset="1" stop-color="#39D0D8"/></linearGradient><linearGradient id="paint15_linear" x1="1454.5" y1="150.2" x2="1438.6" y2="328.7" gradientUnits="userSpaceOnUse"><stop stop-color="#DA2EEF"/><stop offset=".5" stop-color="#2B6AFF"/><stop offset="1" stop-color="#39D0D8"/></linearGradient><linearGradient id="paint16_linear" x1="1459" y1="166.5" x2="1444.3" y2="338.6" gradientUnits="userSpaceOnUse"><stop stop-color="#DA2EEF"/><stop offset=".5" stop-color="#2B6AFF"/><stop offset="1" stop-color="#39D0D8"/></linearGradient><linearGradient id="paint17_linear" x1="1462.6" y1="182.5" x2="1448.8" y2="349.8" gradientUnits="userSpaceOnUse"><stop stop-color="#DA2EEF"/><stop offset=".5" stop-color="#2B6AFF"/><stop offset="1" stop-color="#39D0D8"/></linearGradient><linearGradient id="paint18_linear" x1="1465.1" y1="198.1" x2="1451.7" y2="363" gradientUnits="userSpaceOnUse"><stop stop-color="#DA2EEF"/><stop offset=".5" stop-color="#2B6AFF"/><stop offset="1" stop-color="#39D0D8"/></linearGradient><linearGradient id="paint19_linear" x1="1466.3" y1="212.4" x2="1452.5" y2="380.2" gradientUnits="userSpaceOnUse"><stop stop-color="#DA2EEF"/><stop offset=".5" stop-color="#2B6AFF"/><stop offset="1" stop-color="#39D0D8"/></linearGradient><linearGradient id="paint20_linear" x1="1466.3" y1="226.6" x2="1453.2" y2="390.2" gradientUnits="userSpaceOnUse"><stop stop-color="#DA2EEF"/><stop offset=".5" stop-color="#2B6AFF"/><stop offset="1" stop-color="#39D0D8"/></linearGradient><linearGradient id="paint21_linear" x1="1465" y1="239" x2="1453.2" y2="393.7" gradientUnits="userSpaceOnUse"><stop stop-color="#DA2EEF"/><stop offset=".5" stop-color="#2B6AFF"/><stop offset="1" stop-color="#39D0D8"/></linearGradient><linearGradient id="paint22_linear" x1="1462.5" y1="250.7" x2="1452" y2="396.4" gradientUnits="userSpaceOnUse"><stop stop-color="#DA2EEF"/><stop offset=".5" stop-color="#2B6AFF"/><stop offset="1" stop-color="#39D0D8"/></linearGradient><linearGradient id="paint23_linear" x1="1458.9" y1="261.7" x2="1449.7" y2="398.3" gradientUnits="userSpaceOnUse"><stop stop-color="#DA2EEF"/><stop offset=".5" stop-color="#2B6AFF"/><stop offset="1" stop-color="#39D0D8"/></linearGradient><linearGradient id="paint24_linear" x1="1454.4" y1="272.3" x2="1446.3" y2="399.9" gradientUnits="userSpaceOnUse"><stop stop-color="#DA2EEF"/><stop offset=".5" stop-color="#2B6AFF"/><stop offset="1" stop-color="#39D0D8"/></linearGradient><linearGradient id="paint25_linear" x1="1449" y1="282.5" x2="1442" y2="401.5" gradientUnits="userSpaceOnUse"><stop stop-color="#DA2EEF"/><stop offset=".5" stop-color="#2B6AFF"/><stop offset="1" stop-color="#39D0D8"/></linearGradient><linearGradient id="paint26_linear" x1="1443" y1="293.4" x2="1435.7" y2="414" gradientUnits="userSpaceOnUse"><stop stop-color="#DA2EEF"/><stop offset=".5" stop-color="#2B6AFF"/><stop offset="1" stop-color="#39D0D8"/></linearGradient><linearGradient id="paint27_linear" x1="1436.3" y1="305.6" x2="1427.5" y2="437.6" gradientUnits="userSpaceOnUse"><stop stop-color="#DA2EEF"/><stop offset=".5" stop-color="#2B6AFF"/><stop offset="1" stop-color="#39D0D8"/></linearGradient><linearGradient id="paint28_linear" x1="1429.2" y1="317.5" x2="1418.3" y2="463.1" gradientUnits="userSpaceOnUse"><stop stop-color="#DA2EEF"/><stop offset=".5" stop-color="#2B6AFF"/><stop offset="1" stop-color="#39D0D8"/></linearGradient><linearGradient id="paint29_linear" x1="1421.8" y1="329.7" x2="1409" y2="487.1" gradientUnits="userSpaceOnUse"><stop stop-color="#DA2EEF"/><stop offset=".5" stop-color="#2B6AFF"/><stop offset="1" stop-color="#39D0D8"/></linearGradient><linearGradient id="paint30_linear" x1="1414" y1="342.3" x2="1399.6" y2="508.5" gradientUnits="userSpaceOnUse"><stop stop-color="#DA2EEF"/><stop offset=".5" stop-color="#2B6AFF"/><stop offset="1" stop-color="#39D0D8"/></linearGradient><linearGradient id="paint31_linear" x1="1406.2" y1="355.4" x2="1390.8" y2="526.4" gradientUnits="userSpaceOnUse"><stop stop-color="#DA2EEF"/><stop offset=".5" stop-color="#2B6AFF"/><stop offset="1" stop-color="#39D0D8"/></linearGradient><linearGradient id="paint32_linear" x1="1398.5" y1="368.7" x2="1384.7" y2="529.5" gradientUnits="userSpaceOnUse"><stop stop-color="#DA2EEF"/><stop offset=".5" stop-color="#2B6AFF"/><stop offset="1" stop-color="#39D0D8"/></linearGradient><linearGradient id="paint33_linear" x1="1390.8" y1="382.6" x2="1379.3" y2="528.9" gradientUnits="userSpaceOnUse"><stop stop-color="#DA2EEF"/><stop offset=".5" stop-color="#2B6AFF"/><stop offset="1" stop-color="#39D0D8"/></linearGradient><linearGradient id="paint34_linear" x1="1383.4" y1="397.6" x2="1373.8" y2="530.8" gradientUnits="userSpaceOnUse"><stop stop-color="#DA2EEF"/><stop offset=".5" stop-color="#2B6AFF"/><stop offset="1" stop-color="#39D0D8"/></linearGradient><linearGradient id="paint35_linear" x1="1376.3" y1="413.4" x2="1368.5" y2="534.1" gradientUnits="userSpaceOnUse"><stop stop-color="#DA2EEF"/><stop offset=".5" stop-color="#2B6AFF"/><stop offset="1" stop-color="#39D0D8"/></linearGradient><linearGradient id="paint36_linear" x1="1369.8" y1="429.6" x2="1363.4" y2="537.7" gradientUnits="userSpaceOnUse"><stop stop-color="#DA2EEF"/><stop offset=".5" stop-color="#2B6AFF"/><stop offset="1" stop-color="#39D0D8"/></linearGradient><linearGradient id="paint37_linear" x1="1363.9" y1="445.7" x2="1358.7" y2="542.7" gradientUnits="userSpaceOnUse"><stop stop-color="#DA2EEF"/><stop offset=".5" stop-color="#2B6AFF"/><stop offset="1" stop-color="#39D0D8"/></linearGradient><linearGradient id="paint38_linear" x1="1358.7" y1="461" x2="1354.2" y2="550.7" gradientUnits="userSpaceOnUse"><stop stop-color="#DA2EEF"/><stop offset=".5" stop-color="#2B6AFF"/><stop offset="1" stop-color="#39D0D8"/></linearGradient><linearGradient id="paint39_linear" x1="1354.3" y1="474.5" x2="1349.1" y2="571.8" gradientUnits="userSpaceOnUse"><stop stop-color="#DA2EEF"/><stop offset=".5" stop-color="#2B6AFF"/><stop offset="1" stop-color="#39D0D8"/></linearGradient><linearGradient id="paint40_linear" x1="1351" y1="487.9" x2="1344.7" y2="593.7" gradientUnits="userSpaceOnUse"><stop stop-color="#DA2EEF"/><stop offset=".5" stop-color="#2B6AFF"/><stop offset="1" stop-color="#39D0D8"/></linearGradient><linearGradient id="paint41_linear" x1="1348.7" y1="501.3" x2="1341.5" y2="614.5" gradientUnits="userSpaceOnUse"><stop stop-color="#DA2EEF"/><stop offset=".5" stop-color="#2B6AFF"/><stop offset="1" stop-color="#39D0D8"/></linearGradient><linearGradient id="paint42_linear" x1="1347.7" y1="514.5" x2="1339.5" y2="635.3" gradientUnits="userSpaceOnUse"><stop stop-color="#DA2EEF"/><stop offset=".5" stop-color="#2B6AFF"/><stop offset="1" stop-color="#39D0D8"/></linearGradient><radialGradient id="paint0_radial" cx="0" cy="0" r="1" gradientUnits="userSpaceOnUse" gradientTransform="matrix(0 253 -620.177 0 660 253)"><stop stop-color="#C4C4C4"/><stop offset="1" stop-color="#C4C4C4" stop-opacity=".4"/></radialGradient></defs></svg>