<?xml version="1.0" encoding="utf-8"?>
<!-- Generator: Adobe Illustrator 25.0.1, SVG Export Plug-In . SVG Version: 6.00 Build 0)  -->
<svg version="1.1" id="图层_1" xmlns="http://www.w3.org/2000/svg" xmlns:xlink="http://www.w3.org/1999/xlink" x="0px" y="0px"
	 viewBox="0 0 460 515" style="enable-background:new 0 0 460 515;" xml:space="preserve">
<style type="text/css">
	.st0{fill-rule:evenodd;clip-rule:evenodd;fill:url(#SVGID_1_);fill-opacity:0.5;}
	.st1{opacity:0.5;}
	.st2{fill:none;stroke:url(#SVGID_2_);}
	.st3{fill-rule:evenodd;clip-rule:evenodd;fill:url(#SVGID_3_);}
	.st4{fill:none;stroke:url(#SVGID_4_);}
</style>
<g>
	
		<radialGradient id="SVGID_1_" cx="-66.9177" cy="679.5826" r="1" gradientTransform="matrix(-225.7999 126.6716 123.5369 220.2121 -98833.7266 -140918.1875)" gradientUnits="userSpaceOnUse">
		<stop  offset="0.3177" style="stop-color:#5AC4BE"/>
		<stop  offset="0.6719" style="stop-color:#3772FF"/>
		<stop  offset="1" style="stop-color:#C200FB"/>
	</radialGradient>
	<path class="st0" d="M230,40.4l15.5-9V13.5l-15.5-9l-15.5,9v17.9L230,40.4z M214,31.8l16,9.2l16-9.2V13.2L230,4l-16,9.2V31.8z
		 M253.5,123L230,136.4L206.5,123V96L230,82.6L253.5,96V123z M230,137l-24-13.8V95.8L230,82l24,13.8v27.5L230,137z M20,156.4l15.5-9
		v-17.9l-15.5-9l-15.5,9v17.9L20,156.4z M4,147.8l16,9.2l16-9.2v-18.5L20,120l-16,9.2V147.8z M123.5,192L100,205.4L76.5,192V165
		l23.5-13.5l23.5,13.5V192z M100,206l-24-13.8v-27.5l24-13.8l24,13.8v27.5L100,206z M221.5,211.8L192,228.8l-29.5-17.1v-34.1
		l29.5-17.1l29.5,17.1V211.8z M192,229.4l-30-17.3v-34.7l30-17.4l30,17.4v34.7L192,229.4z M221.5,335.8L192,352.8l-29.5-17.1v-34.1
		l29.5-17.1l29.5,17.1V335.8z M192,353.4L162,336v-34.7l30-17.4l30,17.4V336L192,353.4z M100,361.4l23.5-13.5V321L100,307.6
		L76.5,321V348L100,361.4z M76,348.2l24,13.8l24-13.8v-27.5L100,307l-24,13.8V348.2z M35.5,383.5l-15.5,9l-15.5-9v-17.9l15.5-9
		l15.5,9V383.5z M20,393l-16-9.2v-18.5l16-9.2l16,9.2v18.5L20,393z M268,228.8l29.5-17.1v-34.1L268,160.6l-29.5,17.1v34.1L268,228.8
		z M238,212.1l30,17.3l30-17.3v-34.7L268,160l-30,17.4V212.1z M383.5,192L360,205.4L336.5,192V165l23.5-13.5l23.5,13.5V192z
		 M360,206l-24-13.8v-27.5l24-13.8l24,13.8v27.5L360,206z M440,156.4l15.5-9v-17.9l-15.5-9l-15.5,9v17.9L440,156.4z M424,147.8
		l16,9.2l16-9.2v-18.5l-16-9.2l-16,9.2V147.8z M297.5,335.8L268,352.8l-29.5-17.1v-34.1l29.5-17.1l29.5,17.1V335.8z M268,353.4
		L238,336v-34.7l30-17.4l30,17.4V336L268,353.4z M360,361.4l23.5-13.5V321L360,307.6L336.5,321V348L360,361.4z M336,348.2l24,13.8
		l24-13.8v-27.5L360,307l-24,13.8V348.2z M455.5,383.5l-15.5,9l-15.5-9v-17.9l15.5-9l15.5,9V383.5z M440,393l-16-9.2v-18.5l16-9.2
		l16,9.2v18.5L440,393z M306,290.8l29.5-17.1v-34.1L306,222.6l-29.5,17.1v34.1L306,290.8z M276,274l30,17.4l30-17.4v-34.7L306,222
		l-30,17.4V274z M253.5,417.7L230,431.4l-23.5-13.7v-27.4l23.5-13.7l23.5,13.7V417.7z M230,432l-24-14v-28l24-14l24,14v28L230,432z
		 M230,510.4l15.5-9.2v-18.4l-15.5-9.2l-15.5,9.2v18.4L230,510.4z M214,501.5l16,9.5l16-9.5v-19l-16-9.5l-16,9.5V501.5z
		 M183.5,273.8L154,290.8l-29.5-17.1v-34.1l29.5-17.1l29.5,17.1V273.8z M154,291.4L124,274v-34.7l30-17.4l30,17.4V274L154,291.4z"/>
</g>
<g class="st1">
	
		<linearGradient id="SVGID_2_" gradientUnits="userSpaceOnUse" x1="244.4834" y1="264.8117" x2="214.9194" y2="253.6127" gradientTransform="matrix(1 0 0 -1 0 515.8898)">
		<stop  offset="0" style="stop-color:#C200FB"/>
		<stop  offset="0.4897" style="stop-color:#3772FF"/>
		<stop  offset="1" style="stop-color:#5AC4BE"/>
	</linearGradient>
	<path class="st2" d="M221.5,274H221h-5h-0.5v-0.5v-16.6v-0.5h0.5h16.5c1.4,0,2.8-0.6,3.8-1.6c1-1,1.6-2.4,1.6-3.8v0
		c0-0.7-0.1-1.4-0.4-2.1c-0.3-0.6-0.7-1.2-1.2-1.7l0,0l0,0c-0.5-0.5-1.1-0.9-1.7-1.2c-0.7-0.3-1.3-0.4-2.1-0.4h0H216h-0.5v-0.5V240
		v-0.5h0.5h16.5h0l0,0c3,0,5.9,1.2,8.1,3.4c2.1,2.1,3.4,5,3.4,8.1 M221.5,274v-0.5v-11.1 M221.5,274v-11.6 M221.5,262.4h9.4
		c2.1,0,4.1-0.3,6.1-0.9l0,0l0,0c2-0.8,3.8-2.3,5-4.1c1.3-1.9,2-4.2,2-6.5 M243.4,273.6h0.9l-0.4-0.7l-5.1-8.8l-0.2-0.4l-0.4,0.1
		c-1.6,0.6-3.3,0.9-5,1l-0.8,0l0.4,0.7l4.5,7.8l0.1,0.3h0.3H243.4z"/>
</g>
<radialGradient id="SVGID_3_" cx="-66.9177" cy="679.5826" r="1" gradientTransform="matrix(-225.7999 126.6716 123.5369 220.2121 -98833.7266 -140918.1875)" gradientUnits="userSpaceOnUse">
	<stop  offset="0.3177" style="stop-color:#5AC4BE"/>
	<stop  offset="0.6719" style="stop-color:#3772FF"/>
	<stop  offset="1" style="stop-color:#C200FB"/>
</radialGradient>
<path class="st3" d="M230,39.8l15-8.7V13.8l-15-8.7l-15,8.7v17.3L230,39.8z M214,31.8l16,9.2l16-9.2V13.2L230,4l-16,9.2V31.8z
	 M253,122.7l-23,13.2l-23-13.2V96.3l23-13.2l23,13.2V122.7z M230,137l-24-13.8V95.8L230,82l24,13.8v27.5L230,137z M20,155.8l15-8.7
	v-17.3l-15-8.7l-15,8.7v17.3L20,155.8z M4,147.8l16,9.2l16-9.2v-18.5L20,120l-16,9.2V147.8z M123,191.7l-23,13.2l-23-13.2v-26.3
	l23-13.2l23,13.2V191.7z M100,206l-24-13.8v-27.5l24-13.8l24,13.8v27.5L100,206z M221,211.5l-29,16.8l-29-16.8v-33.5l29-16.8
	l29,16.8V211.5z M192,229.4l-30-17.3v-34.7l30-17.4l30,17.4v34.7L192,229.4z M221,335.5l-29,16.8l-29-16.8v-33.5l29-16.8l29,16.8
	V335.5z M192,353.4L162,336v-34.7l30-17.4l30,17.4V336L192,353.4z M100,360.8l23-13.2v-26.3l-23-13.2l-23,13.2v26.3L100,360.8z
	 M76,348.2l24,13.8l24-13.8v-27.5L100,307l-24,13.8V348.2z M35,383.2l-15,8.7l-15-8.7v-17.3l15-8.7l15,8.7V383.2z M20,393l-16-9.2
	v-18.5l16-9.2l16,9.2v18.5L20,393z M268,228.2l29-16.8v-33.5l-29-16.8l-29,16.8v33.5L268,228.2z M238,212.1l30,17.3l30-17.3v-34.7
	L268,160l-30,17.4V212.1z M383,191.7l-23,13.2l-23-13.2v-26.3l23-13.2l23,13.2V191.7z M360,206l-24-13.8v-27.5l24-13.8l24,13.8v27.5
	L360,206z M440,155.8l15-8.7v-17.3l-15-8.7l-15,8.7v17.3L440,155.8z M424,147.8l16,9.2l16-9.2v-18.5l-16-9.2l-16,9.2V147.8z
	 M297,335.5l-29,16.8l-29-16.8v-33.5l29-16.8l29,16.8V335.5z M268,353.4L238,336v-34.7l30-17.4l30,17.4V336L268,353.4z M360,360.8
	l23-13.2v-26.3l-23-13.2l-23,13.2v26.3L360,360.8z M336,348.2l24,13.8l24-13.8v-27.5L360,307l-24,13.8V348.2z M455,383.2l-15,8.7
	l-15-8.7v-17.3l15-8.7l15,8.7V383.2z M440,393l-16-9.2v-18.5l16-9.2l16,9.2v18.5L440,393z M306,290.2l29-16.8v-33.5l-29-16.8
	l-29,16.8v33.5L306,290.2z M276,274l30,17.4l30-17.4v-34.7L306,222l-30,17.4V274z M253,417.4l-23,13.4l-23-13.4v-26.9l23-13.4
	l23,13.4V417.4z M230,432l-24-14v-28l24-14l24,14v28L230,432z M230,509.8l15-8.9v-17.9l-15-8.9l-15,8.9v17.9L230,509.8z M214,501.5
	l16,9.5l16-9.5v-19l-16-9.5l-16,9.5V501.5z M183,273.5l-29,16.8l-29-16.8v-33.5l29-16.8l29,16.8V273.5z M154,291.4L124,274v-34.7
	l30-17.4l30,17.4V274L154,291.4z"/>
<linearGradient id="SVGID_4_" gradientUnits="userSpaceOnUse" x1="244.4834" y1="264.8117" x2="214.9194" y2="253.6127" gradientTransform="matrix(1 0 0 -1 0 515.8898)">
	<stop  offset="0" style="stop-color:#C200FB"/>
	<stop  offset="0.4897" style="stop-color:#3772FF"/>
	<stop  offset="1" style="stop-color:#5AC4BE"/>
</linearGradient>
<path class="st4" d="M221.5,274H221h-5h-0.5v-0.5v-16.6v-0.5h0.5h16.5c1.4,0,2.8-0.6,3.8-1.6c1-1,1.6-2.4,1.6-3.8v0
	c0-0.7-0.1-1.4-0.4-2.1c-0.3-0.6-0.7-1.2-1.2-1.7l0,0l0,0c-0.5-0.5-1.1-0.9-1.7-1.2c-0.7-0.3-1.3-0.4-2.1-0.4h0H216h-0.5v-0.5V240
	v-0.5h0.5h16.5h0l0,0c3,0,5.9,1.2,8.1,3.4c2.1,2.1,3.4,5,3.4,8.1 M221.5,274v-0.5v-11.1 M221.5,274v-11.6 M221.5,262.4h9.4
	c2.1,0,4.1-0.3,6.1-0.9l0,0l0,0c2-0.8,3.8-2.3,5-4.1c1.3-1.9,2-4.2,2-6.5 M243.4,273.6h0.9l-0.4-0.7l-5.1-8.8l-0.2-0.4l-0.4,0.1
	c-1.6,0.6-3.3,0.9-5,1l-0.8,0l0.4,0.7l4.5,7.8l0.1,0.3h0.3H243.4z"/>
</svg>
