<svg width="744" height="801" fill="none" xmlns="http://www.w3.org/2000/svg"><g opacity=".6" clip-path="url(#clip0)"><path d="M365 413h4l6-4 4-5 3-7 1-5-4-4h-4l-6 4-4 5-3 7-1 5 4 4z"/><path d="M364 413h4l7-3 4-5 4-8v-5l-3-4h-4l-7 3-4 5-4 8v5l3 4z"/><path d="M363 413c1 1 3 2 4 1l7-4c2 0 4-3 5-4l4-8c1-2 2-5 1-6l-3-4c-1-1-3-2-4-1l-7 4c-2 0-4 3-5 4l-4 8c-1 2-2 5-1 6l3 4z"/><path d="M362 414h4l8-3 5-5 5-8 1-6-3-5h-4l-8 3-5 5-5 8-1 6 3 5z"/><path d="M361 414l5 1 7-3 6-5 5-8c1-2 2-5 1-6l-2-6-5-1-7 3-6 5-5 8c-1 2-2 5-1 6l2 6z"/><path d="M360 414c1 1 3 2 5 1l8-3 6-4 5-9c2-2 2-5 2-6l-2-6c-1-1-3-2-5-1l-8 3-6 4-5 9c-2 2-2 5-2 6l2 6z"/><path d="M359 414c1 1 3 2 5 1l8-2 6-5 7-8 2-7-2-6c-1-1-3-2-5-1l-8 2-6 5-7 8-2 7 2 6z"/><path d="M358 414l5 2 8-2 7-5 7-9c2-2 3-5 2-6l-1-7-5-2-8 2-7 5-7 9c-2 2-3 5-2 6l1 7z"/><path d="M357 414l5 2 9-2 7-4 7-9c2-2 3-5 3-7l-1-7-5-2-9 2-7 4-7 9c-2 2-3 5-3 7l1 7z"/><path d="M356 414c1 1 3 3 5 2l9-1 7-4 8-9c2-2 4-5 3-7v-8c-1-1-3-3-5-2l-9 1-7 4-8 9c-2 2-4 5-3 7v8z" stroke="url(#paint9_linear)" stroke-width=".1" stroke-miterlimit="10"/><path d="M355 413c1 2 3 4 5 3h9l8-5 9-8c2-2 3-6 3-8v-7c-1-2-3-4-5-3h-9l-8 5-9 8c-2 2-3 6-3 8v7z" stroke="url(#paint10_linear)" stroke-width=".1" stroke-miterlimit="10"/><path d="M354 413c0 2 2 4 5 4l9-1 8-4 10-8 4-8v-8c0-2-2-4-5-4l-9 1-8 4-10 8-4 8v8z" stroke="url(#paint11_linear)" stroke-width=".1" stroke-miterlimit="10"/><path d="M353 413c0 2 2 4 5 4h9c3 0 6-2 9-4l10-9 4-7 1-9c0-2-2-4-5-4h-9c-3 0-6 2-9 4l-10 9-4 7-1 9z" stroke="url(#paint12_linear)" stroke-width=".1" stroke-miterlimit="10"/><path d="M352 412c0 3 2 5 4 5h10c3 0 7-1 9-3l11-9c2-2 5-5 5-7l1-9c0-3-2-5-4-5h-10c-3 0-7 1-9 3l-11 9c-2 2-5 5-5 7l-1 9z" stroke="url(#paint13_linear)" stroke-width=".1" stroke-miterlimit="10"/><path d="M351 412c0 2 2 4 4 5l10 1c3 0 7-1 10-3l11-9c3-2 5-5 5-7l2-10c0-2-2-4-4-5l-10-1c-3 0-7 1-10 3l-11 9c-3 2-5 5-5 7l-2 10z" stroke="url(#paint14_linear)" stroke-width=".1" stroke-miterlimit="10"/><path d="M350 411c0 3 2 5 4 6l10 1c3 1 7 0 10-2l12-8c3-2 5-6 6-8l2-10c0-3-2-5-4-6l-10-1c-3-1-7 0-10 2l-12 8c-3 2-5 6-6 8l-2 10z" stroke="url(#paint15_linear)" stroke-width=".1" stroke-miterlimit="10"/><path d="M349 411c0 2 1 5 4 5l10 3 10-2 13-8c3-2 6-6 6-8l3-11c0-2-1-5-4-5l-10-3-10 2-13 8c-3 2-6 6-6 8l-3 11z" stroke="url(#paint16_linear)" stroke-width=".1" stroke-miterlimit="10"/><path d="M348 410c0 3 1 5 4 6l10 3c2 1 7 0 10-2l13-7c4-2 7-6 8-8l3-11c0-3-1-5-4-6l-10-3c-2-1-7 0-10 2l-13 7c-4 2-7 6-8 8l-3 11z" stroke="url(#paint17_linear)" stroke-width=".1" stroke-miterlimit="10"/><path d="M348 409c-1 3 0 6 2 7l11 4c2 1 7 0 10-2l14-7c4-2 7-5 8-8l3-11c1-3 0-6-2-7l-11-4c-2-1-7 0-10 2l-14 7c-4 2-7 5-8 8l-3 11z" stroke="url(#paint18_linear)" stroke-width=".1" stroke-miterlimit="10"/><path d="M347 408c-1 3 0 6 2 7l10 5c3 1 8 1 11-1l15-7c3-1 7-5 8-8l4-11c1-3 0-6-2-7l-10-5c-3-1-8-1-11 1l-15 7c-3 1-7 5-8 8l-4 11z" stroke="url(#paint19_linear)" stroke-width=".1" stroke-miterlimit="10"/><path d="M346 407c-2 3 0 7 2 8l10 5c3 2 8 2 11 0l16-6 8-8 5-12c2-3 0-7-2-8l-10-5c-3-2-8-2-11 0l-16 6-8 8-5 12z" stroke="url(#paint20_linear)" stroke-width=".1" stroke-miterlimit="10"/><path d="M345 406c-2 3-1 7 2 8l10 7h11l16-6c4-1 8-5 9-8l6-12c2-3 1-7-2-8l-10-7h-11l-16 6c-4 1-8 5-9 8l-6 12z" stroke="url(#paint21_linear)" stroke-width=".1" stroke-miterlimit="10"/><path d="M344 405c-2 3-1 7 2 9l10 7c2 2 7 2 11 1l17-6c3-1 8-4 10-7l6-13c2-3 1-7-2-9l-10-7c-2-2-7-2-11-1l-17 6c-3 1-8 4-10 7l-6 13z" stroke="url(#paint22_linear)" stroke-width=".1" stroke-miterlimit="10"/><path d="M343 404c-2 3-1 7 1 9l10 8c2 2 8 3 12 1l17-4c4-1 9-5 11-8l7-13c2-3 1-7-1-9l-10-8c-2-2-8-3-12-1l-17 4c-4 1-9 5-11 8l-7 13z" stroke="url(#paint23_linear)" stroke-width=".1" stroke-miterlimit="10"/><path d="M343 402c-2 3-2 8 0 10l10 9c2 2 7 3 12 2l17-4c4-1 9-4 11-7l8-13c2-3 2-8 0-10l-10-9c-2-2-7-3-12-2l-17 4c-4 1-9 4-11 7l-8 13z" stroke="url(#paint24_linear)" stroke-width=".1" stroke-miterlimit="10"/><path d="M342 401c-2 3-2 8 0 10l9 10c2 2 8 4 12 3l18-3c5-1 10-4 12-7l9-14c2-3 2-8 0-10l-9-10c-2-2-8-4-12-3l-18 3c-5 1-10 4-12 7l-9 14z" stroke="url(#paint25_linear)" stroke-width=".1" stroke-miterlimit="10"/><path d="M341 399c-2 3-2 8 0 11l9 11c2 3 7 4 12 4l18-3c5 0 11-3 13-7l10-13c2-3 2-8 0-11l-9-11c-2-3-7-4-12-4l-18 3c-5 0-11 3-13 7l-10 13z" stroke="url(#paint26_linear)" stroke-width=".1" stroke-miterlimit="10"/><path d="M341 397c-3 4-3 9-1 12l8 12c2 3 8 5 12 4l19-1c5 0 11-3 14-7l10-13c3-4 3-9 1-12l-8-12c-2-3-8-5-12-4l-19 1c-5 0-11 3-14 7l-10 13z" stroke="url(#paint27_linear)" stroke-width=".1" stroke-miterlimit="10"/><path d="M340 395c-2 4-3 9-1 12l8 13c2 4 7 6 12 6h19c5-1 11-3 14-7l12-13c2-4 3-9 1-12l-8-13c-2-4-7-6-12-6h-19c-5 1-11 3-14 7l-12 13z" stroke="url(#paint28_linear)" stroke-width=".1" stroke-miterlimit="10"/><path d="M340 393c-3 4-4 9-2 13l7 14c2 4 7 6 12 7h20c5 0 11-2 14-6l13-13c3-4 4-9 2-13l-7-14c-2-4-7-6-12-7h-20c-5 0-11 2-14 6l-13 13z" stroke="url(#paint29_linear)" stroke-width=".1" stroke-miterlimit="10"/><path d="M340 391c-3 4-5 9-3 13l7 16c1 3 7 7 11 7l21 2c5 0 11-2 15-5l13-14c3-4 5-9 3-13l-7-16c-1-3-7-7-11-7l-21-2c-5 0-11 2-15 5l-13 14z" stroke="url(#paint30_linear)" stroke-width=".1" stroke-miterlimit="10"/><path d="M340 389c-4 3-6 9-4 13l6 17c1 4 7 8 12 9l20 3c5 0 12-2 16-5l14-14c4-3 6-9 4-13l-6-17c-1-4-7-8-12-9l-20-3c-5 0-12 2-16 5l-14 14z" stroke="url(#paint31_linear)" stroke-width=".1" stroke-miterlimit="10"/><path d="M340 387c-4 3-6 9-5 13l5 18c2 5 7 9 12 10l21 4c5 1 12-1 16-4l15-14c4-3 6-9 5-13l-5-18c-2-5-7-9-12-10l-21-4c-5-1-12 1-16 4l-15 14z" stroke="url(#paint32_linear)" stroke-width=".1" stroke-miterlimit="10"/><path d="M340 384c-4 3-7 10-6 14l5 20c1 4 6 9 11 10l21 6c5 1 13 0 17-4l16-13c4-3 7-10 6-14l-5-20c-1-4-6-9-11-10l-21-6c-5-1-13 0-17 4l-16 13z" stroke="url(#paint33_linear)" stroke-width=".1" stroke-miterlimit="10"/><path d="M340 382c-4 3-7 9-6 14l3 21c1 4 6 10 11 11l21 8c5 1 13 0 17-3l18-14c4-3 7-9 6-14l-3-21c-1-4-6-10-11-11l-21-8c-5-1-13 0-17 3l-18 14z" stroke="url(#paint34_linear)" stroke-width=".1" stroke-miterlimit="10"/><path d="M340 379c-4 3-7 10-7 15l3 21c0 6 5 12 10 14l21 8c6 2 13 1 18-2l19-13c4-3 7-10 7-15l-3-21c0-6-5-12-10-14l-21-8c-6-2-13-1-18 2l-19 13z" stroke="url(#paint35_linear)" stroke-width=".1" stroke-miterlimit="10"/><path d="M341 376c-5 3-8 10-8 15l1 23c1 6 5 12 10 15l21 10c5 2 14 2 18-1l20-13c5-3 8-10 8-15l-1-23c-1-6-5-12-10-15l-21-10c-5-2-13-2-18 1l-20 13z" stroke="url(#paint36_linear)" stroke-width=".1" stroke-miterlimit="10"/><path d="M342 373c-5 3-9 10-9 16v24c0 6 4 13 9 16l21 11c5 3 13 3 18 0l21-12c5-3 9-10 9-16v-24c0-6-4-13-9-16l-21-11c-5-3-13-3-18 0l-21 12z" stroke="url(#paint37_linear)" stroke-width=".1" stroke-miterlimit="10"/><path d="M343 370c-6 3-10 10-10 16l-1 25c-1 6 3 14 8 17l21 14c5 3 13 4 19 1l21-12c6-3 10-10 10-16l1-25c1-6-3-14-8-17l-21-14c-5-3-13-4-19-1l-21 12z" stroke="url(#paint38_linear)" stroke-width=".1" stroke-miterlimit="10"/><path d="M344 367c-6 2-11 10-11 16l-3 27c0 6 3 14 8 18l21 15c4 4 13 5 18 2l23-11c6-2 11-10 11-16l3-27c0-6-3-14-8-18l-21-15c-4-4-13-5-18-2l-23 11z" stroke="url(#paint39_linear)" stroke-width=".1" stroke-miterlimit="10"/><path d="M345 363c-6 3-11 10-12 17l-4 28c-1 7 2 15 7 20l20 17c5 4 13 5 19 3l24-10c6-3 11-10 12-17l4-28c1-7-2-15-7-20l-20-17c-5-4-13-5-19-3l-24 10z" stroke="url(#paint40_linear)" stroke-width=".2" stroke-miterlimit="10"/><path d="M346 360c-6 2-12 10-13 17l-5 29c-2 7 1 16 6 21l19 19c5 5 14 7 20 5l25-10c6-2 12-10 13-17l5-29c2-7-1-16-6-21l-19-19c-5-5-14-7-20-5l-25 10z" stroke="url(#paint41_linear)" stroke-width=".2" stroke-miterlimit="10"/><path d="M348 357c-6 2-13 9-14 17l-7 30c-2 7 0 17 5 22l18 22c5 5 14 7 20 5l26-9c6-2 13-9 14-17l7-30c2-7 0-17-5-22l-18-22c-5-5-14-7-20-5l-26 9z" stroke="url(#paint42_linear)" stroke-width=".2" stroke-miterlimit="10"/><path d="M350 353c-6 2-13 10-16 17l-8 31c-3 8-1 19 4 24l18 24c4 5 13 9 19 7l27-8c6-2 14-10 16-17l8-31c3-8 1-19-4-24l-18-24c-4-5-13-9-19-7l-27 8z" stroke="url(#paint43_linear)" stroke-width=".2" stroke-miterlimit="10"/><path d="M352 349c-7 2-14 10-17 17l-10 33c-3 8-2 19 2 25l18 26c4 6 12 10 19 8l28-6c7-2 14-10 17-17l10-33c3-8 2-19-2-25l-18-26c-4-6-12-10-19-8l-28 6z" stroke="url(#paint44_linear)" stroke-width=".2" stroke-miterlimit="10"/><path d="M354 346c-6 1-15 9-18 17l-12 33c-3 8-3 20 1 27l16 28c4 7 13 11 20 10l29-6c6-1 15-9 18-17l12-33c3-8 3-20-1-27l-16-28c-4-7-13-11-20-10l-29 6z" stroke="url(#paint45_linear)" stroke-width=".2" stroke-miterlimit="10"/><path d="M357 342c-7 1-16 8-19 17l-15 34c-3 9-3 21 0 29l15 30c4 7 12 12 19 11l30-4c7-1 16-8 19-17l15-34c3-9 3-21 0-29l-15-30c-4-7-12-12-19-11l-30 4z" stroke="url(#paint46_linear)" stroke-width=".2" stroke-miterlimit="10"/><path d="M360 338c-7 1-17 8-21 17l-16 35c-4 9-5 22-2 30l14 33c3 7 12 13 19 13l30-3c7-1 17-8 21-17l16-35c4-9 5-22 2-30l-14-33c-3-7-12-13-19-13l-30 3z" stroke="url(#paint47_linear)" stroke-width=".2" stroke-miterlimit="10"/><path d="M363 334c-7 0-17 8-22 17l-19 36c-4 9-6 23-3 31l12 35c3 9 12 15 19 15l31-1c7 0 17-8 22-17l19-36c4-9 6-23 3-31l-12-35c-3-9-12-15-19-15l-31 1z" stroke="url(#paint48_linear)" stroke-width=".2" stroke-miterlimit="10"/><path d="M366 330c-7 0-18 7-23 16l-21 37c-5 9-7 24-5 33l11 38c2 9 10 16 18 16l32 1c7 0 18-7 23-16l21-37c5-9 7-24 5-33l-11-38c-2-9-10-16-18-16l-32-1z" stroke="url(#paint49_linear)" stroke-width=".2" stroke-miterlimit="10"/><path d="M370 326c-8 0-19 7-24 16l-24 38c-6 9-9 24-7 34l9 40c2 10 10 18 18 18l32 3c8 0 19-7 24-16l24-38c6-9 9-24 7-34l-9-40c-2-10-10-18-18-18l-32-3z" stroke="url(#paint50_linear)" stroke-width=".2" stroke-miterlimit="10"/><path d="M374 322c-8-1-20 6-26 15l-26 39c-6 9-10 25-8 35l6 43c2 10 10 19 17 20l33 5c8 0 20-6 26-15l26-39c6-9 10-25 8-35l-6-43c-2-10-10-19-17-20l-33-5z" stroke="url(#paint51_linear)" stroke-width=".2" stroke-miterlimit="10"/><path d="M378 319c-8-2-20 5-27 14l-29 39c-6 9-11 26-10 37l4 45c1 11 9 21 17 22l33 6c8 2 20-5 27-14l29-39c6-9 11-26 10-37l-4-45c-1-11-9-21-17-22l-33-6z" stroke="url(#paint52_linear)" stroke-width=".2" stroke-miterlimit="10"/><path d="M383 315c-8-2-21 4-29 13l-31 40c-8 9-13 26-13 38l2 48c1 11 8 22 16 24l33 8c8 2 21-4 29-13l31-40c8-9 13-26 13-38l-2-48c-1-11-8-22-16-24l-33-8z" stroke="url(#paint53_linear)" stroke-width=".2" stroke-miterlimit="10"/><path d="M387 311c-8-3-21 3-29 13l-34 39c-8 10-15 28-15 40l-1 50c0 12 7 24 15 27l34 10c8 3 21-3 29-13l34-39c8-10 15-28 15-40l1-50c0-12-7-24-15-27l-34-10z" stroke="url(#paint54_linear)" stroke-width=".3" stroke-miterlimit="10"/><path d="M392 307c-8-3-22 2-30 12l-37 40c-9 9-17 28-17 40l-4 53c0 13 6 26 14 29l34 13c8 3 22-2 30-12l37-40c9-9 17-28 17-40l4-53c0-13-6-26-14-29l-34-13z" stroke="url(#paint55_linear)" stroke-width=".3" stroke-miterlimit="10"/><path d="M398 304c-8-4-23 1-32 10l-40 40a81 81 0 00-20 42l-6 55c-1 13 4 27 13 31l33 15c8 4 23-1 32-10l40-40c9-10 18-28 20-42l6-55c1-13-4-27-13-31l-33-15z" stroke="url(#paint56_linear)" stroke-width=".3" stroke-miterlimit="10"/><path d="M403 300c-8-4-23 0-33 9l-42 40a86 86 0 00-23 43l-9 58c-2 14 3 29 11 33l34 18c8 4 23 0 33-9l42-40c10-10 20-29 23-43l9-58c2-14-3-29-11-33l-34-18z" stroke="url(#paint57_linear)" stroke-width=".3" stroke-miterlimit="10"/><path d="M409 297c-8-5-23-2-34 8l-45 39c-11 10-23 29-25 44l-13 60c-3 15 1 31 9 36l34 20c8 5 23 2 34-8l45-39c11-10 23-29 25-44l13-60c3-15-1-31-9-36l-34-20z" stroke="url(#paint58_linear)" stroke-width=".3" stroke-miterlimit="10"/><path d="M416 293c-8-5-24-2-36 7l-48 39c-12 9-24 29-28 44l-16 63c-4 15 0 32 8 38l32 24c8 5 24 2 36-7l48-39c12-9 24-29 28-44l16-63c4-15 0-32-8-38l-32-24z" stroke="url(#paint59_linear)" stroke-width=".3" stroke-miterlimit="10"/><path d="M422 290c-7-6-24-4-36 5l-52 39c-12 9-26 29-30 45l-20 65c-4 15-2 34 6 40l32 27c7 6 24 4 36-5l52-39c12-9 26-29 30-45l20-65c4-15 2-34-6-40l-32-27z" stroke="url(#paint60_linear)" stroke-width=".3" stroke-miterlimit="10"/><path d="M429 287c-7-7-24-5-37 4l-55 37c-13 9-28 30-34 46l-23 67c-5 16-4 36 4 43l31 30c7 7 24 5 37-4l55-37c13-9 28-30 34-46l23-67c5-16 4-36-4-43l-31-30z" stroke="url(#paint61_linear)" stroke-width=".3" stroke-miterlimit="10"/><path d="M436 285c-7-8-24-8-38 1l-58 37c-13 8-30 29-36 46l-28 69c-6 17-6 37 2 45l30 33c7 8 24 8 38-1l58-37c13-8 30-29 36-46l28-69c6-17 6-37-2-45l-30-33z" stroke="url(#paint62_linear)" stroke-width=".3" stroke-miterlimit="10"/><path d="M444 282c-7-8-25-9-39 0l-61 35c-14 8-33 29-40 46l-32 72c-7 17-8 38-1 47l29 37c7 8 25 9 39 0l61-35c14-8 33-29 40-46l32-72c7-17 8-38 1-47l-29-37z" stroke="url(#paint63_linear)" stroke-width=".3" stroke-miterlimit="10"/><path d="M451 280c-6-9-24-11-40-3l-63 34c-15 8-35 29-43 47l-36 73c-9 18-10 40-4 50l28 40c6 9 24 11 40 3l63-34c15-8 35-29 43-47l36-73c9-18 10-40 4-50l-28-40z" stroke="url(#paint64_linear)" stroke-width=".4" stroke-miterlimit="10"/><path d="M459 278c-6-10-24-12-40-5l-67 32c-16 8-37 29-46 47l-41 75c-10 18-12 42-6 52l26 44c6 10 24 12 40 5l67-32c16-8 37-29 46-47l41-75c10-18 12-42 6-52l-26-44z" stroke="url(#paint65_linear)" stroke-width=".4" stroke-miterlimit="10"/><path d="M467 277c-5-11-24-15-41-8l-69 30c-17 7-39 28-50 47l-45 77c-11 18-15 42-9 54l24 47c5 11 24 15 41 8l69-30c17-7 39-28 50-47l45-77c11-18 15-42 9-54l-24-47z" stroke="url(#paint66_linear)" stroke-width=".4" stroke-miterlimit="10"/><path d="M476 276c-6-12-24-17-42-10l-72 27c-17 7-41 27-53 46l-51 79c-12 18-17 44-12 56l22 51c6 12 24 17 42 10l72-27c17-7 41-27 53-46l51-79c12-18 17-44 12-56l-22-51z" stroke="url(#paint67_linear)" stroke-width=".4" stroke-miterlimit="10"/><path d="M484 275c-4-13-23-19-41-13l-75 25c-18 6-44 26-57 46l-56 79c-13 19-20 46-15 59l20 55c4 13 23 19 41 13l75-25c18-6 44-26 57-46l56-79c13-19 20-46 15-59l-20-55z" stroke="url(#paint68_linear)" stroke-width=".4" stroke-miterlimit="10"/><path d="M493 275c-4-14-23-21-41-16l-78 22c-19 5-46 25-61 45l-60 80c-15 20-24 47-19 61l17 59c4 14 23 21 41 16l78-22c19-5 46-25 61-45l60-80c15-20 24-47 19-61l-17-59z" stroke="url(#paint69_linear)" stroke-width=".4" stroke-miterlimit="10"/><path d="M502 275c-3-15-22-23-41-19l-81 19c-19 4-48 24-64 44l-66 81c-16 20-26 48-23 63l15 63c3 15 22 23 41 19l81-19c19-4 48-24 64-44l66-81c16-20 26-48 23-63l-15-63z" stroke="url(#paint70_linear)" stroke-width=".4" stroke-miterlimit="10"/><path d="M511 276c-2-16-21-26-41-22l-83 15c-20 4-50 23-68 42l-71 82c-18 20-29 49-27 65l12 67c2 16 21 26 41 22l83-15c20-4 50-23 68-42l71-82c18-20 29-49 27-65l-12-67z" stroke="url(#paint71_linear)" stroke-width=".5" stroke-miterlimit="10"/><path d="M521 277c-2-17-21-28-41-25l-86 11c-20 3-52 21-71 41l-77 82c-19 20-33 50-31 67l8 71c2 17 21 28 41 25l86-11c20-3 52-21 71-41l77-82c19-20 33-50 31-67l-8-71z" stroke="url(#paint72_linear)" stroke-width=".5" stroke-miterlimit="10"/><path d="M530 279c-1-18-19-31-40-29l-88 7c-21 2-55 20-75 39l-83 82c-20 20-35 51-34 69l4 75c1 18 19 31 40 29l88-7c21-2 55-20 75-39l83-82c20-20 35-51 34-69l-4-75z" stroke="url(#paint73_linear)" stroke-width=".5" stroke-miterlimit="10"/><path d="M539 282c0-19-17-34-39-33l-90 3c-21 0-57 17-78 36l-89 82c-22 20-39 51-39 70l1 79c0 19 17 34 39 33l90-3c21 0 57-17 78-36l89-82c22-20 39-51 39-70l-1-79z" stroke="url(#paint74_linear)" stroke-width=".5" stroke-miterlimit="10"/><path d="M549 285c1-20-16-37-38-37l-92-2c-22 0-59 15-82 35l-95 81c-23 19-42 51-43 71l-4 83c-1 20 16 37 38 37l92 2c22 0 59-15 82-35l95-81c23-19 42-51 43-71l4-83z" stroke="url(#paint75_linear)" stroke-width=".5" stroke-miterlimit="10"/><path d="M558 289c2-21-14-40-37-41l-93-7c-22-2-61 12-85 31l-101 80c-25 20-46 52-48 73l-8 87c-2 21 14 40 37 41l93 7c22 2 61-12 85-31l101-80c25-20 46-52 48-73l8-87z" stroke="url(#paint76_linear)" stroke-width=".5" stroke-miterlimit="10"/><path d="M568 293c3-21-13-42-36-45l-94-12c-23-3-63 9-89 28l-107 79c-26 19-50 52-53 74l-13 91c-3 21 13 42 36 45l94 12c23 3 63-9 89-28l107-79c26-19 50-52 53-74l13-91z" stroke="url(#paint77_linear)" stroke-width=".6" stroke-miterlimit="10"/><path d="M577 299c5-23-11-45-34-50l-95-18c-23-5-65 7-92 25l-114 77c-27 18-53 52-57 74l-18 95c-5 23 11 45 34 50l95 18c23 5 65-7 92-25l114-77c27-18 53-52 57-74l18-95z" stroke="url(#paint78_linear)" stroke-width=".6" stroke-miterlimit="10"/><path d="M587 305c5-24-9-48-32-54l-97-25c-23-6-66 4-94 22l-121 74c-28 18-57 52-62 75l-24 99c-5 24 9 48 32 54l97 25c23 6 66-4 94-22l121-74c28-18 57-52 62-75l24-99z" stroke="url(#paint79_linear)" stroke-width=".6" stroke-miterlimit="10"/><path d="M596 312c7-25-6-51-30-59l-97-31c-23-7-67 0-97 18l-127 71c-30 17-61 51-68 76l-29 102c-7 25 6 51 30 59l97 31c23 7 67 0 97-18l127-71c30-17 61-51 68-76l29-102z" stroke="url(#paint80_linear)" stroke-width=".6" stroke-miterlimit="10"/><path d="M605 320c8-26-4-54-27-63l-98-39c-23-9-68-3-100 13l-133 68c-31 17-64 51-73 76l-35 106c-8 26 4 54 27 63l98 39c23 9 68 3 100-13l133-68c31-17 64-51 73-76l35-106z" stroke="url(#paint81_linear)" stroke-width=".7" stroke-miterlimit="10"/><path d="M614 328c10-26-1-57-25-67l-97-46c-23-11-69-7-103 8l-138 64c-34 16-69 50-79 76l-42 110c-10 26 1 57 25 67l97 46c23 11 69 7 103-8l138-64c34-16 69-50 79-76l42-110z" stroke="url(#paint82_linear)" stroke-width=".7" stroke-miterlimit="10"/><path d="M622 338c12-27 2-60-21-73l-97-53c-23-13-70-11-105 3l-145 60c-34 14-72 48-84 75l-48 113c-12 27-2 60 21 73l97 53c23 13 70 11 105-3l145-60c34-14 72-48 84-75l48-113z" stroke="url(#paint83_linear)" stroke-width=".7" stroke-miterlimit="10"/><path d="M630 348c13-27 6-62-17-77l-96-61c-23-15-71-16-108-3l-150 55c-36 13-77 46-90 74l-55 117c-13 27-6 62 17 77l96 61c23 15 71 16 108 3l150-55c36-13 77-46 90-74l55-117z" stroke="url(#paint84_linear)" stroke-width=".7" stroke-miterlimit="10"/><path d="M638 360c15-29 9-66-14-82l-94-70c-23-17-72-21-109-9l-157 49c-38 12-81 45-96 74l-62 119c-15 29-9 66 14 82l94 70c23 17 72 21 109 9l157-49c38-12 81-45 96-74l62-119z" stroke="url(#paint85_linear)" stroke-width=".8" stroke-miterlimit="10"/><path d="M645 373c17-30 13-69-10-88l-92-78c-22-19-72-26-111-16l-162 44c-39 10-84 42-101 72L99 428c-17 30-13 69 10 88l92 78c22 19 72 26 111 16l162-44c39-10 84-42 101-72l70-121z" stroke="url(#paint86_linear)" stroke-width=".8" stroke-miterlimit="10"/><path d="M652 386c18-29 16-71-5-92l-90-88c-22-21-72-31-113-22l-167 37c-40 8-88 40-107 70L92 415c-18 29-16 71 5 92l90 88c22 21 72 31 113 22l167-37c40-8 88-40 107-70l78-124z" stroke="url(#paint87_linear)" stroke-width=".8" stroke-miterlimit="10"/><path d="M658 401c20-30 20-74-1-97l-86-97c-21-24-72-37-114-30l-172 29c-42 7-92 38-113 68L86 400c-20 30-20 74 1 97l86 97c21 24 72 37 114 30l172-29c42-7 92-38 113-68l86-126z" stroke="url(#paint88_linear)" stroke-width=".8" stroke-miterlimit="10"/><path d="M663 417c23-31 25-77 5-103l-83-106c-20-26-71-43-114-38l-178 21c-42 5-95 35-118 65L81 384c-23 31-25 77-5 103l83 106c20 26 71 43 114 38l178-21c42-5 95-35 118-65l94-128z" stroke="url(#paint89_linear)" stroke-width=".9" stroke-miterlimit="10"/><path d="M668 434c25-31 29-80 10-108l-79-117c-19-28-70-48-114-45l-182 12c-44 3-99 31-124 62L76 367c-25 31-29 80-10 108l79 117c19 28 70 48 114 45l182-12c44-3 99-31 124-62l103-129z" stroke="url(#paint90_linear)" stroke-width=".9" stroke-miterlimit="10"/><path d="M672 452c27-32 34-82 16-113l-74-127c-18-30-69-55-114-54l-186 3c-45 1-103 27-130 58L72 349c-27 32-34 82-16 113l74 127c18 30 69 55 114 54l186-3c45-1 103-27 130-58l112-130z" stroke="url(#paint91_linear)" stroke-width=".9" stroke-miterlimit="10"/><path d="M675 471c29-32 39-84 22-117l-69-138c-16-33-67-62-113-63l-190-7c-45-2-106 22-135 53L69 330c-29 32-39 84-22 117l69 138c16 33 67 62 113 63l190 7c45 2 106-22 135-53l121-131z" stroke="url(#paint92_linear)" stroke-miterlimit="10"/><path d="M677 491c31-31 44-86 29-122l-63-148c-15-36-65-69-112-73l-193-18c-46-4-110 18-141 49L67 310c-31 31-44 86-29 122l63 148c15 36 65 69 112 73l193 18c46 4 110-18 141-49l130-131z" stroke="url(#paint93_linear)" stroke-miterlimit="10"/><path d="M678 513c33-32 50-89 36-127l-56-160c-14-38-63-75-110-82l-196-30c-47-7-113 13-146 44L66 288c-33 32-50 89-36 127l56 160c14 38 63 75 110 82l196 30c47 7 113-13 146-44l140-130z" stroke="url(#paint94_linear)" stroke-miterlimit="10"/><path d="M678 535c35-31 55-90 43-131l-49-171c-11-41-60-83-107-93L367 98c-48-10-116 8-152 39L66 266c-35 31-55 90-43 131l49 171c11 41 60 83 107 93l198 42c48 10 116-8 152-39l149-129z" stroke="url(#paint95_linear)" stroke-width="1.1" stroke-miterlimit="10"/><path d="M676 559c38-31 61-92 52-135l-41-183c-10-44-57-90-105-103L383 83c-48-13-118 1-156 31L68 242c-38 31-61 92-52 135l41 183c10 44 57 90 105 103l199 55c48 13 118-1 156-31l159-128z" stroke="url(#paint96_linear)" stroke-width="1.1" stroke-miterlimit="10"/><path d="M674 584c40-30 67-93 59-140l-31-194c-8-46-54-98-102-114L400 67c-48-16-120-5-161 25L70 217c-40 30-67 93-59 140l31 194c8 46 54 98 102 114l200 69c48 16 120 5 161-25l169-125z" stroke="url(#paint97_linear)" stroke-width="1.2" stroke-miterlimit="10"/><path d="M669 610c43-30 74-94 69-143l-22-206c-5-49-49-106-97-126L418 52c-48-20-122-13-165 17L75 191C32 221 1 285 6 334l22 206c5 49 49 106 97 126l201 83c48 20 122 13 165-17l178-122z" stroke="url(#paint98_linear)" stroke-width="1.2" stroke-miterlimit="10"/><path d="M664 637c45-29 80-95 77-147l-11-217c-3-53-44-115-92-138L438 36c-48-23-124-19-170 9L80 164C35 193 0 259 3 311l11 217c3 53 44 115 92 138l200 99c48 23 124 19 170-9l188-119z" stroke="url(#paint99_linear)" stroke-width="1.3" stroke-miterlimit="10"/><path d="M657 665c47-27 86-95 86-150V286c0-55-39-123-86-150L459 21C411-6 333-6 285 21L87 136C40 163 1 231 1 286v229c0 55 39 123 86 150l198 115c48 27 126 27 174 0l198-115z" stroke="url(#paint100_linear)" stroke-width="1.3" stroke-miterlimit="10"/></g><defs><linearGradient id="paint0_linear" x1="383.1" y1="393.9" x2="359.4" y2="403.1" gradientUnits="userSpaceOnUse"><stop stop-color="#DA2EEF"/><stop offset=".5" stop-color="#2B6AFF"/><stop offset="1" stop-color="#39D0D8"/></linearGradient><linearGradient id="paint1_linear" x1="383.6" y1="393.7" x2="358.9" y2="403.6" gradientUnits="userSpaceOnUse"><stop stop-color="#DA2EEF"/><stop offset=".5" stop-color="#2B6AFF"/><stop offset="1" stop-color="#39D0D8"/></linearGradient><linearGradient id="paint2_linear" x1="384.2" y1="393.6" x2="358.4" y2="404.1" gradientUnits="userSpaceOnUse"><stop stop-color="#DA2EEF"/><stop offset=".5" stop-color="#2B6AFF"/><stop offset="1" stop-color="#39D0D8"/></linearGradient><linearGradient id="paint3_linear" x1="384.8" y1="393.4" x2="357.9" y2="404.6" gradientUnits="userSpaceOnUse"><stop stop-color="#DA2EEF"/><stop offset=".5" stop-color="#2B6AFF"/><stop offset="1" stop-color="#39D0D8"/></linearGradient><linearGradient id="paint4_linear" x1="385.4" y1="393.2" x2="357.5" y2="405.2" gradientUnits="userSpaceOnUse"><stop stop-color="#DA2EEF"/><stop offset=".5" stop-color="#2B6AFF"/><stop offset="1" stop-color="#39D0D8"/></linearGradient><linearGradient id="paint5_linear" x1="386" y1="393.1" x2="357" y2="405.8" gradientUnits="userSpaceOnUse"><stop stop-color="#DA2EEF"/><stop offset=".5" stop-color="#2B6AFF"/><stop offset="1" stop-color="#39D0D8"/></linearGradient><linearGradient id="paint6_linear" x1="386.6" y1="393" x2="356.6" y2="406.4" gradientUnits="userSpaceOnUse"><stop stop-color="#DA2EEF"/><stop offset=".5" stop-color="#2B6AFF"/><stop offset="1" stop-color="#39D0D8"/></linearGradient><linearGradient id="paint7_linear" x1="387.2" y1="392.8" x2="356.2" y2="407.1" gradientUnits="userSpaceOnUse"><stop stop-color="#DA2EEF"/><stop offset=".5" stop-color="#2B6AFF"/><stop offset="1" stop-color="#39D0D8"/></linearGradient><linearGradient id="paint8_linear" x1="387.9" y1="392.7" x2="355.9" y2="407.8" gradientUnits="userSpaceOnUse"><stop stop-color="#DA2EEF"/><stop offset=".5" stop-color="#2B6AFF"/><stop offset="1" stop-color="#39D0D8"/></linearGradient><linearGradient id="paint9_linear" x1="388.5" y1="392.6" x2="355.6" y2="408.5" gradientUnits="userSpaceOnUse"><stop stop-color="#DA2EEF"/><stop offset=".5" stop-color="#2B6AFF"/><stop offset="1" stop-color="#39D0D8"/></linearGradient><linearGradient id="paint10_linear" x1="389.1" y1="392.5" x2="355.3" y2="409.3" gradientUnits="userSpaceOnUse"><stop stop-color="#DA2EEF"/><stop offset=".5" stop-color="#2B6AFF"/><stop offset="1" stop-color="#39D0D8"/></linearGradient><linearGradient id="paint11_linear" x1="389.6" y1="392.5" x2="355.1" y2="410" gradientUnits="userSpaceOnUse"><stop stop-color="#DA2EEF"/><stop offset=".5" stop-color="#2B6AFF"/><stop offset="1" stop-color="#39D0D8"/></linearGradient><linearGradient id="paint12_linear" x1="390.5" y1="392.4" x2="354.8" y2="411.2" gradientUnits="userSpaceOnUse"><stop stop-color="#DA2EEF"/><stop offset=".5" stop-color="#2B6AFF"/><stop offset="1" stop-color="#39D0D8"/></linearGradient><linearGradient id="paint13_linear" x1="391.5" y1="392.1" x2="354.2" y2="412.2" gradientUnits="userSpaceOnUse"><stop stop-color="#DA2EEF"/><stop offset=".5" stop-color="#2B6AFF"/><stop offset="1" stop-color="#39D0D8"/></linearGradient><linearGradient id="paint14_linear" x1="392.6" y1="391.8" x2="353.6" y2="413.1" gradientUnits="userSpaceOnUse"><stop stop-color="#DA2EEF"/><stop offset=".5" stop-color="#2B6AFF"/><stop offset="1" stop-color="#39D0D8"/></linearGradient><linearGradient id="paint15_linear" x1="393.6" y1="391.5" x2="352.9" y2="414.1" gradientUnits="userSpaceOnUse"><stop stop-color="#DA2EEF"/><stop offset=".5" stop-color="#2B6AFF"/><stop offset="1" stop-color="#39D0D8"/></linearGradient><linearGradient id="paint16_linear" x1="394.6" y1="391.2" x2="352.4" y2="415.1" gradientUnits="userSpaceOnUse"><stop stop-color="#DA2EEF"/><stop offset=".5" stop-color="#2B6AFF"/><stop offset="1" stop-color="#39D0D8"/></linearGradient><linearGradient id="paint17_linear" x1="395.7" y1="391" x2="351.8" y2="416.2" gradientUnits="userSpaceOnUse"><stop stop-color="#DA2EEF"/><stop offset=".5" stop-color="#2B6AFF"/><stop offset="1" stop-color="#39D0D8"/></linearGradient><linearGradient id="paint18_linear" x1="396.7" y1="390.7" x2="351.2" y2="417.2" gradientUnits="userSpaceOnUse"><stop stop-color="#DA2EEF"/><stop offset=".5" stop-color="#2B6AFF"/><stop offset="1" stop-color="#39D0D8"/></linearGradient><linearGradient id="paint19_linear" x1="397.7" y1="390.4" x2="350.7" y2="418.2" gradientUnits="userSpaceOnUse"><stop stop-color="#DA2EEF"/><stop offset=".5" stop-color="#2B6AFF"/><stop offset="1" stop-color="#39D0D8"/></linearGradient><linearGradient id="paint20_linear" x1="398.8" y1="390.1" x2="350.1" y2="419.1" gradientUnits="userSpaceOnUse"><stop stop-color="#DA2EEF"/><stop offset=".5" stop-color="#2B6AFF"/><stop offset="1" stop-color="#39D0D8"/></linearGradient><linearGradient id="paint21_linear" x1="399.8" y1="389.8" x2="349.5" y2="420.1" gradientUnits="userSpaceOnUse"><stop stop-color="#DA2EEF"/><stop offset=".5" stop-color="#2B6AFF"/><stop offset="1" stop-color="#39D0D8"/></linearGradient><linearGradient id="paint22_linear" x1="400.8" y1="389.5" x2="349" y2="421" gradientUnits="userSpaceOnUse"><stop stop-color="#DA2EEF"/><stop offset=".5" stop-color="#2B6AFF"/><stop offset="1" stop-color="#39D0D8"/></linearGradient><linearGradient id="paint23_linear" x1="401.8" y1="389.3" x2="348.4" y2="421.9" gradientUnits="userSpaceOnUse"><stop stop-color="#DA2EEF"/><stop offset=".5" stop-color="#2B6AFF"/><stop offset="1" stop-color="#39D0D8"/></linearGradient><linearGradient id="paint24_linear" x1="402.7" y1="388.9" x2="347.8" y2="422.7" gradientUnits="userSpaceOnUse"><stop stop-color="#DA2EEF"/><stop offset=".5" stop-color="#2B6AFF"/><stop offset="1" stop-color="#39D0D8"/></linearGradient><linearGradient id="paint25_linear" x1="403.7" y1="388.6" x2="347.1" y2="423.5" gradientUnits="userSpaceOnUse"><stop stop-color="#DA2EEF"/><stop offset=".5" stop-color="#2B6AFF"/><stop offset="1" stop-color="#39D0D8"/></linearGradient><linearGradient id="paint26_linear" x1="404.6" y1="388.3" x2="346.5" y2="424.2" gradientUnits="userSpaceOnUse"><stop stop-color="#DA2EEF"/><stop offset=".5" stop-color="#2B6AFF"/><stop offset="1" stop-color="#39D0D8"/></linearGradient><linearGradient id="paint27_linear" x1="405.4" y1="388" x2="345.9" y2="424.9" gradientUnits="userSpaceOnUse"><stop stop-color="#DA2EEF"/><stop offset=".5" stop-color="#2B6AFF"/><stop offset="1" stop-color="#39D0D8"/></linearGradient><linearGradient id="paint28_linear" x1="406.3" y1="387.7" x2="345.3" y2="425.6" gradientUnits="userSpaceOnUse"><stop stop-color="#DA2EEF"/><stop offset=".5" stop-color="#2B6AFF"/><stop offset="1" stop-color="#39D0D8"/></linearGradient><linearGradient id="paint29_linear" x1="407.1" y1="387.2" x2="344" y2="425.5" gradientUnits="userSpaceOnUse"><stop stop-color="#DA2EEF"/><stop offset=".5" stop-color="#2B6AFF"/><stop offset="1" stop-color="#39D0D8"/></linearGradient><linearGradient id="paint30_linear" x1="407.8" y1="386.3" x2="342" y2="424.7" gradientUnits="userSpaceOnUse"><stop stop-color="#DA2EEF"/><stop offset=".5" stop-color="#2B6AFF"/><stop offset="1" stop-color="#39D0D8"/></linearGradient><linearGradient id="paint31_linear" x1="408.5" y1="385.5" x2="340" y2="423.8" gradientUnits="userSpaceOnUse"><stop stop-color="#DA2EEF"/><stop offset=".5" stop-color="#2B6AFF"/><stop offset="1" stop-color="#39D0D8"/></linearGradient><linearGradient id="paint32_linear" x1="409.1" y1="384.5" x2="338.2" y2="422.7" gradientUnits="userSpaceOnUse"><stop stop-color="#DA2EEF"/><stop offset=".5" stop-color="#2B6AFF"/><stop offset="1" stop-color="#39D0D8"/></linearGradient><linearGradient id="paint33_linear" x1="409.7" y1="383.6" x2="336.3" y2="421.5" gradientUnits="userSpaceOnUse"><stop stop-color="#DA2EEF"/><stop offset=".5" stop-color="#2B6AFF"/><stop offset="1" stop-color="#39D0D8"/></linearGradient><linearGradient id="paint34_linear" x1="410.2" y1="382.6" x2="334.5" y2="420.1" gradientUnits="userSpaceOnUse"><stop stop-color="#DA2EEF"/><stop offset=".5" stop-color="#2B6AFF"/><stop offset="1" stop-color="#39D0D8"/></linearGradient><linearGradient id="paint35_linear" x1="410.6" y1="381.6" x2="332.9" y2="418.5" gradientUnits="userSpaceOnUse"><stop stop-color="#DA2EEF"/><stop offset=".5" stop-color="#2B6AFF"/><stop offset="1" stop-color="#39D0D8"/></linearGradient><linearGradient id="paint36_linear" x1="411" y1="380.6" x2="331.3" y2="416.7" gradientUnits="userSpaceOnUse"><stop stop-color="#DA2EEF"/><stop offset=".5" stop-color="#2B6AFF"/><stop offset="1" stop-color="#39D0D8"/></linearGradient><linearGradient id="paint37_linear" x1="411.2" y1="379.6" x2="329.8" y2="414.7" gradientUnits="userSpaceOnUse"><stop stop-color="#DA2EEF"/><stop offset=".5" stop-color="#2B6AFF"/><stop offset="1" stop-color="#39D0D8"/></linearGradient><linearGradient id="paint38_linear" x1="412.4" y1="378.5" x2="328" y2="414.2" gradientUnits="userSpaceOnUse"><stop stop-color="#DA2EEF"/><stop offset=".5" stop-color="#2B6AFF"/><stop offset="1" stop-color="#39D0D8"/></linearGradient><linearGradient id="paint39_linear" x1="413.8" y1="377.3" x2="326.1" y2="413.9" gradientUnits="userSpaceOnUse"><stop stop-color="#DA2EEF"/><stop offset=".5" stop-color="#2B6AFF"/><stop offset="1" stop-color="#39D0D8"/></linearGradient><linearGradient id="paint40_linear" x1="415.2" y1="376.2" x2="324.1" y2="413.6" gradientUnits="userSpaceOnUse"><stop stop-color="#DA2EEF"/><stop offset=".5" stop-color="#2B6AFF"/><stop offset="1" stop-color="#39D0D8"/></linearGradient><linearGradient id="paint41_linear" x1="416.6" y1="375" x2="322.2" y2="413.2" gradientUnits="userSpaceOnUse"><stop stop-color="#DA2EEF"/><stop offset=".5" stop-color="#2B6AFF"/><stop offset="1" stop-color="#39D0D8"/></linearGradient><linearGradient id="paint42_linear" x1="417.9" y1="373.9" x2="320.2" y2="412.7" gradientUnits="userSpaceOnUse"><stop stop-color="#DA2EEF"/><stop offset=".5" stop-color="#2B6AFF"/><stop offset="1" stop-color="#39D0D8"/></linearGradient><linearGradient id="paint43_linear" x1="419.3" y1="372.7" x2="318.3" y2="412.3" gradientUnits="userSpaceOnUse"><stop stop-color="#DA2EEF"/><stop offset=".5" stop-color="#2B6AFF"/><stop offset="1" stop-color="#39D0D8"/></linearGradient><linearGradient id="paint44_linear" x1="420.6" y1="371.5" x2="316.4" y2="411.8" gradientUnits="userSpaceOnUse"><stop stop-color="#DA2EEF"/><stop offset=".5" stop-color="#2B6AFF"/><stop offset="1" stop-color="#39D0D8"/></linearGradient><linearGradient id="paint45_linear" x1="422" y1="370.3" x2="314.5" y2="411.4" gradientUnits="userSpaceOnUse"><stop stop-color="#DA2EEF"/><stop offset=".5" stop-color="#2B6AFF"/><stop offset="1" stop-color="#39D0D8"/></linearGradient><linearGradient id="paint46_linear" x1="423.4" y1="369.1" x2="312.6" y2="411" gradientUnits="userSpaceOnUse"><stop stop-color="#DA2EEF"/><stop offset=".5" stop-color="#2B6AFF"/><stop offset="1" stop-color="#39D0D8"/></linearGradient><linearGradient id="paint47_linear" x1="424.8" y1="367.9" x2="310.7" y2="410.7" gradientUnits="userSpaceOnUse"><stop stop-color="#DA2EEF"/><stop offset=".5" stop-color="#2B6AFF"/><stop offset="1" stop-color="#39D0D8"/></linearGradient><linearGradient id="paint48_linear" x1="426.3" y1="366.8" x2="308.8" y2="410.4" gradientUnits="userSpaceOnUse"><stop stop-color="#DA2EEF"/><stop offset=".5" stop-color="#2B6AFF"/><stop offset="1" stop-color="#39D0D8"/></linearGradient><linearGradient id="paint49_linear" x1="427.7" y1="365.4" x2="306.7" y2="409.9" gradientUnits="userSpaceOnUse"><stop stop-color="#DA2EEF"/><stop offset=".5" stop-color="#2B6AFF"/><stop offset="1" stop-color="#39D0D8"/></linearGradient><linearGradient id="paint50_linear" x1="429.2" y1="363.5" x2="304.2" y2="408.1" gradientUnits="userSpaceOnUse"><stop stop-color="#DA2EEF"/><stop offset=".5" stop-color="#2B6AFF"/><stop offset="1" stop-color="#39D0D8"/></linearGradient><linearGradient id="paint51_linear" x1="430.7" y1="361.5" x2="301.7" y2="406.3" gradientUnits="userSpaceOnUse"><stop stop-color="#DA2EEF"/><stop offset=".5" stop-color="#2B6AFF"/><stop offset="1" stop-color="#39D0D8"/></linearGradient><linearGradient id="paint52_linear" x1="432.2" y1="359.5" x2="299.2" y2="404.6" gradientUnits="userSpaceOnUse"><stop stop-color="#DA2EEF"/><stop offset=".5" stop-color="#2B6AFF"/><stop offset="1" stop-color="#39D0D8"/></linearGradient><linearGradient id="paint53_linear" x1="433.6" y1="357.5" x2="296.8" y2="402.8" gradientUnits="userSpaceOnUse"><stop stop-color="#DA2EEF"/><stop offset=".5" stop-color="#2B6AFF"/><stop offset="1" stop-color="#39D0D8"/></linearGradient><linearGradient id="paint54_linear" x1="435.4" y1="355.5" x2="294.1" y2="401.4" gradientUnits="userSpaceOnUse"><stop stop-color="#DA2EEF"/><stop offset=".5" stop-color="#2B6AFF"/><stop offset="1" stop-color="#39D0D8"/></linearGradient><linearGradient id="paint55_linear" x1="439.5" y1="353.5" x2="289.7" y2="403.1" gradientUnits="userSpaceOnUse"><stop stop-color="#DA2EEF"/><stop offset=".5" stop-color="#2B6AFF"/><stop offset="1" stop-color="#39D0D8"/></linearGradient><linearGradient id="paint56_linear" x1="443.7" y1="351.5" x2="285.1" y2="405" gradientUnits="userSpaceOnUse"><stop stop-color="#DA2EEF"/><stop offset=".5" stop-color="#2B6AFF"/><stop offset="1" stop-color="#39D0D8"/></linearGradient><linearGradient id="paint57_linear" x1="448" y1="349.5" x2="280.5" y2="407.1" gradientUnits="userSpaceOnUse"><stop stop-color="#DA2EEF"/><stop offset=".5" stop-color="#2B6AFF"/><stop offset="1" stop-color="#39D0D8"/></linearGradient><linearGradient id="paint58_linear" x1="452.5" y1="347.5" x2="275.9" y2="409.4" gradientUnits="userSpaceOnUse"><stop stop-color="#DA2EEF"/><stop offset=".5" stop-color="#2B6AFF"/><stop offset="1" stop-color="#39D0D8"/></linearGradient><linearGradient id="paint59_linear" x1="457.2" y1="345.5" x2="271.2" y2="412.1" gradientUnits="userSpaceOnUse"><stop stop-color="#DA2EEF"/><stop offset=".5" stop-color="#2B6AFF"/><stop offset="1" stop-color="#39D0D8"/></linearGradient><linearGradient id="paint60_linear" x1="462" y1="343.6" x2="266.4" y2="415.1" gradientUnits="userSpaceOnUse"><stop stop-color="#DA2EEF"/><stop offset=".5" stop-color="#2B6AFF"/><stop offset="1" stop-color="#39D0D8"/></linearGradient><linearGradient id="paint61_linear" x1="466.9" y1="341.7" x2="261.6" y2="418.3" gradientUnits="userSpaceOnUse"><stop stop-color="#DA2EEF"/><stop offset=".5" stop-color="#2B6AFF"/><stop offset="1" stop-color="#39D0D8"/></linearGradient><linearGradient id="paint62_linear" x1="472" y1="339.9" x2="256.8" y2="422" gradientUnits="userSpaceOnUse"><stop stop-color="#DA2EEF"/><stop offset=".5" stop-color="#2B6AFF"/><stop offset="1" stop-color="#39D0D8"/></linearGradient><linearGradient id="paint63_linear" x1="477.3" y1="338.1" x2="252.1" y2="425.9" gradientUnits="userSpaceOnUse"><stop stop-color="#DA2EEF"/><stop offset=".5" stop-color="#2B6AFF"/><stop offset="1" stop-color="#39D0D8"/></linearGradient><linearGradient id="paint64_linear" x1="482.7" y1="336.4" x2="247.4" y2="430.3" gradientUnits="userSpaceOnUse"><stop stop-color="#DA2EEF"/><stop offset=".5" stop-color="#2B6AFF"/><stop offset="1" stop-color="#39D0D8"/></linearGradient><linearGradient id="paint65_linear" x1="488.3" y1="334.7" x2="242.7" y2="435" gradientUnits="userSpaceOnUse"><stop stop-color="#DA2EEF"/><stop offset=".5" stop-color="#2B6AFF"/><stop offset="1" stop-color="#39D0D8"/></linearGradient><linearGradient id="paint66_linear" x1="493.9" y1="333.2" x2="238.2" y2="440.1" gradientUnits="userSpaceOnUse"><stop stop-color="#DA2EEF"/><stop offset=".5" stop-color="#2B6AFF"/><stop offset="1" stop-color="#39D0D8"/></linearGradient><linearGradient id="paint67_linear" x1="499.6" y1="331.7" x2="233.9" y2="445.5" gradientUnits="userSpaceOnUse"><stop stop-color="#DA2EEF"/><stop offset=".5" stop-color="#2B6AFF"/><stop offset="1" stop-color="#39D0D8"/></linearGradient><linearGradient id="paint68_linear" x1="505.4" y1="330.3" x2="229.8" y2="451.2" gradientUnits="userSpaceOnUse"><stop stop-color="#DA2EEF"/><stop offset=".5" stop-color="#2B6AFF"/><stop offset="1" stop-color="#39D0D8"/></linearGradient><linearGradient id="paint69_linear" x1="511.2" y1="329" x2="225.9" y2="457.3" gradientUnits="userSpaceOnUse"><stop stop-color="#DA2EEF"/><stop offset=".5" stop-color="#2B6AFF"/><stop offset="1" stop-color="#39D0D8"/></linearGradient><linearGradient id="paint70_linear" x1="517" y1="327.8" x2="222.3" y2="463.7" gradientUnits="userSpaceOnUse"><stop stop-color="#DA2EEF"/><stop offset=".5" stop-color="#2B6AFF"/><stop offset="1" stop-color="#39D0D8"/></linearGradient><linearGradient id="paint71_linear" x1="522.8" y1="326.8" x2="219.1" y2="470.4" gradientUnits="userSpaceOnUse"><stop stop-color="#DA2EEF"/><stop offset=".5" stop-color="#2B6AFF"/><stop offset="1" stop-color="#39D0D8"/></linearGradient><linearGradient id="paint72_linear" x1="528.5" y1="325.9" x2="216.2" y2="477.3" gradientUnits="userSpaceOnUse"><stop stop-color="#DA2EEF"/><stop offset=".5" stop-color="#2B6AFF"/><stop offset="1" stop-color="#39D0D8"/></linearGradient><linearGradient id="paint73_linear" x1="534.2" y1="325.2" x2="213.8" y2="484.5" gradientUnits="userSpaceOnUse"><stop stop-color="#DA2EEF"/><stop offset=".5" stop-color="#2B6AFF"/><stop offset="1" stop-color="#39D0D8"/></linearGradient><linearGradient id="paint74_linear" x1="539.7" y1="324.7" x2="212" y2="492" gradientUnits="userSpaceOnUse"><stop stop-color="#DA2EEF"/><stop offset=".5" stop-color="#2B6AFF"/><stop offset="1" stop-color="#39D0D8"/></linearGradient><linearGradient id="paint75_linear" x1="548.7" y1="323.4" x2="208.5" y2="503.3" gradientUnits="userSpaceOnUse"><stop stop-color="#DA2EEF"/><stop offset=".5" stop-color="#2B6AFF"/><stop offset="1" stop-color="#39D0D8"/></linearGradient><linearGradient id="paint76_linear" x1="558.3" y1="320.6" x2="202.5" y2="512.3" gradientUnits="userSpaceOnUse"><stop stop-color="#DA2EEF"/><stop offset=".5" stop-color="#2B6AFF"/><stop offset="1" stop-color="#39D0D8"/></linearGradient><linearGradient id="paint77_linear" x1="568" y1="317.9" x2="196.7" y2="521.6" gradientUnits="userSpaceOnUse"><stop stop-color="#DA2EEF"/><stop offset=".5" stop-color="#2B6AFF"/><stop offset="1" stop-color="#39D0D8"/></linearGradient><linearGradient id="paint78_linear" x1="577.8" y1="315.3" x2="191" y2="531" gradientUnits="userSpaceOnUse"><stop stop-color="#DA2EEF"/><stop offset=".5" stop-color="#2B6AFF"/><stop offset="1" stop-color="#39D0D8"/></linearGradient><linearGradient id="paint79_linear" x1="587.6" y1="312.6" x2="185.5" y2="540.5" gradientUnits="userSpaceOnUse"><stop stop-color="#DA2EEF"/><stop offset=".5" stop-color="#2B6AFF"/><stop offset="1" stop-color="#39D0D8"/></linearGradient><linearGradient id="paint80_linear" x1="597.4" y1="310" x2="180.1" y2="550" gradientUnits="userSpaceOnUse"><stop stop-color="#DA2EEF"/><stop offset=".5" stop-color="#2B6AFF"/><stop offset="1" stop-color="#39D0D8"/></linearGradient><linearGradient id="paint81_linear" x1="607.2" y1="307.4" x2="174.7" y2="559.5" gradientUnits="userSpaceOnUse"><stop stop-color="#DA2EEF"/><stop offset=".5" stop-color="#2B6AFF"/><stop offset="1" stop-color="#39D0D8"/></linearGradient><linearGradient id="paint82_linear" x1="616.9" y1="304.7" x2="169.5" y2="568.9" gradientUnits="userSpaceOnUse"><stop stop-color="#DA2EEF"/><stop offset=".5" stop-color="#2B6AFF"/><stop offset="1" stop-color="#39D0D8"/></linearGradient><linearGradient id="paint83_linear" x1="626.6" y1="302" x2="164.1" y2="578.2" gradientUnits="userSpaceOnUse"><stop stop-color="#DA2EEF"/><stop offset=".5" stop-color="#2B6AFF"/><stop offset="1" stop-color="#39D0D8"/></linearGradient><linearGradient id="paint84_linear" x1="636.2" y1="299.3" x2="158.8" y2="587.1" gradientUnits="userSpaceOnUse"><stop stop-color="#DA2EEF"/><stop offset=".5" stop-color="#2B6AFF"/><stop offset="1" stop-color="#39D0D8"/></linearGradient><linearGradient id="paint85_linear" x1="645.6" y1="296.5" x2="153.3" y2="595.7" gradientUnits="userSpaceOnUse"><stop stop-color="#DA2EEF"/><stop offset=".5" stop-color="#2B6AFF"/><stop offset="1" stop-color="#39D0D8"/></linearGradient><linearGradient id="paint86_linear" x1="654.8" y1="293.7" x2="147.7" y2="603.9" gradientUnits="userSpaceOnUse"><stop stop-color="#DA2EEF"/><stop offset=".5" stop-color="#2B6AFF"/><stop offset="1" stop-color="#39D0D8"/></linearGradient><linearGradient id="paint87_linear" x1="663.9" y1="290.8" x2="141.9" y2="611.7" gradientUnits="userSpaceOnUse"><stop stop-color="#DA2EEF"/><stop offset=".5" stop-color="#2B6AFF"/><stop offset="1" stop-color="#39D0D8"/></linearGradient><linearGradient id="paint88_linear" x1="672.7" y1="288" x2="136.1" y2="619" gradientUnits="userSpaceOnUse"><stop stop-color="#DA2EEF"/><stop offset=".5" stop-color="#2B6AFF"/><stop offset="1" stop-color="#39D0D8"/></linearGradient><linearGradient id="paint89_linear" x1="681.2" y1="285.1" x2="130.2" y2="625.9" gradientUnits="userSpaceOnUse"><stop stop-color="#DA2EEF"/><stop offset=".5" stop-color="#2B6AFF"/><stop offset="1" stop-color="#39D0D8"/></linearGradient><linearGradient id="paint90_linear" x1="689.4" y1="282.2" x2="124.4" y2="632.4" gradientUnits="userSpaceOnUse"><stop stop-color="#DA2EEF"/><stop offset=".5" stop-color="#2B6AFF"/><stop offset="1" stop-color="#39D0D8"/></linearGradient><linearGradient id="paint91_linear" x1="697.2" y1="279.4" x2="118.6" y2="638.4" gradientUnits="userSpaceOnUse"><stop stop-color="#DA2EEF"/><stop offset=".5" stop-color="#2B6AFF"/><stop offset="1" stop-color="#39D0D8"/></linearGradient><linearGradient id="paint92_linear" x1="704.7" y1="273.2" x2="103.7" y2="635.8" gradientUnits="userSpaceOnUse"><stop stop-color="#DA2EEF"/><stop offset=".5" stop-color="#2B6AFF"/><stop offset="1" stop-color="#39D0D8"/></linearGradient><linearGradient id="paint93_linear" x1="711.7" y1="265.1" x2="85.1" y2="628.2" gradientUnits="userSpaceOnUse"><stop stop-color="#DA2EEF"/><stop offset=".5" stop-color="#2B6AFF"/><stop offset="1" stop-color="#39D0D8"/></linearGradient><linearGradient id="paint94_linear" x1="718.1" y1="256.8" x2="66.9" y2="619.2" gradientUnits="userSpaceOnUse"><stop stop-color="#DA2EEF"/><stop offset=".5" stop-color="#2B6AFF"/><stop offset="1" stop-color="#39D0D8"/></linearGradient><linearGradient id="paint95_linear" x1="724" y1="248.2" x2="49.1" y2="608.7" gradientUnits="userSpaceOnUse"><stop stop-color="#DA2EEF"/><stop offset=".5" stop-color="#2B6AFF"/><stop offset="1" stop-color="#39D0D8"/></linearGradient><linearGradient id="paint96_linear" x1="729.3" y1="239.4" x2="31.9" y2="596.6" gradientUnits="userSpaceOnUse"><stop stop-color="#DA2EEF"/><stop offset=".5" stop-color="#2B6AFF"/><stop offset="1" stop-color="#39D0D8"/></linearGradient><linearGradient id="paint97_linear" x1="733.9" y1="230.2" x2="15.3" y2="582.9" gradientUnits="userSpaceOnUse"><stop stop-color="#DA2EEF"/><stop offset=".5" stop-color="#2B6AFF"/><stop offset="1" stop-color="#39D0D8"/></linearGradient><linearGradient id="paint98_linear" x1="737.7" y1="220.7" x2="-.5" y2="567.5" gradientUnits="userSpaceOnUse"><stop stop-color="#DA2EEF"/><stop offset=".5" stop-color="#2B6AFF"/><stop offset="1" stop-color="#39D0D8"/></linearGradient><linearGradient id="paint99_linear" x1="740.7" y1="210.9" x2="-15.3" y2="550.4" gradientUnits="userSpaceOnUse"><stop stop-color="#DA2EEF"/><stop offset=".5" stop-color="#2B6AFF"/><stop offset="1" stop-color="#39D0D8"/></linearGradient><linearGradient id="paint100_linear" x1="742.8" y1="200.8" x2="-28.9" y2="531.7" gradientUnits="userSpaceOnUse"><stop stop-color="#DA2EEF"/><stop offset=".5" stop-color="#2B6AFF"/><stop offset="1" stop-color="#39D0D8"/></linearGradient><clipPath id="clip0"><path fill="#fff" d="M0 0h744v801H0z"/></clipPath></defs></svg>