<svg width="452" height="507" viewBox="0 0 452 507" fill="none" xmlns="http://www.w3.org/2000/svg">
<path fill-rule="evenodd" clip-rule="evenodd" d="M225.994 35.8449L241 27.1729V9.82708L225.994 1.15509L211 9.82684V27.1732L225.994 35.8449ZM210 27.75L225.993 37L242 27.75V9.25L225.993 0L210 9.25V27.75ZM249 118.67L225.99 131.848L203 118.671V92.3295L225.99 79.1525L249 92.3297V118.67ZM225.99 133L202 119.25V91.75L225.99 78L250 91.75V119.25L225.99 133ZM15.9936 151.845L31 143.173V125.827L15.9936 117.155L1 125.827V143.173L15.9936 151.845ZM0 143.75L15.9934 153L32 143.75V125.25L15.9934 116L0 125.25V143.75ZM119 187.67L95.9903 200.848L73 187.671V161.329L95.9903 148.152L119 161.33V187.67ZM95.9901 202L72 188.25V160.75L95.9901 147L120 160.75V188.25L95.9901 202ZM217 207.473L187.988 224.245L159 207.473V173.927L187.988 157.155L217 173.927V207.473ZM187.988 225.4L158 208.05V173.35L187.988 156L218 173.35V208.05L187.988 225.4ZM217 331.473L187.988 348.245L159 331.473V297.927L187.988 281.155L217 297.927V331.473ZM187.988 349.4L158 332.05V297.35L187.988 280L218 297.35V332.05L187.988 349.4ZM95.9903 356.848L119 343.67V317.33L95.9903 304.152L73 317.329V343.671L95.9903 356.848ZM72 344.25L95.9901 358L120 344.25V316.75L95.9901 303L72 316.75V344.25ZM31 379.173L15.9936 387.845L1 379.173V361.827L15.9936 353.155L31 361.827V379.173ZM15.9934 389L0 379.75V361.25L15.9934 352L32 361.25V379.75L15.9934 389ZM263.988 224.245L293 207.473V173.927L263.988 157.155L235 173.927V207.473L263.988 224.245ZM234 208.05L263.988 225.4L294 208.05V173.35L263.988 156L234 173.35V208.05ZM379 187.67L355.99 200.848L333 187.671V161.329L355.99 148.152L379 161.33V187.67ZM355.99 202L332 188.25V160.75L355.99 147L380 160.75V188.25L355.99 202ZM435.994 151.845L451 143.173V125.827L435.994 117.155L421 125.827V143.173L435.994 151.845ZM420 143.75L435.993 153L452 143.75V125.25L435.993 116L420 125.25V143.75ZM293 331.473L263.988 348.245L235 331.473V297.927L263.988 281.155L293 297.927V331.473ZM263.988 349.4L234 332.05V297.35L263.988 280L294 297.35V332.05L263.988 349.4ZM355.99 356.848L379 343.67V317.33L355.99 304.152L333 317.329V343.671L355.99 356.848ZM332 344.25L355.99 358L380 344.25V316.75L355.99 303L332 316.75V344.25ZM451 379.173L435.994 387.845L421 379.173V361.827L435.994 353.155L451 361.827V379.173ZM435.993 389L420 379.75V361.25L435.993 352L452 361.25V379.75L435.993 389ZM301.988 286.245L331 269.473V235.927L301.988 219.155L273 235.927V269.473L301.988 286.245ZM272 270.05L301.988 287.4L332 270.05V235.35L301.988 218L272 235.35V270.05ZM249 413.426L225.99 426.842L203 413.426V386.574L225.99 373.158L249 386.574V413.426ZM225.99 428L202 414V386L225.99 372L250 386V414L225.99 428ZM225.994 505.837L241 496.931V479.069L225.994 470.163L211 479.069V496.931L225.994 505.837ZM210 497.5L225.993 507L242 497.5V478.5L225.993 469L210 478.5V497.5ZM179 269.473L149.988 286.245L121 269.473V235.927L149.988 219.155L179 235.927V269.473ZM149.988 287.4L120 270.05V235.35L149.988 218L180 235.35V270.05L149.988 287.4Z" fill="url(#paint0_radial)"/>
<defs>
<radialGradient id="paint0_radial" cx="0" cy="0" r="1" gradientUnits="userSpaceOnUse" gradientTransform="translate(225.8 253.588) rotate(150.708) scale(258.904 252.497)">
<stop offset="0.317708" stop-color="#5AC4BE"/>
<stop offset="0.671875" stop-color="#3772FF"/>
<stop offset="1" stop-color="#C200FB"/>
</radialGradient>
</defs>
</svg>
