<svg width="869" height="722" viewBox="0 0 869 722" fill="none" xmlns="http://www.w3.org/2000/svg">
<g filter="url(#filter0_b)">
<path fill-rule="evenodd" clip-rule="evenodd" d="M648 187.414V186.834V56.0639L618.98 72.8654L618.479 73.1556L617.978 72.8652L567.499 43.6152L567 43.3263V42.75V-15.75V-16.3263L567.499 -16.6152L617.978 -45.8652L618.479 -46.1556L618.98 -45.8654L669.501 -16.6154L670 -16.3265V-15.75V11.9828L788.436 -55.8677L788.933 -56.1523L789.43 -55.8679L929.497 24.298L930 24.5861V25.1659V186.834V187.414L929.497 187.702L878.301 217.004L919.5 240.779L920 241.068V241.645V315.355V315.932L919.5 316.221L856 352.866L855.5 353.155L855 352.866L791.5 316.221L791 315.932V315.355V279.699L770.876 291.255L770.378 291.541L769.88 291.255L735.618 271.58L735.116 271.292V270.713V237.321L648.503 187.702L648 187.414ZM669 12.5557V-15.75L618.479 -45L568 -15.75V42.75L618.479 72L648 54.9083V25.1659V24.5864L648.503 24.2982L669 12.5557ZM649 54.3294V25.1659L669 13.7082V42.75L649 54.3294ZM649 55.4849L669.501 43.6154L670 43.3265V42.75V13.1353L788.933 -55L929 25.1659V186.834L877.298 216.425L856 204.134L855.5 203.845L855 204.134L805.64 232.619V231.139V230.56L805.138 230.272L770.876 210.597L770.378 210.311L769.88 210.597L735.618 230.272L735.116 230.56V231.139V236.169L649 186.834V55.4849ZM792 315.355V279.125L805.138 271.58L805.64 271.292V270.713V258.59L877.296 217.578L919 241.645V315.355L855.5 352L792 315.355ZM804.64 270.713V259.162L792 266.397V277.972L804.64 270.713ZM876.294 217L805.64 257.438V233.774L855.5 205L876.294 217ZM804.64 258.01V234.351L792 241.645V265.245L804.64 258.01ZM736.116 231.139V236.742L788.933 267L791 265.817V241.645V241.068L791.5 240.779L804.64 233.196V231.139L770.378 211.464L736.116 231.139ZM788.436 267.868L736.116 237.894V270.713L770.378 290.388L791 278.546V266.969L789.43 267.868L788.933 268.152L788.436 267.868ZM680.043 97.7156L708.15 113.961L736.257 97.7156V65.2241L708.15 48.9784L680.043 65.2241V97.7156ZM488.363 122.94V123.514L488.859 123.804L504.598 132.995L505.1 133.288L505.603 132.997L521.315 123.919L521.814 123.63V123.053V104.755V104.181L521.318 103.891L506.103 95.0181V64.6748V64.0975L505.603 63.8088L471.538 44.134L471.037 43.8451L470.537 44.1342L436.5 63.809L436 64.0978V64.6748V104.024V104.601L436.5 104.89L470.537 124.565L471.037 124.854L471.538 124.565L488.363 114.848V122.94ZM488.363 113.693L471.037 123.699L437 104.024V64.6748L471.037 45L505.103 64.6748V94.4378L504.603 94.7261L488.863 103.805L488.363 104.093V104.671V113.693ZM489.363 114.27V122.94L505.103 132.131L520.814 123.053V104.755L506.103 96.1757V104.024V104.602L505.603 104.89L489.363 114.27ZM505.103 95.5925V104.024L489.363 113.115V104.671L505.103 95.5923L505.103 95.5925ZM708 384.873L737.344 401.737L766.715 384.873V350.864L737.344 334L708 350.864V384.873ZM377 703.873V704.452L377.502 704.74L406.845 721.604L407.343 721.891L407.841 721.605L437.213 704.741L437.715 704.452V703.873V669.864V669.285L437.213 668.997L407.841 652.133L407.343 651.847L406.845 652.133L377.502 668.997L377 669.285V669.864V703.873ZM407.344 720.737L436.715 703.873V669.864L407.344 653L378 669.864V703.873L407.344 720.737ZM531 330.601V330.024V290.675V290.098L531.5 289.809L565.537 270.134L566.037 269.845L566.538 270.134L600.603 289.809L601.103 290.098V290.675V330.024V330.602L600.603 330.89L566.538 350.565L566.037 350.854L565.537 350.565L531.5 330.89L531 330.601ZM600.103 330.024L566.037 349.699L532 330.024V290.675L566.037 271L600.103 290.675V330.024ZM577 196.75V197.327L577.499 197.616L593.493 206.866L593.993 207.155L594.494 206.866L610.5 197.616L611 197.327V196.75V178.25V177.673L610.5 177.384L594.494 168.134L593.993 167.845L593.493 168.134L577.499 177.384L577 177.673V178.25V196.75ZM593.993 206L610 196.75V178.25L593.993 169L578 178.25V196.75L593.993 206ZM499 577.327V576.75V558.25V557.673L499.499 557.384L515.493 548.134L515.993 547.845L516.494 548.134L532.5 557.384L533 557.673V558.25V576.75V577.327L532.5 577.616L516.494 586.866L515.993 587.155L515.493 586.866L499.499 577.616L499 577.327ZM532 576.75L515.993 586L500 576.75V558.25L515.993 549L532 558.25V576.75ZM551 652.75V653.327L551.499 653.616L567.493 662.866L567.993 663.155L568.494 662.866L584.5 653.616L585 653.327V652.75V634.25V633.673L584.5 633.384L568.494 624.134L567.993 623.845L567.493 624.134L551.499 633.384L551 633.673V634.25V652.75ZM567.993 662L584 652.75V634.25L567.993 625L552 634.25V652.75L567.993 662ZM153 627.75L168.993 637L185 627.75V609.25L168.993 600L153 609.25V627.75ZM668 534.75V535.326L668.498 535.615L696.486 551.865L696.988 552.156L697.49 551.865L701 549.829V589.75V590.326L701.499 590.615L751.978 619.865L752.479 620.156L752.98 619.865L803.501 590.615L804 590.327V589.75V531.25V530.673L803.501 530.385L752.98 501.135L752.479 500.844L751.978 501.135L726 516.188V502.25V501.674L725.502 501.385L697.49 485.135L696.988 484.844L696.486 485.135L668.498 501.385L668 501.674V502.25V534.75ZM702 589.75V549.249L725.502 535.615L726 535.326V534.75V517.343L752.479 502L803 531.25V589.75L752.479 619L702 589.75ZM725 534.75V517.923L702 531.25V548.093L725 534.75ZM701.499 530.385L725 516.767V502.25L696.988 486L669 502.25V534.75L696.988 551L701 548.673V531.25V530.674L701.499 530.385ZM185 120.75L212.988 137L217 134.673V175.75V176.326L217.499 176.615L267.978 205.865L268.479 206.156L268.98 205.865L319.501 176.615L320 176.327V175.75V117.25V116.673L319.501 116.385L268.98 87.1346L268.479 86.8444L267.978 87.1348L241 102.767V88.25L212.988 72L185 88.25V120.75ZM241 103.923L268.479 88L319 117.25V175.75L268.479 205L218 175.75V134.093L241 120.75V103.923ZM0 171.75V172.326L0.497896 172.615L28.4863 188.865L28.9882 189.156L29.4902 188.865L57.5018 172.615L58 172.326V171.75V139.25V138.674L57.5018 138.385L29.4902 122.135L28.9882 121.844L28.4863 122.135L0.497896 138.385L0 138.674V139.25V171.75ZM28.9884 188L57 171.75V139.25L28.9884 123L1 139.25V171.75L28.9884 188Z" fill="url(#paint0_linear)"/>
</g>
<defs>
<filter id="filter0_b" x="-20" y="-76.1523" width="970" height="818.043" filterUnits="userSpaceOnUse" color-interpolation-filters="sRGB">
<feFlood flood-opacity="0" result="BackgroundImageFix"/>
<feGaussianBlur in="BackgroundImage" stdDeviation="10"/>
<feComposite in2="SourceAlpha" operator="in" result="effect1_backgroundBlur"/>
<feBlend mode="normal" in="SourceGraphic" in2="effect1_backgroundBlur" result="shape"/>
</filter>
<linearGradient id="paint0_linear" x1="833.5" y1="62.4999" x2="-52.3442" y2="548.063" gradientUnits="userSpaceOnUse">
<stop stop-color="#C200FB"/>
<stop offset="0.619792" stop-color="#3772FF"/>
<stop offset="1" stop-color="#5AC4BE"/>
</linearGradient>
</defs>
</svg>
