<svg width="744" height="801" viewBox="0 0 744 801" fill="none" xmlns="http://www.w3.org/2000/svg">
<g opacity="0.6" clip-path="url(#clip0)">
<path d="M364.564 412.961C365.307 413.873 367.159 413.887 368.683 412.991L375.026 409.254C376.548 408.358 378.432 406.142 379.214 404.333L382.464 396.793C383.245 394.983 383.275 392.754 382.532 391.841L379.437 388.037C378.694 387.124 376.842 387.111 375.318 388.007L368.975 391.743C367.453 392.64 365.569 394.855 364.788 396.665L361.537 404.205C360.758 406.014 360.726 408.243 361.469 409.156L364.564 412.961Z" stroke="url(#paint0_linear)" stroke-width="0.0363154" stroke-miterlimit="10"/>
<path d="M363.758 413.189C364.466 414.189 366.353 414.307 367.953 413.448L374.618 409.87C376.216 409.012 378.255 406.788 379.145 404.929L382.858 397.182C383.749 395.324 383.901 392.983 383.193 391.983L380.242 387.811C379.534 386.81 377.648 386.693 376.047 387.552L369.383 391.13C367.785 391.988 365.745 394.212 364.855 396.07L361.142 403.818C360.252 405.676 360.099 408.017 360.807 409.017L363.758 413.189Z" stroke="url(#paint1_linear)" stroke-width="0.0375361" stroke-miterlimit="10"/>
<path d="M362.923 413.385C363.59 414.476 365.509 414.704 367.183 413.89L374.166 410.497C375.841 409.682 378.038 407.458 379.045 405.551L383.243 397.61C384.25 395.705 384.528 393.253 383.861 392.163L381.079 387.614C380.412 386.524 378.492 386.295 376.818 387.11L369.835 390.503C368.161 391.318 365.964 393.541 364.957 395.449L360.759 403.39C359.751 405.295 359.474 407.747 360.141 408.837L362.923 413.385Z" stroke="url(#paint2_linear)" stroke-width="0.0390619" stroke-miterlimit="10"/>
<path d="M362.066 413.544C362.689 414.726 364.63 415.072 366.381 414.307L373.677 411.124C375.427 410.361 377.782 408.143 378.912 406.194L383.614 398.079C384.741 396.13 385.157 393.569 384.534 392.386L381.939 387.454C381.316 386.271 379.375 385.925 377.624 386.691L370.328 389.874C368.578 390.637 366.223 392.855 365.093 394.803L360.392 402.919C359.265 404.867 358.848 407.429 359.472 408.611L362.066 413.544Z" stroke="url(#paint3_linear)" stroke-width="0.0405878" stroke-miterlimit="10"/>
<path d="M361.18 413.663C361.752 414.941 363.712 415.41 365.536 414.704L373.14 411.761C374.964 411.056 377.482 408.854 378.737 406.87L383.961 398.599C385.216 396.615 385.774 393.945 385.202 392.667L382.823 387.339C382.251 386.061 380.291 385.592 378.467 386.298L370.864 389.241C369.04 389.947 366.521 392.149 365.266 394.133L360.042 402.403C358.787 404.387 358.229 407.058 358.801 408.336L361.18 413.663Z" stroke="url(#paint4_linear)" stroke-width="0.0418085" stroke-miterlimit="10"/>
<path d="M360.272 413.74C360.786 415.116 362.757 415.716 364.655 415.075L372.561 412.402C374.458 411.762 377.143 409.584 378.526 407.568L384.292 399.161C385.675 397.144 386.388 394.368 385.873 392.991L383.733 387.258C383.219 385.882 381.248 385.282 379.35 385.923L371.445 388.596C369.547 389.236 366.863 391.414 365.48 393.43L359.714 401.837C358.331 403.854 357.618 406.63 358.132 408.007L360.272 413.74Z" stroke="url(#paint5_linear)" stroke-width="0.0433343" stroke-miterlimit="10"/>
<path d="M359.343 413.773C359.792 415.247 361.772 415.988 363.74 415.418L371.94 413.045C373.908 412.475 376.758 410.336 378.275 408.292L384.599 399.774C386.115 397.73 386.989 394.85 386.54 393.375L384.664 387.23C384.215 385.756 382.236 385.015 380.268 385.584L372.068 387.958C370.099 388.527 367.249 390.667 365.733 392.71L359.409 401.229C357.892 403.273 357.018 406.153 357.468 407.627L359.343 413.773Z" stroke="url(#paint6_linear)" stroke-width="0.0451654" stroke-miterlimit="10"/>
<path d="M358.393 413.753C358.774 415.329 360.747 416.214 362.784 415.724L371.264 413.68C373.3 413.189 376.319 411.099 377.975 409.034L384.873 400.428C386.528 398.362 387.571 395.384 387.193 393.809L385.608 387.247C385.227 385.672 383.253 384.786 381.217 385.276L372.737 387.32C370.7 387.811 367.681 389.901 366.026 391.967L359.128 400.572C357.472 402.638 356.43 405.616 356.808 407.191L358.393 413.753Z" stroke="url(#paint7_linear)" stroke-width="0.0466912" stroke-miterlimit="10"/>
<path d="M357.426 413.68C357.728 415.356 359.697 416.397 361.796 415.993L370.548 414.312C372.647 413.909 375.838 411.876 377.635 409.797L385.121 401.131C386.918 399.052 388.14 395.978 387.838 394.302L386.575 387.317C386.273 385.642 384.304 384.601 382.206 385.004L373.453 386.685C371.354 387.089 368.163 389.121 366.367 391.201L358.88 399.866C357.083 401.946 355.861 405.02 356.163 406.696L357.426 413.68Z" stroke="url(#paint8_linear)" stroke-width="0.0482171" stroke-miterlimit="10"/>
<path d="M356.447 413.552C356.668 415.332 358.614 416.533 360.776 416.225L369.784 414.942C371.946 414.634 375.302 412.675 377.246 410.587L385.34 401.889C387.281 399.801 388.691 396.638 388.471 394.861L387.556 387.449C387.335 385.669 385.389 384.467 383.227 384.775L374.219 386.059C372.057 386.367 368.701 388.326 366.757 390.414L358.663 399.112C356.722 401.199 355.312 404.363 355.532 406.14L356.447 413.552Z" stroke="url(#paint9_linear)" stroke-width="0.0500481" stroke-miterlimit="10"/>
<path d="M355.456 413.364C355.584 415.247 357.506 416.617 359.724 416.413L368.972 415.56C371.191 415.356 374.717 413.481 376.807 411.393L385.519 402.698C387.61 400.61 389.213 397.365 389.085 395.482L388.549 387.639C388.421 385.756 386.499 384.385 384.28 384.59L375.032 385.443C372.814 385.647 369.288 387.522 367.197 389.609L358.486 398.305C356.395 400.392 354.791 403.638 354.919 405.521L355.456 413.364Z" stroke="url(#paint10_linear)" stroke-width="0.0518791" stroke-miterlimit="10"/>
<path d="M354.455 413.108C354.485 415.094 356.368 416.642 358.642 416.55L368.11 416.163C370.383 416.07 374.075 414.293 376.315 412.214L385.656 403.554C387.896 401.475 389.707 398.15 389.674 396.166L389.546 387.893C389.516 385.906 387.632 384.358 385.359 384.451L375.891 384.838C373.618 384.931 369.926 386.707 367.685 388.787L358.345 397.447C356.104 399.526 354.294 402.851 354.327 404.835L354.455 413.108Z" stroke="url(#paint11_linear)" stroke-width="0.0537102" stroke-miterlimit="10"/>
<path d="M353.449 412.786C353.376 414.873 355.214 416.607 357.533 416.634L367.203 416.748C369.522 416.776 373.38 415.113 375.776 413.05L385.756 404.461C388.152 402.401 390.172 399.005 390.245 396.915L390.556 388.211C390.629 386.124 388.791 384.391 386.472 384.364L376.802 384.249C374.483 384.222 370.625 385.884 368.229 387.947L358.249 396.536C355.853 398.597 353.833 401.992 353.76 404.082L353.449 412.786Z" stroke="url(#paint12_linear)" stroke-width="0.0558464" stroke-miterlimit="10"/>
<path d="M352.439 412.391C352.252 414.582 354.032 416.503 356.395 416.661L366.242 417.315C368.605 417.473 372.626 415.936 375.174 413.901L385.802 405.423C388.353 403.387 390.594 399.929 390.779 397.738L391.56 388.607C391.748 386.416 389.968 384.494 387.605 384.336L377.758 383.682C375.395 383.524 371.374 385.061 368.825 387.097L358.197 395.575C355.646 397.61 353.406 401.068 353.221 403.259L352.439 412.391Z" stroke="url(#paint13_linear)" stroke-width="0.0579826" stroke-miterlimit="10"/>
<path d="M351.434 411.922C351.127 414.217 352.839 416.334 355.237 416.628L365.237 417.86C367.635 418.154 371.814 416.762 374.523 414.764L385.804 406.437C388.51 404.439 390.98 400.926 391.287 398.635L392.57 389.078C392.877 386.783 391.165 384.666 388.766 384.372L378.767 383.14C376.369 382.846 372.19 384.238 369.481 386.236L358.199 394.563C355.493 396.561 353.024 400.074 352.716 402.365L351.434 411.922Z" stroke="url(#paint14_linear)" stroke-width="0.0598136" stroke-miterlimit="10"/>
<path d="M350.434 411.372C349.998 413.764 351.629 416.086 354.057 416.53L364.182 418.375C366.61 418.817 370.944 417.585 373.808 415.634L385.749 407.502C388.615 405.551 391.316 401.995 391.751 399.602L393.567 389.626C394.003 387.233 392.372 384.911 389.944 384.467L379.819 382.622C377.391 382.181 373.057 383.412 370.193 385.364L358.252 393.495C355.386 395.446 352.685 399.003 352.25 401.395L350.434 411.372Z" stroke="url(#paint15_linear)" stroke-width="0.062255" stroke-miterlimit="10"/>
<path d="M349.442 410.74C348.87 413.233 350.408 415.762 352.861 416.361L363.078 418.858C365.531 419.457 370.009 418.4 373.034 416.506L385.636 408.617C388.66 406.723 391.603 403.137 392.175 400.643L394.56 390.258C395.132 387.765 393.593 385.236 391.141 384.636L380.923 382.14C378.47 381.54 373.992 382.598 370.968 384.492L358.366 392.381C355.341 394.275 352.398 397.861 351.826 400.354L349.442 410.74Z" stroke="url(#paint16_linear)" stroke-width="0.0643912" stroke-miterlimit="10"/>
<path d="M348.468 410.02C347.752 412.609 349.184 415.353 351.65 416.119L361.93 419.307C364.396 420.073 369.019 419.207 372.202 417.383L385.462 409.786C388.645 407.963 391.835 404.352 392.551 401.766L395.535 390.98C396.251 388.391 394.819 385.647 392.353 384.881L382.073 381.693C379.606 380.927 374.984 381.794 371.801 383.617L358.541 391.215C355.358 393.038 352.167 396.648 351.451 399.234L348.468 410.02Z" stroke="url(#paint17_linear)" stroke-width="0.0668326" stroke-miterlimit="10"/>
<path d="M347.512 409.211C346.643 411.892 347.958 414.854 350.43 415.795L360.735 419.713C363.206 420.653 367.963 419.999 371.303 418.258L385.222 411.004C388.563 409.263 392.007 405.644 392.872 402.962L396.488 391.789C397.356 389.108 396.041 386.146 393.569 385.206L383.265 381.287C380.793 380.347 376.037 381.001 372.697 382.742L358.777 389.996C355.437 391.738 351.993 395.357 351.127 398.038L347.512 409.211Z" stroke="url(#paint18_linear)" stroke-width="0.0692739" stroke-miterlimit="10"/>
<path d="M346.584 408.306C345.557 411.077 346.736 414.263 349.205 415.389L359.496 420.076C361.965 421.201 366.846 420.773 370.345 419.127L384.915 412.268C388.41 410.622 392.113 407.009 393.139 404.238L397.419 392.691C398.445 389.92 397.266 386.734 394.797 385.609L384.507 380.922C382.037 379.796 377.156 380.224 373.658 381.87L359.088 388.729C355.592 390.375 351.89 393.989 350.863 396.76L346.584 408.306Z" stroke="url(#paint19_linear)" stroke-width="0.0717153" stroke-miterlimit="10"/>
<path d="M345.681 407.303C344.486 410.159 345.518 413.573 347.976 414.892L358.213 420.386C360.668 421.705 365.666 421.525 369.317 419.988L384.53 413.582C388.181 412.045 392.144 408.45 393.34 405.594L398.316 393.694C399.511 390.838 398.479 387.424 396.021 386.105L385.785 380.611C383.329 379.292 378.331 379.472 374.68 381.009L359.468 387.415C355.817 388.952 351.853 392.547 350.658 395.403L345.681 407.303Z" stroke="url(#paint20_linear)" stroke-width="0.0741567" stroke-miterlimit="10"/>
<path d="M344.819 406.2C343.45 409.137 344.318 412.783 346.752 414.304L356.89 420.645C359.324 422.166 364.426 422.253 368.226 420.839L384.071 414.944C387.874 413.53 392.104 409.968 393.474 407.034L399.18 394.798C400.549 391.86 399.681 388.214 397.247 386.694L387.109 380.352C384.675 378.832 379.573 378.745 375.773 380.159L359.928 386.053C356.125 387.468 351.895 391.029 350.525 393.964L344.819 406.2Z" stroke="url(#paint21_linear)" stroke-width="0.0769032" stroke-miterlimit="10"/>
<path d="M344.001 404.993C342.449 408.004 343.14 411.887 345.539 413.62L355.53 420.844C357.928 422.578 363.123 422.951 367.073 421.673L383.532 416.351C387.483 415.073 391.985 411.566 393.537 408.554L400.006 396.005C401.557 392.994 400.866 389.111 398.468 387.378L388.476 380.154C386.078 378.42 380.884 378.047 376.933 379.325L360.474 384.647C356.524 385.925 352.021 389.432 350.469 392.444L344.001 404.993Z" stroke="url(#paint22_linear)" stroke-width="0.0796498" stroke-miterlimit="10"/>
<path d="M343.226 403.679C341.484 406.758 341.982 410.878 344.331 412.832L354.129 420.978C356.481 422.931 361.752 423.61 365.846 422.487L382.905 417.8C386.999 416.675 391.772 413.236 393.517 410.156L400.777 397.324C402.52 394.245 402.021 390.124 399.672 388.17L389.874 380.025C387.522 378.071 382.251 377.393 378.157 378.515L361.098 383.203C357.004 384.328 352.232 387.767 350.486 390.846L343.226 403.679Z" stroke="url(#paint23_linear)" stroke-width="0.0827015" stroke-miterlimit="10"/>
<path d="M342.511 402.256C340.57 405.398 340.859 409.756 343.151 411.938L352.698 421.04C354.991 423.226 360.327 424.228 364.557 423.272L382.19 419.285C386.421 418.329 391.471 414.974 393.409 411.835L401.492 398.746C403.433 395.604 403.144 391.247 400.852 389.064L391.305 379.962C389.012 377.777 383.677 376.774 379.446 377.731L361.813 381.717C357.582 382.674 352.532 386.028 350.594 389.168L342.511 402.256Z" stroke="url(#paint24_linear)" stroke-width="0.0857532" stroke-miterlimit="10"/>
<path d="M341.855 400.719C339.71 403.913 339.772 408.51 341.988 410.933L351.233 421.027C353.452 423.449 358.837 424.798 363.198 424.027L381.378 420.809C385.742 420.038 391.065 416.789 393.21 413.595L402.145 400.281C404.29 397.087 404.228 392.49 402.011 390.067L392.766 379.974C390.547 377.551 385.163 376.202 380.801 376.973L362.621 380.192C358.257 380.963 352.935 384.211 350.79 387.405L341.855 400.719Z" stroke="url(#paint25_linear)" stroke-width="0.0888049" stroke-miterlimit="10"/>
<path d="M341.271 399.068C338.916 402.308 338.731 407.142 340.863 409.813L349.743 420.934C351.875 423.602 357.289 425.319 361.776 424.746L380.473 422.365C384.96 421.792 390.56 418.675 392.915 415.435L402.732 401.932C405.087 398.692 405.272 393.858 403.14 391.187L394.26 380.066C392.128 377.398 386.713 375.681 382.227 376.254L363.529 378.635C359.043 379.208 353.443 382.325 351.088 385.565L341.271 399.068Z" stroke="url(#paint26_linear)" stroke-width="0.0921618" stroke-miterlimit="10"/>
<path d="M340.762 397.3C338.19 400.575 337.743 405.649 339.774 408.571L348.23 420.752C350.258 423.676 355.686 425.777 360.287 425.425L379.466 423.954C384.07 423.599 389.94 420.632 392.512 417.353L403.236 403.701C405.808 400.425 406.255 395.351 404.224 392.43L395.768 380.249C393.74 377.325 388.312 375.224 383.711 375.575L364.531 377.047C359.928 377.401 354.058 380.369 351.486 383.647L340.762 397.3Z" stroke="url(#paint27_linear)" stroke-width="0.0955187" stroke-miterlimit="10"/>
<path d="M340.341 395.414C337.545 398.717 336.821 404.022 338.732 407.208L346.701 420.479C348.612 423.665 354.029 426.172 358.739 426.055L378.362 425.564C383.072 425.447 389.213 422.648 392.009 419.345L403.664 405.587C406.46 402.284 407.184 396.978 405.273 393.792L397.304 380.521C395.393 377.336 389.976 374.829 385.266 374.946L365.643 375.436C360.933 375.553 354.791 378.352 351.996 381.655L340.341 395.414Z" stroke="url(#paint28_linear)" stroke-width="0.0988756" stroke-miterlimit="10"/>
<path d="M340.009 393.408C336.982 396.724 335.961 402.265 337.741 405.717L345.152 420.106C346.929 423.558 352.317 426.496 357.122 426.632L377.145 427.199C381.95 427.335 388.356 424.733 391.383 421.416L403.993 407.595C407.021 404.278 408.042 398.738 406.261 395.286L398.851 380.897C397.073 377.445 391.686 374.507 386.881 374.371L366.857 373.804C362.052 373.668 355.647 376.27 352.619 379.587L340.009 393.408Z" stroke="url(#paint29_linear)" stroke-width="0.102538" stroke-miterlimit="10"/>
<path d="M339.781 391.28C336.519 394.599 335.185 400.365 336.813 404.093L343.598 419.626C345.226 423.354 350.559 426.739 355.445 427.145L375.817 428.845C380.707 429.254 387.374 426.869 390.635 423.55L404.223 409.715C407.484 406.396 408.818 400.63 407.19 396.902L400.406 381.369C398.778 377.641 393.445 374.256 388.558 373.85L368.186 372.15C363.297 371.741 356.63 374.125 353.368 377.445L339.781 391.28Z" stroke="url(#paint30_linear)" stroke-width="0.1062" stroke-miterlimit="10"/>
<path d="M339.66 389.032C336.159 392.342 334.49 398.329 335.952 402.338L342.036 419.043C343.495 423.051 348.75 426.902 353.71 427.599L374.378 430.51C379.339 431.207 386.259 429.071 389.76 425.763L404.344 411.971C407.845 408.66 409.513 402.673 408.052 398.665L401.967 381.96C400.508 377.951 395.254 374.101 390.293 373.403L369.625 370.493C364.665 369.795 357.744 371.932 354.243 375.24L339.66 389.032Z" stroke="url(#paint31_linear)" stroke-width="0.110167" stroke-miterlimit="10"/>
<path d="M339.658 386.661C335.915 389.947 333.895 396.149 335.169 400.444L340.478 418.337C341.752 422.632 346.9 426.97 351.917 427.975L372.822 432.175C377.84 433.183 385.008 431.319 388.748 428.033L404.345 414.339C408.088 411.053 410.108 404.851 408.834 400.556L403.525 382.663C402.251 378.368 397.103 374.03 392.086 373.024L371.181 368.825C366.163 367.817 358.995 369.681 355.255 372.967L339.658 386.661Z" stroke="url(#paint32_linear)" stroke-width="0.114134" stroke-miterlimit="10"/>
<path d="M339.779 384.167C335.791 387.416 333.4 393.825 334.47 398.409L338.927 417.511C339.997 422.095 345.009 426.94 350.07 428.275L371.149 433.843C376.207 435.178 383.609 433.614 387.6 430.366L404.226 416.83C408.214 413.582 410.605 407.172 409.535 402.589L405.078 383.486C404.008 378.903 398.996 374.057 393.935 372.722L372.856 367.155C367.798 365.819 360.396 367.384 356.405 370.632L339.779 384.167Z" stroke="url(#paint33_linear)" stroke-width="0.118101" stroke-miterlimit="10"/>
<path d="M340.04 381.557C335.801 384.751 333.024 391.356 333.868 396.234L337.388 416.56C338.232 421.438 343.083 426.807 348.166 428.491L369.349 435.505C374.432 437.189 382.06 435.952 386.298 432.758L403.961 419.446C408.2 416.252 410.977 409.647 410.133 404.769L406.613 384.443C405.769 379.565 400.918 374.196 395.835 372.512L374.652 365.498C369.569 363.814 361.941 365.051 357.702 368.245L340.04 381.557Z" stroke="url(#paint34_linear)" stroke-width="0.122374" stroke-miterlimit="10"/>
<path d="M340.442 378.824C335.953 381.946 332.77 388.737 333.372 393.912L335.876 415.473C336.478 420.648 341.133 426.559 346.224 428.608L367.437 437.151C372.528 439.2 380.366 438.323 384.855 435.197L403.563 422.177C408.053 419.054 411.235 412.263 410.633 407.088L408.129 385.527C407.527 380.352 402.872 374.442 397.781 372.392L376.568 363.849C371.477 361.8 363.639 362.677 359.15 365.803L340.442 378.824Z" stroke="url(#paint35_linear)" stroke-width="0.126951" stroke-miterlimit="10"/>
<path d="M340.998 375.973C336.256 379.009 332.651 385.971 332.989 391.443L334.388 414.246C334.723 419.718 339.155 426.188 344.232 428.624L365.391 438.772C370.468 441.208 378.502 440.715 383.244 437.679L403.003 425.027C407.746 421.991 411.35 415.029 411.012 409.557L409.613 386.753C409.278 381.281 404.846 374.812 399.769 372.376L378.611 362.228C373.533 359.791 365.5 360.285 360.757 363.32L340.998 375.973Z" stroke="url(#paint36_linear)" stroke-width="0.131529" stroke-miterlimit="10"/>
<path d="M341.718 373.008C336.725 375.938 332.679 383.058 332.731 388.83L332.941 412.876C332.992 418.648 337.16 425.692 342.205 428.532L363.225 440.367C368.269 443.206 376.483 443.132 381.475 440.203L402.285 427.992C407.278 425.063 411.324 417.942 411.272 412.17L411.062 388.124C411.011 382.352 406.843 375.308 401.798 372.469L380.778 360.634C375.734 357.794 367.52 357.868 362.528 360.797L341.718 373.008Z" stroke="url(#paint37_linear)" stroke-width="0.136412" stroke-miterlimit="10"/>
<path d="M342.609 369.931C337.363 372.736 332.862 379.998 332.607 386.067L331.539 411.355C331.283 417.424 335.155 425.06 340.145 428.324L360.933 441.925C365.92 445.19 374.295 445.563 379.541 442.759L401.399 431.068C406.645 428.264 411.145 421.002 411.401 414.933L412.468 389.645C412.724 383.576 408.853 375.94 403.862 372.676L383.074 359.075C378.087 355.81 369.713 355.437 364.467 358.241L342.609 369.931Z" stroke="url(#paint38_linear)" stroke-width="0.141294" stroke-miterlimit="10"/>
<path d="M343.682 366.746C338.188 369.406 333.214 376.791 332.629 383.154L330.192 409.68C329.607 416.045 333.146 424.286 338.054 427.992L358.513 443.435C363.422 447.141 371.935 447.997 377.428 445.337L400.324 434.254C405.818 431.595 410.791 424.21 411.377 417.847L413.813 391.321C414.399 384.955 410.859 376.714 405.951 373.008L385.492 357.565C380.584 353.859 372.071 353.004 366.577 355.663L343.682 366.746Z" stroke="url(#paint39_linear)" stroke-width="0.146482" stroke-miterlimit="10"/>
<path d="M344.942 363.457C339.201 365.95 333.739 373.436 332.803 380.096L328.904 407.846C327.968 414.506 331.134 423.362 335.939 427.529L355.962 444.89C360.767 449.057 369.395 450.425 375.136 447.934L399.058 437.546C404.799 435.053 410.26 427.567 411.197 420.907L415.095 393.158C416.032 386.497 412.866 377.641 408.061 373.474L388.038 356.113C383.233 351.946 374.605 350.578 368.864 353.069L344.942 363.457Z" stroke="url(#paint40_linear)" stroke-width="0.151975" stroke-miterlimit="10"/>
<path d="M346.404 360.067C340.42 362.37 334.456 369.94 333.146 376.889L327.693 405.843C326.384 412.792 329.139 422.275 333.813 426.921L353.292 446.275C357.966 450.918 366.686 452.834 372.667 450.531L397.599 440.931C403.583 438.628 409.547 431.058 410.857 424.109L416.31 395.155C417.619 388.206 414.864 378.723 410.19 374.077L390.711 354.723C386.037 350.08 377.317 348.164 371.336 350.466L346.404 360.067Z" stroke="url(#paint41_linear)" stroke-width="0.157468" stroke-miterlimit="10"/>
<path d="M348.074 356.587C341.853 358.68 335.371 366.307 333.667 373.54L326.565 403.676C324.86 410.908 327.161 421.029 331.674 426.172L350.489 447.591C355.005 452.73 363.788 455.224 370.006 453.134L395.923 444.416C402.144 442.323 408.626 434.696 410.33 427.463L417.433 397.327C419.137 390.094 416.836 379.973 412.323 374.831L393.508 353.412C388.992 348.273 380.209 345.779 373.991 347.869L348.074 356.587Z" stroke="url(#paint42_linear)" stroke-width="0.162962" stroke-miterlimit="10"/>
<path d="M349.964 353.02C343.515 354.876 336.502 362.536 334.379 370.046L325.533 401.333C323.41 408.84 325.215 419.607 329.541 425.259L347.571 448.812C351.897 454.463 360.715 457.57 367.164 455.714L394.04 447.98C400.489 446.125 407.502 438.465 409.625 430.954L418.471 399.668C420.594 392.16 418.789 381.393 414.463 375.742L396.433 352.189C392.107 346.537 383.289 343.43 376.84 345.286L349.964 353.02Z" stroke="url(#paint43_linear)" stroke-width="0.169065" stroke-miterlimit="10"/>
<path d="M352.077 349.374C345.407 350.968 337.85 358.636 335.288 366.411L324.606 398.812C322.041 406.586 323.304 418.005 327.412 424.185L344.528 449.937C348.636 456.117 357.454 459.867 364.124 458.273L391.922 451.626C398.592 450.032 406.149 442.364 408.711 434.589L419.394 402.188C421.958 394.414 420.695 382.995 416.587 376.815L399.471 351.063C395.363 344.883 386.545 341.133 379.876 342.727L352.077 349.374Z" stroke="url(#paint44_linear)" stroke-width="0.175168" stroke-miterlimit="10"/>
<path d="M354.427 345.657C347.544 346.965 339.434 354.608 336.41 362.639L323.797 396.109C320.77 404.139 321.448 416.212 325.303 422.934L341.37 450.951C345.225 457.673 354.013 462.104 360.895 460.794L389.576 455.338C396.458 454.03 404.568 446.386 407.592 438.355L420.205 404.886C423.232 396.855 422.555 384.783 418.7 378.06L402.632 350.044C398.777 343.321 389.989 338.89 383.107 340.201L354.427 345.657Z" stroke="url(#paint45_linear)" stroke-width="0.181577" stroke-miterlimit="10"/>
<path d="M357.018 341.883C349.935 342.88 341.264 350.467 337.752 358.743L323.114 393.231C319.602 401.507 319.648 414.236 323.217 421.515L338.095 451.85C341.667 459.129 350.381 464.271 357.465 463.274L386.984 459.121C394.067 458.123 402.738 450.537 406.25 442.261L420.888 407.772C424.4 399.496 424.354 386.767 420.785 379.489L405.907 349.153C402.335 341.874 393.621 336.732 386.537 337.73L357.018 341.883Z" stroke="url(#paint46_linear)" stroke-width="0.188291" stroke-miterlimit="10"/>
<path d="M359.86 338.054C352.589 338.711 343.349 346.207 339.328 354.712L322.569 390.157C318.548 398.662 317.916 412.045 321.167 419.893L334.711 452.602C337.961 460.45 346.569 466.337 353.841 465.68L384.141 462.944C391.413 462.287 400.652 454.79 404.673 446.286L421.433 410.84C425.454 402.336 426.085 388.953 422.835 381.104L409.291 348.395C406.04 340.547 397.432 334.661 390.16 335.318L359.86 338.054Z" stroke="url(#paint47_linear)" stroke-width="0.195005" stroke-miterlimit="10"/>
<path d="M362.96 334.19C355.514 334.478 345.7 341.85 341.148 350.57L322.181 386.906C317.63 395.626 316.274 409.658 319.165 418.086L331.22 453.215C334.114 461.647 342.569 468.307 350.015 468.018L381.037 466.811C388.483 466.522 398.297 459.151 402.849 450.43L421.816 414.094C426.367 405.374 427.723 391.343 424.832 382.914L412.777 347.785C409.883 339.354 401.428 332.694 393.982 332.982L362.96 334.19Z" stroke="url(#paint48_linear)" stroke-width="0.202024" stroke-miterlimit="10"/>
<path d="M366.328 330.295C358.727 330.189 348.331 337.397 343.229 346.311L321.961 383.461C316.857 392.375 314.725 407.052 317.224 416.072L327.635 453.665C330.134 462.685 338.397 470.154 345.997 470.26L377.675 470.702C385.276 470.808 395.673 463.6 400.775 454.687L422.042 417.536C427.147 408.622 429.278 393.945 426.779 384.925L416.369 347.332C413.869 338.312 405.607 330.843 398.006 330.737L366.328 330.295Z" stroke="url(#paint49_linear)" stroke-width="0.209348" stroke-miterlimit="10"/>
<path d="M369.967 326.388C362.227 325.856 351.25 332.86 345.574 341.951L321.922 379.829C316.246 388.92 313.292 404.227 315.355 413.849L323.958 453.94C326.022 463.56 334.045 471.866 341.784 472.397L374.039 474.61C381.779 475.141 392.756 468.138 398.432 459.047L422.084 421.168C427.76 412.078 430.714 396.771 428.65 387.149L420.048 347.057C417.984 337.438 409.961 329.132 402.221 328.6L369.967 326.388Z" stroke="url(#paint50_linear)" stroke-width="0.216977" stroke-miterlimit="10"/>
<path d="M373.881 322.483C366.022 321.499 354.462 328.254 348.193 337.495L322.069 376.009C315.799 385.252 311.971 401.18 313.561 411.407L320.187 454.025C321.777 464.252 329.509 473.425 337.368 474.411L370.119 478.515C377.978 479.499 389.538 472.743 395.807 463.502L421.931 424.989C428.201 415.746 432.029 399.818 430.439 389.59L423.813 346.973C422.223 336.746 414.491 327.573 406.632 326.587L373.881 322.483Z" stroke="url(#paint51_linear)" stroke-width="0.224911" stroke-miterlimit="10"/>
<path d="M378.079 318.594C370.124 317.125 357.983 323.589 351.103 332.961L322.428 372.006C315.546 381.374 310.795 397.91 311.871 408.748L316.349 453.913C317.424 464.751 324.813 474.82 332.768 476.289L365.921 482.409C373.876 483.878 386.018 477.414 392.897 468.043L421.572 428.998C428.454 419.629 433.205 403.093 432.13 392.256L427.651 347.09C426.576 336.253 419.187 326.183 411.233 324.715L378.079 318.594Z" stroke="url(#paint52_linear)" stroke-width="0.233151" stroke-miterlimit="10"/>
<path d="M382.565 314.735C374.536 312.752 361.82 318.878 354.309 328.347L323.007 367.809C315.496 377.279 309.773 394.398 310.288 405.848L312.444 453.572C312.961 465.026 319.953 476.016 327.984 478L361.442 486.262C369.47 488.246 382.186 482.12 389.697 472.651L421 433.189C428.511 423.719 434.233 406.6 433.719 395.15L431.562 347.425C431.045 335.972 424.054 324.982 416.023 322.998L382.565 314.735Z" stroke="url(#paint53_linear)" stroke-width="0.241696" stroke-miterlimit="10"/>
<path d="M387.34 310.928C379.265 308.402 365.98 314.139 357.821 323.679L323.818 363.435C315.659 372.976 308.913 390.653 308.829 402.722L308.477 453.008C308.393 465.075 314.932 477.016 323.007 479.542L356.661 490.072C364.736 492.598 378.021 486.862 386.18 477.321L420.183 437.565C428.342 428.025 435.088 410.347 435.172 398.278L435.523 347.992C435.608 335.925 429.068 323.984 420.994 321.458L387.34 310.928Z" stroke="url(#paint54_linear)" stroke-width="0.250546" stroke-miterlimit="10"/>
<path d="M392.411 307.189C384.318 304.088 370.474 309.388 361.651 318.967L324.88 358.881C316.057 368.46 308.241 386.671 307.511 399.351L304.47 452.19C303.74 464.87 309.768 477.784 317.861 480.885L351.592 493.81C359.686 496.912 373.529 491.611 382.352 482.033L419.124 442.119C427.947 432.54 435.763 414.328 436.492 401.648L439.533 348.809C440.263 336.13 434.236 323.215 426.142 320.114L392.411 307.189Z" stroke="url(#paint55_linear)" stroke-width="0.259701" stroke-miterlimit="10"/>
<path d="M397.778 303.538C389.696 299.832 375.308 304.639 365.804 314.22L326.204 354.151C316.7 363.732 307.765 382.445 306.344 395.735L300.428 451.112C299.007 464.402 304.46 478.305 312.543 482.014L346.224 497.46C354.307 501.166 368.695 496.359 378.199 486.777L417.799 446.847C427.303 437.266 436.238 418.552 437.659 405.262L443.575 349.886C444.996 336.596 439.543 322.693 431.46 318.984L397.778 303.538Z" stroke="url(#paint56_linear)" stroke-width="0.269161" stroke-miterlimit="10"/>
<path d="M403.44 299.995C395.401 295.654 380.482 299.913 370.29 309.462L327.807 349.254C317.611 358.802 307.506 377.981 305.353 391.871L296.369 449.757C294.212 463.65 299.026 478.567 307.065 482.908L340.564 501.002C348.603 505.343 363.522 501.084 373.715 491.535L416.197 451.744C426.393 442.195 436.498 423.016 438.652 409.126L447.636 351.24C449.792 337.348 444.979 322.431 436.939 318.09L403.44 299.995Z" stroke="url(#paint57_linear)" stroke-width="0.278927" stroke-miterlimit="10"/>
<path d="M409.401 296.584C401.44 291.575 386.013 295.232 375.115 304.707L329.703 344.193C318.805 353.668 307.485 373.273 304.548 387.754L292.305 448.106C289.368 462.59 293.476 478.537 301.436 483.545L334.606 504.414C342.566 509.423 357.994 505.766 368.892 496.291L414.304 456.804C425.202 447.329 436.521 427.725 439.459 413.244L451.701 352.892C454.639 338.408 450.531 322.461 442.57 317.452L409.401 296.584Z" stroke="url(#paint58_linear)" stroke-width="0.288997" stroke-miterlimit="10"/>
<path d="M415.656 293.327C407.813 287.624 391.895 290.616 380.284 299.976L331.902 338.978C320.291 348.338 307.71 368.318 303.943 383.383L288.248 446.149C284.48 461.211 287.818 478.202 295.661 483.905L328.349 507.671C336.192 513.374 352.11 510.382 363.721 501.021L412.103 462.02C423.714 452.659 436.295 432.679 440.062 417.615L455.757 354.848C459.525 339.787 456.187 322.796 448.344 317.093L415.656 293.327Z" stroke="url(#paint59_linear)" stroke-width="0.299373" stroke-miterlimit="10"/>
<path d="M422.203 290.247C414.515 283.819 398.134 286.086 385.804 295.286L334.422 333.617C322.092 342.814 308.205 363.127 303.564 378.752L284.221 443.868C279.579 459.494 282.073 477.539 289.761 483.965L321.801 510.75C329.489 517.178 345.87 514.911 358.199 505.711L409.582 467.38C421.911 458.183 435.798 437.87 440.44 422.245L459.783 357.129C464.424 341.503 461.931 323.458 454.243 317.032L422.203 290.247Z" stroke="url(#paint60_linear)" stroke-width="0.310359" stroke-miterlimit="10"/>
<path d="M429.038 287.373C421.546 280.192 404.733 281.672 391.679 290.662L337.275 328.121C324.218 337.111 308.983 357.696 303.422 373.864L280.238 441.247C274.673 457.417 276.252 476.523 283.744 483.703L314.965 513.625C322.457 520.805 339.27 519.326 352.324 510.336L406.728 472.877C419.785 463.887 435.019 443.302 440.581 427.134L463.765 359.751C469.33 343.58 467.751 324.475 460.259 317.294L429.038 287.373Z" stroke="url(#paint61_linear)" stroke-width="0.321651" stroke-miterlimit="10"/>
<path d="M436.158 284.729C428.905 276.767 411.694 277.396 397.911 286.127L340.474 322.504C326.69 331.233 310.067 352.033 303.536 368.724L276.318 438.276C269.787 454.967 270.375 475.138 277.627 483.098L307.846 516.273C315.098 524.233 332.309 523.607 346.093 514.875L403.53 478.498C417.313 469.77 433.936 448.97 440.467 432.278L467.686 362.726C474.217 346.035 473.629 325.864 466.376 317.904L436.158 284.729Z" stroke="url(#paint62_linear)" stroke-width="0.333247" stroke-miterlimit="10"/>
<path d="M443.555 282.34C436.591 273.57 419.018 273.281 404.507 281.699L344.038 316.771C329.527 325.186 311.478 346.134 303.931 363.318L272.482 434.93C264.936 452.114 264.459 473.351 271.423 482.117L300.447 518.658C307.411 527.427 324.984 527.716 339.494 519.298L399.964 484.227C414.474 475.812 432.524 454.864 440.07 437.68L471.519 366.067C479.066 348.883 479.542 327.647 472.578 318.88L443.555 282.34Z" stroke="url(#paint63_linear)" stroke-width="0.345454" stroke-miterlimit="10"/>
<path d="M451.22 280.238C444.591 270.638 426.699 269.365 411.464 277.412L347.973 310.944C332.736 318.992 313.23 340.015 304.621 357.663L268.757 431.205C260.148 448.852 258.531 471.149 265.16 480.749L292.785 520.762C299.414 530.362 317.305 531.635 332.54 523.587L396.031 490.055C411.268 482.008 430.774 460.984 439.383 443.337L475.25 369.792C483.858 352.145 485.475 329.848 478.846 320.248L451.22 280.238Z" stroke="url(#paint64_linear)" stroke-width="0.357966" stroke-miterlimit="10"/>
<path d="M459.142 278.451C452.899 267.992 434.735 265.668 418.782 273.287L352.296 305.034C336.34 312.653 315.339 333.677 305.629 351.753L265.158 427.082C255.444 445.16 252.607 468.506 258.85 478.964L284.865 522.547C291.107 533.005 309.271 535.33 325.224 527.711L391.711 495.963C407.667 488.344 428.667 467.32 438.378 449.245L478.849 373.916C488.563 355.838 491.399 332.492 485.157 322.033L459.142 278.451Z" stroke="url(#paint65_linear)" stroke-width="0.371089" stroke-miterlimit="10"/>
<path d="M467.308 277.006C461.504 265.667 443.12 262.223 426.456 269.352L357.01 299.058C340.346 306.186 317.824 327.129 306.962 345.596L261.705 422.552C250.842 441.02 246.704 465.407 252.508 476.743L276.694 523.991C282.498 535.33 300.883 538.774 317.546 531.645L386.992 501.939C403.656 494.811 426.178 473.868 437.04 455.401L482.3 378.447C493.163 359.979 497.301 335.593 491.496 324.256L467.308 277.006Z" stroke="url(#paint66_linear)" stroke-width="0.384516" stroke-miterlimit="10"/>
<path d="M475.71 275.941C470.401 263.703 451.851 259.067 434.49 265.643L362.139 293.041C344.776 299.616 320.71 320.387 308.658 339.201L258.433 417.599C246.381 436.412 240.862 461.818 246.171 474.057L268.296 525.056C273.605 537.295 292.155 541.93 309.516 535.354L381.866 507.957C399.229 501.381 423.295 480.61 435.347 461.797L485.573 383.399C497.625 364.585 503.143 339.179 497.834 326.941L475.71 275.941Z" stroke="url(#paint67_linear)" stroke-width="0.398554" stroke-miterlimit="10"/>
<path d="M484.325 275.284C479.569 262.125 460.912 256.23 442.871 262.185L367.684 286.994C349.64 292.948 324.009 313.457 310.723 332.568L255.361 412.208C242.075 431.319 235.098 457.722 239.854 470.882L259.678 525.713C264.434 538.872 283.091 544.767 301.132 538.812L376.319 514.003C394.363 508.049 419.995 487.54 433.28 468.429L488.643 388.789C501.928 369.678 508.905 343.275 504.149 330.115L484.325 275.284Z" stroke="url(#paint68_linear)" stroke-width="0.413202" stroke-miterlimit="10"/>
<path d="M493.14 275.069C488.994 260.975 470.299 253.751 451.596 259.013L373.657 280.947C354.954 286.212 327.738 306.356 313.182 325.712L252.516 406.377C237.956 425.733 229.438 453.104 233.584 467.198L250.858 525.928C255.004 540.023 273.699 547.247 292.402 541.985L370.341 520.051C389.044 514.786 416.26 494.642 430.816 475.286L491.482 394.621C506.041 375.265 514.56 347.894 510.413 333.8L493.14 275.069Z" stroke="url(#paint69_linear)" stroke-width="0.428156" stroke-miterlimit="10"/>
<path d="M502.135 275.328C498.664 260.283 480 251.658 460.66 256.16L380.069 274.919C360.729 279.421 331.923 299.096 316.054 318.64L249.933 400.09C234.064 419.637 223.923 447.937 227.397 462.979L241.866 525.669C245.338 540.714 264.002 549.339 283.342 544.837L363.933 526.078C383.273 521.576 412.079 501.901 427.947 482.357L494.069 400.907C509.938 381.36 520.079 353.06 516.605 338.018L502.135 275.328Z" stroke="url(#paint70_linear)" stroke-width="0.443719" stroke-miterlimit="10"/>
<path d="M511.289 276.096C508.553 260.092 489.994 249.995 470.047 253.661L386.921 268.935C366.975 272.6 336.571 291.695 319.357 311.364L247.633 393.337C230.422 413.009 218.577 442.198 221.313 458.205L232.714 524.901C235.45 540.905 254.009 551.002 273.956 547.336L357.081 532.062C377.028 528.397 407.432 509.303 424.646 489.633L496.37 407.66C513.581 387.988 525.426 358.799 522.69 342.792L511.289 276.096Z" stroke="url(#paint71_linear)" stroke-width="0.459893" stroke-miterlimit="10"/>
<path d="M520.574 277.41C518.641 260.435 500.268 248.797 479.744 251.552L394.225 263.024C373.704 265.777 341.702 284.171 323.114 303.9L245.653 386.113C227.065 405.843 213.439 435.873 215.372 452.847L223.43 523.588C225.363 540.562 243.737 552.201 264.261 549.446L349.779 537.973C370.301 535.221 402.303 516.827 420.891 497.097L498.351 414.884C516.94 395.155 530.565 365.125 528.633 348.15L520.574 277.41Z" stroke="url(#paint72_linear)" stroke-width="0.476678" stroke-miterlimit="10"/>
<path d="M529.963 279.304C528.899 261.354 510.797 248.107 489.737 249.87L401.981 257.214C380.92 258.978 347.331 276.549 327.338 296.262L244.019 378.412C224.026 398.125 208.536 428.943 209.603 446.893L214.04 521.699C215.105 539.649 233.206 552.896 254.266 551.133L342.023 543.789C363.083 542.026 396.672 524.454 416.665 504.741L499.984 422.591C519.977 402.878 535.468 372.06 534.401 354.11L529.963 279.304Z" stroke="url(#paint73_linear)" stroke-width="0.494073" stroke-miterlimit="10"/>
<path d="M539.432 281.811C539.304 262.882 521.565 247.96 500.012 248.652L410.194 251.532C388.641 252.225 353.476 268.842 332.048 288.463L242.762 370.223C221.337 389.844 203.908 421.384 204.036 440.312L204.567 519.192C204.695 538.12 222.434 553.043 243.987 552.351L333.804 549.47C355.357 548.778 390.522 532.16 411.95 512.54L501.237 430.78C522.662 411.159 540.091 379.619 539.963 360.691L539.432 281.811Z" stroke="url(#paint74_linear)" stroke-width="0.512078" stroke-miterlimit="10"/>
<path d="M548.949 284.966C549.828 265.062 532.549 248.399 510.547 247.935L418.868 246.011C396.868 245.548 360.146 261.078 337.267 280.522L241.92 361.544C219.039 380.987 199.601 413.181 198.719 433.085L195.052 516.031C194.172 535.935 211.451 552.599 233.454 553.062L325.133 554.986C347.133 555.449 383.855 539.919 406.734 520.475L502.08 439.453C524.962 420.01 544.4 387.816 545.282 367.912L548.949 284.966Z" stroke="url(#paint75_linear)" stroke-width="0.530693" stroke-miterlimit="10"/>
<path d="M558.475 288.812C560.432 267.938 543.714 249.467 521.32 247.767L428.001 240.687C405.607 238.989 367.36 253.288 343.008 272.464L241.528 352.374C217.177 371.55 195.648 404.319 193.691 425.196L185.529 512.186C183.571 533.06 200.29 551.53 222.684 553.231L316.002 560.311C338.397 562.008 376.644 547.71 400.995 528.534L502.475 448.624C526.827 429.447 548.356 396.678 550.313 375.801L558.475 288.812Z" stroke="url(#paint76_linear)" stroke-width="0.549919" stroke-miterlimit="10"/>
<path d="M567.979 293.376C571.088 271.54 555.037 251.203 532.308 248.183L437.593 235.596C414.864 232.577 375.128 245.499 349.287 264.313L241.613 342.719C215.775 361.536 192.09 394.795 188.979 416.631L176.02 507.624C172.911 529.46 188.962 549.797 211.692 552.817L306.406 565.404C329.136 568.423 368.872 555.501 394.713 536.687L502.386 458.281C528.224 439.467 551.909 406.205 555.021 384.369L567.979 293.376Z" stroke="url(#paint77_linear)" stroke-width="0.57006" stroke-miterlimit="10"/>
<path d="M577.42 298.701C581.754 275.919 566.482 253.655 543.483 249.227L447.638 230.773C424.639 226.345 383.455 237.738 356.122 256.092L242.22 332.573C214.887 350.927 188.976 384.584 184.641 407.366L166.581 502.302C162.247 525.084 177.52 547.347 200.518 551.776L296.363 570.23C319.362 574.658 360.546 563.265 387.879 544.911L501.781 468.429C529.114 450.076 555.026 416.418 559.36 393.637L577.42 298.701Z" stroke="url(#paint78_linear)" stroke-width="0.590507" stroke-miterlimit="10"/>
<path d="M586.755 304.816C592.388 281.108 578.011 256.86 554.81 250.939L458.13 226.255C434.93 220.331 392.357 230.037 363.524 247.821L243.374 321.935C214.541 339.722 186.343 373.671 180.713 397.381L157.246 496.182C151.613 519.89 165.99 544.138 189.19 550.059L285.871 574.743C309.071 580.667 351.644 570.96 380.477 553.177L500.627 479.063C529.46 461.276 557.658 427.327 563.288 403.616L586.755 304.816Z" stroke="url(#paint79_linear)" stroke-width="0.612174" stroke-miterlimit="10"/>
<path d="M595.944 311.762C602.949 287.149 589.593 260.871 566.267 253.364L469.064 222.083C445.739 214.575 401.837 222.431 371.507 239.537L245.123 310.822C214.793 327.927 184.247 362.061 177.245 386.674L148.061 489.238C141.057 513.851 154.413 540.129 177.738 547.636L274.941 578.917C298.267 586.425 342.168 578.569 372.498 561.463L498.885 490.181C529.215 473.075 559.761 438.941 566.763 414.328L595.944 311.762Z" stroke="url(#paint80_linear)" stroke-width="0.634451" stroke-miterlimit="10"/>
<path d="M604.936 319.569C613.386 294.085 601.179 265.722 577.81 256.547L480.43 218.306C457.061 209.128 411.907 214.965 380.088 231.274L247.496 299.238C215.677 315.547 182.731 349.744 174.28 375.229L139.069 481.433C130.619 506.918 142.826 535.281 166.195 544.456L263.575 582.697C286.944 591.875 332.097 586.038 363.917 569.728L496.508 501.765C528.327 485.455 561.274 451.259 569.724 425.774L604.936 319.569Z" stroke="url(#paint81_linear)" stroke-width="0.657645" stroke-miterlimit="10"/>
<path d="M613.679 328.271C623.649 301.947 612.724 271.461 589.401 260.525L492.209 214.957C468.886 204.021 422.562 207.665 389.267 223.056L250.528 287.185C217.234 302.573 181.837 336.705 171.868 363.029L130.321 472.727C120.352 499.051 131.277 529.537 154.599 540.472L251.792 586.041C275.114 596.977 321.439 593.333 354.733 577.942L493.472 513.813C526.767 498.424 562.164 464.293 572.133 437.969L613.679 328.271Z" stroke="url(#paint82_linear)" stroke-width="0.681448" stroke-miterlimit="10"/>
<path d="M622.128 337.901C633.693 310.779 624.186 278.129 601.002 265.349L504.393 212.087C481.209 199.307 433.812 200.582 399.063 214.924L254.265 274.685C219.516 289.027 181.626 322.951 170.061 350.074L121.875 463.099C110.31 490.222 119.816 522.871 143 535.652L239.61 588.913C262.794 601.694 310.191 600.418 344.939 586.076L489.738 526.316C524.487 511.973 562.377 478.049 573.942 450.926L622.128 337.901Z" stroke="url(#paint83_linear)" stroke-width="0.706167" stroke-miterlimit="10"/>
<path d="M630.225 348.491C643.455 320.619 635.509 285.773 612.567 271.061L516.965 209.747C494.023 195.034 445.654 193.761 409.482 206.921L258.743 261.757C222.571 274.917 182.149 308.49 168.918 336.362L113.781 452.512C100.55 480.385 108.497 515.23 131.439 529.943L227.041 591.257C249.982 605.97 298.351 607.242 334.524 594.083L485.263 539.246C521.435 526.087 561.857 492.514 575.088 464.642L630.225 348.491Z" stroke="url(#paint84_linear)" stroke-width="0.731801" stroke-miterlimit="10"/>
<path d="M637.906 360.067C652.876 331.497 646.637 294.431 624.043 277.699L529.895 207.972C507.302 191.24 458.084 187.235 420.52 199.075L263.988 248.404C226.424 260.242 183.443 293.305 168.473 321.875L106.092 440.931C91.1213 469.5 97.3611 506.567 119.954 523.299L214.103 593.025C236.696 609.757 285.914 613.763 323.478 601.923L480.007 552.591C517.571 540.753 560.552 507.69 575.522 479.12L637.906 360.067Z" stroke="url(#paint85_linear)" stroke-width="0.758656" stroke-miterlimit="10"/>
<path d="M645.119 372.662C661.897 343.455 657.519 304.148 635.389 285.313L543.171 206.825C521.04 187.989 471.098 181.068 432.19 191.439L270.052 234.664C231.144 245.036 185.582 277.421 168.804 306.628L98.8844 428.338C82.1063 457.545 86.4839 496.852 108.614 515.688L200.833 594.175C222.963 613.011 272.905 619.933 311.814 609.561L473.951 566.336C512.86 555.964 558.422 523.579 575.2 494.372L645.119 372.662Z" stroke="url(#paint86_linear)" stroke-width="0.786122" stroke-miterlimit="10"/>
<path d="M651.795 386.296C670.452 356.519 668.086 314.959 646.541 293.938L556.757 206.348C535.212 185.33 484.689 175.296 444.488 184.054L276.963 220.551C236.761 229.31 188.605 260.839 169.948 290.616L92.2048 414.702C73.5482 444.479 75.914 486.039 97.459 507.06L187.244 594.649C208.789 615.668 259.311 625.702 299.512 616.943L467.037 580.446C507.239 571.688 555.395 540.159 574.052 510.382L651.795 386.296Z" stroke="url(#paint87_linear)" stroke-width="0.814808" stroke-miterlimit="10"/>
<path d="M657.873 401C678.474 370.727 678.28 326.908 657.446 303.625L570.626 206.602C549.791 183.319 498.845 169.988 457.413 176.977L284.756 206.103C243.324 213.093 192.567 243.581 171.97 273.854L86.1299 400.003C65.5296 430.276 65.7229 474.095 86.5573 497.378L173.377 594.401C194.212 617.684 245.158 631.015 286.591 624.026L459.247 594.9C500.68 587.91 551.436 557.422 572.033 527.149L657.873 401Z" stroke="url(#paint88_linear)" stroke-width="0.844409" stroke-miterlimit="10"/>
<path d="M663.279 416.789C685.886 386.102 688.026 340.029 668.038 314.406L584.746 207.626C564.759 182.002 513.556 165.178 470.961 170.241L293.467 191.336C250.872 196.399 197.527 225.647 174.923 256.334L80.7226 384.208C58.1158 414.895 55.976 460.968 75.9639 486.592L159.255 593.371C179.243 618.995 230.446 635.82 273.041 630.757L450.535 609.662C493.13 604.599 546.475 575.351 569.079 544.663L663.279 416.789Z" stroke="url(#paint89_linear)" stroke-width="0.875232" stroke-miterlimit="10"/>
<path d="M667.948 433.685C692.622 402.674 697.26 354.361 678.261 326.322L599.083 209.485C580.081 181.447 528.802 160.938 485.129 163.911L303.137 176.299C259.459 179.275 203.541 207.079 178.868 238.09L76.054 367.313C51.381 398.324 46.742 446.637 65.7416 474.675L144.92 591.513C163.922 619.551 215.201 640.06 258.874 637.087L440.866 624.699C484.538 621.726 540.459 593.922 565.132 562.911L667.948 433.685Z" stroke="url(#paint90_linear)" stroke-width="0.90697" stroke-miterlimit="10"/>
<path d="M671.804 451.703C698.6 420.465 705.907 369.934 688.04 339.414L613.588 212.229C595.721 181.708 544.562 157.321 499.898 158.038L313.785 161.025C269.121 161.741 210.655 187.886 183.861 219.123L72.1994 349.295C45.4029 380.532 38.096 431.063 55.9631 461.584L130.415 588.769C148.282 619.29 199.441 643.676 244.105 642.96L430.219 639.973C474.882 639.256 533.348 613.112 560.142 581.874L671.804 451.703Z" stroke="url(#paint91_linear)" stroke-width="0.939928" stroke-miterlimit="10"/>
<path d="M674.77 470.857C703.742 439.497 713.883 386.786 697.306 353.717L628.226 215.916C611.649 182.847 560.816 154.392 515.268 152.683L325.457 145.56C279.909 143.851 218.936 168.11 189.964 199.467L69.2314 330.143C40.2597 361.503 30.1188 414.214 46.6954 447.283L115.776 585.084C132.353 618.153 183.185 646.608 228.734 648.317L418.544 655.44C464.093 657.149 525.066 632.89 554.038 601.533L674.77 470.857Z" stroke="url(#paint92_linear)" stroke-width="0.974413" stroke-miterlimit="10"/>
<path d="M676.772 491.157C707.968 459.791 721.115 404.938 705.987 369.261L642.944 220.598C627.816 184.921 577.536 152.206 531.212 147.898L338.172 129.943C291.848 125.634 228.422 147.773 197.226 179.138L67.2287 309.847C36.0328 341.212 22.8864 396.065 38.0147 431.742L101.057 580.406C116.186 616.082 166.465 648.797 212.79 653.105L405.829 671.061C452.153 675.369 515.58 653.23 546.776 621.865L676.772 491.157Z" stroke="url(#paint93_linear)" stroke-width="1.00981" stroke-miterlimit="10"/>
<path d="M677.73 512.603C711.194 481.352 727.514 424.417 714.003 386.08L657.693 226.331C644.179 187.995 594.691 150.833 547.714 143.748L351.963 114.227C304.988 107.142 239.174 126.918 205.713 158.169L66.2723 288.4C32.8113 319.648 16.4879 376.583 30.0018 414.92L86.3118 574.669C99.8258 613.005 149.313 650.167 196.291 657.252L392.042 686.773C439.017 693.858 504.831 674.082 538.292 642.831L677.73 512.603Z" stroke="url(#paint94_linear)" stroke-width="1.04643" stroke-miterlimit="10"/>
<path d="M677.562 535.199C713.329 504.193 732.998 445.242 721.273 404.199L672.417 233.165C660.691 192.123 612.243 150.329 564.754 140.292L366.858 98.4651C319.368 88.4286 251.249 105.586 215.485 136.592L66.4418 265.798C30.6778 296.804 11.0058 355.756 22.7311 396.798L71.5872 567.832C83.3125 608.874 131.76 650.669 179.25 660.705L377.146 702.532C424.635 712.569 492.755 695.412 528.519 664.406L677.562 535.199Z" stroke="url(#paint95_linear)" stroke-width="1.08458" stroke-miterlimit="10"/>
<path d="M676.183 558.945C714.283 528.324 737.473 467.44 727.715 423.651L687.054 241.169C677.297 197.377 630.156 150.773 582.299 137.603L382.873 82.7223C335.016 69.552 264.686 83.8314 226.586 114.453L67.8184 242.055C29.7185 272.676 6.52918 333.56 16.2862 377.349L56.9479 559.831C66.7049 603.623 113.846 650.227 161.703 663.397L361.129 718.278C408.986 731.448 479.316 717.168 517.416 686.547L676.183 558.945Z" stroke="url(#paint96_linear)" stroke-width="1.12395" stroke-miterlimit="10"/>
<path d="M673.513 583.831C713.971 553.743 740.849 491.023 733.243 444.451L701.546 250.385C693.94 203.814 648.391 152.225 600.325 135.742L400.035 67.0533C351.972 50.5693 279.542 61.7013 239.085 91.7888L70.4898 217.169C30.0323 247.257 3.15416 309.977 10.7605 356.549L42.4573 550.615C50.0637 597.186 95.6121 648.775 143.679 665.259L343.968 733.947C392.032 750.431 464.461 739.299 504.918 709.211L673.513 583.831Z" stroke="url(#paint97_linear)" stroke-width="1.16484" stroke-miterlimit="10"/>
<path d="M669.462 609.842C712.293 580.444 743.029 515.996 737.764 466.623L715.816 260.874C710.548 211.501 666.886 154.757 618.787 134.78L418.356 51.5315C370.257 31.554 295.859 39.2605 253.028 68.6586L74.5397 191.159C31.7083 220.554 0.972501 285.005 6.23761 334.378L28.1855 540.126C33.4534 589.499 77.1151 646.243 125.214 666.221L325.648 749.469C373.747 769.447 448.145 761.74 490.976 732.342L669.462 609.842Z" stroke="url(#paint98_linear)" stroke-width="1.20726" stroke-miterlimit="10"/>
<path d="M663.949 636.961C709.162 608.422 743.922 542.369 741.189 490.178L729.801 272.687C727.067 220.494 685.603 158.441 637.656 134.788L437.854 36.2245C389.907 12.5708 313.683 16.5712 268.469 45.1109L80.0526 164.039C34.8391 192.578 0.0796083 258.631 2.81289 310.822L14.2007 528.313C16.9339 580.503 58.3987 642.559 106.345 666.212L306.147 764.776C354.094 788.429 430.318 784.429 475.532 755.889L663.949 636.961Z" stroke="url(#paint99_linear)" stroke-width="1.2512" stroke-miterlimit="10"/>
<path d="M656.882 665.163C704.477 637.656 743.421 570.137 743.421 515.124V285.871C743.421 230.857 704.477 163.338 656.882 135.831L458.542 21.2093C410.946 -6.29759 333.059 -6.29759 285.463 21.2093L87.1203 135.834C39.522 163.341 0.578125 230.86 0.578125 285.874V515.126C0.578125 570.14 39.522 637.659 87.1175 665.166L285.46 779.791C333.056 807.298 410.943 807.298 458.539 779.791L656.882 665.163Z" stroke="url(#paint100_linear)" stroke-width="1.29698" stroke-miterlimit="10"/>
</g>
<defs>
<linearGradient id="paint0_linear" x1="383.051" y1="393.93" x2="359.394" y2="403.12" gradientUnits="userSpaceOnUse">
<stop stop-color="#DA2EEF"/>
<stop offset="0.489658" stop-color="#2B6AFF"/>
<stop offset="1" stop-color="#39D0D8"/>
</linearGradient>
<linearGradient id="paint1_linear" x1="383.618" y1="393.747" x2="358.895" y2="403.572" gradientUnits="userSpaceOnUse">
<stop stop-color="#DA2EEF"/>
<stop offset="0.489658" stop-color="#2B6AFF"/>
<stop offset="1" stop-color="#39D0D8"/>
</linearGradient>
<linearGradient id="paint2_linear" x1="384.202" y1="393.57" x2="358.404" y2="404.061" gradientUnits="userSpaceOnUse">
<stop stop-color="#DA2EEF"/>
<stop offset="0.489658" stop-color="#2B6AFF"/>
<stop offset="1" stop-color="#39D0D8"/>
</linearGradient>
<linearGradient id="paint3_linear" x1="384.801" y1="393.4" x2="357.926" y2="404.592" gradientUnits="userSpaceOnUse">
<stop stop-color="#DA2EEF"/>
<stop offset="0.489658" stop-color="#2B6AFF"/>
<stop offset="1" stop-color="#39D0D8"/>
</linearGradient>
<linearGradient id="paint4_linear" x1="385.403" y1="393.245" x2="357.465" y2="405.163" gradientUnits="userSpaceOnUse">
<stop stop-color="#DA2EEF"/>
<stop offset="0.489658" stop-color="#2B6AFF"/>
<stop offset="1" stop-color="#39D0D8"/>
</linearGradient>
<linearGradient id="paint5_linear" x1="386.016" y1="393.092" x2="357.023" y2="405.761" gradientUnits="userSpaceOnUse">
<stop stop-color="#DA2EEF"/>
<stop offset="0.489658" stop-color="#2B6AFF"/>
<stop offset="1" stop-color="#39D0D8"/>
</linearGradient>
<linearGradient id="paint6_linear" x1="386.632" y1="392.957" x2="356.609" y2="406.402" gradientUnits="userSpaceOnUse">
<stop stop-color="#DA2EEF"/>
<stop offset="0.489658" stop-color="#2B6AFF"/>
<stop offset="1" stop-color="#39D0D8"/>
</linearGradient>
<linearGradient id="paint7_linear" x1="387.243" y1="392.831" x2="356.221" y2="407.071" gradientUnits="userSpaceOnUse">
<stop stop-color="#DA2EEF"/>
<stop offset="0.489658" stop-color="#2B6AFF"/>
<stop offset="1" stop-color="#39D0D8"/>
</linearGradient>
<linearGradient id="paint8_linear" x1="387.856" y1="392.718" x2="355.873" y2="407.771" gradientUnits="userSpaceOnUse">
<stop stop-color="#DA2EEF"/>
<stop offset="0.489658" stop-color="#2B6AFF"/>
<stop offset="1" stop-color="#39D0D8"/>
</linearGradient>
<linearGradient id="paint9_linear" x1="388.464" y1="392.624" x2="355.567" y2="408.506" gradientUnits="userSpaceOnUse">
<stop stop-color="#DA2EEF"/>
<stop offset="0.489658" stop-color="#2B6AFF"/>
<stop offset="1" stop-color="#39D0D8"/>
</linearGradient>
<linearGradient id="paint10_linear" x1="389.062" y1="392.546" x2="355.307" y2="409.265" gradientUnits="userSpaceOnUse">
<stop stop-color="#DA2EEF"/>
<stop offset="0.489658" stop-color="#2B6AFF"/>
<stop offset="1" stop-color="#39D0D8"/>
</linearGradient>
<linearGradient id="paint11_linear" x1="389.643" y1="392.484" x2="355.098" y2="410.045" gradientUnits="userSpaceOnUse">
<stop stop-color="#DA2EEF"/>
<stop offset="0.489658" stop-color="#2B6AFF"/>
<stop offset="1" stop-color="#39D0D8"/>
</linearGradient>
<linearGradient id="paint12_linear" x1="390.525" y1="392.384" x2="354.812" y2="411.213" gradientUnits="userSpaceOnUse">
<stop stop-color="#DA2EEF"/>
<stop offset="0.489658" stop-color="#2B6AFF"/>
<stop offset="1" stop-color="#39D0D8"/>
</linearGradient>
<linearGradient id="paint13_linear" x1="391.539" y1="392.096" x2="354.172" y2="412.165" gradientUnits="userSpaceOnUse">
<stop stop-color="#DA2EEF"/>
<stop offset="0.489658" stop-color="#2B6AFF"/>
<stop offset="1" stop-color="#39D0D8"/>
</linearGradient>
<linearGradient id="paint14_linear" x1="392.569" y1="391.812" x2="353.554" y2="413.143" gradientUnits="userSpaceOnUse">
<stop stop-color="#DA2EEF"/>
<stop offset="0.489658" stop-color="#2B6AFF"/>
<stop offset="1" stop-color="#39D0D8"/>
</linearGradient>
<linearGradient id="paint15_linear" x1="393.599" y1="391.527" x2="352.949" y2="414.132" gradientUnits="userSpaceOnUse">
<stop stop-color="#DA2EEF"/>
<stop offset="0.489658" stop-color="#2B6AFF"/>
<stop offset="1" stop-color="#39D0D8"/>
</linearGradient>
<linearGradient id="paint16_linear" x1="394.639" y1="391.248" x2="352.362" y2="415.142" gradientUnits="userSpaceOnUse">
<stop stop-color="#DA2EEF"/>
<stop offset="0.489658" stop-color="#2B6AFF"/>
<stop offset="1" stop-color="#39D0D8"/>
</linearGradient>
<linearGradient id="paint17_linear" x1="395.678" y1="390.97" x2="351.788" y2="416.153" gradientUnits="userSpaceOnUse">
<stop stop-color="#DA2EEF"/>
<stop offset="0.489658" stop-color="#2B6AFF"/>
<stop offset="1" stop-color="#39D0D8"/>
</linearGradient>
<linearGradient id="paint18_linear" x1="396.712" y1="390.692" x2="351.224" y2="417.161" gradientUnits="userSpaceOnUse">
<stop stop-color="#DA2EEF"/>
<stop offset="0.489658" stop-color="#2B6AFF"/>
<stop offset="1" stop-color="#39D0D8"/>
</linearGradient>
<linearGradient id="paint19_linear" x1="397.744" y1="390.409" x2="350.663" y2="418.154" gradientUnits="userSpaceOnUse">
<stop stop-color="#DA2EEF"/>
<stop offset="0.489658" stop-color="#2B6AFF"/>
<stop offset="1" stop-color="#39D0D8"/>
</linearGradient>
<linearGradient id="paint20_linear" x1="398.766" y1="390.127" x2="350.102" y2="419.135" gradientUnits="userSpaceOnUse">
<stop stop-color="#DA2EEF"/>
<stop offset="0.489658" stop-color="#2B6AFF"/>
<stop offset="1" stop-color="#39D0D8"/>
</linearGradient>
<linearGradient id="paint21_linear" x1="399.78" y1="389.84" x2="349.535" y2="420.085" gradientUnits="userSpaceOnUse">
<stop stop-color="#DA2EEF"/>
<stop offset="0.489658" stop-color="#2B6AFF"/>
<stop offset="1" stop-color="#39D0D8"/>
</linearGradient>
<linearGradient id="paint22_linear" x1="400.783" y1="389.547" x2="348.958" y2="421.001" gradientUnits="userSpaceOnUse">
<stop stop-color="#DA2EEF"/>
<stop offset="0.489658" stop-color="#2B6AFF"/>
<stop offset="1" stop-color="#39D0D8"/>
</linearGradient>
<linearGradient id="paint23_linear" x1="401.765" y1="389.252" x2="348.368" y2="421.883" gradientUnits="userSpaceOnUse">
<stop stop-color="#DA2EEF"/>
<stop offset="0.489658" stop-color="#2B6AFF"/>
<stop offset="1" stop-color="#39D0D8"/>
</linearGradient>
<linearGradient id="paint24_linear" x1="402.724" y1="388.95" x2="347.763" y2="422.712" gradientUnits="userSpaceOnUse">
<stop stop-color="#DA2EEF"/>
<stop offset="0.489658" stop-color="#2B6AFF"/>
<stop offset="1" stop-color="#39D0D8"/>
</linearGradient>
<linearGradient id="paint25_linear" x1="403.658" y1="388.644" x2="347.145" y2="423.496" gradientUnits="userSpaceOnUse">
<stop stop-color="#DA2EEF"/>
<stop offset="0.489658" stop-color="#2B6AFF"/>
<stop offset="1" stop-color="#39D0D8"/>
</linearGradient>
<linearGradient id="paint26_linear" x1="404.568" y1="388.338" x2="346.524" y2="424.235" gradientUnits="userSpaceOnUse">
<stop stop-color="#DA2EEF"/>
<stop offset="0.489658" stop-color="#2B6AFF"/>
<stop offset="1" stop-color="#39D0D8"/>
</linearGradient>
<linearGradient id="paint27_linear" x1="405.439" y1="388.035" x2="345.899" y2="424.925" gradientUnits="userSpaceOnUse">
<stop stop-color="#DA2EEF"/>
<stop offset="0.489658" stop-color="#2B6AFF"/>
<stop offset="1" stop-color="#39D0D8"/>
</linearGradient>
<linearGradient id="paint28_linear" x1="406.28" y1="387.738" x2="345.289" y2="425.572" gradientUnits="userSpaceOnUse">
<stop stop-color="#DA2EEF"/>
<stop offset="0.489658" stop-color="#2B6AFF"/>
<stop offset="1" stop-color="#39D0D8"/>
</linearGradient>
<linearGradient id="paint29_linear" x1="407.075" y1="387.168" x2="343.952" y2="425.518" gradientUnits="userSpaceOnUse">
<stop stop-color="#DA2EEF"/>
<stop offset="0.489658" stop-color="#2B6AFF"/>
<stop offset="1" stop-color="#39D0D8"/>
</linearGradient>
<linearGradient id="paint30_linear" x1="407.821" y1="386.319" x2="341.98" y2="424.738" gradientUnits="userSpaceOnUse">
<stop stop-color="#DA2EEF"/>
<stop offset="0.489658" stop-color="#2B6AFF"/>
<stop offset="1" stop-color="#39D0D8"/>
</linearGradient>
<linearGradient id="paint31_linear" x1="408.517" y1="385.451" x2="340.044" y2="423.821" gradientUnits="userSpaceOnUse">
<stop stop-color="#DA2EEF"/>
<stop offset="0.489658" stop-color="#2B6AFF"/>
<stop offset="1" stop-color="#39D0D8"/>
</linearGradient>
<linearGradient id="paint32_linear" x1="409.15" y1="384.547" x2="338.151" y2="422.731" gradientUnits="userSpaceOnUse">
<stop stop-color="#DA2EEF"/>
<stop offset="0.489658" stop-color="#2B6AFF"/>
<stop offset="1" stop-color="#39D0D8"/>
</linearGradient>
<linearGradient id="paint33_linear" x1="409.723" y1="383.61" x2="336.314" y2="421.48" gradientUnits="userSpaceOnUse">
<stop stop-color="#DA2EEF"/>
<stop offset="0.489658" stop-color="#2B6AFF"/>
<stop offset="1" stop-color="#39D0D8"/>
</linearGradient>
<linearGradient id="paint34_linear" x1="410.216" y1="382.647" x2="334.544" y2="420.055" gradientUnits="userSpaceOnUse">
<stop stop-color="#DA2EEF"/>
<stop offset="0.489658" stop-color="#2B6AFF"/>
<stop offset="1" stop-color="#39D0D8"/>
</linearGradient>
<linearGradient id="paint35_linear" x1="410.638" y1="381.646" x2="332.861" y2="418.456" gradientUnits="userSpaceOnUse">
<stop stop-color="#DA2EEF"/>
<stop offset="0.489658" stop-color="#2B6AFF"/>
<stop offset="1" stop-color="#39D0D8"/>
</linearGradient>
<linearGradient id="paint36_linear" x1="410.965" y1="380.616" x2="331.279" y2="416.681" gradientUnits="userSpaceOnUse">
<stop stop-color="#DA2EEF"/>
<stop offset="0.489658" stop-color="#2B6AFF"/>
<stop offset="1" stop-color="#39D0D8"/>
</linearGradient>
<linearGradient id="paint37_linear" x1="411.203" y1="379.553" x2="329.816" y2="414.732" gradientUnits="userSpaceOnUse">
<stop stop-color="#DA2EEF"/>
<stop offset="0.489658" stop-color="#2B6AFF"/>
<stop offset="1" stop-color="#39D0D8"/>
</linearGradient>
<linearGradient id="paint38_linear" x1="412.408" y1="378.459" x2="327.984" y2="414.203" gradientUnits="userSpaceOnUse">
<stop stop-color="#DA2EEF"/>
<stop offset="0.489658" stop-color="#2B6AFF"/>
<stop offset="1" stop-color="#39D0D8"/>
</linearGradient>
<linearGradient id="paint39_linear" x1="413.802" y1="377.339" x2="326.053" y2="413.915" gradientUnits="userSpaceOnUse">
<stop stop-color="#DA2EEF"/>
<stop offset="0.489658" stop-color="#2B6AFF"/>
<stop offset="1" stop-color="#39D0D8"/>
</linearGradient>
<linearGradient id="paint40_linear" x1="415.183" y1="376.195" x2="324.113" y2="413.565" gradientUnits="userSpaceOnUse">
<stop stop-color="#DA2EEF"/>
<stop offset="0.489658" stop-color="#2B6AFF"/>
<stop offset="1" stop-color="#39D0D8"/>
</linearGradient>
<linearGradient id="paint41_linear" x1="416.557" y1="375.028" x2="322.178" y2="413.16" gradientUnits="userSpaceOnUse">
<stop stop-color="#DA2EEF"/>
<stop offset="0.489658" stop-color="#2B6AFF"/>
<stop offset="1" stop-color="#39D0D8"/>
</linearGradient>
<linearGradient id="paint42_linear" x1="417.914" y1="373.851" x2="320.243" y2="412.716" gradientUnits="userSpaceOnUse">
<stop stop-color="#DA2EEF"/>
<stop offset="0.489658" stop-color="#2B6AFF"/>
<stop offset="1" stop-color="#39D0D8"/>
</linearGradient>
<linearGradient id="paint43_linear" x1="419.278" y1="372.661" x2="318.32" y2="412.258" gradientUnits="userSpaceOnUse">
<stop stop-color="#DA2EEF"/>
<stop offset="0.489658" stop-color="#2B6AFF"/>
<stop offset="1" stop-color="#39D0D8"/>
</linearGradient>
<linearGradient id="paint44_linear" x1="420.636" y1="371.468" x2="316.401" y2="411.8" gradientUnits="userSpaceOnUse">
<stop stop-color="#DA2EEF"/>
<stop offset="0.489658" stop-color="#2B6AFF"/>
<stop offset="1" stop-color="#39D0D8"/>
</linearGradient>
<linearGradient id="paint45_linear" x1="422.009" y1="370.274" x2="314.491" y2="411.363" gradientUnits="userSpaceOnUse">
<stop stop-color="#DA2EEF"/>
<stop offset="0.489658" stop-color="#2B6AFF"/>
<stop offset="1" stop-color="#39D0D8"/>
</linearGradient>
<linearGradient id="paint46_linear" x1="423.401" y1="369.095" x2="312.584" y2="410.984" gradientUnits="userSpaceOnUse">
<stop stop-color="#DA2EEF"/>
<stop offset="0.489658" stop-color="#2B6AFF"/>
<stop offset="1" stop-color="#39D0D8"/>
</linearGradient>
<linearGradient id="paint47_linear" x1="424.82" y1="367.926" x2="310.682" y2="410.674" gradientUnits="userSpaceOnUse">
<stop stop-color="#DA2EEF"/>
<stop offset="0.489658" stop-color="#2B6AFF"/>
<stop offset="1" stop-color="#39D0D8"/>
</linearGradient>
<linearGradient id="paint48_linear" x1="426.256" y1="366.781" x2="308.789" y2="410.438" gradientUnits="userSpaceOnUse">
<stop stop-color="#DA2EEF"/>
<stop offset="0.489658" stop-color="#2B6AFF"/>
<stop offset="1" stop-color="#39D0D8"/>
</linearGradient>
<linearGradient id="paint49_linear" x1="427.727" y1="365.443" x2="306.729" y2="409.866" gradientUnits="userSpaceOnUse">
<stop stop-color="#DA2EEF"/>
<stop offset="0.489658" stop-color="#2B6AFF"/>
<stop offset="1" stop-color="#39D0D8"/>
</linearGradient>
<linearGradient id="paint50_linear" x1="429.207" y1="363.478" x2="304.179" y2="408.098" gradientUnits="userSpaceOnUse">
<stop stop-color="#DA2EEF"/>
<stop offset="0.489658" stop-color="#2B6AFF"/>
<stop offset="1" stop-color="#39D0D8"/>
</linearGradient>
<linearGradient id="paint51_linear" x1="430.695" y1="361.495" x2="301.657" y2="406.343" gradientUnits="userSpaceOnUse">
<stop stop-color="#DA2EEF"/>
<stop offset="0.489658" stop-color="#2B6AFF"/>
<stop offset="1" stop-color="#39D0D8"/>
</linearGradient>
<linearGradient id="paint52_linear" x1="432.175" y1="359.498" x2="299.182" y2="404.576" gradientUnits="userSpaceOnUse">
<stop stop-color="#DA2EEF"/>
<stop offset="0.489658" stop-color="#2B6AFF"/>
<stop offset="1" stop-color="#39D0D8"/>
</linearGradient>
<linearGradient id="paint53_linear" x1="433.641" y1="357.487" x2="296.759" y2="402.793" gradientUnits="userSpaceOnUse">
<stop stop-color="#DA2EEF"/>
<stop offset="0.489658" stop-color="#2B6AFF"/>
<stop offset="1" stop-color="#39D0D8"/>
</linearGradient>
<linearGradient id="paint54_linear" x1="435.412" y1="355.475" x2="294.115" y2="401.437" gradientUnits="userSpaceOnUse">
<stop stop-color="#DA2EEF"/>
<stop offset="0.489658" stop-color="#2B6AFF"/>
<stop offset="1" stop-color="#39D0D8"/>
</linearGradient>
<linearGradient id="paint55_linear" x1="439.474" y1="353.463" x2="289.665" y2="403.096" gradientUnits="userSpaceOnUse">
<stop stop-color="#DA2EEF"/>
<stop offset="0.489658" stop-color="#2B6AFF"/>
<stop offset="1" stop-color="#39D0D8"/>
</linearGradient>
<linearGradient id="paint56_linear" x1="443.673" y1="351.457" x2="285.136" y2="404.97" gradientUnits="userSpaceOnUse">
<stop stop-color="#DA2EEF"/>
<stop offset="0.489658" stop-color="#2B6AFF"/>
<stop offset="1" stop-color="#39D0D8"/>
</linearGradient>
<linearGradient id="paint57_linear" x1="448.016" y1="349.464" x2="280.536" y2="407.079" gradientUnits="userSpaceOnUse">
<stop stop-color="#DA2EEF"/>
<stop offset="0.489658" stop-color="#2B6AFF"/>
<stop offset="1" stop-color="#39D0D8"/>
</linearGradient>
<linearGradient id="paint58_linear" x1="452.508" y1="347.488" x2="275.874" y2="409.444" gradientUnits="userSpaceOnUse">
<stop stop-color="#DA2EEF"/>
<stop offset="0.489658" stop-color="#2B6AFF"/>
<stop offset="1" stop-color="#39D0D8"/>
</linearGradient>
<linearGradient id="paint59_linear" x1="457.157" y1="345.539" x2="271.154" y2="412.1" gradientUnits="userSpaceOnUse">
<stop stop-color="#DA2EEF"/>
<stop offset="0.489658" stop-color="#2B6AFF"/>
<stop offset="1" stop-color="#39D0D8"/>
</linearGradient>
<linearGradient id="paint60_linear" x1="461.959" y1="343.619" x2="266.396" y2="415.054" gradientUnits="userSpaceOnUse">
<stop stop-color="#DA2EEF"/>
<stop offset="0.489658" stop-color="#2B6AFF"/>
<stop offset="1" stop-color="#39D0D8"/>
</linearGradient>
<linearGradient id="paint61_linear" x1="466.924" y1="341.738" x2="261.613" y2="418.34" gradientUnits="userSpaceOnUse">
<stop stop-color="#DA2EEF"/>
<stop offset="0.489658" stop-color="#2B6AFF"/>
<stop offset="1" stop-color="#39D0D8"/>
</linearGradient>
<linearGradient id="paint62_linear" x1="472.047" y1="339.903" x2="256.827" y2="421.969" gradientUnits="userSpaceOnUse">
<stop stop-color="#DA2EEF"/>
<stop offset="0.489658" stop-color="#2B6AFF"/>
<stop offset="1" stop-color="#39D0D8"/>
</linearGradient>
<linearGradient id="paint63_linear" x1="477.318" y1="338.116" x2="252.062" y2="425.95" gradientUnits="userSpaceOnUse">
<stop stop-color="#DA2EEF"/>
<stop offset="0.489658" stop-color="#2B6AFF"/>
<stop offset="1" stop-color="#39D0D8"/>
</linearGradient>
<linearGradient id="paint64_linear" x1="482.732" y1="336.394" x2="247.355" y2="430.295" gradientUnits="userSpaceOnUse">
<stop stop-color="#DA2EEF"/>
<stop offset="0.489658" stop-color="#2B6AFF"/>
<stop offset="1" stop-color="#39D0D8"/>
</linearGradient>
<linearGradient id="paint65_linear" x1="488.265" y1="334.736" x2="242.731" y2="434.995" gradientUnits="userSpaceOnUse">
<stop stop-color="#DA2EEF"/>
<stop offset="0.489658" stop-color="#2B6AFF"/>
<stop offset="1" stop-color="#39D0D8"/>
</linearGradient>
<linearGradient id="paint66_linear" x1="493.908" y1="333.156" x2="238.226" y2="440.058" gradientUnits="userSpaceOnUse">
<stop stop-color="#DA2EEF"/>
<stop offset="0.489658" stop-color="#2B6AFF"/>
<stop offset="1" stop-color="#39D0D8"/>
</linearGradient>
<linearGradient id="paint67_linear" x1="499.629" y1="331.666" x2="233.89" y2="445.467" gradientUnits="userSpaceOnUse">
<stop stop-color="#DA2EEF"/>
<stop offset="0.489658" stop-color="#2B6AFF"/>
<stop offset="1" stop-color="#39D0D8"/>
</linearGradient>
<linearGradient id="paint68_linear" x1="505.407" y1="330.273" x2="229.757" y2="451.216" gradientUnits="userSpaceOnUse">
<stop stop-color="#DA2EEF"/>
<stop offset="0.489658" stop-color="#2B6AFF"/>
<stop offset="1" stop-color="#39D0D8"/>
</linearGradient>
<linearGradient id="paint69_linear" x1="511.216" y1="328.99" x2="225.875" y2="457.295" gradientUnits="userSpaceOnUse">
<stop stop-color="#DA2EEF"/>
<stop offset="0.489658" stop-color="#2B6AFF"/>
<stop offset="1" stop-color="#39D0D8"/>
</linearGradient>
<linearGradient id="paint70_linear" x1="517.03" y1="327.828" x2="222.295" y2="463.682" gradientUnits="userSpaceOnUse">
<stop stop-color="#DA2EEF"/>
<stop offset="0.489658" stop-color="#2B6AFF"/>
<stop offset="1" stop-color="#39D0D8"/>
</linearGradient>
<linearGradient id="paint71_linear" x1="522.816" y1="326.801" x2="219.062" y2="470.368" gradientUnits="userSpaceOnUse">
<stop stop-color="#DA2EEF"/>
<stop offset="0.489658" stop-color="#2B6AFF"/>
<stop offset="1" stop-color="#39D0D8"/>
</linearGradient>
<linearGradient id="paint72_linear" x1="528.538" y1="325.922" x2="216.23" y2="477.325" gradientUnits="userSpaceOnUse">
<stop stop-color="#DA2EEF"/>
<stop offset="0.489658" stop-color="#2B6AFF"/>
<stop offset="1" stop-color="#39D0D8"/>
</linearGradient>
<linearGradient id="paint73_linear" x1="534.165" y1="325.206" x2="213.849" y2="484.541" gradientUnits="userSpaceOnUse">
<stop stop-color="#DA2EEF"/>
<stop offset="0.489658" stop-color="#2B6AFF"/>
<stop offset="1" stop-color="#39D0D8"/>
</linearGradient>
<linearGradient id="paint74_linear" x1="539.666" y1="324.665" x2="211.978" y2="491.997" gradientUnits="userSpaceOnUse">
<stop stop-color="#DA2EEF"/>
<stop offset="0.489658" stop-color="#2B6AFF"/>
<stop offset="1" stop-color="#39D0D8"/>
</linearGradient>
<linearGradient id="paint75_linear" x1="548.668" y1="323.352" x2="208.513" y2="503.264" gradientUnits="userSpaceOnUse">
<stop stop-color="#DA2EEF"/>
<stop offset="0.489658" stop-color="#2B6AFF"/>
<stop offset="1" stop-color="#39D0D8"/>
</linearGradient>
<linearGradient id="paint76_linear" x1="558.3" y1="320.63" x2="202.518" y2="512.303" gradientUnits="userSpaceOnUse">
<stop stop-color="#DA2EEF"/>
<stop offset="0.489658" stop-color="#2B6AFF"/>
<stop offset="1" stop-color="#39D0D8"/>
</linearGradient>
<linearGradient id="paint77_linear" x1="568.017" y1="317.938" x2="196.683" y2="521.56" gradientUnits="userSpaceOnUse">
<stop stop-color="#DA2EEF"/>
<stop offset="0.489658" stop-color="#2B6AFF"/>
<stop offset="1" stop-color="#39D0D8"/>
</linearGradient>
<linearGradient id="paint78_linear" x1="577.791" y1="315.272" x2="191.008" y2="530.97" gradientUnits="userSpaceOnUse">
<stop stop-color="#DA2EEF"/>
<stop offset="0.489658" stop-color="#2B6AFF"/>
<stop offset="1" stop-color="#39D0D8"/>
</linearGradient>
<linearGradient id="paint79_linear" x1="587.595" y1="312.623" x2="185.48" y2="540.481" gradientUnits="userSpaceOnUse">
<stop stop-color="#DA2EEF"/>
<stop offset="0.489658" stop-color="#2B6AFF"/>
<stop offset="1" stop-color="#39D0D8"/>
</linearGradient>
<linearGradient id="paint80_linear" x1="597.408" y1="309.987" x2="180.069" y2="550.029" gradientUnits="userSpaceOnUse">
<stop stop-color="#DA2EEF"/>
<stop offset="0.489658" stop-color="#2B6AFF"/>
<stop offset="1" stop-color="#39D0D8"/>
</linearGradient>
<linearGradient id="paint81_linear" x1="607.199" y1="307.353" x2="174.745" y2="559.55" gradientUnits="userSpaceOnUse">
<stop stop-color="#DA2EEF"/>
<stop offset="0.489658" stop-color="#2B6AFF"/>
<stop offset="1" stop-color="#39D0D8"/>
</linearGradient>
<linearGradient id="paint82_linear" x1="616.937" y1="304.699" x2="169.452" y2="568.949" gradientUnits="userSpaceOnUse">
<stop stop-color="#DA2EEF"/>
<stop offset="0.489658" stop-color="#2B6AFF"/>
<stop offset="1" stop-color="#39D0D8"/>
</linearGradient>
<linearGradient id="paint83_linear" x1="626.602" y1="302.018" x2="164.141" y2="578.154" gradientUnits="userSpaceOnUse">
<stop stop-color="#DA2EEF"/>
<stop offset="0.489658" stop-color="#2B6AFF"/>
<stop offset="1" stop-color="#39D0D8"/>
</linearGradient>
<linearGradient id="paint84_linear" x1="636.158" y1="299.297" x2="158.766" y2="587.089" gradientUnits="userSpaceOnUse">
<stop stop-color="#DA2EEF"/>
<stop offset="0.489658" stop-color="#2B6AFF"/>
<stop offset="1" stop-color="#39D0D8"/>
</linearGradient>
<linearGradient id="paint85_linear" x1="645.573" y1="296.52" x2="153.274" y2="595.681" gradientUnits="userSpaceOnUse">
<stop stop-color="#DA2EEF"/>
<stop offset="0.489658" stop-color="#2B6AFF"/>
<stop offset="1" stop-color="#39D0D8"/>
</linearGradient>
<linearGradient id="paint86_linear" x1="654.82" y1="293.7" x2="147.664" y2="603.886" gradientUnits="userSpaceOnUse">
<stop stop-color="#DA2EEF"/>
<stop offset="0.489658" stop-color="#2B6AFF"/>
<stop offset="1" stop-color="#39D0D8"/>
</linearGradient>
<linearGradient id="paint87_linear" x1="663.862" y1="290.837" x2="141.928" y2="611.673" gradientUnits="userSpaceOnUse">
<stop stop-color="#DA2EEF"/>
<stop offset="0.489658" stop-color="#2B6AFF"/>
<stop offset="1" stop-color="#39D0D8"/>
</linearGradient>
<linearGradient id="paint88_linear" x1="672.665" y1="287.958" x2="136.105" y2="619.032" gradientUnits="userSpaceOnUse">
<stop stop-color="#DA2EEF"/>
<stop offset="0.489658" stop-color="#2B6AFF"/>
<stop offset="1" stop-color="#39D0D8"/>
</linearGradient>
<linearGradient id="paint89_linear" x1="681.188" y1="285.072" x2="130.227" y2="625.937" gradientUnits="userSpaceOnUse">
<stop stop-color="#DA2EEF"/>
<stop offset="0.489658" stop-color="#2B6AFF"/>
<stop offset="1" stop-color="#39D0D8"/>
</linearGradient>
<linearGradient id="paint90_linear" x1="689.397" y1="282.217" x2="124.364" y2="632.408" gradientUnits="userSpaceOnUse">
<stop stop-color="#DA2EEF"/>
<stop offset="0.489658" stop-color="#2B6AFF"/>
<stop offset="1" stop-color="#39D0D8"/>
</linearGradient>
<linearGradient id="paint91_linear" x1="697.245" y1="279.42" x2="118.58" y2="638.437" gradientUnits="userSpaceOnUse">
<stop stop-color="#DA2EEF"/>
<stop offset="0.489658" stop-color="#2B6AFF"/>
<stop offset="1" stop-color="#39D0D8"/>
</linearGradient>
<linearGradient id="paint92_linear" x1="704.683" y1="273.155" x2="103.735" y2="635.759" gradientUnits="userSpaceOnUse">
<stop stop-color="#DA2EEF"/>
<stop offset="0.489658" stop-color="#2B6AFF"/>
<stop offset="1" stop-color="#39D0D8"/>
</linearGradient>
<linearGradient id="paint93_linear" x1="711.667" y1="265.132" x2="85.1446" y2="628.223" gradientUnits="userSpaceOnUse">
<stop stop-color="#DA2EEF"/>
<stop offset="0.489658" stop-color="#2B6AFF"/>
<stop offset="1" stop-color="#39D0D8"/>
</linearGradient>
<linearGradient id="paint94_linear" x1="718.138" y1="256.833" x2="66.9056" y2="619.22" gradientUnits="userSpaceOnUse">
<stop stop-color="#DA2EEF"/>
<stop offset="0.489658" stop-color="#2B6AFF"/>
<stop offset="1" stop-color="#39D0D8"/>
</linearGradient>
<linearGradient id="paint95_linear" x1="724.04" y1="248.248" x2="49.1042" y2="608.694" gradientUnits="userSpaceOnUse">
<stop stop-color="#DA2EEF"/>
<stop offset="0.489658" stop-color="#2B6AFF"/>
<stop offset="1" stop-color="#39D0D8"/>
</linearGradient>
<linearGradient id="paint96_linear" x1="729.312" y1="239.371" x2="31.85" y2="596.593" gradientUnits="userSpaceOnUse">
<stop stop-color="#DA2EEF"/>
<stop offset="0.489658" stop-color="#2B6AFF"/>
<stop offset="1" stop-color="#39D0D8"/>
</linearGradient>
<linearGradient id="paint97_linear" x1="733.889" y1="230.187" x2="15.2688" y2="582.86" gradientUnits="userSpaceOnUse">
<stop stop-color="#DA2EEF"/>
<stop offset="0.489658" stop-color="#2B6AFF"/>
<stop offset="1" stop-color="#39D0D8"/>
</linearGradient>
<linearGradient id="paint98_linear" x1="737.702" y1="220.697" x2="-0.494577" y2="567.472" gradientUnits="userSpaceOnUse">
<stop stop-color="#DA2EEF"/>
<stop offset="0.489658" stop-color="#2B6AFF"/>
<stop offset="1" stop-color="#39D0D8"/>
</linearGradient>
<linearGradient id="paint99_linear" x1="740.686" y1="210.899" x2="-15.2796" y2="550.416" gradientUnits="userSpaceOnUse">
<stop stop-color="#DA2EEF"/>
<stop offset="0.489658" stop-color="#2B6AFF"/>
<stop offset="1" stop-color="#39D0D8"/>
</linearGradient>
<linearGradient id="paint100_linear" x1="742.764" y1="200.803" x2="-28.9097" y2="531.709" gradientUnits="userSpaceOnUse">
<stop stop-color="#DA2EEF"/>
<stop offset="0.489658" stop-color="#2B6AFF"/>
<stop offset="1" stop-color="#39D0D8"/>
</linearGradient>
<clipPath id="clip0">
<rect width="744" height="801" fill="white"/>
</clipPath>
</defs>
</svg>
