<svg width="1320" height="506" viewBox="0 0 1320 506" fill="none" xmlns="http://www.w3.org/2000/svg">
<mask id="mask0" mask-type="alpha" maskUnits="userSpaceOnUse" x="0" y="0" width="1320" height="506">
<rect width="1320" height="506" fill="url(#paint0_radial)"/>
</mask>
<g mask="url(#mask0)">
<path d="M-115.318 -31.7557C-94.1852 -31.8799 -75.1494 -30.8179 -57.3599 -29.2901C-39.578 -27.7561 -23.0347 -25.7563 -6.93981 -23.98C9.15511 -22.2038 24.8169 -20.6636 40.6306 -20.0549C54.5446 -19.5208 68.4814 -19.3159 82.6917 -19.2848C96.9021 -19.2476 111.394 -19.3842 126.463 -19.527C141.532 -19.6699 157.171 -19.8189 173.714 -19.8189C185.553 -19.8189 198.13 -20.2847 211.299 -20.2971C224.468 -20.3096 238.489 -19.8686 251.878 -18.0551C266.59 -16.0615 280.983 -12.9252 295.338 -9.63358C309.692 -6.34197 324.002 -2.8889 338.539 -0.268032C352.992 2.34041 367.909 4.18498 382.712 4.21603C397.515 4.24087 412.212 2.45841 426.24 -2.19953C440.716 -7.0003 452.594 -14.4592 463.848 -23.1602C472.602 -29.9236 482.603 -35.6994 493.811 -39.3947C507.262 -43.829 521.145 -44.9097 535.196 -44.2514C549.247 -43.593 563.457 -41.202 577.554 -38.7053C591.65 -36.2086 605.632 -33.6064 619.22 -32.5196C630.519 -31.619 642.002 -31.383 653.492 -31.4762C664.981 -31.5694 676.479 -31.9855 687.809 -32.3954C697.931 -32.7556 708.038 -33.3331 718.114 -34.184C728.191 -35.0286 738.229 -36.1527 748.207 -37.5936C759.94 -39.2891 771.567 -41.4069 783.094 -43.8477C794.622 -46.2884 806.051 -49.0521 817.382 -52.0394C832.337 -55.9769 848.014 -58.1506 863.835 -59.4486C879.664 -60.7466 895.645 -61.169 911.231 -61.5975C924.62 -61.9701 938.017 -62.1565 951.422 -62.231C964.82 -62.3055 978.224 -62.2744 991.622 -62.2123C1005.02 -62.1502 1018.42 -62.0509 1031.82 -62.0012C1049.23 -61.9329 1066.52 -61.9018 1081.69 -62.2869C1094.65 -62.616 1106.79 -64.4419 1117.84 -63.1005C1135.94 -60.9019 1147.65 -49.6856 1159.34 -35.2957C1170.24 -21.8808 1181.81 -7.1804 1197.63 -0.969821C1207.98 3.09811 1218.83 3.81853 1229.15 2.78758C1239.47 1.75662 1249.29 -1.03192 1258.11 -3.99437C1267.8 -7.25492 1277.16 -11.3353 1286.98 -15.3784C1296.81 -19.4214 1307.12 -23.4273 1318.92 -26.5264C1330.89 -29.6689 1344.35 -31.6439 1360.09 -31.7681" stroke="url(#paint1_linear)" stroke-width="1.8" stroke-miterlimit="10" stroke-linecap="round" stroke-dasharray="0.1 20"/>
<path d="M-119.096 -18.3278C-97.651 -18.2781 -78.4481 -16.8 -60.4913 -14.7381C-42.5346 -12.6762 -25.809 -10.0429 -9.4025 -7.68289C7.00399 -5.32287 23.0913 -3.24853 39.4978 -2.30452C50.4937 -1.67104 61.6112 -1.55303 72.8427 -1.58409C84.0818 -1.62135 95.4425 -1.81389 107.001 -1.81389C117.875 -1.81389 128.977 -1.81389 140.414 -1.81389C151.858 -1.81389 163.637 -1.81389 175.887 -1.81389C187.939 -1.81389 200.667 -2.2362 213.951 -2.26105C227.234 -2.28589 241.247 -1.91325 254.697 -0.317134C269.439 1.43425 283.923 4.22278 298.384 7.13554C312.846 10.0483 327.269 13.0853 341.897 15.3149C356.252 17.501 371.062 18.9854 385.713 18.7121C400.364 18.445 414.856 16.4204 428.58 11.6134C442.6 6.7008 453.908 -0.758095 464.653 -9.44669C473.354 -16.4833 483.354 -22.5945 494.669 -26.5196C508.021 -31.1465 521.813 -32.2457 535.773 -31.5315C549.733 -30.8111 563.859 -28.2772 577.865 -25.6377C591.87 -22.9982 605.761 -20.2531 619.249 -19.1166C630.58 -18.1601 642.123 -17.8993 653.673 -17.9303C665.224 -17.9614 676.79 -18.2781 688.166 -18.4831C698.424 -18.6694 708.683 -19.0545 718.912 -19.75C729.133 -20.4456 739.323 -21.4642 749.445 -22.9112C761.505 -24.6378 773.405 -26.9481 785.146 -29.7366C796.886 -32.5252 808.46 -35.7795 819.874 -39.3879C834.388 -43.9775 849.768 -46.5362 865.369 -48.033C880.97 -49.5297 896.784 -49.9645 912.18 -50.3061C931.968 -50.747 951.756 -50.6539 971.552 -50.3433C991.34 -50.0266 1011.13 -49.4925 1030.91 -49.0577C1048.11 -48.6789 1065.2 -48.3187 1080.28 -48.4243C1093.09 -48.5112 1105.17 -50.1881 1116.22 -48.6789C1134.38 -46.1947 1146.29 -34.612 1158.3 -20.309C1169.62 -6.82583 1181.74 7.84977 1198.16 13.9299C1208.99 17.942 1220.3 18.4947 1231 17.2898C1241.7 16.085 1251.81 13.1226 1260.83 10.1042C1270.96 6.71325 1280.69 2.53351 1290.84 -1.59652C1301 -5.72035 1311.58 -9.79447 1323.65 -12.9619C1335.76 -16.1417 1349.36 -18.185 1365.33 -18.3402" stroke="url(#paint2_linear)" stroke-width="1.8" stroke-miterlimit="10" stroke-linecap="round" stroke-dasharray="0.1 20"/>
<path d="M-123.408 -4.90174C-101.622 -4.67195 -82.2438 -2.75289 -64.0895 -0.156869C-45.9429 2.43915 -29.012 5.71211 -12.2636 8.66213C4.47725 11.6122 21.0509 14.233 38.1033 15.5186C49.3576 16.3695 60.8171 16.5558 72.4133 16.5309C84.0096 16.5061 95.7426 16.2701 107.628 16.2701C118.798 16.2701 130.189 16.2701 141.892 16.2701C153.602 16.2701 165.632 16.2701 178.094 16.2701C190.382 16.2701 203.27 15.8912 216.69 15.854C230.102 15.8167 244.077 16.121 257.581 17.4935C272.354 18.9965 286.936 21.4435 301.496 23.9712C316.056 26.4989 330.601 29.1135 345.313 30.9394C359.561 32.7094 374.265 33.8274 388.757 33.2498C403.256 32.6784 417.542 30.4178 430.962 25.4431C444.527 20.4126 455.226 12.935 465.493 4.27125C474.148 -3.03859 484.133 -9.48516 495.562 -13.64C508.815 -18.4594 522.516 -19.5835 536.392 -18.8072C550.261 -18.0309 564.296 -15.3541 578.21 -12.5718C592.124 -9.78947 605.924 -6.90776 619.321 -5.72154C630.697 -4.70922 642.286 -4.42353 653.897 -4.38627C665.509 -4.349 677.135 -4.57259 688.572 -4.58501C698.975 -4.59743 709.386 -4.78995 719.759 -5.33648C730.132 -5.88922 740.474 -6.79598 750.74 -8.24925C763.15 -10.0068 775.339 -12.5221 787.292 -15.6585C799.246 -18.7948 810.971 -22.546 822.438 -26.7568C836.542 -31.9364 851.596 -34.874 866.931 -36.5819C882.274 -38.2898 897.897 -38.768 913.164 -39.0226C932.648 -39.3518 952.132 -39.0164 971.609 -38.4078C991.085 -37.7991 1010.55 -36.9048 1030 -36.1037C1046.98 -35.4081 1063.9 -34.7187 1078.92 -34.5386C1091.61 -34.3833 1103.68 -35.936 1114.72 -34.2343C1132.98 -31.4209 1145.08 -19.5338 1157.37 -5.29301C1169.06 8.25846 1181.67 22.9154 1198.68 28.8651C1210 32.8275 1221.79 33.2063 1232.9 31.8276C1244.01 30.4488 1254.45 27.3125 1263.71 24.2445C1274.36 20.7231 1284.53 16.4377 1295.08 12.227C1305.63 8.01621 1316.55 3.87999 1328.95 0.638074C1341.27 -2.579 1355.05 -4.69059 1371.28 -4.88933" stroke="url(#paint3_linear)" stroke-width="1.8" stroke-miterlimit="10" stroke-linecap="round" stroke-dasharray="0.1 20"/>
<path d="M-128.162 8.51913C-106.018 8.91661 -86.443 11.2456 -68.0911 14.3571C-49.7317 17.4686 -32.5729 21.3564 -15.4597 24.8716C1.65353 28.3868 18.7363 31.5293 36.4727 33.1503C48.0005 34.1999 59.8247 34.4483 71.7933 34.4359C83.7619 34.4235 95.8749 34.144 108.094 34.144C119.577 34.144 131.256 34.144 143.24 34.144C155.224 34.144 167.504 34.144 180.187 34.144C192.71 34.144 205.773 33.8086 219.322 33.7589C232.872 33.7093 246.763 33.9515 260.312 35.1067C275.138 36.3736 289.812 38.4852 304.478 40.6403C319.144 42.7953 333.803 44.9939 348.606 46.4347C362.741 47.8073 377.338 48.5712 391.686 47.7079C406.033 46.8446 420.129 44.3542 433.253 39.218C445.647 34.3676 455.207 26.7285 464.781 19.1268C474.356 11.5188 483.939 3.94816 496.379 -0.790508C509.54 -5.80244 523.158 -6.94518 536.943 -6.10676C550.72 -5.26833 564.672 -2.44874 578.495 0.476441C592.317 3.40162 606.026 6.41995 619.332 7.66207C630.746 8.73029 642.388 9.04706 654.053 9.15264C665.717 9.25201 677.397 9.13401 688.887 9.32033C699.419 9.48801 709.967 9.49421 720.484 9.09052C731.001 8.69304 741.488 7.88566 751.899 6.43238C764.658 4.64995 777.135 1.91731 789.302 -1.57304C801.468 -5.05717 813.322 -9.29899 824.835 -14.0936C838.582 -19.8197 853.278 -23.1486 868.34 -25.0801C883.401 -27.0178 898.828 -27.5643 914.041 -27.732C933.244 -27.9494 952.432 -27.3842 971.604 -26.4837C990.777 -25.5769 1009.93 -24.3348 1029.06 -23.1796C1045.84 -22.1673 1062.6 -21.1612 1077.61 -20.7016C1090.2 -20.3166 1102.28 -21.7015 1113.35 -19.8508C1131.74 -16.7703 1144.06 -4.47957 1156.55 9.6495C1162.57 16.4563 1168.79 23.5177 1175.75 29.6103C1182.71 35.6966 1190.43 40.8142 1199.22 43.7207C1211.02 47.621 1223.3 47.8259 1234.84 46.2795C1246.38 44.7268 1257.19 41.4228 1266.74 38.3113C1277.94 34.6595 1288.62 30.281 1299.62 25.9895C1310.62 21.698 1321.95 17.4934 1334.72 14.1956C1347.3 10.9475 1361.29 8.76759 1377.79 8.5378" stroke="url(#paint4_linear)" stroke-width="1.8" stroke-miterlimit="10" stroke-linecap="round" stroke-dasharray="0.1 20"/>
<path d="M-133.268 21.9469C-110.751 22.4624 -90.9785 25.1516 -72.3911 28.7289C-53.8113 32.3062 -36.3941 36.7592 -18.8857 40.796C-1.37738 44.8329 16.245 48.4536 34.6804 50.3541C46.497 51.5713 58.686 51.8695 71.027 51.8571C83.3603 51.8508 95.8533 51.5341 108.407 51.5341C120.193 51.5341 132.169 51.5341 144.419 51.5341C156.669 51.5341 169.192 51.5341 182.088 51.5341C194.847 51.5341 208.077 51.2422 221.755 51.1863C235.434 51.1304 249.219 51.3229 262.806 52.2918C277.7 53.3538 292.488 55.1611 307.268 56.9684C322.056 58.7818 336.836 60.5891 351.738 61.6573C365.759 62.6634 380.265 63.1106 394.476 61.9803C408.686 60.8562 422.608 58.1546 435.465 52.8694C447.662 47.8575 456.94 40.0818 466.242 32.3434C475.543 24.605 484.875 16.8977 497.17 12.0162C510.256 6.81793 523.79 5.65657 537.491 6.56331C551.192 7.47006 565.053 10.4387 578.792 13.5067C592.531 16.5747 606.156 19.7422 619.379 21.0402C631.317 22.214 643.331 21.8537 655.33 22.127C666.615 22.3816 677.892 22.8723 689.177 23.2511C699.823 23.6051 710.492 23.8101 721.139 23.5679C731.785 23.3257 742.401 22.6301 752.941 21.1768C766.057 19.3695 778.808 16.4195 791.164 12.5876C803.521 8.74944 815.482 4.02939 827.009 -1.32413C840.46 -7.57197 854.799 -11.2921 869.58 -13.4782C884.368 -15.6644 899.604 -16.3103 914.855 -16.4034C933.807 -16.5214 952.729 -15.7389 971.628 -14.5527C990.527 -13.3664 1009.4 -11.7827 1028.23 -10.286C1044.83 -8.96935 1061.47 -7.65271 1076.5 -6.92607C1089.03 -6.32364 1101.16 -7.57818 1112.28 -5.55353C1131.38 -2.0756 1143.05 11.0598 1155.69 24.7603C1168.33 38.4608 1181.67 52.7141 1199.97 58.434C1212.22 62.2598 1224.98 62.297 1236.97 60.5891C1248.94 58.8812 1260.14 55.4282 1270.01 52.267C1281.82 48.4909 1293.05 44.0255 1304.55 39.6657C1316.04 35.3058 1327.81 31.0516 1341.01 27.6917C1353.87 24.4187 1368.1 22.1891 1384.88 21.9345" stroke="url(#paint5_linear)" stroke-width="1.8" stroke-miterlimit="10" stroke-linecap="round" stroke-dasharray="0.1 20"/>
<path d="M-138.648 35.3741C-115.768 35.9207 -95.7666 38.9018 -76.936 42.8641C-58.1054 46.8265 -40.4147 51.7763 -22.496 56.2603C-4.57727 60.7443 13.5846 64.7626 32.7116 66.8742C44.8246 68.2095 57.3631 68.5324 70.046 68.52C82.7365 68.5076 95.5715 68.166 108.429 68.166C120.504 68.166 132.754 68.166 145.254 68.166C157.755 68.166 170.506 68.166 183.592 68.166C196.571 68.166 210.014 67.9113 223.753 67.8616C237.492 67.812 251.224 67.9672 264.857 68.787C279.858 69.6876 294.775 71.234 309.692 72.7432C324.609 74.2524 339.541 75.718 354.557 76.4571C368.463 77.1403 382.886 77.3204 396.99 75.9789C411.094 74.6374 424.871 71.7681 437.486 66.3649C449.493 61.2226 458.505 53.3351 467.556 45.4787C476.606 37.6224 485.695 29.797 497.846 24.7851C510.871 19.4067 524.336 18.2391 537.961 19.2142C551.587 20.1892 565.371 23.3132 579.035 26.5365C592.698 29.7598 606.247 33.0762 619.394 34.4301C631.332 35.666 643.346 35.2686 655.345 35.6412C666.683 35.9952 678.006 36.6659 689.328 37.2497C700.058 37.8024 710.826 38.2248 721.571 38.1503C732.316 38.0757 743.046 37.5044 753.7 36.0635C767.151 34.2438 780.153 31.0826 792.676 26.9029C805.2 22.7232 817.237 17.5312 828.749 11.6559C841.956 4.91126 855.946 0.768787 870.476 -1.6906C885.005 -4.14999 900.082 -4.93253 915.455 -4.96358C934.202 -5.00084 952.911 -4.01335 971.582 -2.56629C990.253 -1.11922 1008.88 0.787433 1027.46 2.59471C1043.93 4.19704 1060.49 5.81177 1075.6 6.7682C1088.11 7.56316 1100.3 6.42664 1111.5 8.62519C1124.32 11.1405 1133.78 17.8913 1142.63 26.1887C1151.48 34.486 1159.68 44.3298 1168.91 53.0246C1178.14 61.7194 1188.44 69.259 1201 72.9543C1213.04 76.4944 1225.1 75.836 1236.22 74.507C1249.41 72.9357 1261.73 69.7807 1273.5 66.1041C1285.91 62.2287 1297.72 57.6949 1309.74 53.2792C1321.77 48.8635 1334.01 44.572 1347.65 41.1748C1360.82 37.8956 1375.29 35.6288 1392.31 35.3679" stroke="url(#paint6_linear)" stroke-width="1.8" stroke-miterlimit="10" stroke-linecap="round" stroke-dasharray="0.1 20"/>
<path d="M-144.207 48.7954C-126.782 49.1431 -111.045 51.0063 -96.211 53.7141C-81.3776 56.4219 -67.4332 59.962 -53.6712 63.6697C-39.9092 67.3774 -26.3296 71.2466 -12.4232 74.6003C1.48313 77.954 15.7163 80.7985 30.5345 82.4505C42.9287 83.8355 55.794 84.1522 68.7961 84.1273C81.7982 84.1025 94.9446 83.736 108.076 83.736C120.417 83.736 132.91 83.736 145.631 83.736C158.352 83.736 171.3 83.736 184.553 83.736C197.73 83.736 211.386 83.5187 225.14 83.4814C238.895 83.4441 252.641 83.5932 266.312 84.3198C281.45 85.1272 296.526 86.4749 311.61 87.7357C326.695 88.9964 341.794 90.1764 356.954 90.6484C370.754 91.077 385.117 91.0521 399.137 89.5492C413.157 88.0462 426.836 85.0713 439.268 79.5998C451.123 74.3829 459.9 66.4147 468.707 58.4652C477.514 50.5157 486.375 42.591 498.397 37.4611C511.383 31.915 524.796 30.735 538.368 31.7908C551.932 32.8466 565.656 36.1382 579.251 39.5168C592.854 42.8953 606.334 46.3733 619.428 47.7955C631.343 49.0935 643.357 48.6712 655.341 49.1618C666.702 49.6276 678.032 50.4971 689.362 51.2982C700.145 52.0621 710.967 52.7142 721.773 52.826C732.586 52.9378 743.384 52.5031 754.122 51.0871C767.884 49.2736 781.106 45.9013 793.759 41.3924C806.404 36.8835 818.479 31.2319 829.931 24.8598C841.77 18.2766 853.298 13.3454 867.318 10.5507C883.14 7.3957 899.592 6.55107 915.831 6.55728C934.441 6.56971 952.998 7.73728 971.494 9.42035C989.998 11.1034 1008.44 13.3082 1026.83 15.3949C1043.23 17.2581 1059.77 19.1399 1074.99 20.3075C1087.53 21.2701 1099.84 20.2205 1111.15 22.5867C1124.08 25.2883 1133.7 32.1697 1142.73 40.5477C1151.77 48.9258 1160.14 58.7944 1169.6 67.4644C1179.04 76.1343 1189.58 83.5994 1202.5 87.1705C1214.83 90.5801 1227.2 89.8038 1238.62 88.3878C1252.28 86.6923 1265.06 83.4442 1277.29 79.724C1290.3 75.7679 1302.69 71.1845 1315.25 66.7377C1327.81 62.2909 1340.55 57.987 1354.61 54.5774C1368.08 51.3106 1382.79 49.0376 1400 48.7954" stroke="url(#paint7_linear)" stroke-width="1.8" stroke-miterlimit="10" stroke-linecap="round" stroke-dasharray="0.1 20"/>
<path d="M-149.861 62.2225C-132.193 62.3902 -116.266 64.2347 -101.235 67.0046C-86.2036 69.7746 -72.0692 73.4761 -58.0716 77.3515C-44.0817 81.2331 -30.2209 85.2886 -15.9878 88.7852C-1.75461 92.2817 12.8509 95.2131 28.0871 96.8278C40.7548 98.1755 53.8937 98.4612 67.1693 98.4053C80.4374 98.3556 93.8422 97.9644 107.186 97.9644C119.755 97.9644 132.453 97.9644 145.364 97.9644C158.275 97.9644 171.391 97.9644 184.773 97.9644C198.125 97.9644 211.948 97.7781 225.725 97.7719C239.502 97.7656 253.279 97.9333 266.996 98.6413C282.308 99.4301 297.582 100.654 312.871 101.747C328.161 102.84 343.45 103.802 358.808 104.076C372.509 104.318 386.834 104.169 400.801 102.585C414.776 101.001 428.401 97.9954 440.711 92.5177C452.452 87.2946 461.024 79.2892 469.626 71.2775C478.228 63.2659 486.868 55.2543 498.746 50.025C511.717 44.3112 525.099 43.1436 538.626 44.2926C552.152 45.4415 565.823 48.9071 579.372 52.4595C592.922 56.012 606.357 59.6514 619.405 61.1543C631.29 62.5206 643.281 62.0859 655.234 62.7132C666.572 63.3094 677.864 64.3962 689.149 65.4396C699.925 66.4333 710.753 67.34 721.59 67.6506C732.418 67.9611 743.255 67.6816 754.046 66.3091C768.081 64.5266 781.478 60.9555 794.207 56.1237C806.935 51.2919 818.995 45.2056 830.341 38.3801C842.104 31.3063 853.381 25.7664 867.622 22.6115C883.276 19.146 899.675 18.202 915.831 18.2268C934.38 18.2516 952.861 19.562 971.274 21.4501C989.686 23.3381 1008.03 25.8037 1026.3 28.1389C1042.7 30.2318 1059.27 32.3496 1074.71 33.6911C1087.3 34.7842 1099.78 33.7967 1111.25 36.3182C1124.3 39.1937 1134.11 46.193 1143.35 54.6394C1152.58 63.0796 1161.17 72.9606 1170.85 81.5871C1180.53 90.2136 1191.33 97.5856 1204.62 101.02C1217.2 104.262 1229.84 103.411 1241.52 101.921C1255.58 100.126 1268.78 96.8217 1281.42 93.0829C1294.99 89.0709 1307.94 84.4688 1321.02 80.022C1334.09 75.5752 1347.32 71.2838 1361.8 67.8866C1375.54 64.6633 1390.45 62.4088 1407.8 62.2225" stroke="url(#paint8_linear)" stroke-width="1.8" stroke-miterlimit="10" stroke-linecap="round" stroke-dasharray="0.1 20"/>
<path d="M-155.525 75.6492C-137.895 76.0095 -121.831 77.8726 -106.564 80.5804C-91.3053 83.282 -76.829 86.822 -62.4819 90.5297C-48.1347 94.2375 -33.8864 98.1005 -19.2961 101.46C-4.70582 104.82 10.234 107.665 25.7438 109.329C38.6851 110.72 52.0747 111.043 65.5784 111.13C79.082 111.217 92.7072 111.056 106.287 111.478C119.038 111.875 131.926 112.323 145.019 112.683C158.113 113.037 171.404 113.304 184.945 113.316C198.327 113.329 212.12 112.677 225.737 112.074C239.355 111.472 252.972 110.919 266.598 111.143C281.682 111.385 296.728 112.174 311.782 112.944C326.836 113.714 341.89 114.465 356.974 114.633C370.683 114.782 384.893 114.621 398.83 113.186C412.767 111.751 426.422 109.05 439.014 104.125C450.823 99.504 459.805 92.1569 468.795 84.785C477.785 77.413 486.759 70.0225 498.545 65.3024C511.502 60.1166 524.755 59.098 538.122 60.1725C551.488 61.2469 564.969 64.4143 578.366 67.6003C591.771 70.7863 605.093 73.991 618.155 75.14C629.98 76.1771 641.834 75.4319 653.689 75.848C665.179 76.2454 676.615 77.2392 688.052 78.2328C699.192 79.2079 710.393 80.1581 721.594 80.5618C732.796 80.9593 744.004 80.804 755.183 79.5557C769.15 77.9906 782.501 74.6804 795.139 70.0162C807.776 65.3521 819.699 59.3341 830.809 52.3534C842.306 45.1367 853.538 39.6962 867.687 36.6406C883.182 33.2869 899.421 32.5354 915.387 32.7466C933.777 32.995 952.068 34.529 970.298 36.5847C988.521 38.6342 1006.68 41.1992 1024.81 43.4971C1041.21 45.5776 1057.9 47.5712 1073.6 48.509C1086.41 49.2791 1098.96 47.6955 1110.72 50.0182C1124.04 52.6453 1134.32 59.3403 1144.04 67.5072C1153.76 75.6741 1162.85 85.3067 1172.95 93.8027C1183.05 102.299 1194.17 109.652 1207.61 113.26C1220.57 116.738 1233.18 115.894 1245.3 114.347C1259.7 112.509 1273.3 109.298 1286.38 105.677C1300.37 101.814 1313.76 97.4048 1327.25 93.1382C1340.74 88.8715 1354.33 84.7477 1369.05 81.4499C1383.13 78.2949 1398.26 76.0405 1415.61 75.6492" stroke="url(#paint9_linear)" stroke-width="1.8" stroke-miterlimit="10" stroke-linecap="round" stroke-dasharray="0.1 20"/>
<path d="M-161.105 89.0775C-143.468 89.5122 -127.206 91.2946 -111.65 93.8285C-96.0951 96.3563 -81.2312 99.6292 -66.4661 103.051C-51.701 106.473 -37.0272 110.038 -22.0493 113.15C-7.07147 116.261 8.21035 118.919 23.9861 120.515C37.5505 121.894 51.3657 121.565 65.2797 121.913C78.7149 122.248 92.1577 123.062 105.745 124.006C118.633 124.9 131.658 125.906 144.896 126.726C158.133 127.546 171.568 128.173 185.254 128.303C198.621 128.428 212.429 128.067 225.872 126.9C239.345 125.732 252.476 123.875 266.056 123.546C280.791 123.186 295.525 123.503 310.252 123.913C324.987 124.323 339.714 124.838 354.449 124.869C368.097 124.9 382.147 124.689 395.97 123.372C409.793 122.056 423.403 119.64 436.154 115.243C447.925 111.187 457.257 104.529 466.566 97.8468C475.875 91.158 485.161 84.4444 496.848 80.2647C509.706 75.675 522.761 74.8677 535.9 75.9235C549.032 76.9793 562.239 79.8982 575.408 82.7613C588.577 85.6244 601.693 88.4253 614.657 89.2451C626.459 89.9966 638.23 88.9657 650.039 89.2017C661.84 89.4439 673.596 90.3817 685.329 91.3754C697.001 92.3691 708.727 93.4187 720.467 93.9528C732.208 94.4869 743.956 94.4993 755.689 93.4249C769.702 92.1393 783.153 89.1706 795.858 84.7487C808.564 80.3268 820.525 74.4453 831.574 67.328C842.798 60.0927 853.802 54.6957 867.784 51.7332C882.997 48.5099 898.94 47.951 914.587 48.3609C932.68 48.8329 950.652 50.6029 968.556 52.8201C986.459 55.0373 1004.3 57.6954 1022.14 59.9437C1038.44 61.9994 1055.09 63.8501 1070.98 64.3842C1084.05 64.8189 1096.69 62.639 1108.83 64.5084C1122.51 66.6138 1133.46 72.7623 1143.89 80.4261C1154.32 88.09 1164.18 97.2568 1174.9 105.399C1185.62 113.541 1197.22 120.658 1210.82 124.205C1224.09 127.67 1236.77 126.887 1249.3 125.378C1263.93 123.614 1277.88 120.609 1291.36 117.224C1305.68 113.622 1319.49 109.523 1333.37 105.554C1347.26 101.586 1361.22 97.7474 1376.16 94.667C1390.6 91.6921 1405.98 89.5495 1423.33 89.0837" stroke="url(#paint10_linear)" stroke-width="1.8" stroke-miterlimit="10" stroke-linecap="round" stroke-dasharray="0.1 20"/>
<path d="M-166.521 102.498C-148.831 102.914 -132.325 104.523 -116.436 106.79C-100.546 109.056 -85.249 111.982 -70.0432 115.037C-54.8373 118.093 -39.7151 121.273 -24.3421 124.055C-8.96909 126.837 6.65469 129.216 22.6964 130.663C36.4812 131.905 50.5244 131.539 64.5599 132.197C78.1927 132.83 91.7723 134.197 105.489 135.737C118.468 137.196 131.592 138.842 144.943 140.202C158.287 141.563 171.852 142.637 185.667 142.954C199.026 143.258 212.826 142.836 226.109 141.202C239.317 139.581 252.03 136.818 265.397 135.892C279.691 134.899 294.038 134.712 308.385 134.737C322.732 134.762 337.095 135.01 351.419 134.88C364.953 134.762 378.783 134.482 392.446 133.259C406.102 132.036 419.59 129.874 432.418 125.993C443.877 122.521 453.49 117.546 462.655 111.007C471.956 104.367 482.359 98.5232 493.948 94.9087C512.991 88.9714 532.263 90.6979 551.564 94.1137C570.866 97.5296 590.191 102.622 609.348 103.423C621.157 103.914 632.89 102.635 644.691 102.746C656.926 102.864 669.13 103.79 681.289 104.833C693.622 105.883 705.993 107.069 718.388 107.777C730.782 108.485 743.199 108.709 755.616 107.852C769.75 106.87 783.421 104.311 796.339 100.181C809.258 96.0514 821.416 90.3563 832.526 83.1024C843.492 75.9416 854.1 70.526 867.862 67.6442C882.688 64.5452 898.243 64.185 913.457 64.7874C931.155 65.4892 948.694 67.489 966.172 69.8676C983.65 72.2463 1001.07 74.9976 1018.54 77.2023C1034.62 79.2332 1051.06 80.9411 1067.07 81.0715C1080.45 81.1771 1093.19 78.4072 1105.71 79.6245C1119.88 81.0032 1131.64 86.4126 1142.96 93.3871C1154.27 100.362 1165.08 108.889 1176.6 116.509C1188.12 124.123 1200.34 130.824 1214.15 134.135C1227.66 137.377 1240.56 136.693 1253.43 135.308C1268.24 133.712 1282.45 130.998 1296.28 127.93C1310.89 124.682 1325.06 120.987 1339.3 117.403C1353.54 113.82 1367.85 110.361 1383.01 107.584C1397.82 104.877 1413.46 102.951 1430.79 102.504" stroke="url(#paint11_linear)" stroke-width="1.8" stroke-miterlimit="10" stroke-linecap="round" stroke-dasharray="0.1 20"/>
<path d="M-171.682 115.925C-153.915 116.254 -137.144 117.621 -120.889 119.565C-104.635 121.508 -88.8969 124.024 -73.2428 126.657C-57.5886 129.284 -42.018 132.029 -26.2498 134.42C-10.4817 136.811 5.48405 138.848 21.7765 140.072C35.7665 141.121 50.0224 140.718 64.1416 141.743C77.9568 142.742 91.658 144.705 105.466 146.91C118.506 148.984 131.698 151.319 145.125 153.276C158.561 155.232 172.224 156.809 186.176 157.381C199.489 157.927 213.251 157.493 226.36 155.449C239.293 153.431 251.566 149.785 264.659 148.226C278.444 146.587 292.343 145.873 306.272 145.494C320.201 145.115 334.153 145.071 348.037 144.773C361.411 144.481 374.998 144.115 388.449 142.972C401.899 141.823 415.221 139.904 428.048 136.507C439.409 133.495 449.439 129.185 458.923 123.291C468.392 117.403 478.818 112.36 490.178 109.354C508.895 104.398 527.642 106.286 546.412 109.503C565.174 112.727 583.951 117.285 602.736 117.683C614.576 117.937 626.293 116.434 638.133 116.447C650.899 116.466 663.636 117.422 676.318 118.527C689.404 119.67 702.52 121.012 715.659 121.918C728.798 122.825 741.967 123.291 755.159 122.688C769.453 122.03 783.443 119.912 796.681 116.118C809.918 112.323 822.396 106.845 833.658 99.4734C844.38 92.4554 854.457 86.9714 867.983 84.1705C882.345 81.1956 897.437 81.0403 912.149 81.8353C929.369 82.7669 946.398 84.9965 963.367 87.5366C980.344 90.0767 997.267 92.9212 1014.27 95.0763C1030.06 97.0823 1046.13 98.6411 1062.15 98.3741C1075.86 98.1443 1088.68 94.7844 1101.59 95.2253C1116.33 95.7284 1129.05 100.256 1141.38 106.392C1153.7 112.528 1165.6 120.285 1178.05 127.241C1190.5 134.197 1203.48 140.364 1217.6 143.326C1231.74 146.289 1246.39 146.177 1260.57 144.717C1274.76 143.258 1288.46 140.451 1301.16 138.035C1316 135.209 1330.48 131.979 1345.04 128.849C1359.59 125.719 1374.23 122.701 1389.59 120.304C1404.74 117.937 1420.61 116.285 1437.92 115.938" stroke="url(#paint12_linear)" stroke-width="1.8" stroke-miterlimit="10" stroke-linecap="round" stroke-dasharray="0.1 20"/>
<path d="M-176.496 129.353C-158.638 129.546 -141.593 130.626 -124.982 132.21C-108.37 133.787 -92.1915 135.862 -76.0966 138.023C-60.0017 140.19 -43.9904 142.451 -27.8423 144.414C-11.6941 146.376 4.60595 148.034 21.1416 148.997C35.3368 149.823 49.7675 149.376 63.9702 150.798C77.9678 152.202 91.7754 154.816 105.659 157.698C118.737 160.418 131.959 163.468 145.456 166.051C158.952 168.641 172.706 170.759 186.795 171.628C200.032 172.442 213.718 172.038 226.637 169.622C239.32 167.25 251.106 162.729 263.888 160.511C277.095 158.22 290.515 156.971 303.988 156.17C317.461 155.369 330.995 155.021 344.438 154.537C357.615 154.059 370.936 153.593 384.159 152.512C397.381 151.432 410.505 149.736 423.271 146.811C434.541 144.227 444.891 140.544 454.701 135.34C464.314 130.241 474.733 125.999 485.85 123.608C504.179 119.665 522.356 121.733 540.549 124.794C558.741 127.856 576.933 131.912 595.285 131.943C607.17 131.961 618.895 130.26 630.78 130.204C644.14 130.142 657.468 131.148 670.729 132.34C684.628 133.595 698.542 135.116 712.494 136.241C726.438 137.365 740.413 138.091 754.441 137.762C768.902 137.421 783.272 135.769 796.897 132.328C810.522 128.893 823.403 123.67 834.885 116.193C845.372 109.367 854.84 103.778 868.093 101.045C881.954 98.1883 896.529 98.2442 910.679 99.2317C927.374 100.399 943.834 102.859 960.255 105.554C976.677 108.256 993.053 111.187 1009.57 113.305C1025.03 115.286 1040.56 116.69 1056.49 116.025C1070.54 115.441 1083.41 111.485 1096.68 111.088C1112.09 110.628 1125.84 114.168 1139.26 119.379C1152.68 124.59 1165.76 131.465 1179.22 137.681C1192.69 143.898 1206.53 149.457 1221.1 152.022C1235.4 154.537 1250.09 154.5 1264.43 153.313C1278.77 152.127 1292.75 149.798 1305.94 147.724C1320.95 145.364 1335.7 142.637 1350.52 140.004C1365.35 137.371 1380.25 134.837 1395.77 132.856C1411.23 130.881 1427.31 129.546 1444.55 129.334" stroke="url(#paint13_linear)" stroke-width="1.8" stroke-miterlimit="10" stroke-linecap="round" stroke-dasharray="0.1 20"/>
<path d="M-180.883 142.774C-162.941 142.811 -145.631 143.593 -128.685 144.792C-111.738 145.984 -95.142 147.593 -78.6292 149.282C-62.1239 150.972 -45.6946 152.735 -29.1818 154.251C-12.6689 155.766 3.93518 157.027 20.7064 157.71C35.1219 158.294 49.6666 157.803 63.9682 159.648C78.1633 161.48 92.0697 164.753 106.006 168.336C119.107 171.703 132.353 175.479 145.894 178.714C159.436 181.95 173.266 184.639 187.484 185.825C200.608 186.918 214.187 186.564 226.901 183.794C239.378 181.074 250.633 175.708 263.08 172.808C275.672 169.87 288.583 168.076 301.592 166.852C314.602 165.622 327.718 164.958 340.72 164.287C353.684 163.61 366.74 163.045 379.726 162.026C392.713 161.008 405.632 159.542 418.315 157.07C429.539 154.884 440.086 151.779 450.261 147.338C460.034 143.072 470.376 139.625 481.266 137.836C499.154 134.905 516.754 137.172 534.353 140.091C551.953 143.01 569.56 146.581 587.463 146.258C599.402 146.04 611.127 144.146 623.08 144.034C637.055 143.904 651.007 144.96 664.868 146.252C679.618 147.624 694.352 149.326 709.133 150.673C723.905 152.021 738.716 153.015 753.603 152.971C768.223 152.928 782.996 151.742 797.047 148.68C811.098 145.612 824.426 140.668 836.152 133.104C846.395 126.496 855.241 120.757 868.213 118.118C881.564 115.404 895.569 115.646 909.157 116.826C925.297 118.229 941.179 120.919 957.023 123.776C972.868 126.632 988.681 129.663 1004.69 131.731C1019.8 133.688 1035.23 134.923 1050.52 133.88C1064.49 132.93 1077.7 128.359 1091.29 127.123C1107.39 125.657 1122.22 128.166 1136.77 132.396C1151.33 136.631 1165.6 142.587 1180.13 148.028C1194.66 153.468 1209.44 158.387 1224.6 160.542C1239.02 162.592 1253.75 162.623 1268.24 161.716C1282.72 160.809 1296.95 158.965 1310.59 157.275C1325.72 155.394 1340.68 153.201 1355.72 151.083C1370.76 148.972 1385.89 146.935 1401.51 145.382C1417.24 143.817 1433.48 142.817 1450.62 142.767" stroke="url(#paint14_linear)" stroke-width="1.8" stroke-miterlimit="10" stroke-linecap="round" stroke-dasharray="0.1 20"/>
<path d="M-184.764 156.202C-166.761 156.09 -149.23 156.58 -131.98 157.394C-114.73 158.214 -97.7614 159.357 -80.8838 160.574C-63.9986 161.785 -47.2045 163.064 -30.3573 164.139C-13.5101 165.213 3.37514 166.083 20.3743 166.486C35.0178 166.834 49.6157 166.294 64.0465 168.561C78.462 170.828 92.4747 174.759 106.457 179.019C119.566 183.013 132.834 187.509 146.413 191.391C160 195.272 173.892 198.527 188.231 200.042C201.218 201.415 214.646 201.098 227.161 197.968C239.487 194.887 250.171 188.708 262.277 185.099C274.223 181.541 286.617 179.206 299.171 177.541C311.724 175.883 324.438 174.895 337.037 174.026C349.781 173.15 362.585 172.486 375.352 171.535C388.118 170.585 400.839 169.349 413.416 167.331C424.624 165.536 435.385 162.996 445.887 159.338C455.773 155.891 466.093 153.245 476.762 152.059C494.179 150.121 511.201 152.581 528.238 155.357C545.268 158.133 562.305 161.22 579.76 160.543C591.744 160.077 603.469 158.015 615.491 157.835C630.066 157.618 644.641 158.742 659.103 160.127C674.688 161.617 690.251 163.499 705.852 165.064C721.446 166.635 737.077 167.89 752.807 168.138C767.534 168.368 782.717 167.641 797.201 164.952C811.685 162.257 825.47 157.599 837.416 149.954C847.416 143.557 855.638 137.694 868.336 135.129C881.171 132.539 894.652 132.986 907.662 134.359C923.255 135.999 938.552 138.918 953.826 141.936C969.101 144.954 984.36 148.066 999.869 150.097C1014.65 152.028 1029.79 153.09 1044.71 151.674C1058.85 150.333 1071.9 145.141 1085.74 143.103C1102.53 140.632 1118.41 142.11 1134.08 145.377C1149.74 148.643 1165.2 153.693 1180.8 158.375C1196.41 163.052 1212.14 167.362 1227.98 169.132C1242.51 170.753 1257.29 170.84 1271.9 170.194C1286.52 169.548 1300.97 168.176 1315 166.878C1330.22 165.468 1345.33 163.797 1360.53 162.195C1375.73 160.592 1391.02 159.058 1406.7 157.922C1422.63 156.767 1438.98 156.096 1455.98 156.195" stroke="url(#paint15_linear)" stroke-width="1.8" stroke-miterlimit="10" stroke-linecap="round" stroke-dasharray="0.1 20"/>
<path d="M-188.029 169.628C-169.997 169.405 -152.298 169.622 -134.805 170.094C-117.312 170.56 -100.032 171.28 -82.8272 172.044C-65.6228 172.808 -48.502 173.622 -31.366 174.28C-14.23 174.938 2.92122 175.448 20.1256 175.609C34.9971 175.746 49.6253 175.162 64.1928 177.82C78.8515 180.497 92.9783 185.068 107.014 189.968C120.145 194.551 133.421 199.737 147.038 204.234C160.656 208.73 174.6 212.543 189.046 214.369C201.874 215.99 215.111 215.686 227.414 212.183C239.649 208.699 249.725 201.743 261.504 197.421C272.811 193.272 284.696 190.403 296.809 188.316C308.922 186.223 321.271 184.913 333.505 183.863C346.044 182.789 358.628 182.043 371.189 181.168C383.758 180.298 396.305 179.304 408.775 177.739C419.581 176.385 430.083 173.87 440.615 171.535C451.147 169.2 461.71 167.045 472.63 166.411C489.584 165.43 506.059 168.057 522.564 170.672C539.061 173.286 555.582 175.876 572.619 174.833C584.641 174.094 596.336 171.846 608.434 171.597C623.571 171.287 638.724 172.46 653.732 173.92C670.123 175.516 686.469 177.559 702.845 179.336C719.221 181.112 735.635 182.621 752.156 183.143C766.936 183.608 782.484 183.323 797.371 180.994C812.257 178.659 826.468 174.28 838.565 166.56C848.315 160.337 855.975 154.375 868.415 151.891C880.771 149.419 893.758 150.084 906.22 151.636C921.297 153.518 936.039 156.667 950.774 159.847C965.508 163.02 980.243 166.225 995.305 168.212C1009.8 170.125 1024.68 170.995 1039.26 169.218C1053.57 167.473 1066.33 161.66 1080.35 158.897C1097.74 155.462 1114.6 155.971 1131.31 158.325C1148.01 160.685 1164.58 164.896 1181.21 168.877C1197.84 172.858 1214.51 176.615 1231.07 178.056C1245.69 179.329 1260.52 179.46 1275.26 179.044C1290.01 178.628 1304.65 177.671 1319 176.764C1334.28 175.802 1349.5 174.628 1364.8 173.51C1380.09 172.392 1395.48 171.324 1411.15 170.579C1427.23 169.809 1443.61 169.43 1460.45 169.641" stroke="url(#paint16_linear)" stroke-width="1.8" stroke-miterlimit="10" stroke-linecap="round" stroke-dasharray="0.1 20"/>
<path d="M-190.611 183.056C-172.601 182.77 -154.789 182.777 -137.121 182.951C-119.453 183.118 -101.93 183.454 -84.4745 183.82C-67.0194 184.186 -49.625 184.578 -32.2458 184.876C-14.8667 185.174 2.5125 185.366 19.9069 185.335C34.9835 185.304 49.6574 184.677 64.3617 187.683C79.2863 190.726 93.5575 195.893 107.661 201.377C120.815 206.495 134.334 212.327 147.724 217.401C161.114 222.475 174.914 226.791 189.504 228.89C202.255 230.722 215.561 230.35 227.682 226.449C239.871 222.531 249.354 214.792 260.829 209.755C271.529 205.054 282.92 201.675 294.622 199.166C306.325 196.657 318.347 195.018 330.3 193.8C342.664 192.54 355.073 191.726 367.49 190.956C379.907 190.186 392.324 189.447 404.703 188.341C415.501 187.379 426.193 185.553 436.908 183.957C447.623 182.36 458.36 180.988 469.258 180.926C485.778 180.833 501.774 183.59 517.808 186C533.842 188.416 549.915 190.49 566.595 189.037C578.632 187.993 590.266 185.553 602.417 185.211C618.041 184.776 633.695 185.981 649.189 187.497C666.31 189.173 683.37 191.353 700.453 193.316C717.543 195.279 734.657 197.011 751.899 197.794C766.634 198.458 782.501 198.583 797.722 196.583C812.943 194.583 827.518 190.472 839.661 182.665C849.152 176.566 856.349 170.542 868.553 168.138C880.499 165.791 893.052 166.666 905.029 168.405C919.642 170.529 933.89 173.908 948.154 177.243C962.417 180.578 976.696 183.863 991.362 185.807C1005.63 187.702 1020.31 188.372 1034.61 186.242C1049.08 184.081 1061.5 177.678 1075.62 174.274C1093.47 169.97 1111.18 169.604 1128.8 171.169C1146.41 172.728 1163.99 176.218 1181.54 179.622C1199.09 183.025 1216.62 186.335 1233.87 187.553C1248.58 188.59 1263.47 188.751 1278.32 188.521C1293.17 188.292 1307.97 187.664 1322.58 187.118C1337.87 186.54 1353.16 185.814 1368.51 185.13C1383.86 184.441 1399.29 183.795 1414.9 183.373C1431.06 182.938 1447.42 182.789 1464.06 183.062" stroke="url(#paint17_linear)" stroke-width="1.8" stroke-miterlimit="10" stroke-linecap="round" stroke-dasharray="0.1 20"/>
<path d="M-192.414 196.477C-174.473 196.216 -156.63 196.086 -138.871 196.036C-121.112 195.98 -103.421 195.999 -85.7833 196.036C-68.1458 196.073 -50.5538 196.117 -32.9847 196.123C-15.4079 196.129 2.14602 196.086 19.7 195.937C34.9134 195.812 49.7013 195.154 64.5347 198.421C79.7482 201.768 94.1941 207.457 108.382 213.463C121.574 219.04 134.401 225.449 147.821 231.033C161.241 236.622 175.117 241.386 189.905 243.69C202.641 245.671 216.015 245.162 227.9 240.808C240.067 236.349 248.996 227.871 260.204 222.133C270.349 216.935 281.292 213.065 292.637 210.159C303.983 207.246 315.723 205.296 327.479 203.917C339.714 202.489 352.017 201.644 364.35 200.998C376.676 200.352 389.024 199.905 401.343 199.266C412.255 198.7 423.16 197.57 434.08 196.707C445 195.843 455.927 195.241 466.877 195.726C482.767 196.434 498.117 199.47 513.695 201.855C529.752 204.315 545.84 205.079 562.064 203.203C574.078 201.812 585.606 199.154 597.795 198.694C613.783 198.092 629.84 199.297 645.707 200.837C663.451 202.557 681.119 204.843 698.81 206.954C716.501 209.066 734.222 210.991 752.064 211.991C766.632 212.811 782.727 213.295 798.191 211.594C813.655 209.898 828.489 206.016 840.511 198.098C849.728 192.03 856.605 186.006 868.62 183.702C880.246 181.472 892.45 182.559 904.024 184.491C918.257 186.869 932.103 190.478 945.979 193.962C959.855 197.452 973.769 200.818 988.154 202.725C1002.3 204.6 1016.87 205.06 1030.96 202.582C1045.56 200.017 1057.67 193.061 1071.81 189.124C1089.92 184.087 1108.27 183.006 1126.62 183.938C1144.97 184.863 1163.37 187.801 1181.69 190.782C1200 193.763 1218.25 196.8 1236.06 197.93C1250.86 198.868 1265.8 199.061 1280.74 198.961C1295.68 198.856 1310.6 198.452 1325.39 198.197C1340.69 197.93 1356 197.576 1371.36 197.241C1386.72 196.905 1402.12 196.595 1417.63 196.427C1433.81 196.247 1450.1 196.241 1466.54 196.489" stroke="url(#paint18_linear)" stroke-width="1.8" stroke-miterlimit="10" stroke-linecap="round" stroke-dasharray="0.1 20"/>
<path d="M-193.35 209.904C-175.522 209.773 -157.725 209.612 -139.951 209.432C-122.176 209.251 -104.417 209.046 -86.6809 208.848C-68.9446 208.643 -51.2234 208.438 -33.5251 208.239C-15.8192 208.04 1.87156 207.86 19.5547 207.699C34.8289 207.562 49.8371 206.898 64.7466 210.313C80.2716 213.872 94.7859 220.002 108.715 226.424C121.611 232.373 134.56 239.28 148.01 245.291C161.46 251.309 175.39 256.439 190.345 258.849C203.081 260.905 216.531 260.16 228.127 255.266C240.256 250.142 248.713 240.975 259.732 234.547C269.398 228.902 279.953 224.579 291.003 221.294C302.052 218.008 313.595 215.754 325.237 214.251C337.418 212.68 349.706 211.835 362.016 211.351C374.334 210.866 386.675 210.736 398.978 210.574C410.119 210.431 421.289 209.997 432.445 209.854C443.608 209.711 454.756 209.848 465.858 210.854C481.444 212.264 496.612 215.443 512.061 217.505C527.905 219.617 543.749 219.592 559.563 217.251C571.501 215.481 582.892 212.549 595.081 211.928C611.29 211.108 627.613 212.27 643.708 213.785C661.938 215.499 680.077 217.853 698.231 220.064C716.386 222.275 734.563 224.356 752.876 225.536C767.102 226.449 783.334 227.25 798.927 225.809C814.521 224.362 829.476 220.673 841.148 212.611C850.054 206.457 856.832 200.519 868.71 198.327C880.146 196.222 892.1 197.526 903.385 199.637C917.359 202.246 930.908 206.084 944.518 209.73C958.128 213.375 971.799 216.841 986.01 218.704C1000.15 220.561 1014.73 220.797 1028.72 217.99C1043.44 215.033 1055.26 207.606 1069.39 203.246C1087.5 197.656 1106.26 196.066 1125.1 196.576C1143.93 197.079 1162.92 199.681 1181.77 202.457C1200.62 205.239 1219.33 208.202 1237.46 209.432C1252.31 210.444 1267.31 210.661 1282.32 210.612C1297.33 210.562 1312.34 210.251 1327.22 210.195C1342.52 210.14 1357.83 210.046 1373.16 209.966C1388.49 209.885 1403.83 209.81 1419.2 209.786C1435.38 209.761 1451.58 209.792 1467.82 209.904" stroke="url(#paint19_linear)" stroke-width="1.8" stroke-miterlimit="10" stroke-linecap="round" stroke-dasharray="0.1 20"/>
<path d="M-193.344 223.331C-175.547 223.269 -157.78 223.194 -140.036 223.095C-122.292 222.995 -104.579 222.865 -86.8802 222.703C-69.1819 222.542 -51.4912 222.349 -33.808 222.113C-16.1249 221.877 1.55063 221.604 19.2414 221.281C34.508 221.002 49.653 220.008 64.5853 223.206C80.1483 226.535 94.6701 232.584 108.653 238.969C121.662 244.906 134.649 251.831 148.1 257.911C161.55 263.985 175.441 269.208 190.381 271.742C203.041 273.885 216.484 273.276 228.08 268.432C240.262 263.339 248.757 254.116 259.73 247.602C269.29 241.925 279.708 237.509 290.628 234.137C301.548 230.765 312.985 228.423 324.566 226.883C336.687 225.275 348.921 224.449 361.179 224.026C373.444 223.604 385.739 223.579 397.989 223.573C409.266 223.567 420.528 223.43 431.774 223.616C443.021 223.803 454.245 224.312 465.438 225.61C481.252 227.442 496.739 230.765 512.545 232.622C528.458 234.491 544.34 234.019 560.047 231.181C571.757 229.063 582.822 225.815 594.851 224.958C611.007 223.809 627.345 224.759 643.432 226.094C661.83 227.622 680.121 229.833 698.427 231.97C716.733 234.106 735.047 236.174 753.483 237.41C767.495 238.348 783.704 239.348 799.343 238.162C814.982 236.982 830.044 233.622 841.754 225.852C850.827 219.834 858.046 214.127 869.939 212.096C881.338 210.146 893.154 211.499 904.34 213.698C917.996 216.381 931.226 220.263 944.524 223.933C957.823 227.597 971.19 231.05 985.134 232.864C999.245 234.702 1013.75 234.802 1027.67 231.939C1042.39 228.908 1054.39 221.511 1068.4 217.263C1081.35 213.338 1095.16 211.617 1108.97 211.201C1122.78 210.785 1136.67 211.68 1150.15 212.978C1164.81 214.394 1179.38 216.393 1194.06 218.263C1208.75 220.138 1223.38 221.884 1238.12 222.784C1252.84 223.691 1267.69 223.635 1282.59 223.349C1297.48 223.064 1312.4 222.554 1327.18 222.554C1342.48 222.548 1357.79 222.635 1373.1 222.753C1388.41 222.871 1403.74 223.02 1419.1 223.138C1435.31 223.262 1451.54 223.349 1467.82 223.355" stroke="url(#paint20_linear)" stroke-width="1.8" stroke-miterlimit="10" stroke-linecap="round" stroke-dasharray="0.1 20"/>
<path d="M-192.385 236.753C-174.648 236.647 -156.973 236.728 -139.358 236.865C-121.743 237.001 -104.197 237.194 -86.7039 237.318C-69.2108 237.442 -51.7784 237.486 -34.384 237.337C-16.9897 237.181 0.359083 236.827 17.7079 236.138C32.8073 235.536 47.7548 233.871 62.8238 236.43C78.364 239.07 93.0683 244.467 107.172 250.317C120.44 255.819 133.564 262.278 147.037 268.011C160.51 273.743 174.318 278.761 189.121 281.376C201.667 283.599 215.133 283.457 227.025 279.227C239.306 274.855 248.288 266.297 259.352 260.335C269.064 255.099 279.505 251.05 290.372 247.969C301.246 244.883 312.546 242.765 323.99 241.392C335.936 239.958 347.98 239.237 360.048 238.852C372.115 238.473 384.205 238.43 396.258 238.349C407.588 238.275 418.835 238.094 430.066 238.268C441.298 238.442 452.506 238.964 463.76 240.299C480.6 242.299 497.029 245.342 513.497 246.988C529.972 248.634 546.484 248.882 563.499 245.286C574.981 242.858 585.681 239.225 597.55 238.02C613.509 236.405 629.748 236.933 645.736 237.908C664.111 239.02 682.387 240.871 700.663 242.734C718.939 244.591 737.215 246.46 755.582 247.609C769.701 248.491 785.879 249.534 801.602 248.59C817.324 247.646 832.599 244.721 844.894 237.672C854.423 232.213 862.227 226.859 874.074 225.108C885.26 223.45 896.705 224.822 907.602 227.102C920.543 229.809 933.051 233.679 945.628 237.331C958.204 240.982 970.857 244.429 984.094 246.299C997.758 248.224 1011.8 248.404 1025.37 245.845C1039.93 243.1 1052.22 236.206 1066.43 232.505C1079.92 228.99 1093.9 227.549 1108 227.282C1122.09 227.015 1136.27 227.922 1150.05 229.102C1164.85 230.368 1179.55 232.126 1194.19 233.666C1208.85 235.207 1223.43 236.536 1238.12 236.933C1252.46 237.324 1266.71 235.983 1281.1 235.3C1295.97 234.592 1310.86 234.325 1325.74 234.318C1340.99 234.312 1356.25 234.573 1371.52 234.933C1386.79 235.293 1402.09 235.741 1417.48 236.107C1433.7 236.492 1450.02 236.759 1466.49 236.765" stroke="url(#paint21_linear)" stroke-width="1.8" stroke-miterlimit="10" stroke-linecap="round" stroke-dasharray="0.1 20"/>
<path d="M-190.559 250.18C-173.043 250.074 -155.603 250.36 -138.246 250.782C-120.89 251.205 -103.625 251.764 -86.4735 252.211C-69.3223 252.658 -52.2775 252.987 -35.3315 252.956C-18.3855 252.925 -1.53825 252.528 15.2862 251.522C30.1273 250.633 44.7783 248.273 59.8626 250.05C75.3268 251.869 90.2286 256.478 104.507 261.688C118.034 266.626 131.332 272.501 144.874 277.786C158.415 283.071 172.208 287.76 186.882 290.325C199.435 292.518 212.962 292.685 225.151 288.978C237.461 285.233 246.93 277.426 258.161 272.079C267.987 267.402 278.413 263.843 289.189 261.179C299.964 258.515 311.097 256.751 322.328 255.67C334.069 254.534 345.878 254.049 357.695 253.838C369.511 253.627 381.351 253.689 393.152 253.658C404.627 253.627 415.98 253.484 427.325 253.677C438.663 253.869 449.986 254.391 461.392 255.701C479.364 257.763 497.26 260.924 515.171 262.483C533.075 264.042 550.993 263.999 568.996 259.651C580.371 256.906 590.851 252.795 602.652 251.174C618.413 249.013 634.576 249.05 650.488 249.59C668.84 250.211 687.116 251.627 705.384 253.136C723.653 254.645 741.913 256.248 760.227 257.235C774.544 258.012 790.722 258.999 806.536 258.204C822.35 257.409 837.799 254.826 850.672 248.454C860.406 243.634 868.553 238.709 880.179 237.349C890.902 236.094 901.715 237.628 912.012 240.106C923.965 242.982 935.448 246.963 947.013 250.733C958.579 254.503 970.229 258.061 982.524 260.086C995.443 262.216 1008.73 262.614 1021.69 260.471C1036.03 258.099 1048.43 251.782 1062.66 248.59C1076.78 245.429 1091.26 244.199 1105.77 244.013C1120.27 243.827 1134.77 244.677 1148.82 245.677C1163.71 246.739 1178.49 248.199 1193.2 249.348C1207.91 250.497 1222.55 251.329 1237.29 251.13C1251.38 250.938 1265.33 248.795 1279.49 247.665C1294.21 246.491 1308.96 246.056 1323.67 246.05C1338.87 246.044 1354.01 246.497 1369.19 247.1C1384.36 247.702 1399.55 248.46 1414.88 249.075C1431.03 249.72 1447.35 250.18 1463.99 250.199" stroke="url(#paint22_linear)" stroke-width="1.8" stroke-miterlimit="10" stroke-linecap="round" stroke-dasharray="0.1 20"/>
<path d="M-187.961 263.606C-170.795 263.538 -153.689 264.06 -136.682 264.799C-119.675 265.538 -102.782 266.494 -86.0645 267.295C-69.3388 268.097 -52.7879 268.749 -36.4043 268.873C-20.0206 268.997 -3.80407 268.6 12.344 267.308C26.8963 266.14 41.1143 263.078 56.0769 263.973C71.3967 264.886 86.4734 268.6 100.95 273.071C114.712 277.325 128.192 282.536 141.84 287.281C155.488 292.032 169.288 296.324 183.879 298.733C196.524 300.826 210.134 301.162 222.627 297.914C234.914 294.721 244.884 287.71 256.329 283.052C266.238 279.021 276.618 276.046 287.265 273.903C297.911 271.761 308.831 270.457 319.819 269.761C331.324 269.034 342.86 268.879 354.395 268.935C365.931 268.991 377.474 269.252 389.002 269.364C400.674 269.475 412.24 269.426 423.79 269.655C435.341 269.885 446.884 270.395 458.488 271.637C477.926 273.711 497.676 276.94 517.381 278.356C537.093 279.772 556.76 279.375 576.039 274.183C587.43 271.115 597.772 266.463 609.589 264.364C625.144 261.6 641.246 261.085 657.121 261.135C675.45 261.197 693.734 262.122 712.002 263.227C730.278 264.333 748.538 265.612 766.822 266.389C781.42 267.01 797.606 267.885 813.511 267.171C829.416 266.457 845.024 264.159 858.475 258.427C868.209 254.278 876.538 249.85 887.792 248.987C897.868 248.217 907.846 250.018 917.292 252.781C928.052 255.924 938.288 260.104 948.615 264.072C958.943 268.041 969.376 271.798 980.532 274.108C992.439 276.568 1004.82 277.263 1016.97 275.611C1031.04 273.699 1043.37 267.979 1057.5 265.283C1077.78 261.426 1097.96 260.526 1118.01 260.911C1138.07 261.296 1157.94 262.973 1177.52 264.265C1197.11 265.556 1216.39 266.463 1235.74 265.327C1249.63 264.507 1263.35 261.532 1277.35 259.948C1291.9 258.309 1306.5 257.712 1321.02 257.719C1336.12 257.719 1351.13 258.358 1366.13 259.215C1381.13 260.073 1396.14 261.141 1411.36 262.004C1427.36 262.917 1443.62 263.563 1460.36 263.606" stroke="url(#paint23_linear)" stroke-width="1.8" stroke-miterlimit="10" stroke-linecap="round" stroke-dasharray="0.1 20"/>
<path d="M-184.676 277.034C-167.943 277.028 -151.232 277.81 -134.636 278.891C-118.039 279.972 -101.572 281.35 -85.3326 282.53C-69.0933 283.717 -53.0895 284.704 -37.329 285.008C-21.5684 285.313 -6.06623 284.94 9.30678 283.388C23.5627 281.947 37.2031 278.152 51.9454 278.121C67.0448 278.084 82.2507 280.816 96.9322 284.487C110.877 287.971 124.532 292.449 138.294 296.61C152.049 300.771 165.909 304.603 180.424 306.801C193.205 308.739 206.656 309.161 219.665 306.329C232.105 303.622 242.417 297.436 254.097 293.536C264.067 290.213 274.371 287.89 284.866 286.338C295.36 284.785 306.045 284.009 316.759 283.779C327.998 283.537 339.237 283.785 350.469 284.17C361.7 284.561 372.932 285.083 384.156 285.394C396.064 285.723 407.911 285.797 419.742 286.07C431.574 286.344 443.398 286.828 455.261 287.977C469.349 289.337 483.765 291.25 498.257 292.741C512.748 294.231 527.323 295.299 541.723 294.983C556.131 294.66 570.372 292.952 584.202 288.878C595.685 285.499 605.966 280.257 617.836 277.63C633.186 274.227 649.236 273.109 665.08 272.643C683.371 272.103 701.67 272.5 719.953 273.159C738.244 273.817 756.52 274.742 774.796 275.27C789.72 275.699 805.937 276.413 821.933 275.736C837.929 275.059 853.69 273.003 867.703 267.88C877.277 264.383 885.697 260.526 896.473 260.253C905.789 260.011 914.787 262.166 923.207 265.278C932.629 268.762 941.444 273.202 950.381 277.438C959.317 281.673 968.376 285.698 978.292 288.337C989.03 291.194 1000.33 292.262 1011.56 291.145C1025.33 289.778 1037.9 284.692 1051.45 282.437C1066.88 279.866 1082.98 278.804 1098.5 278.549C1114.01 278.295 1129.34 278.854 1144.47 279.537C1159.6 280.214 1174.51 281.021 1189.31 281.251C1204.11 281.487 1218.8 281.152 1233.65 279.556C1247.38 278.084 1260.9 274.252 1274.8 272.221C1289.18 270.122 1303.63 269.37 1317.93 269.383C1332.91 269.395 1347.72 270.227 1362.51 271.333C1377.3 272.438 1392.06 273.823 1407.1 274.947C1422.9 276.127 1439.04 276.972 1455.86 277.034" stroke="url(#paint24_linear)" stroke-width="1.8" stroke-miterlimit="10" stroke-linecap="round" stroke-dasharray="0.1 20"/>
<path d="M-180.787 290.455C-164.548 290.523 -148.263 291.579 -132.107 293.013C-115.951 294.448 -99.9326 296.255 -84.1948 297.839C-68.4646 299.416 -53.0232 300.764 -37.9314 301.261C-22.8396 301.764 -8.08208 301.416 6.45502 299.621C20.4222 297.895 33.3559 293.355 47.779 292.386C62.5897 291.392 77.8411 293.088 92.7201 295.901C106.771 298.559 120.578 302.273 134.439 305.807C148.308 309.341 162.229 312.701 176.706 314.657C189.647 316.402 203.173 316.868 216.441 314.421C228.797 312.142 239.679 306.801 251.61 303.714C261.61 301.124 271.831 299.491 282.158 298.572C292.486 297.646 302.927 297.441 313.368 297.708C324.318 297.988 335.231 298.684 346.151 299.441C357.063 300.199 367.975 301.025 378.903 301.565C391.076 302.168 403.235 302.379 415.378 302.708C427.529 303.031 439.673 303.472 451.824 304.521C467.128 305.851 482.95 307.763 498.9 309.204C514.851 310.645 530.923 311.614 546.729 311.043C562.535 310.471 578.075 308.36 592.962 303.646C604.612 299.957 614.848 294.113 626.786 290.914C641.931 286.859 657.927 285.113 673.756 284.101C692.009 282.933 710.308 282.772 728.614 282.971C746.92 283.169 765.234 283.716 783.51 283.971C798.776 284.182 815.046 284.697 831.133 284.033C847.221 283.368 863.141 281.524 877.701 277.021C887.033 274.133 895.49 270.91 905.734 271.282C914.245 271.593 922.178 274.152 929.458 277.642C945.5 285.337 958.609 296.603 975.897 302.658C985.335 305.962 995.502 307.447 1005.75 306.881C1019.19 306.142 1031.8 301.689 1045.02 299.826C1061.02 297.572 1077.59 296.665 1093.55 296.417C1109.52 296.174 1125.18 296.591 1140.57 296.994C1155.96 297.398 1171.06 297.783 1186.06 297.479C1201.05 297.168 1215.94 296.168 1231.08 293.79C1244.67 291.653 1258 286.964 1271.84 284.468C1286.02 281.909 1300.32 280.996 1314.38 281.021C1329.23 281.046 1343.82 282.07 1358.34 283.437C1372.86 284.803 1387.33 286.498 1402.13 287.877C1417.67 289.324 1433.63 290.374 1450.5 290.461" stroke="url(#paint25_linear)" stroke-width="1.8" stroke-miterlimit="10" stroke-linecap="round" stroke-dasharray="0.1 20"/>
<path d="M-176.385 303.883C-160.647 304.026 -144.803 305.355 -129.088 307.143C-113.373 308.932 -97.7872 311.18 -82.5586 313.155C-67.3299 315.13 -52.4509 316.832 -38.0126 317.534C-23.5743 318.229 -9.5767 317.925 4.1169 315.882C17.7953 313.845 29.9615 308.553 43.9818 306.671C58.4429 304.734 73.6563 305.386 88.6798 307.323C102.746 309.137 116.652 312.075 130.604 314.981C144.556 317.888 158.554 320.769 173 322.483C186.093 324.036 199.688 324.527 213.199 322.471C225.525 320.595 236.9 316.099 249.082 313.851C259.09 312.006 269.212 311.062 279.372 310.77C289.532 310.485 299.737 310.851 309.913 311.634C320.551 312.447 331.137 313.596 341.73 314.733C352.323 315.869 362.916 316.993 373.555 317.77C386.003 318.676 398.465 319.024 410.935 319.391C423.405 319.757 435.876 320.136 448.323 321.105C464.851 322.39 482.101 324.316 499.533 325.707C516.966 327.098 534.565 327.967 551.8 327.135C569.027 326.309 585.882 323.788 601.817 318.416C613.679 314.416 623.847 307.976 635.854 304.193C650.786 299.492 666.721 297.107 682.558 295.542C700.75 293.741 719.056 293.027 737.385 292.753C755.714 292.48 774.066 292.654 792.357 292.635C807.974 292.623 824.296 292.927 840.49 292.263C856.684 291.604 872.748 289.977 887.84 286.102C896.898 283.773 905.417 281.196 915.091 282.264C922.819 283.121 929.681 286.096 935.76 289.984C948.967 298.424 958.694 310.112 973.452 317C984.167 321.999 994.798 322.726 1005.57 321.869C1016.33 321.012 1027.23 318.577 1038.49 317.26C1055.03 315.323 1072.07 314.571 1088.49 314.341C1104.9 314.105 1120.9 314.385 1136.55 314.509C1152.2 314.633 1167.48 314.602 1182.63 313.745C1197.79 312.888 1212.82 311.205 1228.16 308.025C1241.61 305.237 1254.74 299.684 1268.55 296.71C1282.52 293.697 1296.65 292.623 1310.46 292.66C1325.15 292.698 1339.47 293.921 1353.7 295.536C1367.91 297.157 1382.04 299.175 1396.57 300.809C1411.81 302.523 1427.54 303.777 1444.44 303.883" stroke="url(#paint26_linear)" stroke-width="1.8" stroke-miterlimit="10" stroke-linecap="round" stroke-dasharray="0.1 20"/>
<path d="M-171.561 317.309C-155.26 317.527 -139.036 319.123 -123.048 321.272C-107.059 323.421 -91.3063 326.11 -75.9409 328.513C-62.2473 330.656 -48.6297 332.619 -35.468 333.507C-22.3064 334.395 -9.60065 334.208 2.51993 332.047C15.8944 329.662 27.2854 323.619 40.8498 320.887C54.9082 318.049 70 317.676 85.1071 318.738C99.0971 319.719 113.049 321.893 127.047 324.197C141.052 326.495 155.11 328.929 169.533 330.426C182.756 331.799 196.411 332.339 210.128 330.693C222.484 329.209 234.262 325.563 246.687 324.147C256.687 323.011 266.711 322.731 276.719 323.054C286.727 323.377 296.712 324.309 306.652 325.582C316.971 326.905 327.23 328.482 337.512 329.973C347.793 331.463 358.082 332.873 368.47 333.861C381.169 335.072 393.927 335.538 406.694 335.929C419.46 336.32 432.242 336.637 444.978 337.544C459.675 338.587 474.364 339.835 489.068 340.872C503.773 341.903 518.5 342.717 533.265 342.891C546.221 343.04 559.474 342.748 572.491 341.344C585.509 339.941 598.298 337.432 610.312 333.14C622.387 328.83 632.441 321.825 644.493 317.459C659.212 312.13 675.087 309.118 690.916 307.006C709.032 304.59 727.338 303.323 745.683 302.597C764.035 301.864 782.432 301.671 800.738 301.398C816.681 301.162 833.08 301.255 849.388 300.609C865.695 299.963 881.912 298.572 897.498 295.361C914.391 291.877 929.11 291.312 941.861 302.385C952.363 311.515 958.739 323.52 971.118 331.258C980.381 337.053 990.435 338.357 1000.78 337.978C1011.13 337.593 1021.79 335.519 1032.25 334.531C1049.38 332.917 1066.91 332.283 1083.69 331.979C1100.47 331.675 1116.66 331.693 1132.41 331.395C1148.09 331.097 1163.63 330.786 1179.01 329.563C1194.4 328.339 1209.63 326.197 1225 322.241C1238.3 318.819 1251.19 312.416 1264.96 308.95C1278.71 305.491 1292.66 304.249 1306.22 304.292C1320.72 304.342 1334.75 305.758 1348.64 307.633C1362.53 309.509 1376.27 311.844 1390.49 313.732C1405.38 315.707 1420.88 317.167 1437.76 317.297" stroke="url(#paint27_linear)" stroke-width="1.8" stroke-miterlimit="10" stroke-linecap="round" stroke-dasharray="0.1 20"/>
<path d="M-166.396 330.73C-150.393 330.991 -134.488 332.829 -118.834 335.301C-103.179 337.773 -87.7989 340.884 -72.8286 343.691C-59.6898 346.157 -46.6117 348.43 -34.058 349.486C-21.5043 350.542 -9.46725 350.38 1.86302 347.983C14.9183 345.213 25.5874 338.437 38.6579 334.922C52.2907 331.258 67.1698 329.91 82.292 330.134C96.1224 330.339 110.044 331.792 124.049 333.537C138.054 335.276 152.151 337.307 166.559 338.655C179.872 339.897 193.558 340.536 207.442 339.356C219.874 338.301 232.01 335.487 244.647 334.866C264.633 333.885 284.36 336.177 303.852 339.636C313.852 341.412 323.799 343.362 333.785 345.157C343.77 346.952 353.793 348.591 363.945 349.74C376.841 351.206 389.843 351.765 402.861 352.169C415.878 352.579 428.918 352.833 441.89 353.697C457.612 354.74 473.335 355.97 489.072 356.957C504.81 357.945 520.571 358.69 536.362 358.746C550.063 358.795 564.152 358.429 577.967 356.858C591.782 355.287 605.324 352.517 617.938 347.759C630.188 343.145 640.067 335.605 652.111 330.693C666.61 324.774 682.409 321.166 698.238 318.539C716.263 315.539 734.554 313.756 752.914 312.601C771.281 311.446 789.716 310.912 808.053 310.415C824.292 309.974 840.774 309.887 857.211 309.285C873.641 308.682 890.017 307.571 906.043 305.068C922.366 302.521 937.336 302.826 947.466 314.974C955.551 324.668 958.796 336.835 968.987 345.399C976.761 351.939 986.313 353.802 996.359 353.858C1006.4 353.914 1016.95 352.169 1026.71 351.473C1044.43 350.219 1062.48 349.722 1079.63 349.405C1096.78 349.088 1113.19 348.952 1129.11 348.411C1144.84 347.877 1160.41 347.244 1175.78 345.567C1191.16 343.89 1206.36 341.17 1221.7 336.456C1234.83 332.419 1247.42 325.203 1261.13 321.234C1274.64 317.328 1288.4 315.912 1301.68 315.961C1315.98 316.017 1329.71 317.632 1343.24 319.756C1356.76 321.88 1370.11 324.532 1384 326.668C1398.53 328.904 1413.75 330.562 1430.62 330.717" stroke="url(#paint28_linear)" stroke-width="1.8" stroke-miterlimit="10" stroke-linecap="round" stroke-dasharray="0.1 20"/>
<path d="M-160.973 344.157C-145.189 344.437 -129.535 346.474 -114.162 349.244C-98.7891 352.014 -83.7125 355.51 -69.0842 358.702C-56.4317 361.466 -43.8247 364.019 -31.8029 365.217C-19.7811 366.416 -8.33687 366.255 2.30189 363.584C15.0228 360.392 25.0536 352.92 37.6454 348.71C50.8374 344.3 65.4353 342.077 80.4892 341.524C94.0916 341.027 107.914 341.841 121.866 343.095C135.818 344.356 149.915 346.058 164.285 347.337C177.636 348.53 191.322 349.337 205.327 348.703C217.866 348.132 230.344 346.145 243.141 346.225C263.111 346.356 282.557 349.598 301.768 353.833C311.472 355.97 321.13 358.212 330.857 360.224C340.584 362.236 350.372 364.031 360.326 365.267C373.359 366.888 386.528 367.497 399.728 367.907C412.928 368.316 426.15 368.54 439.274 369.385C455.878 370.453 472.482 371.695 489.101 372.664C505.72 373.633 522.362 374.328 539.035 374.303C553.321 374.285 568.101 373.869 582.578 372.155C597.054 370.44 611.211 367.435 624.259 362.23C636.592 357.311 646.205 349.287 658.181 343.884C672.46 337.437 688.175 333.276 703.981 330.171C721.9 326.644 740.161 324.395 758.528 322.855C776.895 321.315 795.368 320.489 813.728 319.818C830.218 319.216 846.807 318.98 863.38 318.477C879.946 317.967 896.49 317.179 912.888 315.458C928.907 313.781 944.493 314.763 952.351 327.836C958.422 337.941 958.954 350.07 967.23 359.33C979.989 373.614 1003.92 368.745 1022.29 367.894C1040.52 367.05 1059.04 366.739 1076.48 366.453C1093.92 366.168 1110.47 365.913 1126.44 365.168C1142.12 364.441 1157.62 363.528 1172.89 361.448C1188.16 359.361 1203.22 356.106 1218.4 350.678C1231.31 346.064 1243.54 338.059 1257.16 333.581C1270.4 329.227 1283.96 327.625 1296.97 327.687C1311.05 327.749 1324.45 329.55 1337.61 331.929C1350.76 334.307 1363.69 337.264 1377.23 339.642C1391.4 342.133 1406.33 343.99 1423.17 344.164" stroke="url(#paint29_linear)" stroke-width="1.8" stroke-miterlimit="10" stroke-linecap="round" stroke-dasharray="0.1 20"/>
<path d="M-155.391 357.586C-139.729 357.84 -124.242 360.039 -109.066 363.057C-93.891 366.076 -79.0499 369.92 -64.68 373.46C-52.4227 376.478 -40.2109 379.273 -28.6374 380.571C-17.064 381.869 -6.11367 381.67 3.94756 378.702C16.3189 375.05 25.833 366.933 38.0068 362.126C50.7657 357.083 65.0216 354.102 79.9387 352.878C93.2599 351.785 106.915 352.064 120.761 352.94C134.607 353.816 148.65 355.3 162.936 356.623C176.28 357.859 189.913 358.946 203.964 358.971C216.594 358.989 229.444 357.809 242.362 358.461C262.34 359.468 281.596 363.43 300.655 368.224C319.539 372.976 338.324 377.869 357.914 380.316C370.985 381.95 384.237 382.546 397.506 382.956C410.781 383.36 424.08 383.577 437.257 384.44C454.529 385.571 471.81 386.85 489.105 387.837C506.401 388.819 523.719 389.502 541.068 389.434C555.742 389.371 571.016 388.937 585.948 387.117C600.881 385.291 615.456 382.08 628.731 376.472C641.019 371.28 650.26 362.803 662.076 357.002C676.135 350.102 691.736 345.456 707.504 341.929C725.308 337.948 743.516 335.29 761.868 333.433C780.22 331.576 798.716 330.52 817.091 329.737C833.786 329.023 850.504 328.719 867.222 328.377C883.94 328.03 900.65 327.645 917.33 326.769C933.243 325.937 949.931 327.222 956.17 341.047C960.805 351.332 959.133 363.25 965.904 372.951C976.414 387.999 1001.79 383.906 1019.3 383.571C1037.91 383.211 1056.83 383.142 1074.44 382.95C1092.05 382.751 1108.61 382.422 1124.52 381.534C1140.03 380.67 1155.35 379.54 1170.39 377.112C1185.43 374.683 1200.22 370.945 1215.12 364.865C1227.74 359.71 1239.53 350.965 1252.98 345.984C1265.94 341.19 1279.29 339.389 1292.02 339.451C1305.87 339.513 1318.93 341.5 1331.71 344.127C1344.48 346.748 1356.98 350.015 1370.18 352.63C1383.97 355.362 1398.62 357.424 1415.43 357.604" stroke="url(#paint30_linear)" stroke-width="1.8" stroke-miterlimit="10" stroke-linecap="round" stroke-dasharray="0.1 20"/>
<path d="M-149.73 371.013C-134.076 371.193 -118.658 373.497 -103.596 376.708C-88.5348 379.919 -73.8381 384.043 -59.643 387.869C-47.6668 391.098 -35.759 394.073 -24.5275 395.414C-13.296 396.756 -2.72563 396.47 6.89485 393.185C18.9394 389.067 28.066 380.428 39.8978 375.137C52.2463 369.616 66.1223 366.026 80.819 364.281C93.8211 362.734 107.249 362.604 120.927 363.231C134.606 363.859 148.527 365.243 162.677 366.746C175.952 368.15 189.494 369.641 203.507 370.442C216.212 371.175 229.404 370.796 242.437 371.839C262.445 373.441 281.641 377.826 300.699 382.881C319.196 387.788 337.677 392.582 357.016 394.744C368.278 396.004 379.495 396.185 390.84 396.352C405.924 396.576 420.986 397.613 436.017 398.656C453.692 399.88 471.375 401.234 489.081 402.265C506.787 403.289 524.516 403.991 542.275 403.917C557.025 403.855 572.58 403.463 587.741 401.588C602.901 399.718 617.674 396.365 630.858 390.378C642.887 384.919 651.702 376.124 663.276 370.075C677.129 362.834 692.601 357.816 708.301 353.965C725.976 349.624 744.115 346.661 762.437 344.568C780.751 342.482 799.239 341.271 817.606 340.451C834.461 339.699 851.323 339.383 868.193 339.265C885.063 339.147 901.934 339.227 918.804 339.258C934.625 339.289 953.144 340.296 958.623 354.71C962.491 364.896 959.375 376.435 965.227 386.186C974.384 401.432 1001.31 398.11 1018.22 398.284C1037.05 398.476 1056.23 398.718 1073.84 398.675C1091.46 398.632 1107.88 398.296 1123.59 397.333C1138.79 396.402 1153.8 395.135 1168.48 392.446C1183.16 389.75 1197.55 385.633 1212 378.994C1224.27 373.354 1235.53 363.952 1248.75 358.499C1261.39 353.282 1274.52 351.282 1286.97 351.332C1300.56 351.388 1313.28 353.549 1325.68 356.4C1338.08 359.25 1350.17 362.796 1363.02 365.635C1376.45 368.597 1390.83 370.839 1407.6 371.032" stroke="url(#paint31_linear)" stroke-width="1.8" stroke-miterlimit="10" stroke-linecap="round" stroke-dasharray="0.1 20"/>
<path d="M-144.074 384.434C-128.58 384.676 -113.366 386.849 -98.5403 389.862C-83.7145 392.868 -69.2989 396.706 -55.3926 400.271C-43.5608 403.301 -31.8505 406.09 -20.771 407.382C-9.69151 408.673 0.764876 408.475 10.3854 405.543C22.2856 401.916 31.4805 393.911 42.9476 388.837C55.0073 383.496 68.4122 379.844 82.6301 377.85C95.2522 376.08 108.353 375.596 121.75 375.925C135.155 376.248 148.856 377.378 162.808 378.832C175.316 380.136 188.151 381.279 201.374 382.508C214.589 383.738 228.335 385.048 241.923 386.694C251.855 387.899 261.665 389.551 271.407 391.445C281.149 393.34 290.823 395.47 300.497 397.631C319.472 401.867 338.523 405.723 358.09 407.605C371.161 408.86 384.338 409.319 397.53 409.63C410.722 409.94 423.937 410.096 437.068 410.748C454.69 411.623 472.32 412.599 489.958 413.294C507.603 413.99 525.256 414.412 542.916 414.182C557.605 413.996 572.955 413.58 588.009 411.915C603.063 410.251 617.82 407.344 631.347 402.159C643.255 397.594 652.754 390.029 664.251 384.85C678.34 378.496 693.614 374 709.063 370.429C726.48 366.398 744.262 363.485 762.196 361.293C780.13 359.107 798.208 357.641 816.218 356.523C832.967 355.48 849.738 354.815 866.524 354.356C883.303 353.896 900.097 353.648 916.891 353.449C932.758 353.256 950.449 355.244 957.022 368.764C961.734 378.447 960.161 389.731 966.612 398.917C976.985 413.673 1002.13 410.81 1019.6 410.878C1038.26 410.947 1057.25 411.182 1074.52 411.189C1091.78 411.195 1107.81 410.971 1123.06 410.127C1137.87 409.307 1152.39 408.152 1166.54 405.593C1180.7 403.034 1194.54 399.072 1208.48 392.644C1220.42 387.148 1231.57 378.018 1244.48 372.783C1256.78 367.802 1269.47 365.852 1281.54 365.852C1294.67 365.852 1306.99 367.839 1319.07 370.503C1331.16 373.168 1343.02 376.503 1355.67 379.192C1368.95 382.018 1383.22 384.166 1399.81 384.427" stroke="url(#paint32_linear)" stroke-width="1.8" stroke-miterlimit="10" stroke-linecap="round" stroke-dasharray="0.1 20"/>
<path d="M-138.516 397.861C-123.135 398.116 -108.089 400.128 -93.4681 402.891C-78.8474 405.655 -64.6675 409.164 -51.0195 412.418C-39.2788 415.213 -27.7282 417.772 -16.7703 418.971C-5.81236 420.169 4.56803 420.02 14.2265 417.406C25.9671 414.226 35.276 406.916 46.4543 402.103C58.2557 397.023 71.1894 393.389 84.9134 391.234C97.1556 389.315 109.907 388.564 123.008 388.663C136.109 388.762 149.551 389.719 163.268 391.209C177.645 392.774 192.342 394.743 207.548 396.973C222.746 399.202 238.621 401.687 254.26 404.289C269.899 406.885 285.515 409.593 301.146 412.263C310.972 413.94 320.828 415.462 330.729 416.741C340.631 418.02 350.578 419.058 360.579 419.772C373.71 420.71 386.887 421.064 400.071 421.287C413.256 421.511 426.455 421.61 439.617 422.039C457.141 422.604 474.672 423.237 492.211 423.635C509.749 424.038 527.288 424.212 544.827 423.871C559.447 423.591 574.547 423.169 589.441 421.741C604.335 420.312 619.032 417.884 632.855 413.586C644.535 409.953 654.535 403.761 665.835 399.457C679.901 394.104 694.757 390.203 709.743 386.986C726.681 383.353 743.885 380.577 761.204 378.378C778.522 376.18 795.962 374.553 813.379 373.224C829.793 371.969 846.23 371.025 862.69 370.317C879.15 369.609 895.625 369.131 912.099 368.808C928.156 368.497 945.566 370.907 954.115 383.279C960.24 392.147 960.992 403.009 968.568 411.282C981.069 424.927 1004.57 422.536 1022.86 422.616C1041.26 422.691 1059.87 423.032 1076.64 423.194C1093.4 423.355 1108.9 423.343 1123.6 422.722C1137.9 422.119 1151.82 421.182 1165.36 418.871C1178.9 416.561 1192.09 412.878 1205.43 406.767C1216.94 401.494 1227.87 392.688 1240.34 387.651C1252.21 382.862 1264.45 380.912 1276.13 380.813C1288.76 380.701 1300.7 382.477 1312.49 384.906C1324.28 387.334 1335.93 390.414 1348.4 392.911C1361.56 395.544 1375.73 397.557 1392.14 397.842" stroke="url(#paint33_linear)" stroke-width="1.8" stroke-miterlimit="10" stroke-linecap="round" stroke-dasharray="0.1 20"/>
<path d="M-133.148 411.288C-117.844 411.524 -102.934 413.338 -88.4885 415.816C-74.0425 418.294 -60.0754 421.443 -46.6477 424.349C-34.9755 426.877 -23.554 429.169 -12.6797 430.243C-1.80538 431.318 8.52941 431.181 18.2487 428.858C29.8221 426.088 39.2678 419.53 50.2257 415.015C61.7764 410.257 74.2693 406.699 87.4918 404.457C99.3692 402.444 111.763 401.482 124.545 401.426C137.327 401.364 150.488 402.208 163.939 403.805C176.341 405.27 188.864 407.531 201.744 410.028C214.625 412.524 228.106 415.263 241.701 417.698C251.762 419.499 261.846 421.194 271.968 422.728C282.09 424.262 292.25 425.635 302.448 426.79C318.049 428.56 333.665 429.715 349.296 430.504C364.928 431.293 380.582 431.703 396.251 431.988C411.921 432.274 427.613 432.423 443.32 432.69C460.707 432.982 478.109 433.299 495.503 433.435C512.898 433.572 530.3 433.528 547.686 433.112C562.231 432.765 577.057 432.33 591.769 431.156C606.481 429.982 621.071 428.063 635.129 424.74C646.498 422.051 656.817 417.344 667.866 413.94C681.689 409.686 695.96 406.426 710.323 403.637C726.6 400.476 743.044 397.905 759.58 395.762C776.116 393.613 792.735 391.893 809.354 390.427C825.244 389.023 841.172 387.862 857.115 386.968C873.065 386.073 889.038 385.44 905.012 385.098C921.578 384.738 939.056 387.247 950.158 398.172C958.13 406.009 961.876 416.22 970.949 423.38C986.11 435.348 1008.22 433.504 1027.59 433.696C1045.64 433.876 1063.67 434.404 1079.82 434.808C1095.97 435.212 1110.86 435.491 1124.94 435.18C1138.64 434.876 1151.91 434.255 1164.77 432.28C1177.64 430.311 1190.12 426.989 1202.77 421.294C1213.82 416.313 1224.39 407.866 1236.36 403.003C1247.76 398.37 1259.51 396.389 1270.83 396.147C1282.95 395.886 1294.52 397.414 1306.03 399.569C1317.54 401.724 1329.02 404.513 1341.33 406.779C1354.39 409.189 1368.47 411.021 1384.71 411.288" stroke="url(#paint34_linear)" stroke-width="1.8" stroke-miterlimit="10" stroke-linecap="round" stroke-dasharray="0.1 20"/>
<path d="M-128.037 424.715C-112.763 424.907 -97.9522 426.497 -83.6583 428.671C-69.3568 430.845 -55.5872 433.602 -42.3571 436.142C-30.7305 438.372 -19.4078 440.378 -8.59427 441.31C2.21927 442.241 12.5389 442.098 22.3417 440.036C33.7328 437.639 43.3381 431.876 54.1212 427.696C65.4439 423.311 77.5037 419.877 90.2474 417.598C101.768 415.536 113.82 414.412 126.282 414.244C138.745 414.07 151.61 414.846 164.779 416.585C177.227 418.225 189.568 421.138 202.243 424.317C214.918 427.497 228.217 430.944 241.903 433.658C252.139 435.689 262.481 437.304 272.892 438.552C283.303 439.8 293.774 440.689 304.284 441.26C320.181 442.129 336.139 442.589 352.113 442.813C368.086 443.042 384.082 443.036 400.063 442.986C416.044 442.937 432.01 442.837 447.938 442.875C465.172 442.918 482.407 442.937 499.642 442.831C516.877 442.726 534.104 442.49 551.331 442.011C565.777 441.608 580.352 441.167 594.859 440.254C609.366 439.341 623.827 437.956 638.045 435.677C649.056 433.913 659.527 430.801 670.303 428.317C683.7 425.23 697.28 422.653 710.905 420.33C726.384 417.691 741.947 415.38 757.571 413.337C773.187 411.294 788.864 409.524 804.556 407.971C819.785 406.462 835.059 405.133 850.364 404.102C865.668 403.071 881.003 402.344 896.338 402.034C913.801 401.68 931.629 404.102 945.528 413.306C955.657 420.014 962.876 429.199 973.728 435.242C982.642 440.198 992.437 442.353 1002.57 443.316C1012.71 444.278 1023.19 444.055 1033.46 444.26C1051.12 444.614 1068.36 445.396 1083.82 446.104C1099.29 446.812 1113.51 447.446 1126.91 447.502C1139.96 447.557 1152.54 447.309 1164.7 445.744C1176.87 444.179 1188.63 441.291 1200.55 436.062C1211.1 431.429 1221.25 423.367 1232.64 418.666C1243.54 414.169 1254.8 412.12 1265.75 411.716C1277.38 411.281 1288.6 412.53 1299.86 414.387C1311.12 416.244 1322.45 418.709 1334.61 420.722C1347.59 422.87 1361.62 424.498 1377.68 424.721" stroke="url(#paint35_linear)" stroke-width="1.8" stroke-miterlimit="10" stroke-linecap="round" stroke-dasharray="0.1 20"/>
<path d="M-123.295 438.136C-104.221 438.304 -85.6717 440.651 -68.0342 443.415C-50.3966 446.179 -33.6938 449.365 -18.0168 451.216C-2.33984 453.066 12.334 453.582 26.3696 451.011C37.5707 448.961 47.3356 444.011 57.9819 440.192C69.0842 436.211 80.7413 432.925 93.029 430.64C104.223 428.559 115.94 427.305 128.084 427.044C140.227 426.789 152.796 427.528 165.684 429.435C178.58 431.348 191.726 434.397 204.956 438.515C217.001 442.266 229.061 446.943 242.207 449.756C252.686 451.998 263.333 453.489 274.063 454.408C284.793 455.327 295.599 455.681 306.412 455.656C317.606 455.631 328.784 455.265 339.955 454.818C351.133 454.371 362.304 453.849 373.482 453.514C386.735 453.116 400.003 452.998 413.263 452.942C426.531 452.886 439.799 452.893 453.06 452.743C468.722 452.563 484.421 452.402 500.129 452.178C515.836 451.955 531.559 451.675 547.274 451.253C562.989 450.831 578.696 450.278 594.373 449.502C610.05 448.725 625.696 447.738 641.297 446.458C653.068 445.489 664.779 443.962 676.451 442.266C688.131 440.564 699.773 438.695 711.422 437.037C726.012 434.956 740.61 432.938 755.239 431.031C769.867 429.125 784.51 427.336 799.192 425.721C813.668 424.131 828.213 422.659 842.788 421.529C857.363 420.399 871.976 419.61 886.597 419.38C905.268 419.088 923.825 421.231 940.399 428.597C952.929 434.161 963.728 441.993 976.692 446.961C986.776 450.824 997.172 452.526 1007.76 453.358C1018.36 454.191 1029.14 454.147 1039.98 454.507C1057.22 455.079 1073.48 456.159 1088.22 457.209C1102.95 458.258 1116.49 459.283 1129.21 459.749C1141.58 460.202 1153.49 460.382 1164.96 459.258C1176.43 458.14 1187.49 455.725 1198.68 450.998C1208.74 446.75 1218.38 439.086 1229.2 434.528C1239.58 430.149 1250.34 428.019 1260.93 427.429C1272.08 426.808 1282.97 427.752 1294.02 429.292C1305.06 430.833 1316.26 432.963 1328.3 434.702C1341.22 436.571 1355.2 437.981 1371.12 438.136" stroke="url(#paint36_linear)" stroke-width="1.8" stroke-miterlimit="10" stroke-linecap="round" stroke-dasharray="0.1 20"/>
<path d="M-118.998 451.564C-99.7039 451.651 -81.2229 453.576 -63.7069 455.849C-46.1986 458.122 -29.6857 460.749 -14.1151 462.259C1.44786 463.762 16.0837 464.147 30.1953 461.923C41.1988 460.19 51.1233 456.073 61.6632 452.638C72.5528 449.086 83.8374 445.95 95.6996 443.67C106.589 441.577 117.988 440.199 129.835 439.876C141.682 439.546 153.962 440.267 166.569 442.354C179.411 444.484 192.467 448.005 205.454 452.818C217.46 457.271 229.117 462.886 242.56 465.948C253.32 468.401 264.309 469.736 275.381 470.307C286.453 470.879 297.6 470.68 308.68 470.065C320.375 469.419 332.017 468.37 343.659 467.295C355.3 466.221 366.942 465.122 378.622 464.364C391.883 463.501 405.189 463.209 418.502 463.047C431.816 462.886 445.137 462.855 458.428 462.519C473.945 462.128 489.47 461.613 504.988 461.054C520.513 460.495 536.03 459.898 551.555 459.346C567.08 458.793 582.605 458.284 598.13 457.899C613.655 457.514 629.188 457.259 644.713 457.216C656.05 457.185 667.229 456.949 678.384 456.408C689.54 455.868 700.68 455.029 711.942 453.787C725.59 452.284 739.2 450.564 752.802 448.8C766.405 447.043 780 445.242 793.617 443.59C808.891 441.739 824.72 439.702 840.694 438.298C856.667 436.895 872.792 436.118 888.652 436.795C904.519 437.472 920.127 439.59 935.075 443.975C950.197 448.409 964.392 454.694 979.742 458.644C990.753 461.476 1001.83 462.706 1013 463.358C1024.16 464.01 1035.42 464.091 1046.8 464.637C1063.6 465.445 1078.74 466.83 1092.76 468.239C1106.77 469.649 1119.62 471.078 1131.69 471.978C1143.43 472.854 1154.69 473.469 1165.52 472.81C1176.35 472.152 1186.75 470.227 1197.23 466.022C1206.8 462.178 1215.93 454.924 1226.16 450.502C1236.03 446.235 1246.31 444.018 1256.56 443.236C1267.26 442.416 1277.85 443.062 1288.68 444.273C1299.52 445.484 1310.62 447.266 1322.57 448.732C1335.45 450.309 1349.41 451.496 1365.19 451.576" stroke="url(#paint37_linear)" stroke-width="1.8" stroke-miterlimit="10" stroke-linecap="round" stroke-dasharray="0.1 20"/>
<path d="M-115.238 464.991C-95.701 465.003 -77.2427 466.506 -59.8255 468.295C-42.4084 470.083 -26.0551 472.158 -10.5757 473.325C4.90369 474.487 19.5092 474.735 33.6967 472.872C44.5862 471.437 55.0047 468.525 65.5674 465.401C76.1302 462.283 86.8297 458.954 98.1144 456.712C108.723 454.6 119.84 453.104 131.414 452.7C142.98 452.296 155.001 452.986 167.342 455.246C180.162 457.594 193.141 461.6 205.893 467.078C217.869 472.22 229.108 478.766 242.87 482.101C253.911 484.778 265.257 485.958 276.671 486.169C288.085 486.38 299.559 485.635 310.867 484.461C323.048 483.2 335.146 481.486 347.244 479.797C359.341 478.107 371.447 476.431 383.643 475.244C396.912 473.953 410.256 473.487 423.615 473.214C436.974 472.94 450.348 472.853 463.685 472.332C480.38 471.673 497.06 470.872 513.748 470.083C530.436 469.295 547.123 468.518 563.818 467.91C577.801 467.401 591.882 466.879 605.955 466.755C620.029 466.63 634.103 466.904 648.062 467.984C658.222 468.773 668.154 470.68 678.352 471.195C689.721 471.773 701.134 471.344 712.465 470.512C725.17 469.58 737.8 468.152 750.399 466.531C762.999 464.91 775.568 463.097 788.137 461.401C803.783 459.289 819.529 457.377 835.304 456.085C851.08 454.793 866.894 454.135 882.67 454.526C898.445 454.917 914.191 456.371 929.837 459.302C947.589 462.631 964.892 467.369 982.757 470.319C994.513 472.263 1006.26 473.009 1018.04 473.456C1029.82 473.903 1041.95 474.046 1053.48 474.791C1069.38 475.816 1083.82 477.505 1097.15 479.263C1110.49 481.026 1122.71 482.859 1134.18 484.181C1145.33 485.467 1156.01 486.523 1166.26 486.324C1176.51 486.125 1186.34 484.684 1196.18 480.977C1205.32 477.536 1213.92 470.686 1223.6 466.394C1232.97 462.239 1242.79 459.942 1252.7 458.967C1262.98 457.96 1273.29 458.302 1283.95 459.19C1294.6 460.078 1305.62 461.519 1317.5 462.705C1330.36 463.991 1344.31 464.96 1359.99 464.972" stroke="url(#paint38_linear)" stroke-width="1.8" stroke-miterlimit="10" stroke-linecap="round" stroke-dasharray="0.1 20"/>
<path d="M-112.088 478.412C-92.2922 478.356 -73.8264 479.456 -56.4624 480.778C-39.106 482.101 -22.8743 483.642 -7.46331 484.48C7.9401 485.318 22.5304 485.449 36.7863 483.946C50.6091 482.486 63.9303 479.102 77.6012 475.618C91.272 472.127 105.285 468.537 120.194 466.674C135.111 464.805 150.902 464.662 167.977 468.059C180.812 470.612 193.731 475.102 206.277 481.195C218.223 486.995 229.067 494.473 243.125 498.131C254.417 501.068 266.112 502.099 277.845 501.975C289.578 501.851 301.365 500.578 312.847 498.901C325.484 497.056 338.008 494.715 350.538 492.43C363.069 490.144 375.616 487.921 388.314 486.318C401.574 484.641 414.949 484.014 428.353 483.629C441.758 483.238 455.186 483.089 468.553 482.362C485.073 481.462 501.586 480.375 518.091 479.35C534.604 478.325 551.117 477.356 567.66 476.692C581.453 476.139 595.504 475.605 609.516 475.748C623.529 475.891 637.504 476.704 651.144 478.853C661.304 480.456 670.742 483.915 680.88 485.542C691.45 487.237 702.279 487.573 713.016 487.225C724.818 486.846 736.535 485.685 748.208 484.176C759.872 482.673 771.484 480.822 783.065 479.064C795.307 477.207 807.602 475.357 819.959 473.953C832.315 472.549 844.739 471.593 857.232 471.525C868.6 471.463 879.893 471.574 891.162 472.028C902.432 472.475 913.678 473.257 924.955 474.531C935.093 475.673 945.177 477.071 955.268 478.431C965.36 479.791 975.459 481.12 985.619 482.132C997.96 483.362 1010.31 483.666 1022.66 483.896C1035.01 484.126 1047.7 484.287 1059.44 485.219C1074.65 486.43 1088.44 488.386 1101.17 490.467C1113.9 492.554 1125.57 494.765 1136.52 496.485C1157.82 499.839 1176.97 502.329 1195.56 495.845C1204.32 492.79 1212.44 486.325 1221.62 482.176C1230.52 478.145 1239.91 475.779 1249.51 474.63C1259.41 473.444 1269.46 473.5 1279.96 474.077C1290.45 474.655 1301.4 475.766 1313.22 476.692C1326.07 477.698 1340.03 478.462 1355.64 478.425" stroke="url(#paint39_linear)" stroke-width="1.8" stroke-miterlimit="10" stroke-linecap="round" stroke-dasharray="0.1 20"/>
<path d="M-109.641 491.839C-89.579 491.746 -71.0675 492.472 -53.734 493.348C-36.4004 494.23 -20.2674 495.267 -4.91723 495.801C10.433 496.342 25.0005 496.379 39.302 495.261C52.7524 494.211 65.9293 491.081 79.4937 487.771C93.0505 484.455 106.995 480.952 121.714 479.151C136.434 477.35 151.921 477.244 168.381 480.728C181.261 483.455 194.149 488.398 206.536 495.056C218.436 501.447 228.961 509.887 243.232 513.93C254.722 517.184 266.721 518.104 278.742 517.687C290.772 517.265 302.816 515.507 314.413 513.396C327.46 511.017 340.356 508.098 353.275 505.272C366.193 502.447 379.134 499.72 392.296 497.733C405.541 495.733 418.946 494.969 432.381 494.472C445.817 493.975 459.297 493.739 472.687 492.789C489.056 491.634 505.401 490.243 521.762 488.957C538.123 487.672 554.484 486.498 570.898 485.765C584.531 485.156 598.612 484.622 612.594 485.026C626.577 485.43 640.468 486.765 653.728 489.895C664.056 492.336 672.962 497.199 683.114 499.962C692.94 502.639 703.282 503.769 713.617 503.881C724.605 503.999 735.533 503.061 746.384 501.627C757.236 500.192 768.011 498.267 778.703 496.41C790.36 494.385 802.055 492.342 813.834 490.789C825.613 489.237 837.467 488.169 849.436 488.094C861.351 488.019 873.221 488.013 885.091 488.206C896.961 488.398 908.823 488.796 920.708 489.516C931.962 490.199 943.209 491.05 954.448 491.876C965.687 492.702 976.934 493.503 988.203 494.1C1000.98 494.777 1013.8 494.721 1026.62 494.77C1039.44 494.82 1052.55 494.963 1064.45 496.05C1079.1 497.385 1092.36 499.553 1104.61 501.906C1116.85 504.26 1128.07 506.8 1138.61 508.875C1159.15 512.911 1177.69 516.153 1195.39 510.471C1203.85 507.757 1211.54 501.664 1220.28 497.658C1228.75 493.777 1237.74 491.361 1247.07 490.057C1256.61 488.721 1266.44 488.51 1276.79 488.802C1287.15 489.094 1298.05 489.889 1309.83 490.578C1322.71 491.33 1336.7 491.913 1352.28 491.845" stroke="url(#paint40_linear)" stroke-width="1.8" stroke-miterlimit="10" stroke-linecap="round" stroke-dasharray="0.1 20"/>
<path d="M-108 505.266C-87.6724 505.173 -69.0926 505.564 -51.759 506.043C-34.4254 506.521 -18.3609 507.098 -3.05627 507.378C12.2483 507.657 26.7778 507.645 41.0946 506.949C51.5965 506.44 61.6882 505.03 71.833 503.124C81.9778 501.217 92.1682 498.807 102.845 496.298C112.838 493.944 123.317 491.876 134.267 491.05C145.218 490.218 156.647 490.628 168.471 493.218C181.443 496.062 194.338 501.422 206.611 508.564C218.465 515.47 228.747 524.91 243.109 529.357C254.69 532.941 266.933 533.76 279.198 533.102C291.455 532.444 303.727 530.295 315.354 527.879C328.744 525.097 341.943 521.718 355.181 518.42C368.419 515.122 381.702 511.955 395.266 509.651C408.481 507.403 421.909 506.533 435.382 505.931C448.855 505.328 462.374 504.987 475.764 503.794C492.003 502.347 508.22 500.633 524.444 499.068C540.675 497.503 556.922 496.087 573.238 495.255C586.779 494.565 600.921 494.038 614.904 494.69C628.886 495.342 642.701 497.174 655.589 501.198C666.213 504.515 674.678 510.626 684.914 514.514C694.147 518.023 704.117 519.948 714.262 520.482C724.597 521.029 734.894 520.246 745.092 518.824C755.29 517.402 765.389 515.346 775.344 513.334C786.567 511.067 797.822 508.769 809.182 507.005C820.543 505.241 832.003 504.006 843.629 503.869C855.925 503.726 868.205 503.651 880.493 503.689C892.78 503.726 905.06 503.881 917.348 504.198C929.522 504.515 941.688 504.918 953.854 505.31C966.02 505.701 978.187 506.08 990.36 506.347C1003.39 506.633 1016.55 506.341 1029.68 506.266C1042.81 506.192 1056.16 506.341 1068.18 507.49C1082.46 508.856 1095.34 511.16 1107.24 513.713C1119.14 516.265 1130.06 519.06 1140.32 521.408C1160.38 526.003 1178.47 529.81 1195.6 524.774C1203.9 522.333 1211.24 516.576 1219.63 512.738C1227.73 509.03 1236.37 506.608 1245.46 505.179C1254.69 503.726 1264.32 503.285 1274.55 503.322C1284.79 503.36 1295.65 503.881 1307.41 504.359C1320.33 504.887 1334.4 505.328 1350.01 505.266" stroke="url(#paint41_linear)" stroke-width="1.8" stroke-miterlimit="10" stroke-linecap="round" stroke-dasharray="0.1 20"/>
<path d="M-107.236 518.694C-86.6731 518.65 -68.0021 518.756 -50.6457 518.892C-33.2894 519.029 -17.2628 519.19 -2.00383 519.259C13.2552 519.333 27.7467 519.315 42.033 519.085C52.2994 518.923 62.4442 518.898 72.6194 517.116C82.7339 515.346 92.7875 512.458 103.168 509.781C113.054 507.229 123.404 504.85 134.241 503.751C145.085 502.652 156.407 502.838 168.186 505.428C181.294 508.31 194.236 514.023 206.463 521.588C218.317 528.922 228.394 539.313 242.703 544.312C254.231 548.349 266.64 549.2 279.057 548.393C291.474 547.585 303.914 545.107 315.502 542.43C329.15 539.275 342.57 535.487 356.051 531.854C369.524 528.221 383.066 524.761 396.942 522.215C409.42 519.923 421.7 519.01 434.459 518.762C448.851 518.482 463.199 517.104 477.455 515.545C493.603 513.781 509.713 511.7 525.846 509.812C541.986 507.931 558.15 506.248 574.419 505.279C587.946 504.471 602.186 503.95 616.192 504.838C630.197 505.726 643.951 508.018 656.505 512.837C667.486 517.054 675.708 524.283 686.134 529.438C695.002 533.823 704.774 536.729 714.965 537.698C734.783 539.58 754.45 534.574 773.296 529.904C784.292 527.177 795.31 524.457 806.458 522.395C817.606 520.333 828.891 518.861 840.426 518.6C852.866 518.315 865.328 518.253 877.783 518.284C890.246 518.309 902.708 518.42 915.148 518.482C927.953 518.544 940.757 518.638 953.562 518.725C966.366 518.812 979.171 518.892 991.975 518.942C1005.08 518.992 1018.34 518.631 1031.57 518.545C1044.81 518.451 1058.27 518.625 1070.35 519.737C1088.72 521.426 1104.93 525.078 1119.56 528.854C1134.18 532.63 1147.42 536.617 1160.01 538.965C1172.6 541.312 1184.52 542.002 1196.06 538.897C1204.42 536.648 1211.68 531.071 1219.77 527.382C1227.53 523.836 1235.8 521.432 1244.67 519.929C1253.64 518.408 1263.1 517.774 1273.26 517.6C1283.41 517.427 1294.25 517.712 1306.03 518.023C1319.03 518.371 1333.21 518.718 1348.95 518.706" stroke="url(#paint42_linear)" stroke-width="1.8" stroke-miterlimit="10" stroke-linecap="round" stroke-dasharray="0.1 20"/>
</g>
<defs>
<radialGradient id="paint0_radial" cx="0" cy="0" r="1" gradientUnits="userSpaceOnUse" gradientTransform="translate(660 253) rotate(90) scale(253 620.177)">
<stop stop-color="#C4C4C4"/>
<stop offset="1" stop-color="#C4C4C4" stop-opacity="0.4"/>
</radialGradient>
<linearGradient id="paint1_linear" x1="1358.79" y1="-46.6135" x2="1340.99" y2="132.214" gradientUnits="userSpaceOnUse">
<stop stop-color="#DA2EEF"/>
<stop offset="0.489658" stop-color="#2B6AFF"/>
<stop offset="1" stop-color="#39D0D8"/>
</linearGradient>
<linearGradient id="paint2_linear" x1="1364.02" y1="-33.2462" x2="1345.51" y2="149.605" gradientUnits="userSpaceOnUse">
<stop stop-color="#DA2EEF"/>
<stop offset="0.489658" stop-color="#2B6AFF"/>
<stop offset="1" stop-color="#39D0D8"/>
</linearGradient>
<linearGradient id="paint3_linear" x1="1369.95" y1="-20.9891" x2="1349.86" y2="170.154" gradientUnits="userSpaceOnUse">
<stop stop-color="#DA2EEF"/>
<stop offset="0.489658" stop-color="#2B6AFF"/>
<stop offset="1" stop-color="#39D0D8"/>
</linearGradient>
<linearGradient id="paint4_linear" x1="1376.46" y1="-8.79065" x2="1354.68" y2="190.871" gradientUnits="userSpaceOnUse">
<stop stop-color="#DA2EEF"/>
<stop offset="0.489658" stop-color="#2B6AFF"/>
<stop offset="1" stop-color="#39D0D8"/>
</linearGradient>
<linearGradient id="paint5_linear" x1="1383.53" y1="3.37597" x2="1360.08" y2="211.315" gradientUnits="userSpaceOnUse">
<stop stop-color="#DA2EEF"/>
<stop offset="0.489658" stop-color="#2B6AFF"/>
<stop offset="1" stop-color="#39D0D8"/>
</linearGradient>
<linearGradient id="paint6_linear" x1="1390.95" y1="15.5489" x2="1365.98" y2="230.925" gradientUnits="userSpaceOnUse">
<stop stop-color="#DA2EEF"/>
<stop offset="0.489658" stop-color="#2B6AFF"/>
<stop offset="1" stop-color="#39D0D8"/>
</linearGradient>
<linearGradient id="paint7_linear" x1="1398.63" y1="27.6677" x2="1372.43" y2="249.191" gradientUnits="userSpaceOnUse">
<stop stop-color="#DA2EEF"/>
<stop offset="0.489658" stop-color="#2B6AFF"/>
<stop offset="1" stop-color="#39D0D8"/>
</linearGradient>
<linearGradient id="paint8_linear" x1="1406.42" y1="39.74" x2="1379.45" y2="265.43" gradientUnits="userSpaceOnUse">
<stop stop-color="#DA2EEF"/>
<stop offset="0.489658" stop-color="#2B6AFF"/>
<stop offset="1" stop-color="#39D0D8"/>
</linearGradient>
<linearGradient id="paint9_linear" x1="1414.22" y1="53.4849" x2="1389.27" y2="271.643" gradientUnits="userSpaceOnUse">
<stop stop-color="#DA2EEF"/>
<stop offset="0.489658" stop-color="#2B6AFF"/>
<stop offset="1" stop-color="#39D0D8"/>
</linearGradient>
<linearGradient id="paint10_linear" x1="1421.93" y1="68.2907" x2="1398.86" y2="279.073" gradientUnits="userSpaceOnUse">
<stop stop-color="#DA2EEF"/>
<stop offset="0.489658" stop-color="#2B6AFF"/>
<stop offset="1" stop-color="#39D0D8"/>
</linearGradient>
<linearGradient id="paint11_linear" x1="1429.38" y1="84.195" x2="1407.37" y2="290.948" gradientUnits="userSpaceOnUse">
<stop stop-color="#DA2EEF"/>
<stop offset="0.489658" stop-color="#2B6AFF"/>
<stop offset="1" stop-color="#39D0D8"/>
</linearGradient>
<linearGradient id="paint12_linear" x1="1436.49" y1="100.493" x2="1415.91" y2="301.274" gradientUnits="userSpaceOnUse">
<stop stop-color="#DA2EEF"/>
<stop offset="0.489658" stop-color="#2B6AFF"/>
<stop offset="1" stop-color="#39D0D8"/>
</linearGradient>
<linearGradient id="paint13_linear" x1="1443.12" y1="116.99" x2="1424.13" y2="310.616" gradientUnits="userSpaceOnUse">
<stop stop-color="#DA2EEF"/>
<stop offset="0.489658" stop-color="#2B6AFF"/>
<stop offset="1" stop-color="#39D0D8"/>
</linearGradient>
<linearGradient id="paint14_linear" x1="1449.18" y1="133.611" x2="1431.8" y2="319.546" gradientUnits="userSpaceOnUse">
<stop stop-color="#DA2EEF"/>
<stop offset="0.489658" stop-color="#2B6AFF"/>
<stop offset="1" stop-color="#39D0D8"/>
</linearGradient>
<linearGradient id="paint15_linear" x1="1454.53" y1="150.168" x2="1438.61" y2="328.699" gradientUnits="userSpaceOnUse">
<stop stop-color="#DA2EEF"/>
<stop offset="0.489658" stop-color="#2B6AFF"/>
<stop offset="1" stop-color="#39D0D8"/>
</linearGradient>
<linearGradient id="paint16_linear" x1="1458.99" y1="166.538" x2="1444.29" y2="338.581" gradientUnits="userSpaceOnUse">
<stop stop-color="#DA2EEF"/>
<stop offset="0.489658" stop-color="#2B6AFF"/>
<stop offset="1" stop-color="#39D0D8"/>
</linearGradient>
<linearGradient id="paint17_linear" x1="1462.6" y1="182.541" x2="1448.75" y2="349.844" gradientUnits="userSpaceOnUse">
<stop stop-color="#DA2EEF"/>
<stop offset="0.489658" stop-color="#2B6AFF"/>
<stop offset="1" stop-color="#39D0D8"/>
</linearGradient>
<linearGradient id="paint18_linear" x1="1465.07" y1="198.065" x2="1451.65" y2="363.016" gradientUnits="userSpaceOnUse">
<stop stop-color="#DA2EEF"/>
<stop offset="0.489658" stop-color="#2B6AFF"/>
<stop offset="1" stop-color="#39D0D8"/>
</linearGradient>
<linearGradient id="paint19_linear" x1="1466.35" y1="212.366" x2="1452.47" y2="380.184" gradientUnits="userSpaceOnUse">
<stop stop-color="#DA2EEF"/>
<stop offset="0.489658" stop-color="#2B6AFF"/>
<stop offset="1" stop-color="#39D0D8"/>
</linearGradient>
<linearGradient id="paint20_linear" x1="1466.35" y1="226.573" x2="1453.17" y2="390.171" gradientUnits="userSpaceOnUse">
<stop stop-color="#DA2EEF"/>
<stop offset="0.489658" stop-color="#2B6AFF"/>
<stop offset="1" stop-color="#39D0D8"/>
</linearGradient>
<linearGradient id="paint21_linear" x1="1465.03" y1="239.001" x2="1453.22" y2="393.715" gradientUnits="userSpaceOnUse">
<stop stop-color="#DA2EEF"/>
<stop offset="0.489658" stop-color="#2B6AFF"/>
<stop offset="1" stop-color="#39D0D8"/>
</linearGradient>
<linearGradient id="paint22_linear" x1="1462.52" y1="250.666" x2="1452.04" y2="396.367" gradientUnits="userSpaceOnUse">
<stop stop-color="#DA2EEF"/>
<stop offset="0.489658" stop-color="#2B6AFF"/>
<stop offset="1" stop-color="#39D0D8"/>
</linearGradient>
<linearGradient id="paint23_linear" x1="1458.9" y1="261.705" x2="1449.66" y2="398.315" gradientUnits="userSpaceOnUse">
<stop stop-color="#DA2EEF"/>
<stop offset="0.489658" stop-color="#2B6AFF"/>
<stop offset="1" stop-color="#39D0D8"/>
</linearGradient>
<linearGradient id="paint24_linear" x1="1454.41" y1="272.28" x2="1446.3" y2="399.935" gradientUnits="userSpaceOnUse">
<stop stop-color="#DA2EEF"/>
<stop offset="0.489658" stop-color="#2B6AFF"/>
<stop offset="1" stop-color="#39D0D8"/>
</linearGradient>
<linearGradient id="paint25_linear" x1="1449.06" y1="282.483" x2="1441.96" y2="401.547" gradientUnits="userSpaceOnUse">
<stop stop-color="#DA2EEF"/>
<stop offset="0.489658" stop-color="#2B6AFF"/>
<stop offset="1" stop-color="#39D0D8"/>
</linearGradient>
<linearGradient id="paint26_linear" x1="1443" y1="293.391" x2="1435.68" y2="413.994" gradientUnits="userSpaceOnUse">
<stop stop-color="#DA2EEF"/>
<stop offset="0.489658" stop-color="#2B6AFF"/>
<stop offset="1" stop-color="#39D0D8"/>
</linearGradient>
<linearGradient id="paint27_linear" x1="1436.34" y1="305.597" x2="1427.49" y2="437.634" gradientUnits="userSpaceOnUse">
<stop stop-color="#DA2EEF"/>
<stop offset="0.489658" stop-color="#2B6AFF"/>
<stop offset="1" stop-color="#39D0D8"/>
</linearGradient>
<linearGradient id="paint28_linear" x1="1429.2" y1="317.547" x2="1418.35" y2="463.133" gradientUnits="userSpaceOnUse">
<stop stop-color="#DA2EEF"/>
<stop offset="0.489658" stop-color="#2B6AFF"/>
<stop offset="1" stop-color="#39D0D8"/>
</linearGradient>
<linearGradient id="paint29_linear" x1="1421.77" y1="329.724" x2="1408.97" y2="487.078" gradientUnits="userSpaceOnUse">
<stop stop-color="#DA2EEF"/>
<stop offset="0.489658" stop-color="#2B6AFF"/>
<stop offset="1" stop-color="#39D0D8"/>
</linearGradient>
<linearGradient id="paint30_linear" x1="1414.04" y1="342.309" x2="1399.63" y2="508.51" gradientUnits="userSpaceOnUse">
<stop stop-color="#DA2EEF"/>
<stop offset="0.489658" stop-color="#2B6AFF"/>
<stop offset="1" stop-color="#39D0D8"/>
</linearGradient>
<linearGradient id="paint31_linear" x1="1406.22" y1="355.404" x2="1390.83" y2="526.405" gradientUnits="userSpaceOnUse">
<stop stop-color="#DA2EEF"/>
<stop offset="0.489658" stop-color="#2B6AFF"/>
<stop offset="1" stop-color="#39D0D8"/>
</linearGradient>
<linearGradient id="paint32_linear" x1="1398.45" y1="368.659" x2="1384.73" y2="529.457" gradientUnits="userSpaceOnUse">
<stop stop-color="#DA2EEF"/>
<stop offset="0.489658" stop-color="#2B6AFF"/>
<stop offset="1" stop-color="#39D0D8"/>
</linearGradient>
<linearGradient id="paint33_linear" x1="1390.79" y1="382.618" x2="1379.35" y2="528.941" gradientUnits="userSpaceOnUse">
<stop stop-color="#DA2EEF"/>
<stop offset="0.489658" stop-color="#2B6AFF"/>
<stop offset="1" stop-color="#39D0D8"/>
</linearGradient>
<linearGradient id="paint34_linear" x1="1383.36" y1="397.644" x2="1373.82" y2="530.798" gradientUnits="userSpaceOnUse">
<stop stop-color="#DA2EEF"/>
<stop offset="0.489658" stop-color="#2B6AFF"/>
<stop offset="1" stop-color="#39D0D8"/>
</linearGradient>
<linearGradient id="paint35_linear" x1="1376.35" y1="413.393" x2="1368.45" y2="534.089" gradientUnits="userSpaceOnUse">
<stop stop-color="#DA2EEF"/>
<stop offset="0.489658" stop-color="#2B6AFF"/>
<stop offset="1" stop-color="#39D0D8"/>
</linearGradient>
<linearGradient id="paint36_linear" x1="1369.8" y1="429.555" x2="1363.41" y2="537.709" gradientUnits="userSpaceOnUse">
<stop stop-color="#DA2EEF"/>
<stop offset="0.489658" stop-color="#2B6AFF"/>
<stop offset="1" stop-color="#39D0D8"/>
</linearGradient>
<linearGradient id="paint37_linear" x1="1363.88" y1="445.694" x2="1358.7" y2="542.744" gradientUnits="userSpaceOnUse">
<stop stop-color="#DA2EEF"/>
<stop offset="0.489658" stop-color="#2B6AFF"/>
<stop offset="1" stop-color="#39D0D8"/>
</linearGradient>
<linearGradient id="paint38_linear" x1="1358.68" y1="461.041" x2="1354.23" y2="550.736" gradientUnits="userSpaceOnUse">
<stop stop-color="#DA2EEF"/>
<stop offset="0.489658" stop-color="#2B6AFF"/>
<stop offset="1" stop-color="#39D0D8"/>
</linearGradient>
<linearGradient id="paint39_linear" x1="1354.34" y1="474.531" x2="1349.09" y2="571.791" gradientUnits="userSpaceOnUse">
<stop stop-color="#DA2EEF"/>
<stop offset="0.489658" stop-color="#2B6AFF"/>
<stop offset="1" stop-color="#39D0D8"/>
</linearGradient>
<linearGradient id="paint40_linear" x1="1350.99" y1="487.897" x2="1344.74" y2="593.706" gradientUnits="userSpaceOnUse">
<stop stop-color="#DA2EEF"/>
<stop offset="0.489658" stop-color="#2B6AFF"/>
<stop offset="1" stop-color="#39D0D8"/>
</linearGradient>
<linearGradient id="paint41_linear" x1="1348.72" y1="501.338" x2="1341.55" y2="614.479" gradientUnits="userSpaceOnUse">
<stop stop-color="#DA2EEF"/>
<stop offset="0.489658" stop-color="#2B6AFF"/>
<stop offset="1" stop-color="#39D0D8"/>
</linearGradient>
<linearGradient id="paint42_linear" x1="1347.66" y1="514.519" x2="1339.48" y2="635.299" gradientUnits="userSpaceOnUse">
<stop stop-color="#DA2EEF"/>
<stop offset="0.489658" stop-color="#2B6AFF"/>
<stop offset="1" stop-color="#39D0D8"/>
</linearGradient>
</defs>
</svg>
