<svg width="164" height="31" viewBox="0 0 164 31" fill="none" xmlns="http://www.w3.org/2000/svg">
<path opacity="0.75" d="M1.85018 19V5.0692H3.06777V10.5449H3.1766C3.31265 10.232 3.50764 9.91006 3.76159 9.57903C4.02007 9.24799 4.35791 8.97137 4.77511 8.74917C5.19684 8.52243 5.72741 8.40906 6.36681 8.40906C7.22388 8.40906 7.97665 8.6358 8.62512 9.08927C9.27359 9.53821 9.77922 10.1685 10.142 10.9803C10.5048 11.7875 10.6862 12.7284 10.6862 13.8032C10.6862 14.8824 10.5048 15.8279 10.142 16.6397C9.78375 17.4514 9.2804 18.084 8.63192 18.5375C7.98799 18.9909 7.23975 19.2177 6.38722 19.2177C5.75235 19.2177 5.22178 19.1043 4.79551 18.8776C4.37378 18.6508 4.03367 18.3719 3.77519 18.0409C3.51671 17.7053 3.31718 17.3788 3.1766 17.0614H3.02696V19H1.85018ZM3.04736 13.7828C3.04736 14.6262 3.17207 15.3745 3.42148 16.0275C3.67543 16.6759 4.03821 17.1861 4.50982 17.5579C4.98597 17.9253 5.56189 18.1089 6.23757 18.1089C6.93139 18.1089 7.51864 17.9185 7.99932 17.5375C8.48001 17.1521 8.84506 16.6329 9.09447 15.9798C9.34388 15.3268 9.46859 14.5945 9.46859 13.7828C9.46859 12.9801 9.34388 12.2568 9.09447 11.6129C8.84959 10.9689 8.48681 10.4588 8.00613 10.0824C7.52544 9.70147 6.93592 9.51101 6.23757 9.51101C5.55735 9.51101 4.97917 9.69466 4.50302 10.062C4.03141 10.4248 3.67089 10.9281 3.42148 11.5721C3.17207 12.2115 3.04736 12.9484 3.04736 13.7828ZM19.6016 15.0071V8.5519H20.8124V19H19.6016V17.2655H19.5064C19.2615 17.8006 18.8738 18.2472 18.3432 18.6055C17.8126 18.9592 17.1642 19.136 16.3978 19.136C15.7312 19.136 15.1394 18.9909 14.6224 18.7007C14.1055 18.4059 13.6996 17.9751 13.4049 17.4083C13.1101 16.8415 12.9627 16.1454 12.9627 15.32V8.5519H14.1735V15.2452C14.1735 16.0615 14.4138 16.719 14.8945 17.2178C15.3752 17.7121 15.9919 17.9593 16.7447 17.9593C17.2163 17.9593 17.6698 17.8459 18.1051 17.6192C18.5405 17.3924 18.8987 17.0614 19.1799 16.6261C19.461 16.1862 19.6016 15.6465 19.6016 15.0071ZM23.6484 19V8.5519H24.866V19H23.6484ZM24.2674 6.75614C24.0225 6.75614 23.8094 6.67224 23.628 6.50446C23.4511 6.33214 23.3627 6.1258 23.3627 5.88546C23.3627 5.64512 23.4511 5.44105 23.628 5.27327C23.8094 5.10095 24.0225 5.01479 24.2674 5.01479C24.5168 5.01479 24.73 5.10095 24.9068 5.27327C25.0882 5.44105 25.1789 5.64512 25.1789 5.88546C25.1789 6.1258 25.0882 6.33214 24.9068 6.50446C24.73 6.67224 24.5168 6.75614 24.2674 6.75614ZM28.8958 5.0692V19H27.685V5.0692H28.8958ZM35.8318 8.5519V9.60624H30.8458V8.5519H35.8318ZM32.4035 6.04871H33.6211V16.2723C33.6211 16.7077 33.6959 17.0501 33.8456 17.2995C33.9952 17.5443 34.1902 17.7189 34.4306 17.8232C34.6709 17.923 34.9271 17.9729 35.1992 17.9729C35.3579 17.9729 35.494 17.9638 35.6073 17.9457C35.7207 17.923 35.8205 17.9003 35.9066 17.8776L36.1651 18.9728C36.0472 19.0181 35.9021 19.059 35.7298 19.0952C35.5574 19.136 35.3443 19.1564 35.0904 19.1564C34.646 19.1564 34.2174 19.059 33.8048 18.864C33.3966 18.669 33.0611 18.3787 32.798 17.9933C32.535 17.6078 32.4035 17.1294 32.4035 16.558V6.04871ZM47.2636 19.2177C46.3611 19.2177 45.563 18.9887 44.8692 18.5307C44.1799 18.0726 43.6403 17.44 43.2503 16.6329C42.8603 15.8211 42.6653 14.8847 42.6653 13.8236C42.6653 12.7534 42.8603 11.8124 43.2503 11.0007C43.6403 10.1844 44.1799 9.54955 44.8692 9.09607C45.563 8.63806 46.3611 8.40906 47.2636 8.40906C48.166 8.40906 48.9618 8.63806 49.6511 9.09607C50.3404 9.55409 50.88 10.189 51.27 11.0007C51.6645 11.8124 51.8618 12.7534 51.8618 13.8236C51.8618 14.8847 51.6668 15.8211 51.2768 16.6329C50.8868 17.44 50.3449 18.0726 49.6511 18.5307C48.9618 18.9887 48.166 19.2177 47.2636 19.2177ZM47.2636 18.1089C47.9891 18.1089 48.6036 17.9139 49.1069 17.5239C49.6103 17.1339 49.9912 16.6147 50.2497 15.9662C50.5127 15.3178 50.6442 14.6035 50.6442 13.8236C50.6442 13.0436 50.5127 12.3271 50.2497 11.6741C49.9912 11.0211 49.6103 10.4973 49.1069 10.1028C48.6036 9.70827 47.9891 9.51101 47.2636 9.51101C46.5425 9.51101 45.9281 9.70827 45.4202 10.1028C44.9168 10.4973 44.5336 11.0211 44.2706 11.6741C44.0121 12.3271 43.8829 13.0436 43.8829 13.8236C43.8829 14.6035 44.0121 15.3178 44.2706 15.9662C44.5336 16.6147 44.9168 17.1339 45.4202 17.5239C45.9235 17.9139 46.538 18.1089 47.2636 18.1089ZM55.3474 12.4699V19H54.1367V8.5519H55.3134V10.1912H55.4223C55.6671 9.65612 56.0481 9.22758 56.565 8.90561C57.0865 8.57911 57.7305 8.41586 58.4968 8.41586C59.1997 8.41586 59.8164 8.56324 60.347 8.858C60.8821 9.14822 61.297 9.57676 61.5918 10.1436C61.8911 10.7105 62.0407 11.4065 62.0407 12.2319V19H60.83V12.3067C60.83 11.4496 60.5896 10.7717 60.1089 10.2728C59.6328 9.77402 58.9934 9.52461 58.1907 9.52461C57.642 9.52461 57.1545 9.64251 56.7283 9.87832C56.302 10.1141 55.9642 10.4542 55.7147 10.8986C55.4699 11.3385 55.3474 11.8623 55.3474 12.4699Z" fill="#F1F1F2"/>
<path d="M73.2269 14.6302H77.5116C78.1134 14.6302 78.6014 15.1217 78.6014 15.7281C78.6014 16.3345 78.1134 16.8261 77.5116 16.8261H72.3435C72.2628 16.8261 72.1848 16.8552 72.1235 16.908L70.563 18.2531C70.3241 18.459 70.4687 18.8531 70.783 18.8531H77.2528C77.2554 18.8531 77.2575 18.851 77.2575 18.8483C77.2575 18.8454 77.2601 18.8432 77.2627 18.8435C77.3443 18.8498 77.4264 18.8531 77.5096 18.8531C79.226 18.8531 80.6171 17.454 80.6171 15.7281C80.6171 14.0892 79.3627 12.7449 77.7663 12.6137C77.7637 12.6135 77.7616 12.6112 77.7616 12.6084C77.7616 12.6055 77.7595 12.6031 77.7564 12.6031H73.1403C72.5384 12.6031 72.0505 12.1116 72.0505 11.5052C72.0505 10.8988 72.5384 10.4072 73.1403 10.4072H78.3015C78.3862 10.4072 78.4683 10.375 78.5307 10.317L79.9795 8.97193C80.2066 8.76152 80.0585 8.38019 79.7503 8.38019H73.2269C73.2265 8.38019 73.2263 8.38045 73.2263 8.38076C73.2263 8.38107 73.2261 8.38128 73.2258 8.38128C73.198 8.38055 73.1702 8.38019 73.1423 8.38019C71.4261 8.38019 70.0348 9.77928 70.0348 11.5052C70.0348 13.2311 71.4261 14.6302 73.1423 14.6302C73.1702 14.6302 73.198 14.6298 73.2258 14.6291C73.2261 14.6291 73.2263 14.6293 73.2263 14.6296C73.2263 14.6299 73.2265 14.6302 73.2269 14.6302Z" fill="#F1F1F2"/>
<path d="M98.1839 8.38013C97.9963 8.38013 97.8446 8.5328 97.8446 8.72113V18.5121C97.8446 18.7004 97.9963 18.8531 98.1839 18.8531H106.03C106.123 18.8531 106.213 18.8141 106.277 18.7453L107.259 17.6922C107.463 17.4744 107.309 17.118 107.012 17.118H100.161C99.9742 17.118 99.8224 16.9653 99.8224 16.777V8.72113C99.8224 8.5328 99.6702 8.38013 99.4831 8.38013H98.1839Z" fill="#F1F1F2"/>
<path fill-rule="evenodd" clip-rule="evenodd" d="M85.6164 8.38013C85.6159 8.38013 85.6153 8.38054 85.6153 8.38106C85.6153 8.38153 85.6148 8.38195 85.6143 8.38195C84.6113 8.42539 83.8064 9.23238 83.7627 10.2374C83.7627 10.2378 83.7622 10.2382 83.7622 10.2382C83.7617 10.2382 83.7617 10.2383 83.7612 10.2385C83.7612 10.2387 83.7612 10.2389 83.7612 10.2392V16.8252C83.7612 16.8256 83.7617 16.8261 83.7617 16.8261C83.7622 16.8261 83.7627 16.8265 83.7627 16.827C83.7617 16.8547 83.7612 16.8826 83.7612 16.9105C83.7612 17.9548 84.5833 18.8066 85.6143 18.8512C85.6148 18.8512 85.6153 18.8517 85.6153 18.8522V18.8526V18.8529C85.6159 18.853 85.6159 18.8531 85.6164 18.8531H92.7352C92.7358 18.8531 92.7363 18.8526 92.7363 18.8522L92.7368 18.8517V18.8513L92.7373 18.8512C93.7683 18.8066 94.5904 17.9548 94.5904 16.9105C94.5904 16.8826 94.5899 16.8547 94.5889 16.827C94.5889 16.8265 94.5894 16.8261 94.5899 16.8261C94.5899 16.8261 94.5904 16.8256 94.5904 16.8252V10.2392C94.5904 10.2387 94.5899 10.2382 94.5894 10.2382C94.5889 10.2382 94.5889 10.2378 94.5889 10.2374C94.5452 9.23238 93.7403 8.42539 92.7373 8.38195C92.7368 8.38195 92.7363 8.38153 92.7363 8.38106C92.7363 8.38054 92.7358 8.38013 92.7352 8.38013H85.6164ZM86.9431 10.2382L86.9426 10.2384V10.2388C86.9426 10.2391 86.9426 10.2394 86.942 10.2394C86.3153 10.2667 85.8118 10.7743 85.7847 11.4065C85.7847 11.4068 85.7847 11.4071 85.7842 11.4071C85.7842 11.4071 85.7837 11.4073 85.7837 11.4076V15.5504C85.7837 15.5508 85.7842 15.551 85.7842 15.551C85.7847 15.551 85.7847 15.5513 85.7847 15.5516C85.7842 15.569 85.7837 15.5865 85.7837 15.6041C85.7837 16.261 86.2977 16.7968 86.942 16.8249C86.9426 16.8249 86.9426 16.8252 86.9426 16.8255V16.8258L86.9431 16.826V16.8261H91.4085V16.826L91.4091 16.8258V16.8255C91.4091 16.8252 91.4091 16.8249 91.4096 16.8249C92.054 16.7968 92.5679 16.261 92.5679 15.6041C92.5679 15.5865 92.5674 15.569 92.5669 15.5516V15.5514V15.5513L92.5674 15.551C92.5674 15.551 92.5679 15.5508 92.5679 15.5504V11.4076C92.5679 11.4073 92.5674 11.4071 92.5674 11.4071C92.5669 11.4071 92.5669 11.4068 92.5669 11.4065C92.5398 10.7743 92.0363 10.2667 91.4096 10.2394C91.4091 10.2394 91.4091 10.2391 91.4091 10.2388V10.2385L91.4085 10.2383V10.2382H86.9431Z" fill="#F1F1F2"/>
<path fill-rule="evenodd" clip-rule="evenodd" d="M118.667 18.5121C118.667 18.7004 118.818 18.8531 119.004 18.8531H120.335C120.52 18.8531 120.671 18.7004 120.671 18.5121V10.408C120.671 10.4075 120.67 10.4071 120.67 10.4071V10.407L120.669 10.4069C120.669 10.4068 120.669 10.4065 120.669 10.4062C120.67 10.3785 120.671 10.3507 120.671 10.3227C120.671 9.27842 119.856 8.42664 118.835 8.38195C118.835 8.38195 118.834 8.38153 118.834 8.38106C118.834 8.38054 118.834 8.38013 118.833 8.38013H111.999C111.998 8.38013 111.998 8.38054 111.998 8.38101C111.998 8.38153 111.997 8.38189 111.997 8.38189C111.97 8.3807 111.942 8.38013 111.914 8.38013C110.854 8.38013 109.994 9.24984 109.994 10.3227C109.994 10.3507 109.995 10.3785 109.996 10.4062C109.996 10.4067 109.996 10.4071 109.995 10.4071C109.995 10.4071 109.994 10.4075 109.994 10.408V18.5121C109.994 18.7004 110.145 18.8531 110.33 18.8531H111.661C111.847 18.8531 111.998 18.7004 111.998 18.5121V15.14C111.998 14.9517 112.148 14.799 112.334 14.799H118.331C118.517 14.799 118.667 14.9517 118.667 15.14V18.5121ZM111.998 12.9378V11.2517C111.998 10.5987 112.521 10.0693 113.166 10.0693H117.499C118.144 10.0693 118.667 10.5987 118.667 11.2517V12.9378C118.667 13.1261 118.517 13.2788 118.331 13.2788H112.334C112.148 13.2788 111.998 13.1261 111.998 12.9378Z" fill="#F1F1F2"/>
<path fill-rule="evenodd" clip-rule="evenodd" d="M146.757 18.8531C146.569 18.8531 146.417 18.7004 146.417 18.5121V15.14C146.417 14.9517 146.265 14.799 146.077 14.799H140.014C139.826 14.799 139.675 14.9517 139.675 15.14V18.5121C139.675 18.7004 139.522 18.8531 139.335 18.8531H137.991C137.804 18.8531 137.651 18.7004 137.651 18.5121V10.408V10.4078L137.652 10.4075C137.652 10.4073 137.653 10.4071 137.653 10.4071C137.653 10.4071 137.654 10.4067 137.654 10.4062C137.653 10.3785 137.651 10.3507 137.651 10.3227C137.651 9.24984 138.519 8.38013 139.59 8.38013C139.618 8.38013 139.646 8.3807 139.673 8.38189C139.674 8.38189 139.675 8.38153 139.675 8.38101C139.675 8.38054 139.675 8.38013 139.675 8.38013H146.585C146.585 8.38013 146.586 8.38054 146.586 8.38106C146.586 8.38153 146.586 8.38195 146.586 8.38195C147.617 8.42664 148.44 9.27842 148.44 10.3227C148.44 10.3507 148.439 10.3785 148.438 10.4062C148.438 10.4067 148.438 10.4071 148.439 10.4071C148.439 10.4071 148.439 10.4072 148.439 10.4074C148.439 10.4076 148.44 10.4078 148.44 10.408V18.5121C148.44 18.7004 148.287 18.8531 148.1 18.8531H146.757ZM139.675 11.2517V12.9378C139.675 13.1261 139.826 13.2788 140.014 13.2788H146.077C146.265 13.2788 146.417 13.1261 146.417 12.9378V11.2517C146.417 10.5987 145.889 10.0693 145.237 10.0693H140.854C140.203 10.0693 139.675 10.5987 139.675 11.2517Z" fill="#F1F1F2"/>
<path d="M125.679 8.38013C125.778 8.38013 125.872 8.42388 125.936 8.49986L131.903 15.6139C132.106 15.8552 132.496 15.7097 132.496 15.3927V8.72113C132.496 8.5328 132.646 8.38013 132.832 8.38013H134.163C134.348 8.38013 134.499 8.5328 134.499 8.72113V18.5121C134.499 18.7004 134.348 18.8531 134.163 18.8531H132.508C132.501 18.8531 132.496 18.8474 132.496 18.8403C132.496 18.8373 132.494 18.8343 132.493 18.832L126.425 11.7675C126.22 11.5302 125.835 11.6767 125.835 11.9917V18.5121C125.835 18.7004 125.684 18.8531 125.499 18.8531H124.159C123.973 18.8531 123.823 18.7004 123.823 18.5121V8.72113C123.823 8.5328 123.973 8.38013 124.159 8.38013H125.679Z" fill="#F1F1F2"/>
<rect x="86" y="30" width="78" height="1" fill="url(#paint0_linear)"/>
<defs>
<linearGradient id="paint0_linear" x1="164.129" y1="30.5" x2="162.113" y2="42.8887" gradientUnits="userSpaceOnUse">
<stop stop-color="#00FFA3"/>
<stop offset="1" stop-color="#DC1FFF"/>
</linearGradient>
</defs>
</svg>
