<svg width="1440" height="586" viewBox="0 0 1440 586" fill="none" xmlns="http://www.w3.org/2000/svg">
<path d="M543.381 59.8055C264.43 -71.8276 -86.6562 17.4961 -154.241 318.45C-157.158 331.439 -159.875 344.452 -162.391 357.486C-198.129 542.631 -191.926 725.364 -144.386 887.853C-96.8457 1050.34 -9.59337 1187.03 108.856 1284.59C227.305 1382.14 372.904 1437.23 531.444 1444.47C689.983 1451.71 856.047 1410.85 1013.43 1325.89C1170.81 1240.93 1314.13 1114.77 1429.4 959.716C1544.68 804.662 1627.96 626.015 1671.14 441.21C1738.43 153.165 1439.57 -29.6111 1154.4 49.0019L979.042 97.3449C834.005 137.328 679.441 124.01 543.381 59.8055Z" fill="#141041"/>
</svg>
