<svg width="744" height="801" viewBox="0 0 744 801" fill="none" xmlns="http://www.w3.org/2000/svg">
<g opacity="0.6" clip-path="url(#clip0)">
<path d="M364.563 412.961C365.307 413.873 367.158 413.887 368.682 412.991L375.025 409.254C376.547 408.358 378.431 406.142 379.213 404.333L382.463 396.793C383.244 394.983 383.274 392.754 382.531 391.841L379.436 388.037C378.693 387.124 376.841 387.111 375.317 388.007L368.974 391.743C367.452 392.64 365.568 394.855 364.787 396.665L361.536 404.205C360.757 406.014 360.725 408.243 361.468 409.156L364.563 412.961Z" stroke="url(#paint0_linear)" stroke-width="0.0363154" stroke-miterlimit="10"/>
<path d="M363.758 413.189C364.466 414.189 366.353 414.307 367.953 413.448L374.618 409.87C376.216 409.012 378.255 406.788 379.145 404.929L382.858 397.182C383.749 395.324 383.901 392.983 383.193 391.983L380.242 387.811C379.534 386.81 377.648 386.693 376.047 387.552L369.383 391.13C367.785 391.988 365.745 394.212 364.855 396.07L361.142 403.818C360.252 405.676 360.099 408.017 360.807 409.017L363.758 413.189Z" stroke="url(#paint1_linear)" stroke-width="0.0375361" stroke-miterlimit="10"/>
<path d="M362.922 413.385C363.589 414.476 365.508 414.704 367.182 413.89L374.165 410.497C375.84 409.682 378.037 407.458 379.044 405.551L383.242 397.61C384.249 395.705 384.527 393.253 383.86 392.163L381.078 387.614C380.411 386.524 378.491 386.295 376.817 387.11L369.834 390.503C368.16 391.318 365.963 393.541 364.956 395.449L360.758 403.39C359.75 405.295 359.473 407.747 360.14 408.837L362.922 413.385Z" stroke="url(#paint2_linear)" stroke-width="0.0390619" stroke-miterlimit="10"/>
<path d="M362.065 413.544C362.688 414.726 364.629 415.072 366.38 414.307L373.676 411.124C375.426 410.361 377.781 408.143 378.911 406.194L383.613 398.079C384.74 396.13 385.156 393.569 384.533 392.386L381.938 387.454C381.315 386.271 379.374 385.925 377.623 386.691L370.327 389.874C368.577 390.637 366.222 392.855 365.092 394.803L360.391 402.919C359.264 404.867 358.847 407.429 359.471 408.611L362.065 413.544Z" stroke="url(#paint3_linear)" stroke-width="0.0405878" stroke-miterlimit="10"/>
<path d="M361.18 413.663C361.752 414.941 363.712 415.41 365.536 414.704L373.14 411.761C374.964 411.056 377.482 408.854 378.737 406.87L383.961 398.599C385.216 396.615 385.774 393.945 385.202 392.667L382.823 387.339C382.251 386.061 380.291 385.592 378.467 386.298L370.864 389.241C369.04 389.947 366.521 392.149 365.266 394.133L360.042 402.403C358.787 404.387 358.229 407.058 358.801 408.336L361.18 413.663Z" stroke="url(#paint4_linear)" stroke-width="0.0418085" stroke-miterlimit="10"/>
<path d="M360.271 413.74C360.785 415.116 362.756 415.716 364.654 415.075L372.56 412.402C374.457 411.762 377.142 409.584 378.525 407.568L384.291 399.161C385.674 397.144 386.387 394.368 385.872 392.991L383.733 387.258C383.218 385.882 381.247 385.282 379.349 385.923L371.444 388.596C369.546 389.236 366.862 391.414 365.479 393.43L359.713 401.837C358.33 403.854 357.617 406.63 358.131 408.007L360.271 413.74Z" stroke="url(#paint5_linear)" stroke-width="0.0433343" stroke-miterlimit="10"/>
<path d="M359.342 413.773C359.791 415.247 361.771 415.988 363.739 415.418L371.939 413.045C373.907 412.475 376.757 410.336 378.274 408.292L384.598 399.774C386.114 397.73 386.988 394.85 386.539 393.375L384.663 387.23C384.214 385.756 382.235 385.015 380.267 385.584L372.067 387.958C370.099 388.527 367.248 390.667 365.732 392.71L359.408 401.229C357.891 403.273 357.017 406.153 357.467 407.627L359.342 413.773Z" stroke="url(#paint6_linear)" stroke-width="0.0451654" stroke-miterlimit="10"/>
<path d="M358.393 413.753C358.774 415.329 360.747 416.214 362.784 415.724L371.264 413.68C373.3 413.189 376.319 411.099 377.975 409.034L384.873 400.428C386.528 398.362 387.571 395.384 387.193 393.809L385.608 387.247C385.227 385.672 383.253 384.786 381.217 385.276L372.737 387.32C370.7 387.811 367.681 389.901 366.026 391.967L359.128 400.572C357.472 402.638 356.43 405.616 356.808 407.191L358.393 413.753Z" stroke="url(#paint7_linear)" stroke-width="0.0466912" stroke-miterlimit="10"/>
<path d="M357.426 413.68C357.728 415.356 359.697 416.397 361.796 415.993L370.548 414.312C372.647 413.909 375.838 411.876 377.635 409.797L385.121 401.131C386.918 399.052 388.14 395.978 387.838 394.302L386.575 387.317C386.273 385.642 384.304 384.601 382.206 385.004L373.453 386.685C371.354 387.089 368.163 389.121 366.367 391.201L358.88 399.866C357.083 401.946 355.861 405.02 356.163 406.696L357.426 413.68Z" stroke="url(#paint8_linear)" stroke-width="0.0482171" stroke-miterlimit="10"/>
<path d="M356.445 413.552C356.666 415.332 358.612 416.533 360.774 416.225L369.782 414.942C371.944 414.634 375.301 412.675 377.244 410.587L385.338 401.889C387.279 399.801 388.689 396.638 388.469 394.861L387.554 387.449C387.334 385.669 385.387 384.467 383.225 384.775L374.217 386.059C372.055 386.367 368.699 388.326 366.755 390.414L358.661 399.112C356.72 401.199 355.31 404.363 355.531 406.14L356.445 413.552Z" stroke="url(#paint9_linear)" stroke-width="0.0500481" stroke-miterlimit="10"/>
<path d="M355.455 413.364C355.583 415.247 357.505 416.617 359.723 416.413L368.971 415.56C371.19 415.356 374.716 413.481 376.806 411.393L385.518 402.698C387.609 400.61 389.212 397.365 389.084 395.482L388.548 387.639C388.42 385.756 386.498 384.385 384.279 384.59L375.031 385.443C372.813 385.647 369.287 387.522 367.196 389.609L358.485 398.305C356.394 400.392 354.79 403.638 354.918 405.521L355.455 413.364Z" stroke="url(#paint10_linear)" stroke-width="0.0518791" stroke-miterlimit="10"/>
<path d="M354.453 413.108C354.483 415.094 356.366 416.642 358.64 416.55L368.108 416.163C370.381 416.07 374.073 414.293 376.313 412.214L385.654 403.554C387.895 401.475 389.705 398.15 389.672 396.166L389.544 387.893C389.514 385.906 387.63 384.358 385.357 384.451L375.889 384.838C373.616 384.931 369.924 386.707 367.683 388.787L358.343 397.447C356.102 399.526 354.292 402.851 354.325 404.835L354.453 413.108Z" stroke="url(#paint11_linear)" stroke-width="0.0537102" stroke-miterlimit="10"/>
<path d="M353.448 412.786C353.375 414.873 355.213 416.607 357.532 416.634L367.202 416.748C369.521 416.776 373.379 415.113 375.775 413.05L385.755 404.461C388.151 402.401 390.171 399.005 390.244 396.915L390.555 388.211C390.628 386.124 388.79 384.391 386.471 384.364L376.801 384.249C374.482 384.222 370.624 385.884 368.228 387.947L358.248 396.536C355.852 398.597 353.832 401.992 353.759 404.082L353.448 412.786Z" stroke="url(#paint12_linear)" stroke-width="0.0558464" stroke-miterlimit="10"/>
<path d="M352.438 412.391C352.251 414.582 354.031 416.503 356.394 416.661L366.241 417.315C368.604 417.473 372.625 415.936 375.173 413.901L385.801 405.423C388.352 403.387 390.593 399.929 390.778 397.738L391.559 388.607C391.747 386.416 389.967 384.494 387.604 384.336L377.757 383.682C375.394 383.524 371.373 385.061 368.824 387.097L358.196 395.575C355.645 397.61 353.405 401.068 353.22 403.259L352.438 412.391Z" stroke="url(#paint13_linear)" stroke-width="0.0579826" stroke-miterlimit="10"/>
<path d="M351.433 411.922C351.126 414.217 352.838 416.334 355.236 416.628L365.236 417.86C367.634 418.154 371.813 416.762 374.522 414.764L385.803 406.437C388.509 404.439 390.979 400.926 391.286 398.635L392.569 389.078C392.876 386.783 391.164 384.666 388.765 384.372L378.766 383.14C376.368 382.846 372.189 384.238 369.48 386.236L358.198 394.563C355.492 396.561 353.023 400.074 352.715 402.365L351.433 411.922Z" stroke="url(#paint14_linear)" stroke-width="0.0598136" stroke-miterlimit="10"/>
<path d="M350.432 411.372C349.996 413.764 351.627 416.086 354.055 416.53L364.18 418.375C366.608 418.817 370.942 417.585 373.806 415.634L385.747 407.502C388.613 405.551 391.314 401.995 391.75 399.602L393.565 389.626C394.001 387.233 392.37 384.911 389.942 384.467L379.817 382.622C377.389 382.181 373.055 383.412 370.191 385.364L358.25 393.495C355.384 395.446 352.683 399.003 352.248 401.395L350.432 411.372Z" stroke="url(#paint15_linear)" stroke-width="0.062255" stroke-miterlimit="10"/>
<path d="M349.441 410.74C348.869 413.233 350.407 415.762 352.86 416.361L363.077 418.858C365.53 419.457 370.008 418.4 373.033 416.506L385.635 408.617C388.659 406.723 391.602 403.137 392.174 400.643L394.559 390.258C395.131 387.765 393.592 385.236 391.14 384.636L380.922 382.14C378.469 381.54 373.991 382.598 370.967 384.492L358.365 392.381C355.34 394.275 352.397 397.861 351.825 400.354L349.441 410.74Z" stroke="url(#paint16_linear)" stroke-width="0.0643912" stroke-miterlimit="10"/>
<path d="M348.466 410.02C347.75 412.609 349.182 415.353 351.648 416.119L361.928 419.307C364.395 420.073 369.017 419.207 372.2 417.383L385.46 409.786C388.643 407.963 391.834 404.352 392.549 401.766L395.533 390.98C396.249 388.391 394.817 385.647 392.351 384.881L382.071 381.693C379.605 380.927 374.982 381.794 371.799 383.617L358.539 391.215C355.356 393.038 352.165 396.648 351.449 399.234L348.466 410.02Z" stroke="url(#paint17_linear)" stroke-width="0.0668326" stroke-miterlimit="10"/>
<path d="M347.511 409.211C346.642 411.892 347.957 414.854 350.429 415.795L360.734 419.713C363.206 420.653 367.962 419.999 371.302 418.258L385.221 411.004C388.562 409.263 392.006 405.644 392.871 402.962L396.487 391.789C397.355 389.108 396.04 386.146 393.568 385.206L383.264 381.287C380.792 380.347 376.036 381.001 372.696 382.742L358.776 389.996C355.436 391.738 351.992 395.357 351.126 398.038L347.511 409.211Z" stroke="url(#paint18_linear)" stroke-width="0.0692739" stroke-miterlimit="10"/>
<path d="M346.583 408.306C345.556 411.077 346.735 414.263 349.204 415.389L359.495 420.076C361.964 421.201 366.845 420.773 370.344 419.127L384.914 412.268C388.41 410.622 392.112 407.009 393.138 404.238L397.418 392.691C398.444 389.92 397.265 386.734 394.796 385.609L384.506 380.922C382.036 379.796 377.155 380.224 373.657 381.87L359.087 388.729C355.591 390.375 351.889 393.989 350.862 396.76L346.583 408.306Z" stroke="url(#paint19_linear)" stroke-width="0.0717153" stroke-miterlimit="10"/>
<path d="M345.681 407.303C344.486 410.159 345.518 413.573 347.976 414.892L358.213 420.386C360.668 421.705 365.666 421.525 369.317 419.988L384.53 413.582C388.181 412.045 392.144 408.45 393.34 405.594L398.316 393.694C399.511 390.838 398.479 387.424 396.021 386.105L385.785 380.611C383.329 379.292 378.331 379.472 374.68 381.009L359.468 387.415C355.817 388.952 351.853 392.547 350.658 395.403L345.681 407.303Z" stroke="url(#paint20_linear)" stroke-width="0.0741567" stroke-miterlimit="10"/>
<path d="M344.818 406.2C343.449 409.137 344.317 412.783 346.751 414.304L356.889 420.645C359.323 422.166 364.425 422.253 368.225 420.839L384.07 414.944C387.873 413.53 392.103 409.968 393.473 407.034L399.179 394.798C400.548 391.86 399.68 388.214 397.246 386.694L387.108 380.352C384.674 378.832 379.572 378.745 375.772 380.159L359.927 386.053C356.124 387.468 351.894 391.029 350.524 393.964L344.818 406.2Z" stroke="url(#paint21_linear)" stroke-width="0.0769032" stroke-miterlimit="10"/>
<path d="M343.999 404.993C342.447 408.004 343.138 411.887 345.537 413.62L355.528 420.844C357.926 422.578 363.121 422.951 367.071 421.673L383.531 416.351C387.481 415.073 391.984 411.566 393.535 408.554L400.004 396.005C401.555 392.994 400.864 389.111 398.466 387.378L388.474 380.154C386.076 378.42 380.882 378.047 376.931 379.325L360.472 384.647C356.522 385.925 352.019 389.432 350.467 392.444L343.999 404.993Z" stroke="url(#paint22_linear)" stroke-width="0.0796498" stroke-miterlimit="10"/>
<path d="M343.226 403.679C341.484 406.758 341.982 410.878 344.331 412.832L354.129 420.978C356.481 422.931 361.752 423.61 365.846 422.487L382.905 417.8C386.999 416.675 391.772 413.236 393.517 410.156L400.777 397.324C402.52 394.245 402.021 390.124 399.672 388.17L389.874 380.025C387.522 378.071 382.251 377.393 378.157 378.515L361.098 383.203C357.004 384.328 352.232 387.767 350.486 390.846L343.226 403.679Z" stroke="url(#paint23_linear)" stroke-width="0.0827015" stroke-miterlimit="10"/>
<path d="M342.509 402.256C340.568 405.398 340.857 409.756 343.149 411.938L352.697 421.04C354.989 423.226 360.325 424.228 364.555 423.272L382.188 419.285C386.419 418.329 391.469 414.974 393.407 411.835L401.49 398.746C403.431 395.604 403.142 391.247 400.85 389.064L391.303 379.962C389.011 377.777 383.675 376.774 379.444 377.731L361.811 381.717C357.58 382.674 352.53 386.028 350.592 389.168L342.509 402.256Z" stroke="url(#paint24_linear)" stroke-width="0.0857532" stroke-miterlimit="10"/>
<path d="M341.854 400.719C339.709 403.913 339.771 408.51 341.987 410.933L351.232 421.027C353.451 423.449 358.836 424.798 363.197 424.027L381.377 420.809C385.741 420.038 391.064 416.789 393.209 413.595L402.144 400.281C404.289 397.087 404.227 392.49 402.011 390.067L392.765 379.974C390.547 377.551 385.162 376.202 380.8 376.973L362.62 380.192C358.256 380.963 352.934 384.211 350.789 387.405L341.854 400.719Z" stroke="url(#paint25_linear)" stroke-width="0.0888049" stroke-miterlimit="10"/>
<path d="M341.271 399.068C338.916 402.308 338.731 407.142 340.863 409.813L349.743 420.934C351.875 423.602 357.289 425.319 361.776 424.746L380.473 422.365C384.96 421.792 390.56 418.675 392.915 415.435L402.732 401.932C405.087 398.692 405.272 393.858 403.14 391.187L394.26 380.066C392.128 377.398 386.713 375.681 382.227 376.254L363.529 378.635C359.043 379.208 353.443 382.325 351.088 385.565L341.271 399.068Z" stroke="url(#paint26_linear)" stroke-width="0.0921618" stroke-miterlimit="10"/>
<path d="M340.762 397.3C338.19 400.575 337.743 405.649 339.774 408.571L348.23 420.752C350.258 423.676 355.686 425.777 360.287 425.425L379.466 423.954C384.07 423.599 389.94 420.632 392.512 417.353L403.236 403.701C405.808 400.425 406.255 395.351 404.224 392.43L395.768 380.249C393.74 377.325 388.312 375.224 383.711 375.575L364.531 377.047C359.928 377.401 354.058 380.369 351.486 383.647L340.762 397.3Z" stroke="url(#paint27_linear)" stroke-width="0.0955187" stroke-miterlimit="10"/>
<path d="M340.34 395.414C337.544 398.717 336.82 404.022 338.731 407.208L346.7 420.479C348.611 423.665 354.028 426.172 358.738 426.055L378.361 425.564C383.071 425.447 389.212 422.648 392.008 419.345L403.663 405.587C406.459 402.284 407.183 396.978 405.272 393.792L397.303 380.521C395.392 377.336 389.975 374.829 385.265 374.946L365.642 375.436C360.932 375.553 354.791 378.352 351.995 381.655L340.34 395.414Z" stroke="url(#paint28_linear)" stroke-width="0.0988756" stroke-miterlimit="10"/>
<path d="M340.008 393.408C336.981 396.724 335.96 402.265 337.74 405.717L345.151 420.106C346.928 423.558 352.316 426.496 357.121 426.632L377.144 427.199C381.949 427.335 388.355 424.733 391.382 421.416L403.992 407.595C407.02 404.278 408.041 398.738 406.26 395.286L398.85 380.897C397.072 377.445 391.685 374.507 386.88 374.371L366.856 373.804C362.051 373.668 355.646 376.27 352.618 379.587L340.008 393.408Z" stroke="url(#paint29_linear)" stroke-width="0.102538" stroke-miterlimit="10"/>
<path d="M339.779 391.28C336.517 394.599 335.183 400.365 336.811 404.093L343.596 419.626C345.224 423.354 350.557 426.739 355.444 427.145L375.815 428.845C380.705 429.254 387.372 426.869 390.633 423.55L404.221 409.715C407.482 406.396 408.816 400.63 407.188 396.902L400.404 381.369C398.776 377.641 393.443 374.256 388.556 373.85L368.184 372.15C363.295 371.741 356.628 374.125 353.366 377.445L339.779 391.28Z" stroke="url(#paint30_linear)" stroke-width="0.1062" stroke-miterlimit="10"/>
<path d="M339.66 389.032C336.159 392.342 334.49 398.329 335.952 402.338L342.036 419.043C343.495 423.051 348.75 426.902 353.71 427.599L374.378 430.51C379.339 431.207 386.259 429.071 389.76 425.763L404.344 411.971C407.845 408.66 409.513 402.673 408.052 398.665L401.967 381.96C400.508 377.951 395.254 374.101 390.293 373.403L369.625 370.493C364.665 369.795 357.744 371.932 354.243 375.24L339.66 389.032Z" stroke="url(#paint31_linear)" stroke-width="0.110167" stroke-miterlimit="10"/>
<path d="M339.656 386.661C335.913 389.947 333.893 396.149 335.167 400.444L340.476 418.337C341.75 422.632 346.898 426.97 351.915 427.975L372.82 432.175C377.838 433.183 385.006 431.319 388.746 428.033L404.343 414.339C408.086 411.053 410.106 404.851 408.832 400.556L403.524 382.663C402.249 378.368 397.101 374.03 392.084 373.024L371.179 368.825C366.161 367.817 358.993 369.681 355.253 372.967L339.656 386.661Z" stroke="url(#paint32_linear)" stroke-width="0.114134" stroke-miterlimit="10"/>
<path d="M339.779 384.167C335.791 387.416 333.4 393.825 334.47 398.409L338.927 417.511C339.997 422.095 345.009 426.94 350.07 428.275L371.149 433.843C376.207 435.178 383.609 433.614 387.6 430.366L404.226 416.83C408.214 413.582 410.605 407.172 409.535 402.589L405.078 383.486C404.008 378.903 398.996 374.057 393.935 372.722L372.856 367.155C367.798 365.819 360.396 367.384 356.405 370.632L339.779 384.167Z" stroke="url(#paint33_linear)" stroke-width="0.118101" stroke-miterlimit="10"/>
<path d="M340.038 381.557C335.799 384.751 333.022 391.356 333.866 396.234L337.386 416.56C338.23 421.438 343.081 426.807 348.164 428.491L369.347 435.505C374.43 437.189 382.058 435.952 386.297 432.758L403.959 419.446C408.198 416.252 410.975 409.647 410.131 404.769L406.611 384.443C405.767 379.565 400.916 374.196 395.833 372.512L374.65 365.498C369.567 363.814 361.939 365.051 357.701 368.245L340.038 381.557Z" stroke="url(#paint34_linear)" stroke-width="0.122374" stroke-miterlimit="10"/>
<path d="M340.441 378.824C335.952 381.946 332.769 388.737 333.371 393.912L335.875 415.473C336.477 420.648 341.132 426.559 346.223 428.608L367.436 437.151C372.527 439.2 380.365 438.323 384.854 435.197L403.562 422.177C408.052 419.054 411.234 412.263 410.632 407.088L408.128 385.527C407.526 380.352 402.871 374.442 397.78 372.392L376.567 363.849C371.476 361.8 363.638 362.677 359.149 365.803L340.441 378.824Z" stroke="url(#paint35_linear)" stroke-width="0.126951" stroke-miterlimit="10"/>
<path d="M340.996 375.973C336.254 379.009 332.649 385.971 332.987 391.443L334.386 414.246C334.721 419.718 339.153 426.188 344.23 428.624L365.389 438.772C370.466 441.208 378.5 440.715 383.242 437.679L403.001 425.027C407.744 421.991 411.348 415.029 411.011 409.557L409.611 386.753C409.276 381.281 404.844 374.812 399.767 372.376L378.609 362.228C373.531 359.791 365.498 360.285 360.755 363.32L340.996 375.973Z" stroke="url(#paint36_linear)" stroke-width="0.131529" stroke-miterlimit="10"/>
<path d="M341.718 373.008C336.725 375.938 332.679 383.058 332.731 388.83L332.941 412.876C332.992 418.648 337.16 425.692 342.205 428.532L363.225 440.367C368.269 443.206 376.483 443.132 381.475 440.203L402.285 427.992C407.278 425.063 411.324 417.942 411.272 412.17L411.062 388.124C411.011 382.352 406.843 375.308 401.798 372.469L380.778 360.634C375.734 357.794 367.52 357.868 362.528 360.797L341.718 373.008Z" stroke="url(#paint37_linear)" stroke-width="0.136412" stroke-miterlimit="10"/>
<path d="M342.608 369.931C337.362 372.736 332.861 379.998 332.606 386.067L331.538 411.355C331.282 417.424 335.154 425.06 340.144 428.324L360.932 441.925C365.919 445.19 374.294 445.563 379.54 442.759L401.398 431.068C406.644 428.264 411.144 421.002 411.4 414.933L412.467 389.645C412.723 383.576 408.852 375.94 403.861 372.676L383.073 359.075C378.086 355.81 369.712 355.437 364.466 358.241L342.608 369.931Z" stroke="url(#paint38_linear)" stroke-width="0.141294" stroke-miterlimit="10"/>
<path d="M343.681 366.746C338.187 369.406 333.213 376.791 332.628 383.154L330.191 409.68C329.606 416.045 333.145 424.286 338.054 427.992L358.512 443.435C363.421 447.141 371.934 447.997 377.427 445.337L400.323 434.254C405.817 431.595 410.79 424.21 411.376 417.847L413.812 391.321C414.398 384.955 410.858 376.714 405.95 373.008L385.491 357.565C380.583 353.859 372.07 353.004 366.576 355.663L343.681 366.746Z" stroke="url(#paint39_linear)" stroke-width="0.146482" stroke-miterlimit="10"/>
<path d="M344.941 363.457C339.2 365.95 333.738 373.436 332.802 380.096L328.903 407.846C327.967 414.506 331.133 423.362 335.938 427.529L355.961 444.89C360.766 449.057 369.394 450.425 375.135 447.934L399.057 437.546C404.798 435.053 410.259 427.567 411.196 420.907L415.094 393.158C416.031 386.497 412.865 377.641 408.06 373.474L388.037 356.113C383.232 351.946 374.604 350.578 368.863 353.069L344.941 363.457Z" stroke="url(#paint40_linear)" stroke-width="0.151975" stroke-miterlimit="10"/>
<path d="M346.402 360.067C340.418 362.37 334.454 369.94 333.144 376.889L327.691 405.843C326.382 412.792 329.137 422.275 333.811 426.921L353.29 446.275C357.964 450.918 366.684 452.834 372.665 450.531L397.597 440.931C403.581 438.628 409.545 431.058 410.855 424.109L416.308 395.155C417.617 388.206 414.862 378.723 410.188 374.077L390.709 354.723C386.035 350.08 377.315 348.164 371.334 350.466L346.402 360.067Z" stroke="url(#paint41_linear)" stroke-width="0.157468" stroke-miterlimit="10"/>
<path d="M348.074 356.587C341.853 358.68 335.371 366.307 333.667 373.54L326.565 403.676C324.86 410.908 327.161 421.029 331.674 426.172L350.489 447.591C355.005 452.73 363.788 455.224 370.006 453.134L395.923 444.416C402.144 442.323 408.626 434.696 410.33 427.463L417.433 397.327C419.137 390.094 416.836 379.973 412.323 374.831L393.508 353.412C388.992 348.273 380.209 345.779 373.991 347.869L348.074 356.587Z" stroke="url(#paint42_linear)" stroke-width="0.162962" stroke-miterlimit="10"/>
<path d="M349.963 353.02C343.514 354.876 336.501 362.536 334.378 370.046L325.532 401.333C323.409 408.84 325.214 419.607 329.54 425.259L347.57 448.812C351.896 454.463 360.714 457.57 367.163 455.714L394.039 447.98C400.488 446.125 407.501 438.465 409.624 430.954L418.47 399.668C420.593 392.16 418.788 381.393 414.462 375.742L396.432 352.189C392.106 346.537 383.288 343.43 376.839 345.286L349.963 353.02Z" stroke="url(#paint43_linear)" stroke-width="0.169065" stroke-miterlimit="10"/>
<path d="M352.076 349.374C345.406 350.968 337.849 358.636 335.287 366.411L324.605 398.812C322.04 406.586 323.303 418.005 327.411 424.185L344.527 449.937C348.635 456.117 357.453 459.867 364.123 458.273L391.921 451.626C398.591 450.032 406.148 442.364 408.71 434.589L419.393 402.188C421.957 394.414 420.694 382.995 416.586 376.815L399.47 351.063C395.362 344.883 386.544 341.133 379.875 342.727L352.076 349.374Z" stroke="url(#paint44_linear)" stroke-width="0.175168" stroke-miterlimit="10"/>
<path d="M354.426 345.657C347.544 346.965 339.434 354.608 336.409 362.639L323.796 396.109C320.769 404.139 321.447 416.212 325.302 422.934L341.369 450.951C345.224 457.673 354.012 462.104 360.894 460.794L389.575 455.338C396.457 454.03 404.567 446.386 407.591 438.355L420.204 404.886C423.231 396.855 422.554 384.783 418.699 378.06L402.631 350.044C398.776 343.321 389.988 338.89 383.106 340.201L354.426 345.657Z" stroke="url(#paint45_linear)" stroke-width="0.181577" stroke-miterlimit="10"/>
<path d="M357.017 341.883C349.934 342.88 341.263 350.467 337.751 358.743L323.113 393.231C319.601 401.507 319.647 414.236 323.216 421.515L338.094 451.85C341.666 459.129 350.38 464.271 357.464 463.274L386.983 459.121C394.066 458.123 402.737 450.537 406.249 442.261L420.887 407.772C424.399 399.496 424.353 386.767 420.784 379.489L405.906 349.153C402.334 341.874 393.62 336.732 386.536 337.73L357.017 341.883Z" stroke="url(#paint46_linear)" stroke-width="0.188291" stroke-miterlimit="10"/>
<path d="M359.859 338.054C352.588 338.711 343.348 346.207 339.327 354.712L322.568 390.157C318.547 398.662 317.915 412.045 321.166 419.893L334.71 452.602C337.96 460.45 346.569 466.337 353.84 465.68L384.14 462.944C391.412 462.287 400.652 454.79 404.672 446.286L421.432 410.84C425.453 402.336 426.084 388.953 422.834 381.104L409.29 348.395C406.039 340.547 397.431 334.661 390.159 335.318L359.859 338.054Z" stroke="url(#paint47_linear)" stroke-width="0.195005" stroke-miterlimit="10"/>
<path d="M362.96 334.19C355.514 334.478 345.7 341.85 341.148 350.57L322.181 386.906C317.63 395.626 316.274 409.658 319.165 418.086L331.22 453.215C334.114 461.647 342.569 468.307 350.015 468.018L381.037 466.811C388.483 466.522 398.297 459.151 402.849 450.43L421.816 414.094C426.367 405.374 427.723 391.343 424.832 382.914L412.777 347.785C409.883 339.354 401.428 332.694 393.982 332.982L362.96 334.19Z" stroke="url(#paint48_linear)" stroke-width="0.202024" stroke-miterlimit="10"/>
<path d="M366.328 330.295C358.727 330.189 348.331 337.397 343.229 346.311L321.961 383.461C316.857 392.375 314.725 407.052 317.224 416.072L327.635 453.665C330.134 462.685 338.397 470.154 345.997 470.26L377.675 470.702C385.276 470.808 395.673 463.6 400.775 454.687L422.042 417.536C427.147 408.622 429.278 393.945 426.779 384.925L416.369 347.332C413.869 338.312 405.607 330.843 398.006 330.737L366.328 330.295Z" stroke="url(#paint49_linear)" stroke-width="0.209348" stroke-miterlimit="10"/>
<path d="M369.965 326.388C362.225 325.856 351.248 332.86 345.572 341.951L321.92 379.829C316.244 388.92 313.29 404.227 315.353 413.849L323.956 453.94C326.02 463.56 334.043 471.866 341.782 472.397L374.037 474.61C381.777 475.141 392.754 468.138 398.43 459.047L422.082 421.168C427.758 412.078 430.712 396.771 428.648 387.149L420.046 347.057C417.982 337.438 409.959 329.132 402.219 328.6L369.965 326.388Z" stroke="url(#paint50_linear)" stroke-width="0.216977" stroke-miterlimit="10"/>
<path d="M373.88 322.483C366.021 321.499 354.461 328.254 348.192 337.495L322.068 376.009C315.798 385.252 311.97 401.18 313.56 411.407L320.186 454.025C321.776 464.252 329.508 473.425 337.367 474.411L370.118 478.515C377.977 479.499 389.537 472.743 395.806 463.502L421.93 424.989C428.2 415.746 432.028 399.818 430.438 389.59L423.812 346.973C422.222 336.746 414.49 327.573 406.631 326.587L373.88 322.483Z" stroke="url(#paint51_linear)" stroke-width="0.224911" stroke-miterlimit="10"/>
<path d="M378.077 318.594C370.122 317.125 357.981 323.589 351.101 332.961L322.426 372.006C315.544 381.374 310.793 397.91 311.869 408.748L316.347 453.913C317.422 464.751 324.811 474.82 332.766 476.289L365.919 482.409C373.874 483.878 386.016 477.414 392.895 468.043L421.57 428.998C428.452 419.629 433.203 403.093 432.128 392.256L427.649 347.09C426.574 336.253 419.185 326.183 411.231 324.715L378.077 318.594Z" stroke="url(#paint52_linear)" stroke-width="0.233151" stroke-miterlimit="10"/>
<path d="M382.565 314.735C374.536 312.752 361.82 318.878 354.309 328.347L323.007 367.809C315.496 377.279 309.773 394.398 310.288 405.848L312.444 453.572C312.961 465.026 319.953 476.016 327.984 478L361.442 486.262C369.47 488.246 382.186 482.12 389.697 472.651L421 433.189C428.511 423.719 434.233 406.6 433.719 395.15L431.562 347.425C431.045 335.972 424.054 324.982 416.023 322.998L382.565 314.735Z" stroke="url(#paint53_linear)" stroke-width="0.241696" stroke-miterlimit="10"/>
<path d="M387.34 310.928C379.265 308.402 365.98 314.139 357.821 323.679L323.818 363.435C315.659 372.976 308.913 390.653 308.829 402.722L308.477 453.008C308.393 465.075 314.932 477.016 323.007 479.542L356.661 490.072C364.736 492.598 378.021 486.862 386.18 477.321L420.183 437.565C428.342 428.025 435.088 410.347 435.172 398.278L435.523 347.992C435.608 335.925 429.068 323.984 420.994 321.458L387.34 310.928Z" stroke="url(#paint54_linear)" stroke-width="0.250546" stroke-miterlimit="10"/>
<path d="M392.411 307.189C384.318 304.088 370.474 309.388 361.651 318.967L324.88 358.881C316.057 368.46 308.241 386.671 307.511 399.351L304.47 452.19C303.74 464.87 309.768 477.784 317.861 480.885L351.592 493.81C359.686 496.912 373.529 491.611 382.352 482.033L419.124 442.119C427.947 432.54 435.763 414.328 436.492 401.648L439.533 348.809C440.263 336.13 434.236 323.215 426.142 320.114L392.411 307.189Z" stroke="url(#paint55_linear)" stroke-width="0.259701" stroke-miterlimit="10"/>
<path d="M397.777 303.538C389.695 299.832 375.307 304.639 365.803 314.22L326.203 354.151C316.699 363.732 307.764 382.445 306.343 395.735L300.427 451.112C299.006 464.402 304.459 478.305 312.542 482.014L346.224 497.46C354.306 501.166 368.694 496.359 378.198 486.777L417.798 446.847C427.302 437.266 436.237 418.552 437.658 405.262L443.574 349.886C444.995 336.596 439.542 322.693 431.459 318.984L397.777 303.538Z" stroke="url(#paint56_linear)" stroke-width="0.269161" stroke-miterlimit="10"/>
<path d="M403.439 299.995C395.4 295.654 380.481 299.913 370.289 309.462L327.806 349.254C317.61 358.802 307.505 377.981 305.352 391.871L296.368 449.757C294.211 463.65 299.025 478.567 307.064 482.908L340.563 501.002C348.602 505.343 363.521 501.084 373.714 491.535L416.197 451.744C426.392 442.195 436.497 423.016 438.651 409.126L447.635 351.24C449.791 337.348 444.978 322.431 436.938 318.09L403.439 299.995Z" stroke="url(#paint57_linear)" stroke-width="0.278927" stroke-miterlimit="10"/>
<path d="M409.399 296.584C401.439 291.575 386.011 295.232 375.113 304.707L329.701 344.193C318.803 353.668 307.483 373.273 304.546 387.754L292.303 448.106C289.366 462.59 293.474 478.537 301.434 483.545L334.604 504.414C342.564 509.423 357.992 505.766 368.89 496.291L414.302 456.804C425.2 447.329 436.519 427.725 439.457 413.244L451.699 352.892C454.637 338.408 450.529 322.461 442.568 317.452L409.399 296.584Z" stroke="url(#paint58_linear)" stroke-width="0.288997" stroke-miterlimit="10"/>
<path d="M415.655 293.327C407.812 287.624 391.894 290.616 380.283 299.976L331.901 338.978C320.29 348.338 307.709 368.318 303.942 383.383L288.247 446.149C284.479 461.211 287.817 478.202 295.66 483.905L328.348 507.671C336.191 513.374 352.109 510.382 363.72 501.021L412.102 462.02C423.713 452.659 436.294 432.679 440.061 417.615L455.756 354.848C459.524 339.787 456.186 322.796 448.343 317.093L415.655 293.327Z" stroke="url(#paint59_linear)" stroke-width="0.299373" stroke-miterlimit="10"/>
<path d="M422.203 290.247C414.515 283.819 398.134 286.086 385.804 295.286L334.422 333.617C322.092 342.814 308.205 363.127 303.564 378.752L284.221 443.868C279.579 459.494 282.073 477.539 289.761 483.965L321.801 510.75C329.489 517.178 345.87 514.911 358.199 505.711L409.582 467.38C421.911 458.183 435.798 437.87 440.44 422.245L459.783 357.129C464.424 341.503 461.931 323.458 454.243 317.032L422.203 290.247Z" stroke="url(#paint60_linear)" stroke-width="0.310359" stroke-miterlimit="10"/>
<path d="M429.038 287.373C421.546 280.192 404.733 281.672 391.679 290.662L337.275 328.121C324.218 337.111 308.983 357.696 303.422 373.864L280.238 441.247C274.673 457.417 276.252 476.523 283.744 483.703L314.965 513.625C322.457 520.805 339.27 519.326 352.324 510.336L406.728 472.877C419.785 463.887 435.019 443.302 440.581 427.134L463.765 359.751C469.33 343.58 467.751 324.475 460.259 317.294L429.038 287.373Z" stroke="url(#paint61_linear)" stroke-width="0.321651" stroke-miterlimit="10"/>
<path d="M436.158 284.729C428.905 276.767 411.694 277.396 397.911 286.127L340.474 322.504C326.69 331.233 310.067 352.033 303.536 368.724L276.318 438.276C269.787 454.967 270.375 475.138 277.627 483.098L307.846 516.273C315.098 524.233 332.309 523.607 346.093 514.875L403.53 478.498C417.313 469.77 433.936 448.97 440.467 432.278L467.686 362.726C474.217 346.035 473.629 325.864 466.376 317.904L436.158 284.729Z" stroke="url(#paint62_linear)" stroke-width="0.333247" stroke-miterlimit="10"/>
<path d="M443.554 282.34C436.59 273.57 419.017 273.281 404.506 281.699L344.037 316.771C329.526 325.186 311.477 346.134 303.93 363.318L272.481 434.93C264.935 452.114 264.458 473.351 271.422 482.117L300.446 518.658C307.41 527.427 324.983 527.716 339.493 519.298L399.963 484.227C414.473 475.812 432.523 454.864 440.069 437.68L471.518 366.067C479.065 348.883 479.541 327.647 472.577 318.88L443.554 282.34Z" stroke="url(#paint63_linear)" stroke-width="0.345454" stroke-miterlimit="10"/>
<path d="M451.218 280.238C444.589 270.638 426.697 269.365 411.463 277.412L347.971 310.944C332.734 318.992 313.228 340.015 304.62 357.663L268.755 431.205C260.147 448.852 258.529 471.149 265.158 480.749L292.783 520.762C299.412 530.362 317.303 531.635 332.538 523.587L396.029 490.055C411.267 482.008 430.773 460.984 439.381 443.337L475.248 369.792C483.856 352.145 485.474 329.848 478.845 320.248L451.218 280.238Z" stroke="url(#paint64_linear)" stroke-width="0.357966" stroke-miterlimit="10"/>
<path d="M459.14 278.451C452.897 267.992 434.734 265.668 418.78 273.287L352.294 305.034C336.338 312.653 315.337 333.677 305.627 351.753L265.156 427.082C255.442 445.16 252.605 468.506 258.848 478.964L284.863 522.547C291.105 533.005 309.269 535.33 325.222 527.711L391.709 495.963C407.665 488.344 428.665 467.32 438.376 449.245L478.847 373.916C488.561 355.838 491.397 332.492 485.155 322.033L459.14 278.451Z" stroke="url(#paint65_linear)" stroke-width="0.371089" stroke-miterlimit="10"/>
<path d="M467.307 277.006C461.503 265.667 443.119 262.223 426.455 269.352L357.009 299.058C340.345 306.186 317.823 327.129 306.961 345.596L261.704 422.552C250.841 441.02 246.703 465.407 252.507 476.743L276.693 523.991C282.497 535.33 300.882 538.774 317.545 531.645L386.991 501.939C403.655 494.811 426.177 473.868 437.039 455.401L482.299 378.447C493.162 359.979 497.3 335.593 491.495 324.256L467.307 277.006Z" stroke="url(#paint66_linear)" stroke-width="0.384516" stroke-miterlimit="10"/>
<path d="M475.709 275.941C470.4 263.703 451.85 259.067 434.489 265.643L362.138 293.041C344.775 299.616 320.709 320.387 308.657 339.201L258.432 417.599C246.38 436.412 240.861 461.818 246.17 474.057L268.295 525.056C273.604 537.295 292.154 541.93 309.515 535.354L381.865 507.957C399.228 501.381 423.294 480.61 435.346 461.797L485.572 383.399C497.624 364.585 503.142 339.179 497.833 326.941L475.709 275.941Z" stroke="url(#paint67_linear)" stroke-width="0.398554" stroke-miterlimit="10"/>
<path d="M484.325 275.284C479.569 262.125 460.912 256.23 442.871 262.185L367.684 286.994C349.64 292.948 324.009 313.457 310.723 332.568L255.361 412.208C242.075 431.319 235.098 457.722 239.854 470.882L259.678 525.713C264.434 538.872 283.091 544.767 301.132 538.812L376.319 514.003C394.363 508.049 419.995 487.54 433.28 468.429L488.643 388.789C501.928 369.678 508.905 343.275 504.149 330.115L484.325 275.284Z" stroke="url(#paint68_linear)" stroke-width="0.413202" stroke-miterlimit="10"/>
<path d="M493.14 275.069C488.994 260.975 470.299 253.751 451.596 259.013L373.657 280.947C354.954 286.212 327.738 306.356 313.182 325.712L252.516 406.377C237.956 425.733 229.438 453.104 233.584 467.198L250.858 525.928C255.004 540.023 273.699 547.247 292.402 541.985L370.341 520.051C389.044 514.786 416.26 494.642 430.816 475.286L491.482 394.621C506.041 375.265 514.56 347.894 510.413 333.8L493.14 275.069Z" stroke="url(#paint69_linear)" stroke-width="0.428156" stroke-miterlimit="10"/>
<path d="M502.134 275.328C498.663 260.283 479.999 251.658 460.659 256.16L380.068 274.919C360.728 279.421 331.922 299.096 316.053 318.64L249.932 400.09C234.063 419.637 223.922 447.937 227.396 462.979L241.865 525.669C245.337 540.714 264.001 549.339 283.341 544.837L363.932 526.078C383.272 521.576 412.078 501.901 427.946 482.357L494.068 400.907C509.937 381.36 520.078 353.06 516.604 338.018L502.134 275.328Z" stroke="url(#paint70_linear)" stroke-width="0.443719" stroke-miterlimit="10"/>
<path d="M511.288 276.096C508.552 260.092 489.993 249.995 470.046 253.661L386.921 268.935C366.974 272.6 336.57 291.695 319.356 311.364L247.632 393.337C230.421 413.009 218.576 442.198 221.312 458.205L232.713 524.901C235.449 540.905 254.008 551.002 273.955 547.336L357.08 532.062C377.027 528.397 407.431 509.303 424.645 489.633L496.369 407.66C513.58 387.988 525.425 358.799 522.689 342.792L511.288 276.096Z" stroke="url(#paint71_linear)" stroke-width="0.459893" stroke-miterlimit="10"/>
<path d="M520.573 277.41C518.64 260.435 500.267 248.797 479.743 251.552L394.224 263.024C373.703 265.777 341.701 284.171 323.113 303.9L245.652 386.113C227.064 405.843 213.438 435.873 215.371 452.847L223.429 523.588C225.362 540.562 243.736 552.201 264.26 549.446L349.778 537.973C370.3 535.221 402.302 516.827 420.89 497.097L498.35 414.884C516.939 395.155 530.564 365.125 528.632 348.15L520.573 277.41Z" stroke="url(#paint72_linear)" stroke-width="0.476678" stroke-miterlimit="10"/>
<path d="M529.962 279.304C528.898 261.354 510.796 248.107 489.736 249.87L401.98 257.214C380.919 258.978 347.33 276.549 327.337 296.262L244.018 378.412C224.025 398.125 208.535 428.943 209.602 446.893L214.039 521.699C215.104 539.649 233.205 552.896 254.265 551.133L342.022 543.789C363.082 542.026 396.671 524.454 416.664 504.741L499.983 422.591C519.976 402.878 535.467 372.06 534.4 354.11L529.962 279.304Z" stroke="url(#paint73_linear)" stroke-width="0.494073" stroke-miterlimit="10"/>
<path d="M539.431 281.811C539.303 262.882 521.564 247.96 500.011 248.652L410.194 251.532C388.64 252.225 353.475 268.842 332.047 288.463L242.761 370.223C221.336 389.844 203.907 421.384 204.035 440.312L204.566 519.192C204.694 538.12 222.433 553.043 243.986 552.351L333.803 549.47C355.356 548.778 390.522 532.16 411.949 512.54L501.236 430.78C522.661 411.159 540.09 379.619 539.962 360.691L539.431 281.811Z" stroke="url(#paint74_linear)" stroke-width="0.512078" stroke-miterlimit="10"/>
<path d="M548.948 284.966C549.827 265.062 532.548 248.399 510.546 247.935L418.867 246.011C396.867 245.548 360.145 261.078 337.266 280.522L241.919 361.544C219.038 380.987 199.6 413.181 198.718 433.085L195.051 516.031C194.171 535.935 211.45 552.599 233.453 553.062L325.132 554.986C347.132 555.449 383.854 539.919 406.733 520.475L502.079 439.453C524.961 420.01 544.399 387.816 545.281 367.912L548.948 284.966Z" stroke="url(#paint75_linear)" stroke-width="0.530693" stroke-miterlimit="10"/>
<path d="M558.474 288.812C560.431 267.938 543.713 249.467 521.319 247.767L428.001 240.687C405.606 238.989 367.359 253.288 343.007 272.464L241.527 352.374C217.176 371.55 195.647 404.319 193.69 425.196L185.528 512.186C183.57 533.06 200.289 551.53 222.683 553.231L316.001 560.311C338.396 562.008 376.643 547.71 400.994 528.534L502.474 448.624C526.826 429.447 548.355 396.678 550.312 375.801L558.474 288.812Z" stroke="url(#paint76_linear)" stroke-width="0.549919" stroke-miterlimit="10"/>
<path d="M567.978 293.376C571.087 271.54 555.036 251.203 532.307 248.183L437.592 235.596C414.863 232.577 375.127 245.499 349.286 264.313L241.612 342.719C215.774 361.536 192.089 394.795 188.978 416.631L176.019 507.624C172.91 529.46 188.961 549.797 211.691 552.817L306.405 565.404C329.135 568.423 368.871 555.501 394.712 536.687L502.385 458.281C528.223 439.467 551.908 406.205 555.02 384.369L567.978 293.376Z" stroke="url(#paint77_linear)" stroke-width="0.57006" stroke-miterlimit="10"/>
<path d="M577.419 298.701C581.753 275.919 566.481 253.655 543.482 249.227L447.637 230.773C424.638 226.345 383.454 237.738 356.121 256.092L242.219 332.573C214.886 350.927 188.975 384.584 184.641 407.366L166.58 502.302C162.246 525.084 177.519 547.347 200.518 551.776L296.362 570.23C319.361 574.658 360.545 563.265 387.878 544.911L501.78 468.429C529.113 450.076 555.025 416.418 559.359 393.637L577.419 298.701Z" stroke="url(#paint78_linear)" stroke-width="0.590507" stroke-miterlimit="10"/>
<path d="M586.755 304.816C592.388 281.108 578.011 256.86 554.81 250.939L458.13 226.255C434.93 220.331 392.357 230.037 363.524 247.821L243.374 321.935C214.541 339.722 186.343 373.671 180.713 397.381L157.246 496.182C151.613 519.89 165.99 544.138 189.19 550.059L285.871 574.743C309.071 580.667 351.644 570.96 380.477 553.177L500.627 479.063C529.46 461.276 557.658 427.327 563.288 403.616L586.755 304.816Z" stroke="url(#paint79_linear)" stroke-width="0.612174" stroke-miterlimit="10"/>
<path d="M595.943 311.762C602.948 287.149 589.592 260.871 566.266 253.364L469.063 222.083C445.738 214.575 401.836 222.431 371.506 239.537L245.122 310.822C214.792 327.927 184.246 362.061 177.244 386.674L148.06 489.238C141.056 513.851 154.412 540.129 177.737 547.636L274.94 578.917C298.266 586.425 342.167 578.569 372.497 561.463L498.884 490.181C529.214 473.075 559.76 438.941 566.762 414.328L595.943 311.762Z" stroke="url(#paint80_linear)" stroke-width="0.634451" stroke-miterlimit="10"/>
<path d="M604.935 319.569C613.385 294.085 601.178 265.722 577.809 256.547L480.429 218.306C457.06 209.128 411.906 214.965 380.087 231.274L247.495 299.238C215.676 315.547 182.73 349.744 174.279 375.229L139.068 481.433C130.618 506.918 142.825 535.281 166.194 544.456L263.574 582.697C286.943 591.875 332.096 586.038 363.916 569.728L496.507 501.765C528.326 485.455 561.273 451.259 569.723 425.774L604.935 319.569Z" stroke="url(#paint81_linear)" stroke-width="0.657645" stroke-miterlimit="10"/>
<path d="M613.679 328.271C623.649 301.947 612.724 271.461 589.401 260.525L492.209 214.957C468.886 204.021 422.562 207.665 389.267 223.056L250.528 287.185C217.234 302.573 181.837 336.705 171.868 363.029L130.321 472.727C120.352 499.051 131.277 529.537 154.599 540.472L251.792 586.041C275.114 596.977 321.439 593.333 354.733 577.942L493.472 513.813C526.767 498.424 562.164 464.293 572.133 437.969L613.679 328.271Z" stroke="url(#paint82_linear)" stroke-width="0.681448" stroke-miterlimit="10"/>
<path d="M622.126 337.901C633.691 310.779 624.184 278.129 601 265.349L504.391 212.087C481.207 199.307 433.81 200.582 399.061 214.924L254.263 274.685C219.514 289.027 181.624 322.951 170.059 350.074L121.873 463.099C110.308 490.222 119.815 522.871 142.998 535.652L239.608 588.913C262.792 601.694 310.189 600.418 344.937 586.076L489.736 526.316C524.485 511.973 562.375 478.049 573.94 450.926L622.126 337.901Z" stroke="url(#paint83_linear)" stroke-width="0.706167" stroke-miterlimit="10"/>
<path d="M630.224 348.491C643.454 320.619 635.508 285.773 612.566 271.061L516.964 209.747C494.022 195.034 445.653 193.761 409.481 206.921L258.742 261.757C222.57 274.917 182.148 308.49 168.917 336.362L113.78 452.512C100.549 480.385 108.496 515.23 131.438 529.943L227.04 591.257C249.981 605.97 298.35 607.242 334.523 594.083L485.262 539.246C521.434 526.087 561.856 492.514 575.087 464.642L630.224 348.491Z" stroke="url(#paint84_linear)" stroke-width="0.731801" stroke-miterlimit="10"/>
<path d="M637.906 360.067C652.876 331.497 646.637 294.431 624.043 277.699L529.895 207.972C507.302 191.24 458.084 187.235 420.52 199.075L263.988 248.404C226.424 260.242 183.443 293.305 168.473 321.875L106.092 440.931C91.1213 469.5 97.3611 506.567 119.954 523.299L214.103 593.025C236.696 609.757 285.914 613.763 323.478 601.923L480.007 552.591C517.571 540.753 560.552 507.69 575.522 479.12L637.906 360.067Z" stroke="url(#paint85_linear)" stroke-width="0.758656" stroke-miterlimit="10"/>
<path d="M645.117 372.662C661.895 343.455 657.518 304.148 635.387 285.313L543.169 206.825C521.038 187.989 471.096 181.068 432.188 191.439L270.05 234.664C231.142 245.036 185.58 277.421 168.802 306.628L98.8825 428.338C82.1044 457.545 86.482 496.852 108.612 515.688L200.831 594.175C222.961 613.011 272.903 619.933 311.812 609.561L473.949 566.336C512.858 555.964 558.42 523.579 575.198 494.372L645.117 372.662Z" stroke="url(#paint86_linear)" stroke-width="0.786122" stroke-miterlimit="10"/>
<path d="M651.795 386.296C670.452 356.519 668.086 314.959 646.541 293.938L556.757 206.348C535.212 185.33 484.689 175.296 444.488 184.054L276.963 220.551C236.761 229.31 188.605 260.839 169.948 290.616L92.2048 414.702C73.5482 444.479 75.914 486.039 97.459 507.06L187.244 594.649C208.789 615.668 259.311 625.702 299.512 616.943L467.037 580.446C507.239 571.688 555.395 540.159 574.052 510.382L651.795 386.296Z" stroke="url(#paint87_linear)" stroke-width="0.814808" stroke-miterlimit="10"/>
<path d="M657.871 401C678.472 370.727 678.278 326.908 657.444 303.625L570.624 206.602C549.79 183.319 498.843 169.988 457.411 176.977L284.754 206.103C243.322 213.093 192.565 243.581 171.968 273.854L86.128 400.003C65.5276 430.276 65.7209 474.095 86.5554 497.378L173.375 594.401C194.21 617.684 245.157 631.015 286.589 624.026L459.245 594.9C500.678 587.91 551.434 557.422 572.031 527.149L657.871 401Z" stroke="url(#paint88_linear)" stroke-width="0.844409" stroke-miterlimit="10"/>
<path d="M663.278 416.789C685.885 386.102 688.025 340.029 668.037 314.406L584.745 207.626C564.758 182.002 513.555 165.178 470.96 170.241L293.466 191.336C250.871 196.399 197.526 225.647 174.922 256.334L80.7216 384.208C58.1149 414.895 55.9751 460.968 75.9629 486.592L159.254 593.371C179.242 618.995 230.445 635.82 273.04 630.757L450.534 609.662C493.129 604.599 546.474 575.351 569.078 544.663L663.278 416.789Z" stroke="url(#paint89_linear)" stroke-width="0.875232" stroke-miterlimit="10"/>
<path d="M667.947 433.685C692.621 402.674 697.26 354.361 678.26 326.322L599.082 209.485C580.08 181.447 528.801 160.938 485.128 163.911L303.136 176.299C259.458 179.275 203.54 207.079 178.867 238.09L76.0531 367.313C51.38 398.324 46.7411 446.637 65.7406 474.675L144.919 591.513C163.921 619.551 215.2 640.06 258.873 637.087L440.865 624.699C484.537 621.726 540.458 593.922 565.131 562.911L667.947 433.685Z" stroke="url(#paint90_linear)" stroke-width="0.90697" stroke-miterlimit="10"/>
<path d="M671.803 451.703C698.599 420.465 705.906 369.934 688.039 339.414L613.587 212.229C595.72 181.708 544.561 157.321 499.897 158.038L313.784 161.025C269.12 161.741 210.654 187.886 183.86 219.123L72.1984 349.295C45.4019 380.532 38.095 431.063 55.9621 461.584L130.414 588.769C148.281 619.29 199.44 643.676 244.104 642.96L430.218 639.973C474.881 639.256 533.347 613.112 560.141 581.874L671.803 451.703Z" stroke="url(#paint91_linear)" stroke-width="0.939928" stroke-miterlimit="10"/>
<path d="M674.769 470.857C703.741 439.497 713.882 386.786 697.305 353.717L628.225 215.916C611.648 182.847 560.816 154.392 515.267 152.683L325.457 145.56C279.908 143.851 218.935 168.11 189.963 199.467L69.2304 330.143C40.2587 361.503 30.1178 414.214 46.6944 447.283L115.775 585.084C132.352 618.153 183.184 646.608 228.733 648.317L418.543 655.44C464.092 657.149 525.065 632.89 554.037 601.533L674.769 470.857Z" stroke="url(#paint92_linear)" stroke-width="0.974413" stroke-miterlimit="10"/>
<path d="M676.771 491.157C707.966 459.791 721.113 404.938 705.985 369.261L642.942 220.598C627.814 184.921 577.534 152.206 531.21 147.898L338.17 129.943C291.846 125.634 228.42 147.773 197.224 179.138L67.2268 309.847C36.0309 341.212 22.8844 396.065 38.0128 431.742L101.055 580.406C116.184 616.082 166.463 648.797 212.788 653.105L405.827 671.061C452.151 675.369 515.578 653.23 546.774 621.865L676.771 491.157Z" stroke="url(#paint93_linear)" stroke-width="1.00981" stroke-miterlimit="10"/>
<path d="M677.729 512.603C711.193 481.352 727.513 424.417 714.002 386.08L657.692 226.331C644.178 187.995 594.69 150.833 547.713 143.748L351.962 114.227C304.987 107.142 239.173 126.918 205.712 158.169L66.2713 288.4C32.8104 319.648 16.4869 376.583 30.0008 414.92L86.3108 574.669C99.8248 613.005 149.312 650.167 196.29 657.252L392.041 686.773C439.016 693.858 504.83 674.082 538.291 642.831L677.729 512.603Z" stroke="url(#paint94_linear)" stroke-width="1.04643" stroke-miterlimit="10"/>
<path d="M677.56 535.199C713.327 504.193 732.996 445.242 721.271 404.199L672.415 233.165C660.689 192.123 612.242 150.329 564.752 140.292L366.856 98.4651C319.366 88.4286 251.247 105.586 215.483 136.592L66.4399 265.798C30.6758 296.804 11.0038 355.756 22.7292 396.798L71.5852 567.832C83.3106 608.874 131.758 650.669 179.248 660.705L377.144 702.532C424.633 712.569 492.753 695.412 528.517 664.406L677.56 535.199Z" stroke="url(#paint95_linear)" stroke-width="1.08458" stroke-miterlimit="10"/>
<path d="M676.182 558.945C714.282 528.324 737.472 467.44 727.714 423.651L687.053 241.169C677.296 197.377 630.155 150.773 582.298 137.603L382.872 82.7223C335.015 69.552 264.685 83.8314 226.585 114.453L67.8174 242.055C29.7175 272.676 6.5282 333.56 16.2853 377.349L56.9469 559.831C66.704 603.623 113.845 650.227 161.702 663.397L361.128 718.278C408.985 731.448 479.315 717.168 517.415 686.547L676.182 558.945Z" stroke="url(#paint96_linear)" stroke-width="1.12395" stroke-miterlimit="10"/>
<path d="M673.511 583.831C713.969 553.743 740.847 491.023 733.241 444.451L701.544 250.385C693.938 203.814 648.389 152.225 600.323 135.742L400.034 67.0533C351.97 50.5693 279.54 61.7013 239.083 91.7888L70.4879 217.169C30.0304 247.257 3.15221 309.977 10.7586 356.549L42.4554 550.615C50.0618 597.186 95.6101 648.775 143.677 665.259L343.966 733.947C392.03 750.431 464.459 739.299 504.916 709.211L673.511 583.831Z" stroke="url(#paint97_linear)" stroke-width="1.16484" stroke-miterlimit="10"/>
<path d="M669.461 609.842C712.292 580.444 743.028 515.996 737.763 466.623L715.815 260.874C710.547 211.501 666.885 154.757 618.786 134.78L418.355 51.5315C370.256 31.554 295.858 39.2605 253.027 68.6586L74.5388 191.159C31.7073 220.554 0.971525 285.005 6.23663 334.378L28.1846 540.126C33.4524 589.499 77.1141 646.243 125.213 666.221L325.647 749.469C373.746 769.447 448.144 761.74 490.975 732.342L669.461 609.842Z" stroke="url(#paint98_linear)" stroke-width="1.20726" stroke-miterlimit="10"/>
<path d="M663.948 636.961C709.161 608.422 743.921 542.369 741.188 490.178L729.8 272.687C727.067 220.494 685.602 158.441 637.655 134.788L437.853 36.2245C389.906 12.5708 313.682 16.5712 268.468 45.1109L80.0517 164.039C34.8382 192.578 0.0786317 258.631 2.81191 310.822L14.1997 528.313C16.933 580.503 58.3977 642.559 106.345 666.212L306.146 764.776C354.093 788.429 430.317 784.429 475.531 755.889L663.948 636.961Z" stroke="url(#paint99_linear)" stroke-width="1.2512" stroke-miterlimit="10"/>
<path d="M656.881 665.163C704.476 637.656 743.42 570.137 743.42 515.124V285.871C743.42 230.857 704.476 163.338 656.881 135.831L458.541 21.2093C410.945 -6.29759 333.058 -6.29759 285.462 21.2093L87.1193 135.834C39.521 163.341 0.577148 230.86 0.577148 285.874V515.126C0.577148 570.14 39.521 637.659 87.1166 665.166L285.459 779.791C333.055 807.298 410.942 807.298 458.538 779.791L656.881 665.163Z" stroke="url(#paint100_linear)" stroke-width="1.29698" stroke-miterlimit="10"/>
</g>
<defs>
<linearGradient id="paint0_linear" x1="383.05" y1="393.93" x2="359.394" y2="403.12" gradientUnits="userSpaceOnUse">
<stop stop-color="#DA2EEF"/>
<stop offset="0.489658" stop-color="#2B6AFF"/>
<stop offset="1" stop-color="#39D0D8"/>
</linearGradient>
<linearGradient id="paint1_linear" x1="383.618" y1="393.747" x2="358.895" y2="403.572" gradientUnits="userSpaceOnUse">
<stop stop-color="#DA2EEF"/>
<stop offset="0.489658" stop-color="#2B6AFF"/>
<stop offset="1" stop-color="#39D0D8"/>
</linearGradient>
<linearGradient id="paint2_linear" x1="384.201" y1="393.57" x2="358.403" y2="404.061" gradientUnits="userSpaceOnUse">
<stop stop-color="#DA2EEF"/>
<stop offset="0.489658" stop-color="#2B6AFF"/>
<stop offset="1" stop-color="#39D0D8"/>
</linearGradient>
<linearGradient id="paint3_linear" x1="384.8" y1="393.4" x2="357.925" y2="404.592" gradientUnits="userSpaceOnUse">
<stop stop-color="#DA2EEF"/>
<stop offset="0.489658" stop-color="#2B6AFF"/>
<stop offset="1" stop-color="#39D0D8"/>
</linearGradient>
<linearGradient id="paint4_linear" x1="385.403" y1="393.245" x2="357.465" y2="405.163" gradientUnits="userSpaceOnUse">
<stop stop-color="#DA2EEF"/>
<stop offset="0.489658" stop-color="#2B6AFF"/>
<stop offset="1" stop-color="#39D0D8"/>
</linearGradient>
<linearGradient id="paint5_linear" x1="386.015" y1="393.092" x2="357.022" y2="405.761" gradientUnits="userSpaceOnUse">
<stop stop-color="#DA2EEF"/>
<stop offset="0.489658" stop-color="#2B6AFF"/>
<stop offset="1" stop-color="#39D0D8"/>
</linearGradient>
<linearGradient id="paint6_linear" x1="386.631" y1="392.957" x2="356.608" y2="406.402" gradientUnits="userSpaceOnUse">
<stop stop-color="#DA2EEF"/>
<stop offset="0.489658" stop-color="#2B6AFF"/>
<stop offset="1" stop-color="#39D0D8"/>
</linearGradient>
<linearGradient id="paint7_linear" x1="387.243" y1="392.831" x2="356.221" y2="407.071" gradientUnits="userSpaceOnUse">
<stop stop-color="#DA2EEF"/>
<stop offset="0.489658" stop-color="#2B6AFF"/>
<stop offset="1" stop-color="#39D0D8"/>
</linearGradient>
<linearGradient id="paint8_linear" x1="387.856" y1="392.718" x2="355.873" y2="407.771" gradientUnits="userSpaceOnUse">
<stop stop-color="#DA2EEF"/>
<stop offset="0.489658" stop-color="#2B6AFF"/>
<stop offset="1" stop-color="#39D0D8"/>
</linearGradient>
<linearGradient id="paint9_linear" x1="388.462" y1="392.624" x2="355.565" y2="408.506" gradientUnits="userSpaceOnUse">
<stop stop-color="#DA2EEF"/>
<stop offset="0.489658" stop-color="#2B6AFF"/>
<stop offset="1" stop-color="#39D0D8"/>
</linearGradient>
<linearGradient id="paint10_linear" x1="389.061" y1="392.546" x2="355.306" y2="409.265" gradientUnits="userSpaceOnUse">
<stop stop-color="#DA2EEF"/>
<stop offset="0.489658" stop-color="#2B6AFF"/>
<stop offset="1" stop-color="#39D0D8"/>
</linearGradient>
<linearGradient id="paint11_linear" x1="389.641" y1="392.484" x2="355.096" y2="410.045" gradientUnits="userSpaceOnUse">
<stop stop-color="#DA2EEF"/>
<stop offset="0.489658" stop-color="#2B6AFF"/>
<stop offset="1" stop-color="#39D0D8"/>
</linearGradient>
<linearGradient id="paint12_linear" x1="390.524" y1="392.384" x2="354.811" y2="411.213" gradientUnits="userSpaceOnUse">
<stop stop-color="#DA2EEF"/>
<stop offset="0.489658" stop-color="#2B6AFF"/>
<stop offset="1" stop-color="#39D0D8"/>
</linearGradient>
<linearGradient id="paint13_linear" x1="391.538" y1="392.096" x2="354.171" y2="412.165" gradientUnits="userSpaceOnUse">
<stop stop-color="#DA2EEF"/>
<stop offset="0.489658" stop-color="#2B6AFF"/>
<stop offset="1" stop-color="#39D0D8"/>
</linearGradient>
<linearGradient id="paint14_linear" x1="392.568" y1="391.812" x2="353.553" y2="413.143" gradientUnits="userSpaceOnUse">
<stop stop-color="#DA2EEF"/>
<stop offset="0.489658" stop-color="#2B6AFF"/>
<stop offset="1" stop-color="#39D0D8"/>
</linearGradient>
<linearGradient id="paint15_linear" x1="393.597" y1="391.527" x2="352.947" y2="414.132" gradientUnits="userSpaceOnUse">
<stop stop-color="#DA2EEF"/>
<stop offset="0.489658" stop-color="#2B6AFF"/>
<stop offset="1" stop-color="#39D0D8"/>
</linearGradient>
<linearGradient id="paint16_linear" x1="394.638" y1="391.248" x2="352.361" y2="415.142" gradientUnits="userSpaceOnUse">
<stop stop-color="#DA2EEF"/>
<stop offset="0.489658" stop-color="#2B6AFF"/>
<stop offset="1" stop-color="#39D0D8"/>
</linearGradient>
<linearGradient id="paint17_linear" x1="395.676" y1="390.97" x2="351.786" y2="416.153" gradientUnits="userSpaceOnUse">
<stop stop-color="#DA2EEF"/>
<stop offset="0.489658" stop-color="#2B6AFF"/>
<stop offset="1" stop-color="#39D0D8"/>
</linearGradient>
<linearGradient id="paint18_linear" x1="396.711" y1="390.692" x2="351.223" y2="417.161" gradientUnits="userSpaceOnUse">
<stop stop-color="#DA2EEF"/>
<stop offset="0.489658" stop-color="#2B6AFF"/>
<stop offset="1" stop-color="#39D0D8"/>
</linearGradient>
<linearGradient id="paint19_linear" x1="397.743" y1="390.409" x2="350.662" y2="418.154" gradientUnits="userSpaceOnUse">
<stop stop-color="#DA2EEF"/>
<stop offset="0.489658" stop-color="#2B6AFF"/>
<stop offset="1" stop-color="#39D0D8"/>
</linearGradient>
<linearGradient id="paint20_linear" x1="398.766" y1="390.127" x2="350.102" y2="419.135" gradientUnits="userSpaceOnUse">
<stop stop-color="#DA2EEF"/>
<stop offset="0.489658" stop-color="#2B6AFF"/>
<stop offset="1" stop-color="#39D0D8"/>
</linearGradient>
<linearGradient id="paint21_linear" x1="399.779" y1="389.84" x2="349.534" y2="420.085" gradientUnits="userSpaceOnUse">
<stop stop-color="#DA2EEF"/>
<stop offset="0.489658" stop-color="#2B6AFF"/>
<stop offset="1" stop-color="#39D0D8"/>
</linearGradient>
<linearGradient id="paint22_linear" x1="400.781" y1="389.547" x2="348.956" y2="421.001" gradientUnits="userSpaceOnUse">
<stop stop-color="#DA2EEF"/>
<stop offset="0.489658" stop-color="#2B6AFF"/>
<stop offset="1" stop-color="#39D0D8"/>
</linearGradient>
<linearGradient id="paint23_linear" x1="401.765" y1="389.252" x2="348.368" y2="421.883" gradientUnits="userSpaceOnUse">
<stop stop-color="#DA2EEF"/>
<stop offset="0.489658" stop-color="#2B6AFF"/>
<stop offset="1" stop-color="#39D0D8"/>
</linearGradient>
<linearGradient id="paint24_linear" x1="402.722" y1="388.95" x2="347.761" y2="422.712" gradientUnits="userSpaceOnUse">
<stop stop-color="#DA2EEF"/>
<stop offset="0.489658" stop-color="#2B6AFF"/>
<stop offset="1" stop-color="#39D0D8"/>
</linearGradient>
<linearGradient id="paint25_linear" x1="403.657" y1="388.644" x2="347.144" y2="423.496" gradientUnits="userSpaceOnUse">
<stop stop-color="#DA2EEF"/>
<stop offset="0.489658" stop-color="#2B6AFF"/>
<stop offset="1" stop-color="#39D0D8"/>
</linearGradient>
<linearGradient id="paint26_linear" x1="404.568" y1="388.338" x2="346.524" y2="424.235" gradientUnits="userSpaceOnUse">
<stop stop-color="#DA2EEF"/>
<stop offset="0.489658" stop-color="#2B6AFF"/>
<stop offset="1" stop-color="#39D0D8"/>
</linearGradient>
<linearGradient id="paint27_linear" x1="405.439" y1="388.035" x2="345.899" y2="424.925" gradientUnits="userSpaceOnUse">
<stop stop-color="#DA2EEF"/>
<stop offset="0.489658" stop-color="#2B6AFF"/>
<stop offset="1" stop-color="#39D0D8"/>
</linearGradient>
<linearGradient id="paint28_linear" x1="406.279" y1="387.738" x2="345.288" y2="425.572" gradientUnits="userSpaceOnUse">
<stop stop-color="#DA2EEF"/>
<stop offset="0.489658" stop-color="#2B6AFF"/>
<stop offset="1" stop-color="#39D0D8"/>
</linearGradient>
<linearGradient id="paint29_linear" x1="407.074" y1="387.168" x2="343.951" y2="425.518" gradientUnits="userSpaceOnUse">
<stop stop-color="#DA2EEF"/>
<stop offset="0.489658" stop-color="#2B6AFF"/>
<stop offset="1" stop-color="#39D0D8"/>
</linearGradient>
<linearGradient id="paint30_linear" x1="407.819" y1="386.319" x2="341.978" y2="424.738" gradientUnits="userSpaceOnUse">
<stop stop-color="#DA2EEF"/>
<stop offset="0.489658" stop-color="#2B6AFF"/>
<stop offset="1" stop-color="#39D0D8"/>
</linearGradient>
<linearGradient id="paint31_linear" x1="408.517" y1="385.451" x2="340.044" y2="423.821" gradientUnits="userSpaceOnUse">
<stop stop-color="#DA2EEF"/>
<stop offset="0.489658" stop-color="#2B6AFF"/>
<stop offset="1" stop-color="#39D0D8"/>
</linearGradient>
<linearGradient id="paint32_linear" x1="409.148" y1="384.547" x2="338.15" y2="422.731" gradientUnits="userSpaceOnUse">
<stop stop-color="#DA2EEF"/>
<stop offset="0.489658" stop-color="#2B6AFF"/>
<stop offset="1" stop-color="#39D0D8"/>
</linearGradient>
<linearGradient id="paint33_linear" x1="409.723" y1="383.61" x2="336.314" y2="421.48" gradientUnits="userSpaceOnUse">
<stop stop-color="#DA2EEF"/>
<stop offset="0.489658" stop-color="#2B6AFF"/>
<stop offset="1" stop-color="#39D0D8"/>
</linearGradient>
<linearGradient id="paint34_linear" x1="410.214" y1="382.647" x2="334.542" y2="420.055" gradientUnits="userSpaceOnUse">
<stop stop-color="#DA2EEF"/>
<stop offset="0.489658" stop-color="#2B6AFF"/>
<stop offset="1" stop-color="#39D0D8"/>
</linearGradient>
<linearGradient id="paint35_linear" x1="410.637" y1="381.646" x2="332.86" y2="418.456" gradientUnits="userSpaceOnUse">
<stop stop-color="#DA2EEF"/>
<stop offset="0.489658" stop-color="#2B6AFF"/>
<stop offset="1" stop-color="#39D0D8"/>
</linearGradient>
<linearGradient id="paint36_linear" x1="410.963" y1="380.616" x2="331.277" y2="416.681" gradientUnits="userSpaceOnUse">
<stop stop-color="#DA2EEF"/>
<stop offset="0.489658" stop-color="#2B6AFF"/>
<stop offset="1" stop-color="#39D0D8"/>
</linearGradient>
<linearGradient id="paint37_linear" x1="411.203" y1="379.553" x2="329.816" y2="414.732" gradientUnits="userSpaceOnUse">
<stop stop-color="#DA2EEF"/>
<stop offset="0.489658" stop-color="#2B6AFF"/>
<stop offset="1" stop-color="#39D0D8"/>
</linearGradient>
<linearGradient id="paint38_linear" x1="412.407" y1="378.459" x2="327.983" y2="414.203" gradientUnits="userSpaceOnUse">
<stop stop-color="#DA2EEF"/>
<stop offset="0.489658" stop-color="#2B6AFF"/>
<stop offset="1" stop-color="#39D0D8"/>
</linearGradient>
<linearGradient id="paint39_linear" x1="413.801" y1="377.339" x2="326.052" y2="413.915" gradientUnits="userSpaceOnUse">
<stop stop-color="#DA2EEF"/>
<stop offset="0.489658" stop-color="#2B6AFF"/>
<stop offset="1" stop-color="#39D0D8"/>
</linearGradient>
<linearGradient id="paint40_linear" x1="415.182" y1="376.195" x2="324.112" y2="413.565" gradientUnits="userSpaceOnUse">
<stop stop-color="#DA2EEF"/>
<stop offset="0.489658" stop-color="#2B6AFF"/>
<stop offset="1" stop-color="#39D0D8"/>
</linearGradient>
<linearGradient id="paint41_linear" x1="416.555" y1="375.028" x2="322.176" y2="413.16" gradientUnits="userSpaceOnUse">
<stop stop-color="#DA2EEF"/>
<stop offset="0.489658" stop-color="#2B6AFF"/>
<stop offset="1" stop-color="#39D0D8"/>
</linearGradient>
<linearGradient id="paint42_linear" x1="417.914" y1="373.851" x2="320.243" y2="412.716" gradientUnits="userSpaceOnUse">
<stop stop-color="#DA2EEF"/>
<stop offset="0.489658" stop-color="#2B6AFF"/>
<stop offset="1" stop-color="#39D0D8"/>
</linearGradient>
<linearGradient id="paint43_linear" x1="419.277" y1="372.661" x2="318.319" y2="412.258" gradientUnits="userSpaceOnUse">
<stop stop-color="#DA2EEF"/>
<stop offset="0.489658" stop-color="#2B6AFF"/>
<stop offset="1" stop-color="#39D0D8"/>
</linearGradient>
<linearGradient id="paint44_linear" x1="420.635" y1="371.468" x2="316.4" y2="411.8" gradientUnits="userSpaceOnUse">
<stop stop-color="#DA2EEF"/>
<stop offset="0.489658" stop-color="#2B6AFF"/>
<stop offset="1" stop-color="#39D0D8"/>
</linearGradient>
<linearGradient id="paint45_linear" x1="422.008" y1="370.274" x2="314.49" y2="411.363" gradientUnits="userSpaceOnUse">
<stop stop-color="#DA2EEF"/>
<stop offset="0.489658" stop-color="#2B6AFF"/>
<stop offset="1" stop-color="#39D0D8"/>
</linearGradient>
<linearGradient id="paint46_linear" x1="423.4" y1="369.095" x2="312.583" y2="410.984" gradientUnits="userSpaceOnUse">
<stop stop-color="#DA2EEF"/>
<stop offset="0.489658" stop-color="#2B6AFF"/>
<stop offset="1" stop-color="#39D0D8"/>
</linearGradient>
<linearGradient id="paint47_linear" x1="424.819" y1="367.926" x2="310.681" y2="410.674" gradientUnits="userSpaceOnUse">
<stop stop-color="#DA2EEF"/>
<stop offset="0.489658" stop-color="#2B6AFF"/>
<stop offset="1" stop-color="#39D0D8"/>
</linearGradient>
<linearGradient id="paint48_linear" x1="426.256" y1="366.781" x2="308.789" y2="410.438" gradientUnits="userSpaceOnUse">
<stop stop-color="#DA2EEF"/>
<stop offset="0.489658" stop-color="#2B6AFF"/>
<stop offset="1" stop-color="#39D0D8"/>
</linearGradient>
<linearGradient id="paint49_linear" x1="427.727" y1="365.443" x2="306.729" y2="409.866" gradientUnits="userSpaceOnUse">
<stop stop-color="#DA2EEF"/>
<stop offset="0.489658" stop-color="#2B6AFF"/>
<stop offset="1" stop-color="#39D0D8"/>
</linearGradient>
<linearGradient id="paint50_linear" x1="429.205" y1="363.478" x2="304.177" y2="408.098" gradientUnits="userSpaceOnUse">
<stop stop-color="#DA2EEF"/>
<stop offset="0.489658" stop-color="#2B6AFF"/>
<stop offset="1" stop-color="#39D0D8"/>
</linearGradient>
<linearGradient id="paint51_linear" x1="430.694" y1="361.495" x2="301.656" y2="406.343" gradientUnits="userSpaceOnUse">
<stop stop-color="#DA2EEF"/>
<stop offset="0.489658" stop-color="#2B6AFF"/>
<stop offset="1" stop-color="#39D0D8"/>
</linearGradient>
<linearGradient id="paint52_linear" x1="432.173" y1="359.498" x2="299.18" y2="404.576" gradientUnits="userSpaceOnUse">
<stop stop-color="#DA2EEF"/>
<stop offset="0.489658" stop-color="#2B6AFF"/>
<stop offset="1" stop-color="#39D0D8"/>
</linearGradient>
<linearGradient id="paint53_linear" x1="433.641" y1="357.487" x2="296.759" y2="402.793" gradientUnits="userSpaceOnUse">
<stop stop-color="#DA2EEF"/>
<stop offset="0.489658" stop-color="#2B6AFF"/>
<stop offset="1" stop-color="#39D0D8"/>
</linearGradient>
<linearGradient id="paint54_linear" x1="435.412" y1="355.475" x2="294.115" y2="401.437" gradientUnits="userSpaceOnUse">
<stop stop-color="#DA2EEF"/>
<stop offset="0.489658" stop-color="#2B6AFF"/>
<stop offset="1" stop-color="#39D0D8"/>
</linearGradient>
<linearGradient id="paint55_linear" x1="439.474" y1="353.463" x2="289.665" y2="403.096" gradientUnits="userSpaceOnUse">
<stop stop-color="#DA2EEF"/>
<stop offset="0.489658" stop-color="#2B6AFF"/>
<stop offset="1" stop-color="#39D0D8"/>
</linearGradient>
<linearGradient id="paint56_linear" x1="443.672" y1="351.457" x2="285.135" y2="404.97" gradientUnits="userSpaceOnUse">
<stop stop-color="#DA2EEF"/>
<stop offset="0.489658" stop-color="#2B6AFF"/>
<stop offset="1" stop-color="#39D0D8"/>
</linearGradient>
<linearGradient id="paint57_linear" x1="448.015" y1="349.464" x2="280.535" y2="407.079" gradientUnits="userSpaceOnUse">
<stop stop-color="#DA2EEF"/>
<stop offset="0.489658" stop-color="#2B6AFF"/>
<stop offset="1" stop-color="#39D0D8"/>
</linearGradient>
<linearGradient id="paint58_linear" x1="452.506" y1="347.488" x2="275.872" y2="409.444" gradientUnits="userSpaceOnUse">
<stop stop-color="#DA2EEF"/>
<stop offset="0.489658" stop-color="#2B6AFF"/>
<stop offset="1" stop-color="#39D0D8"/>
</linearGradient>
<linearGradient id="paint59_linear" x1="457.156" y1="345.539" x2="271.153" y2="412.1" gradientUnits="userSpaceOnUse">
<stop stop-color="#DA2EEF"/>
<stop offset="0.489658" stop-color="#2B6AFF"/>
<stop offset="1" stop-color="#39D0D8"/>
</linearGradient>
<linearGradient id="paint60_linear" x1="461.959" y1="343.619" x2="266.396" y2="415.054" gradientUnits="userSpaceOnUse">
<stop stop-color="#DA2EEF"/>
<stop offset="0.489658" stop-color="#2B6AFF"/>
<stop offset="1" stop-color="#39D0D8"/>
</linearGradient>
<linearGradient id="paint61_linear" x1="466.924" y1="341.738" x2="261.613" y2="418.34" gradientUnits="userSpaceOnUse">
<stop stop-color="#DA2EEF"/>
<stop offset="0.489658" stop-color="#2B6AFF"/>
<stop offset="1" stop-color="#39D0D8"/>
</linearGradient>
<linearGradient id="paint62_linear" x1="472.047" y1="339.903" x2="256.827" y2="421.969" gradientUnits="userSpaceOnUse">
<stop stop-color="#DA2EEF"/>
<stop offset="0.489658" stop-color="#2B6AFF"/>
<stop offset="1" stop-color="#39D0D8"/>
</linearGradient>
<linearGradient id="paint63_linear" x1="477.317" y1="338.116" x2="252.061" y2="425.95" gradientUnits="userSpaceOnUse">
<stop stop-color="#DA2EEF"/>
<stop offset="0.489658" stop-color="#2B6AFF"/>
<stop offset="1" stop-color="#39D0D8"/>
</linearGradient>
<linearGradient id="paint64_linear" x1="482.73" y1="336.394" x2="247.353" y2="430.295" gradientUnits="userSpaceOnUse">
<stop stop-color="#DA2EEF"/>
<stop offset="0.489658" stop-color="#2B6AFF"/>
<stop offset="1" stop-color="#39D0D8"/>
</linearGradient>
<linearGradient id="paint65_linear" x1="488.263" y1="334.736" x2="242.729" y2="434.995" gradientUnits="userSpaceOnUse">
<stop stop-color="#DA2EEF"/>
<stop offset="0.489658" stop-color="#2B6AFF"/>
<stop offset="1" stop-color="#39D0D8"/>
</linearGradient>
<linearGradient id="paint66_linear" x1="493.907" y1="333.156" x2="238.225" y2="440.058" gradientUnits="userSpaceOnUse">
<stop stop-color="#DA2EEF"/>
<stop offset="0.489658" stop-color="#2B6AFF"/>
<stop offset="1" stop-color="#39D0D8"/>
</linearGradient>
<linearGradient id="paint67_linear" x1="499.628" y1="331.666" x2="233.889" y2="445.467" gradientUnits="userSpaceOnUse">
<stop stop-color="#DA2EEF"/>
<stop offset="0.489658" stop-color="#2B6AFF"/>
<stop offset="1" stop-color="#39D0D8"/>
</linearGradient>
<linearGradient id="paint68_linear" x1="505.407" y1="330.273" x2="229.757" y2="451.216" gradientUnits="userSpaceOnUse">
<stop stop-color="#DA2EEF"/>
<stop offset="0.489658" stop-color="#2B6AFF"/>
<stop offset="1" stop-color="#39D0D8"/>
</linearGradient>
<linearGradient id="paint69_linear" x1="511.216" y1="328.99" x2="225.875" y2="457.295" gradientUnits="userSpaceOnUse">
<stop stop-color="#DA2EEF"/>
<stop offset="0.489658" stop-color="#2B6AFF"/>
<stop offset="1" stop-color="#39D0D8"/>
</linearGradient>
<linearGradient id="paint70_linear" x1="517.029" y1="327.828" x2="222.294" y2="463.682" gradientUnits="userSpaceOnUse">
<stop stop-color="#DA2EEF"/>
<stop offset="0.489658" stop-color="#2B6AFF"/>
<stop offset="1" stop-color="#39D0D8"/>
</linearGradient>
<linearGradient id="paint71_linear" x1="522.815" y1="326.801" x2="219.061" y2="470.368" gradientUnits="userSpaceOnUse">
<stop stop-color="#DA2EEF"/>
<stop offset="0.489658" stop-color="#2B6AFF"/>
<stop offset="1" stop-color="#39D0D8"/>
</linearGradient>
<linearGradient id="paint72_linear" x1="528.537" y1="325.922" x2="216.229" y2="477.325" gradientUnits="userSpaceOnUse">
<stop stop-color="#DA2EEF"/>
<stop offset="0.489658" stop-color="#2B6AFF"/>
<stop offset="1" stop-color="#39D0D8"/>
</linearGradient>
<linearGradient id="paint73_linear" x1="534.164" y1="325.206" x2="213.848" y2="484.541" gradientUnits="userSpaceOnUse">
<stop stop-color="#DA2EEF"/>
<stop offset="0.489658" stop-color="#2B6AFF"/>
<stop offset="1" stop-color="#39D0D8"/>
</linearGradient>
<linearGradient id="paint74_linear" x1="539.665" y1="324.665" x2="211.977" y2="491.997" gradientUnits="userSpaceOnUse">
<stop stop-color="#DA2EEF"/>
<stop offset="0.489658" stop-color="#2B6AFF"/>
<stop offset="1" stop-color="#39D0D8"/>
</linearGradient>
<linearGradient id="paint75_linear" x1="548.667" y1="323.352" x2="208.512" y2="503.264" gradientUnits="userSpaceOnUse">
<stop stop-color="#DA2EEF"/>
<stop offset="0.489658" stop-color="#2B6AFF"/>
<stop offset="1" stop-color="#39D0D8"/>
</linearGradient>
<linearGradient id="paint76_linear" x1="558.299" y1="320.63" x2="202.517" y2="512.303" gradientUnits="userSpaceOnUse">
<stop stop-color="#DA2EEF"/>
<stop offset="0.489658" stop-color="#2B6AFF"/>
<stop offset="1" stop-color="#39D0D8"/>
</linearGradient>
<linearGradient id="paint77_linear" x1="568.016" y1="317.938" x2="196.682" y2="521.56" gradientUnits="userSpaceOnUse">
<stop stop-color="#DA2EEF"/>
<stop offset="0.489658" stop-color="#2B6AFF"/>
<stop offset="1" stop-color="#39D0D8"/>
</linearGradient>
<linearGradient id="paint78_linear" x1="577.79" y1="315.272" x2="191.007" y2="530.97" gradientUnits="userSpaceOnUse">
<stop stop-color="#DA2EEF"/>
<stop offset="0.489658" stop-color="#2B6AFF"/>
<stop offset="1" stop-color="#39D0D8"/>
</linearGradient>
<linearGradient id="paint79_linear" x1="587.595" y1="312.623" x2="185.48" y2="540.481" gradientUnits="userSpaceOnUse">
<stop stop-color="#DA2EEF"/>
<stop offset="0.489658" stop-color="#2B6AFF"/>
<stop offset="1" stop-color="#39D0D8"/>
</linearGradient>
<linearGradient id="paint80_linear" x1="597.407" y1="309.987" x2="180.068" y2="550.029" gradientUnits="userSpaceOnUse">
<stop stop-color="#DA2EEF"/>
<stop offset="0.489658" stop-color="#2B6AFF"/>
<stop offset="1" stop-color="#39D0D8"/>
</linearGradient>
<linearGradient id="paint81_linear" x1="607.198" y1="307.353" x2="174.744" y2="559.55" gradientUnits="userSpaceOnUse">
<stop stop-color="#DA2EEF"/>
<stop offset="0.489658" stop-color="#2B6AFF"/>
<stop offset="1" stop-color="#39D0D8"/>
</linearGradient>
<linearGradient id="paint82_linear" x1="616.937" y1="304.699" x2="169.452" y2="568.949" gradientUnits="userSpaceOnUse">
<stop stop-color="#DA2EEF"/>
<stop offset="0.489658" stop-color="#2B6AFF"/>
<stop offset="1" stop-color="#39D0D8"/>
</linearGradient>
<linearGradient id="paint83_linear" x1="626.6" y1="302.018" x2="164.139" y2="578.154" gradientUnits="userSpaceOnUse">
<stop stop-color="#DA2EEF"/>
<stop offset="0.489658" stop-color="#2B6AFF"/>
<stop offset="1" stop-color="#39D0D8"/>
</linearGradient>
<linearGradient id="paint84_linear" x1="636.157" y1="299.297" x2="158.765" y2="587.089" gradientUnits="userSpaceOnUse">
<stop stop-color="#DA2EEF"/>
<stop offset="0.489658" stop-color="#2B6AFF"/>
<stop offset="1" stop-color="#39D0D8"/>
</linearGradient>
<linearGradient id="paint85_linear" x1="645.573" y1="296.52" x2="153.274" y2="595.681" gradientUnits="userSpaceOnUse">
<stop stop-color="#DA2EEF"/>
<stop offset="0.489658" stop-color="#2B6AFF"/>
<stop offset="1" stop-color="#39D0D8"/>
</linearGradient>
<linearGradient id="paint86_linear" x1="654.818" y1="293.7" x2="147.662" y2="603.886" gradientUnits="userSpaceOnUse">
<stop stop-color="#DA2EEF"/>
<stop offset="0.489658" stop-color="#2B6AFF"/>
<stop offset="1" stop-color="#39D0D8"/>
</linearGradient>
<linearGradient id="paint87_linear" x1="663.862" y1="290.837" x2="141.928" y2="611.673" gradientUnits="userSpaceOnUse">
<stop stop-color="#DA2EEF"/>
<stop offset="0.489658" stop-color="#2B6AFF"/>
<stop offset="1" stop-color="#39D0D8"/>
</linearGradient>
<linearGradient id="paint88_linear" x1="672.663" y1="287.958" x2="136.103" y2="619.032" gradientUnits="userSpaceOnUse">
<stop stop-color="#DA2EEF"/>
<stop offset="0.489658" stop-color="#2B6AFF"/>
<stop offset="1" stop-color="#39D0D8"/>
</linearGradient>
<linearGradient id="paint89_linear" x1="681.187" y1="285.072" x2="130.226" y2="625.937" gradientUnits="userSpaceOnUse">
<stop stop-color="#DA2EEF"/>
<stop offset="0.489658" stop-color="#2B6AFF"/>
<stop offset="1" stop-color="#39D0D8"/>
</linearGradient>
<linearGradient id="paint90_linear" x1="689.396" y1="282.217" x2="124.363" y2="632.408" gradientUnits="userSpaceOnUse">
<stop stop-color="#DA2EEF"/>
<stop offset="0.489658" stop-color="#2B6AFF"/>
<stop offset="1" stop-color="#39D0D8"/>
</linearGradient>
<linearGradient id="paint91_linear" x1="697.244" y1="279.42" x2="118.579" y2="638.437" gradientUnits="userSpaceOnUse">
<stop stop-color="#DA2EEF"/>
<stop offset="0.489658" stop-color="#2B6AFF"/>
<stop offset="1" stop-color="#39D0D8"/>
</linearGradient>
<linearGradient id="paint92_linear" x1="704.682" y1="273.155" x2="103.735" y2="635.759" gradientUnits="userSpaceOnUse">
<stop stop-color="#DA2EEF"/>
<stop offset="0.489658" stop-color="#2B6AFF"/>
<stop offset="1" stop-color="#39D0D8"/>
</linearGradient>
<linearGradient id="paint93_linear" x1="711.665" y1="265.132" x2="85.1427" y2="628.223" gradientUnits="userSpaceOnUse">
<stop stop-color="#DA2EEF"/>
<stop offset="0.489658" stop-color="#2B6AFF"/>
<stop offset="1" stop-color="#39D0D8"/>
</linearGradient>
<linearGradient id="paint94_linear" x1="718.137" y1="256.833" x2="66.9046" y2="619.22" gradientUnits="userSpaceOnUse">
<stop stop-color="#DA2EEF"/>
<stop offset="0.489658" stop-color="#2B6AFF"/>
<stop offset="1" stop-color="#39D0D8"/>
</linearGradient>
<linearGradient id="paint95_linear" x1="724.038" y1="248.248" x2="49.1022" y2="608.694" gradientUnits="userSpaceOnUse">
<stop stop-color="#DA2EEF"/>
<stop offset="0.489658" stop-color="#2B6AFF"/>
<stop offset="1" stop-color="#39D0D8"/>
</linearGradient>
<linearGradient id="paint96_linear" x1="729.311" y1="239.371" x2="31.849" y2="596.593" gradientUnits="userSpaceOnUse">
<stop stop-color="#DA2EEF"/>
<stop offset="0.489658" stop-color="#2B6AFF"/>
<stop offset="1" stop-color="#39D0D8"/>
</linearGradient>
<linearGradient id="paint97_linear" x1="733.887" y1="230.187" x2="15.2669" y2="582.86" gradientUnits="userSpaceOnUse">
<stop stop-color="#DA2EEF"/>
<stop offset="0.489658" stop-color="#2B6AFF"/>
<stop offset="1" stop-color="#39D0D8"/>
</linearGradient>
<linearGradient id="paint98_linear" x1="737.701" y1="220.697" x2="-0.495553" y2="567.472" gradientUnits="userSpaceOnUse">
<stop stop-color="#DA2EEF"/>
<stop offset="0.489658" stop-color="#2B6AFF"/>
<stop offset="1" stop-color="#39D0D8"/>
</linearGradient>
<linearGradient id="paint99_linear" x1="740.685" y1="210.899" x2="-15.2805" y2="550.416" gradientUnits="userSpaceOnUse">
<stop stop-color="#DA2EEF"/>
<stop offset="0.489658" stop-color="#2B6AFF"/>
<stop offset="1" stop-color="#39D0D8"/>
</linearGradient>
<linearGradient id="paint100_linear" x1="742.763" y1="200.803" x2="-28.9106" y2="531.709" gradientUnits="userSpaceOnUse">
<stop stop-color="#DA2EEF"/>
<stop offset="0.489658" stop-color="#2B6AFF"/>
<stop offset="1" stop-color="#39D0D8"/>
</linearGradient>
<clipPath id="clip0">
<rect width="744" height="801" fill="white"/>
</clipPath>
</defs>
</svg>
