<svg width="1320" height="506" viewBox="0 0 1320 506" fill="none" xmlns="http://www.w3.org/2000/svg">
<path d="M-115.319 -31.7557C-94.1862 -31.8799 -75.1504 -30.8179 -57.3609 -29.2901C-39.579 -27.7561 -23.0357 -25.7563 -6.94079 -23.9801C9.15414 -22.2039 24.8159 -20.6636 40.6297 -20.055C54.5436 -19.5209 68.4804 -19.3159 82.6907 -19.2849C96.9011 -19.2476 111.393 -19.3842 126.462 -19.5271C141.531 -19.6699 157.17 -19.819 173.713 -19.819C185.552 -19.819 198.129 -20.2848 211.298 -20.2972C224.467 -20.3096 238.488 -19.8687 251.877 -18.0552C266.589 -16.0616 280.982 -12.9252 295.337 -9.63364C309.691 -6.34204 324.001 -2.88896 338.538 -0.268093C352.991 2.34035 367.908 4.18492 382.711 4.21597C397.514 4.24081 412.211 2.45835 426.239 -2.19959C440.715 -7.00037 452.593 -14.4593 463.847 -23.1603C472.601 -29.9236 482.602 -35.6994 493.81 -39.3947C507.261 -43.8291 521.144 -44.9097 535.195 -44.2514C549.246 -43.5931 563.456 -41.202 577.553 -38.7054C591.649 -36.2087 605.631 -33.6065 619.219 -32.5196C630.518 -31.6191 642.001 -31.3831 653.491 -31.4763C664.98 -31.5694 676.478 -31.9855 687.808 -32.3954C697.93 -32.7556 708.037 -33.3332 718.113 -34.1841C728.19 -35.0287 738.228 -36.1528 748.206 -37.5937C759.939 -39.2891 771.566 -41.407 783.093 -43.8477C794.621 -46.2885 806.05 -49.0522 817.381 -52.0395C832.336 -55.977 848.013 -58.1507 863.834 -59.4487C879.663 -60.7467 895.644 -61.169 911.23 -61.5976C924.619 -61.9702 938.017 -62.1565 951.421 -62.231C964.819 -62.3056 978.223 -62.2745 991.621 -62.2124C1005.02 -62.1503 1018.42 -62.0509 1031.82 -62.0012C1049.23 -61.9329 1066.52 -61.9019 1081.69 -62.2869C1094.65 -62.6161 1106.79 -64.442 1117.84 -63.1005C1135.94 -60.902 1147.65 -49.6857 1159.34 -35.2958C1170.24 -21.8809 1181.81 -7.18046 1197.63 -0.969882C1207.98 3.09805 1218.83 3.81847 1229.15 2.78752C1239.47 1.75656 1249.29 -1.03198 1258.11 -3.99443C1267.8 -7.25498 1277.16 -11.3353 1286.98 -15.3784C1296.81 -19.4215 1307.12 -23.4273 1318.92 -26.5264C1330.89 -29.669 1344.35 -31.6439 1360.09 -31.7681" stroke="url(#paint0_linear)" stroke-width="2" stroke-miterlimit="10" stroke-linecap="round" stroke-dasharray="0.1 20"/>
<path d="M-119.096 -18.3279C-97.6515 -18.2782 -78.4485 -16.8001 -60.4918 -14.7382C-42.5351 -12.6762 -25.8095 -10.043 -9.40299 -7.68295C7.0035 -5.32293 23.0908 -3.24859 39.4973 -2.30458C50.4932 -1.6711 61.6107 -1.55309 72.8422 -1.58415C84.0813 -1.62141 95.442 -1.81395 107 -1.81395C117.875 -1.81395 128.977 -1.81395 140.414 -1.81395C151.858 -1.81395 163.636 -1.81395 175.886 -1.81395C187.938 -1.81395 200.667 -2.23626 213.95 -2.26111C227.233 -2.28595 241.246 -1.91331 254.697 -0.317195C269.439 1.43419 283.923 4.22272 298.384 7.13548C312.845 10.0482 327.268 13.0852 341.896 15.3148C356.251 17.5009 371.062 18.9853 385.713 18.712C400.364 18.445 414.856 16.4203 428.58 11.6133C442.6 6.70074 453.907 -0.758156 464.652 -9.44676C473.353 -16.4833 483.354 -22.5946 494.669 -26.5196C508.021 -31.1465 521.813 -32.2458 535.773 -31.5316C549.732 -30.8111 563.859 -28.2772 577.864 -25.6377C591.869 -22.9982 605.76 -20.2532 619.249 -19.1166C630.579 -18.1602 642.122 -17.8993 653.673 -17.9304C665.223 -17.9614 676.789 -18.2782 688.165 -18.4831C698.424 -18.6695 708.683 -19.0545 718.911 -19.7501C729.132 -20.4457 739.322 -21.4642 749.444 -22.9113C761.504 -24.6378 773.405 -26.9482 785.145 -29.7367C796.886 -32.5253 808.459 -35.7796 819.873 -39.3879C834.387 -43.9776 849.768 -46.5363 865.369 -48.0331C880.97 -49.5298 896.784 -49.9646 912.18 -50.3061C931.968 -50.7471 951.756 -50.6539 971.551 -50.3434C991.34 -50.0267 1011.13 -49.4926 1030.91 -49.0578C1048.11 -48.679 1065.2 -48.3188 1080.28 -48.4243C1093.09 -48.5113 1105.17 -50.1881 1116.22 -48.679C1134.38 -46.1947 1146.29 -34.612 1158.3 -20.3091C1169.62 -6.82589 1181.74 7.84971 1198.16 13.9299C1208.99 17.9419 1220.3 18.4946 1231 17.2898C1241.7 16.0849 1251.81 13.1225 1260.83 10.1042C1270.96 6.71319 1280.69 2.53345 1290.84 -1.59658C1301 -5.72041 1311.58 -9.79454 1323.65 -12.9619C1335.76 -16.1417 1349.36 -18.185 1365.33 -18.3403" stroke="url(#paint1_linear)" stroke-width="2" stroke-miterlimit="10" stroke-linecap="round" stroke-dasharray="0.1 20"/>
<path d="M-123.409 -4.90181C-101.622 -4.67201 -82.2443 -2.75295 -64.09 -0.15693C-45.9433 2.43909 -29.0125 5.71205 -12.2641 8.66207C4.47676 11.6121 21.0504 14.233 38.1028 15.5186C49.3571 16.3694 60.8166 16.5557 72.4128 16.5309C84.0091 16.506 95.7421 16.27 107.627 16.27C118.798 16.27 130.189 16.27 141.892 16.27C153.602 16.27 165.631 16.27 178.094 16.27C190.381 16.27 203.27 15.8912 216.69 15.8539C230.102 15.8166 244.077 16.1209 257.58 17.4935C272.353 18.9964 286.936 21.4434 301.496 23.9711C316.056 26.4989 330.6 29.1135 345.312 30.9394C359.56 32.7094 374.265 33.8273 388.756 33.2497C403.255 32.6783 417.542 30.4177 430.962 25.4431C444.526 20.4125 455.226 12.9349 465.492 4.27119C474.147 -3.03865 484.133 -9.48522 495.562 -13.6401C508.815 -18.4595 522.516 -19.5836 536.392 -18.8073C550.26 -18.031 564.296 -15.3542 578.21 -12.5719C592.124 -9.78953 605.924 -6.90782 619.321 -5.7216C630.697 -4.70928 642.285 -4.42359 653.897 -4.38633C665.508 -4.34906 677.135 -4.57265 688.572 -4.58507C698.975 -4.5975 709.386 -4.79001 719.758 -5.33654C730.131 -5.88928 740.474 -6.79604 750.74 -8.24931C763.149 -10.0069 775.338 -12.5222 787.292 -15.6585C799.245 -18.7949 810.97 -22.546 822.438 -26.7568C836.541 -31.9364 851.595 -34.874 866.93 -36.5819C882.273 -38.2898 897.897 -38.768 913.163 -39.0227C932.648 -39.3518 952.132 -39.0165 971.608 -38.4078C991.085 -37.7992 1010.55 -36.9049 1030 -36.1037C1046.98 -35.4081 1063.9 -34.7188 1078.92 -34.5387C1091.61 -34.3834 1103.68 -35.936 1114.71 -34.2343C1132.98 -31.4209 1145.08 -19.5339 1157.37 -5.29307C1169.06 8.2584 1181.67 22.9153 1198.68 28.865C1210 32.8274 1221.79 33.2063 1232.9 31.8275C1244.01 30.4488 1254.45 27.3124 1263.71 24.2444C1274.36 20.723 1284.53 16.4377 1295.08 12.2269C1305.63 8.01615 1316.55 3.87993 1328.95 0.638013C1341.27 -2.57906 1355.05 -4.69065 1371.28 -4.88939" stroke="url(#paint2_linear)" stroke-width="2" stroke-miterlimit="10" stroke-linecap="round" stroke-dasharray="0.1 20"/>
<path d="M-128.164 8.51907C-106.02 8.91655 -86.4445 11.2455 -68.0926 14.357C-49.7331 17.4685 -32.5743 21.3564 -15.4611 24.8715C1.65206 28.3867 18.7349 31.5293 36.4712 33.1502C47.999 34.1998 59.8233 34.4483 71.7919 34.4358C83.7605 34.4234 95.8734 34.1439 108.093 34.1439C119.575 34.1439 131.255 34.1439 143.239 34.1439C155.223 34.1439 167.503 34.1439 180.186 34.1439C192.709 34.1439 205.772 33.8086 219.321 33.7589C232.87 33.7092 246.761 33.9514 260.311 35.1066C275.137 36.3735 289.81 38.4851 304.477 40.6402C319.143 42.7953 333.802 44.9938 348.605 46.4347C362.739 47.8072 377.337 48.5711 391.684 47.7079C406.031 46.8446 420.128 44.3541 433.251 39.218C445.645 34.3675 455.205 26.7285 464.78 19.1267C474.355 11.5188 483.937 3.9481 496.377 -0.790569C509.539 -5.80251 523.156 -6.94524 536.941 -6.10682C550.718 -5.26839 564.67 -2.4488 578.493 0.47638C592.316 3.40156 606.025 6.41989 619.331 7.66201C630.745 8.73022 642.386 9.047 654.051 9.15258C665.716 9.25195 677.396 9.13395 688.885 9.32027C699.418 9.48795 709.965 9.49415 720.482 9.09046C731 8.69298 741.486 7.8856 751.897 6.43232C764.656 4.64989 777.134 1.91725 789.3 -1.5731C801.466 -5.05723 813.321 -9.29905 824.834 -14.0936C838.58 -19.8198 853.277 -23.1486 868.338 -25.0801C883.4 -27.0178 898.826 -27.5644 914.039 -27.7321C933.242 -27.9494 952.43 -27.3843 971.603 -26.4837C990.775 -25.577 1009.93 -24.3349 1029.06 -23.1797C1045.84 -22.1674 1062.6 -21.1613 1077.61 -20.7017C1090.2 -20.3166 1102.28 -21.7016 1113.35 -19.8508C1131.74 -16.7704 1144.06 -4.47963 1156.55 9.64944C1162.57 16.4562 1168.78 23.5176 1175.75 29.6102C1182.71 35.6966 1190.43 40.8141 1199.22 43.7207C1211.02 47.6209 1223.3 47.8258 1234.84 46.2794C1246.38 44.7268 1257.19 41.4227 1266.74 38.3112C1277.94 34.6594 1288.62 30.281 1299.62 25.9894C1310.61 21.6979 1321.94 17.4934 1334.72 14.1955C1347.3 10.9474 1361.29 8.76753 1377.79 8.53774" stroke="url(#paint3_linear)" stroke-width="2" stroke-miterlimit="10" stroke-linecap="round" stroke-dasharray="0.1 20"/>
<path d="M-133.269 21.9468C-110.753 22.4623 -90.98 25.1515 -72.3926 28.7288C-53.8127 32.3061 -36.3956 36.7591 -18.8872 40.796C-1.37885 44.8328 16.2435 48.4536 34.6789 50.354C46.4956 51.5713 58.6845 51.8694 71.0255 51.857C83.3589 51.8508 95.8518 51.534 108.406 51.534C120.192 51.534 132.168 51.534 144.418 51.534C156.667 51.534 169.191 51.534 182.087 51.534C194.845 51.534 208.075 51.2421 221.754 51.1862C235.432 51.1303 249.217 51.3229 262.804 52.2917C277.699 53.3537 292.486 55.161 307.267 56.9683C322.055 58.7818 336.835 60.589 351.737 61.6573C365.757 62.6634 380.264 63.1105 394.474 61.9802C408.685 60.8561 422.606 58.1545 435.464 52.8693C447.66 47.8574 456.939 40.0818 466.24 32.3434C475.541 24.605 484.873 16.8976 497.169 12.0161C510.254 6.81787 523.788 5.65651 537.489 6.56325C551.191 7.47 565.051 10.4386 578.791 13.5067C592.53 16.5747 606.155 19.7421 619.377 21.0401C631.316 22.2139 643.33 21.8537 655.329 22.1269C666.614 22.3816 677.891 22.8722 689.175 23.2511C699.822 23.6051 710.491 23.81 721.137 23.5678C731.784 23.3256 742.4 22.63 752.939 21.1767C766.056 19.3694 778.807 16.4194 791.163 12.5875C803.519 8.74938 815.48 4.02933 827.008 -1.32419C840.458 -7.57203 854.798 -11.2922 869.578 -13.4783C884.366 -15.6644 899.602 -16.3103 914.854 -16.4035C933.806 -16.5215 952.728 -15.7389 971.627 -14.5527C990.526 -13.3665 1009.39 -11.7828 1028.22 -10.2861C1044.83 -8.96942 1061.47 -7.65277 1076.5 -6.92613C1089.03 -6.32371 1101.15 -7.57824 1112.28 -5.55359C1131.38 -2.07567 1143.05 11.0597 1155.69 24.7602C1168.33 38.4608 1181.67 52.714 1199.97 58.434C1212.22 62.2597 1224.98 62.297 1236.96 60.5891C1248.94 58.8812 1260.14 55.4281 1270.01 52.2669C1281.81 48.4909 1293.05 44.0254 1304.54 39.6656C1316.04 35.3058 1327.81 31.0516 1341 27.6916C1353.87 24.4187 1368.1 22.1891 1384.87 21.9344" stroke="url(#paint4_linear)" stroke-width="2" stroke-miterlimit="10" stroke-linecap="round" stroke-dasharray="0.1 20"/>
<path d="M-138.65 35.3741C-115.769 35.9206 -95.7686 38.9017 -76.938 42.864C-58.1074 46.8264 -40.4166 51.7762 -22.4979 56.2603C-4.57922 60.7443 13.5827 64.7625 32.7096 66.8741C44.8226 68.2094 57.3611 68.5323 70.0441 68.5199C82.7346 68.5075 95.5695 68.1659 108.427 68.1659C120.502 68.1659 132.752 68.1659 145.253 68.1659C157.753 68.1659 170.504 68.1659 183.59 68.1659C196.569 68.1659 210.012 67.9113 223.751 67.8616C237.491 67.8119 251.222 67.9672 264.855 68.787C279.856 69.6875 294.773 71.234 309.69 72.7431C324.607 74.2523 339.539 75.718 354.555 76.457C368.461 77.1402 382.884 77.3203 396.988 75.9788C411.092 74.6373 424.87 71.7681 437.484 66.3649C449.491 61.2225 458.503 53.3351 467.554 45.4787C476.604 37.6223 485.693 29.797 497.844 24.785C510.869 19.4067 524.334 18.2391 537.96 19.2141C551.585 20.1892 565.37 23.3131 579.033 26.5364C592.696 29.7597 606.245 33.0762 619.392 34.4301C631.33 35.666 643.344 35.2685 655.343 35.6411C666.681 35.9951 678.004 36.6658 689.326 37.2496C700.056 37.8024 710.824 38.2247 721.569 38.1502C732.314 38.0757 743.044 37.5043 753.698 36.0635C767.149 34.2438 780.151 31.0826 792.674 26.9029C805.198 22.7231 817.235 17.5311 828.747 11.6559C841.954 4.9112 855.944 0.768726 870.474 -1.69066C885.003 -4.15005 900.08 -4.93259 915.453 -4.96364C934.2 -5.0009 952.909 -4.01341 971.58 -2.56635C990.251 -1.11928 1008.88 0.787372 1027.46 2.59465C1043.92 4.19698 1060.49 5.81171 1075.6 6.76814C1088.11 7.5631 1100.3 6.42658 1111.5 8.62513C1124.32 11.1404 1133.78 17.8913 1142.63 26.1886C1151.48 34.4859 1159.67 44.3297 1168.91 53.0245C1178.14 61.7193 1188.44 69.259 1201 72.9543C1213.03 76.4943 1225.09 75.836 1236.22 74.5069C1249.4 72.9356 1261.73 69.7807 1273.5 66.104C1285.91 62.2286 1297.72 57.6949 1309.74 53.2792C1321.77 48.8634 1334.01 44.5719 1347.65 41.1748C1360.81 37.8956 1375.29 35.6287 1392.31 35.3679" stroke="url(#paint5_linear)" stroke-width="2" stroke-miterlimit="10" stroke-linecap="round" stroke-dasharray="0.1 20"/>
<path d="M-144.208 48.7954C-126.784 49.1431 -111.046 51.0063 -96.2125 53.7141C-81.379 56.4219 -67.4347 59.962 -53.6727 63.6697C-39.9107 67.3774 -26.3311 71.2466 -12.4247 74.6003C1.48166 77.954 15.7148 80.7985 30.5331 82.4505C42.9272 83.8355 55.7925 84.1522 68.7946 84.1273C81.7967 84.1025 94.9432 83.736 108.074 83.736C120.415 83.736 132.908 83.736 145.629 83.736C158.35 83.736 171.299 83.736 184.552 83.736C197.729 83.736 211.384 83.5187 225.139 83.4814C238.893 83.4441 252.64 83.5932 266.311 84.3198C281.448 85.1272 296.525 86.4749 311.609 87.7357C326.693 88.9964 341.793 90.1764 356.953 90.6484C370.753 91.077 385.115 91.0521 399.136 89.5492C413.156 88.0462 426.834 85.0713 439.266 79.5998C451.121 74.3829 459.898 66.4147 468.705 58.4652C477.513 50.5157 486.373 42.591 498.395 37.4611C511.382 31.915 524.794 30.735 538.366 31.7908C551.931 32.8466 565.655 36.1382 579.25 39.5168C592.852 42.8953 606.333 46.3733 619.426 47.7955C631.342 49.0935 643.356 48.6712 655.34 49.1618C666.7 49.6276 678.031 50.4971 689.361 51.2982C700.144 52.0621 710.965 52.7142 721.771 52.826C732.585 52.9378 743.383 52.5031 754.12 51.0871C767.882 49.2736 781.105 45.9013 793.757 41.3924C806.402 36.8835 818.477 31.2319 829.929 24.8598C841.769 18.2766 853.296 13.3454 867.317 10.5507C883.138 7.3957 899.59 6.55107 915.83 6.55728C934.44 6.56971 952.997 7.73728 971.493 9.42035C989.997 11.1034 1008.44 13.3082 1026.83 15.3949C1043.23 17.2581 1059.76 19.1399 1074.99 20.3075C1087.52 21.2701 1099.83 20.2205 1111.15 22.5867C1124.08 25.2883 1133.7 32.1697 1142.73 40.5477C1151.77 48.9258 1160.14 58.7944 1169.59 67.4644C1179.04 76.1343 1189.58 83.5994 1202.5 87.1705C1214.83 90.5801 1227.2 89.8038 1238.62 88.3878C1252.28 86.6923 1265.06 83.4442 1277.29 79.724C1290.3 75.7679 1302.69 71.1845 1315.25 66.7377C1327.81 62.2909 1340.54 57.987 1354.61 54.5774C1368.08 51.3106 1382.79 49.0376 1400 48.7954" stroke="url(#paint6_linear)" stroke-width="2" stroke-miterlimit="10" stroke-linecap="round" stroke-dasharray="0.1 20"/>
<path d="M-149.863 62.2225C-132.195 62.3902 -116.268 64.2347 -101.237 67.0046C-86.2055 69.7746 -72.0712 73.4761 -58.0736 77.3515C-44.0836 81.2331 -30.2228 85.2886 -15.9897 88.7852C-1.75656 92.2817 12.8489 95.2131 28.0851 96.8278C40.7529 98.1755 53.8917 98.4612 67.1674 98.4053C80.4354 98.3556 93.8403 97.9644 107.184 97.9644C119.753 97.9644 132.451 97.9644 145.362 97.9644C158.273 97.9644 171.389 97.9644 184.771 97.9644C198.123 97.9644 211.946 97.7781 225.723 97.7719C239.5 97.7656 253.277 97.9333 266.994 98.6413C282.306 99.4301 297.58 100.654 312.869 101.747C328.159 102.84 343.448 103.802 358.806 104.076C372.507 104.318 386.832 104.169 400.799 102.585C414.774 101.001 428.399 97.9954 440.709 92.5177C452.45 87.2946 461.022 79.2892 469.624 71.2775C478.226 63.2659 486.866 55.2543 498.744 50.025C511.715 44.3112 525.098 43.1436 538.624 44.2926C552.15 45.4415 565.821 48.9071 579.37 52.4595C592.92 56.012 606.355 59.6514 619.403 61.1543C631.288 62.5206 643.279 62.0859 655.232 62.7132C666.57 63.3094 677.863 64.3962 689.147 65.4396C699.923 66.4333 710.751 67.34 721.588 67.6506C732.417 67.9611 743.253 67.6816 754.044 66.3091C768.079 64.5266 781.476 60.9555 794.205 56.1237C806.933 51.2919 818.993 45.2056 830.339 38.3801C842.102 31.3063 853.379 25.7664 867.62 22.6115C883.274 19.146 899.673 18.202 915.829 18.2268C934.378 18.2516 952.859 19.562 971.272 21.4501C989.685 23.3381 1008.03 25.8037 1026.3 28.1389C1042.7 30.2318 1059.27 32.3496 1074.7 33.6911C1087.3 34.7842 1099.78 33.7967 1111.25 36.3182C1124.3 39.1937 1134.11 46.193 1143.35 54.6394C1152.58 63.0796 1161.17 72.9606 1170.85 81.5871C1180.53 90.2136 1191.33 97.5856 1204.62 101.02C1217.19 104.262 1229.84 103.411 1241.52 101.921C1255.58 100.126 1268.78 96.8217 1281.41 93.0829C1294.99 89.0709 1307.94 84.4688 1321.01 80.022C1334.09 75.5752 1347.31 71.2838 1361.8 67.8866C1375.54 64.6633 1390.45 62.4088 1407.8 62.2225" stroke="url(#paint7_linear)" stroke-width="2" stroke-miterlimit="10" stroke-linecap="round" stroke-dasharray="0.1 20"/>
<path d="M-155.525 75.6492C-137.895 76.0095 -121.831 77.8726 -106.564 80.5804C-91.3053 83.282 -76.829 86.822 -62.4819 90.5297C-48.1347 94.2375 -33.8864 98.1005 -19.2961 101.46C-4.70582 104.82 10.234 107.665 25.7438 109.329C38.6851 110.72 52.0747 111.043 65.5784 111.13C79.082 111.217 92.7072 111.056 106.287 111.478C119.038 111.875 131.926 112.323 145.019 112.683C158.113 113.037 171.404 113.304 184.945 113.316C198.327 113.329 212.12 112.677 225.737 112.074C239.355 111.472 252.972 110.919 266.598 111.143C281.682 111.385 296.728 112.174 311.782 112.944C326.836 113.714 341.89 114.465 356.974 114.633C370.683 114.782 384.893 114.621 398.83 113.186C412.767 111.751 426.422 109.05 439.014 104.125C450.823 99.504 459.805 92.1569 468.795 84.785C477.785 77.413 486.759 70.0225 498.545 65.3024C511.502 60.1166 524.755 59.098 538.122 60.1725C551.488 61.2469 564.969 64.4143 578.366 67.6003C591.771 70.7863 605.093 73.991 618.155 75.14C629.98 76.1771 641.834 75.4319 653.689 75.848C665.179 76.2454 676.615 77.2392 688.052 78.2328C699.192 79.2079 710.393 80.1581 721.594 80.5618C732.796 80.9593 744.004 80.804 755.183 79.5557C769.15 77.9906 782.501 74.6804 795.139 70.0162C807.776 65.3521 819.699 59.3341 830.809 52.3534C842.306 45.1367 853.538 39.6962 867.687 36.6406C883.182 33.2869 899.421 32.5354 915.387 32.7466C933.777 32.995 952.068 34.529 970.298 36.5847C988.521 38.6342 1006.68 41.1992 1024.81 43.4971C1041.21 45.5776 1057.9 47.5712 1073.6 48.509C1086.41 49.2791 1098.96 47.6955 1110.72 50.0182C1124.04 52.6453 1134.32 59.3403 1144.04 67.5072C1153.76 75.6741 1162.85 85.3067 1172.95 93.8027C1183.05 102.299 1194.17 109.652 1207.61 113.26C1220.57 116.738 1233.18 115.894 1245.3 114.347C1259.7 112.509 1273.3 109.298 1286.38 105.677C1300.37 101.814 1313.76 97.4048 1327.25 93.1382C1340.74 88.8715 1354.33 84.7477 1369.05 81.4499C1383.13 78.2949 1398.26 76.0405 1415.61 75.6492" stroke="url(#paint8_linear)" stroke-width="2" stroke-miterlimit="10" stroke-linecap="round" stroke-dasharray="0.1 20"/>
<path d="M-161.107 89.0774C-143.469 89.5121 -127.207 91.2946 -111.652 93.8285C-96.0965 96.3562 -81.2327 99.6292 -66.4676 103.051C-51.7025 106.473 -37.0286 110.038 -22.0508 113.15C-7.07293 116.261 8.20888 118.919 23.9846 120.515C37.5491 121.894 51.3642 121.565 65.2782 121.913C78.7134 122.248 92.1563 123.062 105.743 124.006C118.632 124.9 131.656 125.906 144.894 126.726C158.132 127.546 171.567 128.173 185.253 128.303C198.62 128.428 212.427 128.067 225.87 126.9C239.343 125.732 252.475 123.875 266.054 123.546C280.789 123.186 295.524 123.503 310.251 123.913C324.985 124.322 339.713 124.838 354.447 124.869C368.095 124.9 382.146 124.689 395.969 123.372C409.792 122.056 423.402 119.64 436.153 115.243C447.924 111.187 457.256 104.529 466.565 97.8467C475.873 91.158 485.16 84.4443 496.847 80.2646C509.705 75.675 522.76 74.8676 535.899 75.9234C549.03 76.9792 562.237 79.8982 575.407 82.7612C588.576 85.6243 601.692 88.4253 614.656 89.2451C626.457 89.9966 638.228 88.9656 650.037 89.2016C661.839 89.4438 673.595 90.3816 685.328 91.3753C697 92.369 708.725 93.4186 720.466 93.9527C732.207 94.4868 743.955 94.4993 755.688 93.4248C769.701 92.1392 783.151 89.1706 795.857 84.7486C808.562 80.3267 820.524 74.4453 831.573 67.328C842.797 60.0926 853.8 54.6956 867.783 51.7332C882.996 48.5099 898.939 47.9509 914.585 48.3608C932.679 48.8328 950.651 50.6029 968.554 52.82C986.458 55.0372 1004.3 57.6954 1022.14 59.9436C1038.44 61.9993 1055.09 63.85 1070.98 64.3841C1084.05 64.8189 1096.69 62.6389 1108.83 64.5083C1122.51 66.6137 1133.46 72.7622 1143.89 80.4261C1154.31 88.0899 1164.18 97.2568 1174.9 105.399C1185.62 113.541 1197.22 120.658 1210.81 124.204C1224.09 127.67 1236.77 126.887 1249.3 125.378C1263.93 123.614 1277.88 120.609 1291.36 117.224C1305.68 113.622 1319.49 109.523 1333.37 105.554C1347.26 101.586 1361.22 97.7474 1376.16 94.6669C1390.59 91.6921 1405.98 89.5494 1423.33 89.0836" stroke="url(#paint9_linear)" stroke-width="2" stroke-miterlimit="10" stroke-linecap="round" stroke-dasharray="0.1 20"/>
<path d="M-166.522 102.498C-148.831 102.914 -132.326 104.523 -116.436 106.789C-100.546 109.056 -85.2495 111.981 -70.0436 115.037C-54.8378 118.093 -39.7156 121.273 -24.3426 124.055C-8.96958 126.837 6.6542 129.216 22.6959 130.663C36.4807 131.905 50.5239 131.539 64.5594 132.197C78.1922 132.83 91.7718 134.197 105.488 135.737C118.468 137.196 131.591 138.842 144.943 140.202C158.287 141.562 171.851 142.637 185.667 142.954C199.026 143.258 212.826 142.836 226.109 141.202C239.316 139.581 252.03 136.818 265.396 135.892C279.69 134.899 294.037 134.712 308.385 134.737C322.732 134.762 337.094 135.01 351.418 134.88C364.952 134.762 378.783 134.482 392.446 133.259C406.102 132.035 419.59 129.874 432.417 125.993C443.877 122.521 453.49 117.546 462.654 111.006C471.956 104.367 482.359 98.5232 493.947 94.9086C512.991 88.9713 532.262 90.6979 551.564 94.1137C570.866 97.5295 590.19 102.622 609.347 103.423C621.156 103.914 632.889 102.635 644.691 102.746C656.925 102.864 669.13 103.79 681.288 104.833C693.622 105.883 705.993 107.069 718.387 107.777C730.781 108.485 743.198 108.709 755.615 107.851C769.749 106.87 783.42 104.311 796.339 100.181C809.257 96.0514 821.416 90.3563 832.526 83.1023C843.491 75.9415 854.1 70.5259 867.862 67.6442C882.688 64.5451 898.243 64.1849 913.456 64.7873C931.155 65.4891 948.693 67.4889 966.171 69.8676C983.649 72.2462 1001.07 74.9975 1018.54 77.2023C1034.62 79.2331 1051.06 80.9411 1067.07 81.0715C1080.45 81.1771 1093.19 78.4071 1105.71 79.6244C1119.88 81.0031 1131.64 86.4125 1142.96 93.387C1154.27 100.361 1165.08 108.889 1176.6 116.509C1188.12 124.123 1200.34 130.824 1214.15 134.135C1227.66 137.377 1240.56 136.693 1253.43 135.308C1268.24 133.712 1282.45 130.998 1296.28 127.93C1310.89 124.682 1325.06 120.987 1339.3 117.403C1353.54 113.82 1367.85 110.361 1383.01 107.584C1397.82 104.877 1413.46 102.951 1430.79 102.504" stroke="url(#paint10_linear)" stroke-width="2" stroke-miterlimit="10" stroke-linecap="round" stroke-dasharray="0.1 20"/>
<path d="M-171.682 115.925C-153.915 116.254 -137.144 117.621 -120.89 119.565C-104.635 121.508 -88.8974 124.024 -73.2432 126.657C-57.5891 129.284 -42.0185 132.029 -26.2503 134.42C-10.4822 136.811 5.48356 138.848 21.7761 140.072C35.766 141.121 50.0219 140.718 64.1411 141.743C77.9563 142.742 91.6575 144.705 105.465 146.91C118.505 148.984 131.697 151.319 145.125 153.276C158.56 155.232 172.223 156.809 186.175 157.381C199.489 157.927 213.251 157.493 226.359 155.449C239.293 153.431 251.566 149.785 264.659 148.226C278.444 146.587 292.342 145.873 306.272 145.494C320.201 145.115 334.153 145.071 348.036 144.773C361.411 144.481 374.998 144.115 388.448 142.972C401.899 141.823 415.22 139.904 428.047 136.507C439.408 133.495 449.439 129.185 458.923 123.291C468.391 117.403 478.817 112.36 490.178 109.354C508.894 104.398 527.641 106.286 546.411 109.503C565.173 112.727 583.951 117.285 602.736 117.683C614.575 117.937 626.293 116.434 638.132 116.447C650.899 116.466 663.635 117.422 676.318 118.527C689.404 119.67 702.52 121.012 715.659 121.918C728.797 122.825 741.967 123.291 755.159 122.688C769.453 122.03 783.443 119.912 796.68 116.118C809.918 112.323 822.396 106.845 833.658 99.4734C844.38 92.4554 854.456 86.9714 867.983 84.1705C882.345 81.1956 897.437 81.0403 912.149 81.8353C929.368 82.7669 946.398 84.9965 963.367 87.5366C980.343 90.0767 997.266 92.9212 1014.27 95.0763C1030.06 97.0823 1046.13 98.6411 1062.15 98.3741C1075.86 98.1443 1088.68 94.7844 1101.59 95.2253C1116.33 95.7284 1129.05 100.256 1141.38 106.392C1153.7 112.528 1165.6 120.285 1178.05 127.241C1190.5 134.197 1203.48 140.364 1217.6 143.326C1231.74 146.289 1246.39 146.177 1260.57 144.717C1274.76 143.258 1288.46 140.451 1301.15 138.035C1316 135.209 1330.48 131.979 1345.04 128.849C1359.59 125.719 1374.23 122.701 1389.59 120.304C1404.74 117.937 1420.61 116.285 1437.92 115.938" stroke="url(#paint11_linear)" stroke-width="2" stroke-miterlimit="10" stroke-linecap="round" stroke-dasharray="0.1 20"/>
<path d="M-176.498 129.353C-158.64 129.545 -141.595 130.626 -124.984 132.21C-108.372 133.787 -92.1935 135.862 -76.0986 138.023C-60.0037 140.19 -43.9923 142.451 -27.8442 144.414C-11.6961 146.376 4.604 148.034 21.1397 148.997C35.3348 149.823 49.7655 149.376 63.9683 150.798C77.9658 152.202 91.7734 154.816 105.657 157.698C118.735 160.418 131.958 163.468 145.454 166.051C158.95 168.641 172.704 170.759 186.793 171.628C200.03 172.442 213.716 172.038 226.635 169.622C239.318 167.25 251.104 162.729 263.886 160.511C277.093 158.22 290.513 156.971 303.986 156.17C317.459 155.369 330.993 155.021 344.436 154.537C357.613 154.059 370.934 153.593 384.157 152.512C397.379 151.432 410.503 149.736 423.269 146.811C434.539 144.227 444.889 140.544 454.699 135.34C464.312 130.241 474.731 125.999 485.848 123.608C504.177 119.664 522.354 121.733 540.547 124.794C558.739 127.856 576.931 131.912 595.283 131.943C607.168 131.961 618.893 130.26 630.778 130.204C644.138 130.142 657.467 131.148 670.727 132.34C684.626 133.595 698.54 135.116 712.492 136.24C726.436 137.365 740.411 138.091 754.439 137.762C768.9 137.42 783.27 135.768 796.895 132.328C810.52 128.893 823.401 123.67 834.883 116.193C845.37 109.367 854.838 103.778 868.091 101.045C881.952 98.1883 896.527 98.2442 910.677 99.2316C927.372 100.399 943.832 102.859 960.253 105.554C976.675 108.256 993.051 111.187 1009.57 113.305C1025.03 115.286 1040.56 116.69 1056.49 116.025C1070.54 115.441 1083.41 111.485 1096.68 111.088C1112.08 110.628 1125.84 114.168 1139.26 119.379C1152.68 124.589 1165.76 131.465 1179.22 137.681C1192.69 143.898 1206.53 149.457 1221.1 152.022C1235.39 154.537 1250.09 154.5 1264.43 153.313C1278.77 152.127 1292.74 149.798 1305.94 147.724C1320.95 145.364 1335.69 142.637 1350.52 140.004C1365.35 137.371 1380.25 134.837 1395.77 132.856C1411.23 130.881 1427.31 129.545 1444.55 129.334" stroke="url(#paint12_linear)" stroke-width="2" stroke-miterlimit="10" stroke-linecap="round" stroke-dasharray="0.1 20"/>
<path d="M-180.884 142.774C-162.942 142.811 -145.632 143.593 -128.685 144.792C-111.739 145.984 -95.143 147.593 -78.6301 149.282C-62.1249 150.972 -45.6956 152.735 -29.1827 154.251C-12.6699 155.766 3.9342 157.027 20.7054 157.71C35.121 158.294 49.6657 157.803 63.9672 159.648C78.1623 161.48 92.0687 164.753 106.005 168.336C119.106 171.702 132.352 175.479 145.893 178.714C159.435 181.95 173.265 184.639 187.483 185.825C200.607 186.918 214.186 186.564 226.9 183.794C239.377 181.074 250.632 175.708 263.079 172.808C275.671 169.87 288.582 168.075 301.591 166.852C314.601 165.622 327.717 164.958 340.719 164.287C353.683 163.61 366.739 163.045 379.725 162.026C392.712 161.008 405.631 159.542 418.314 157.07C429.538 154.884 440.085 151.779 450.26 147.338C460.033 143.072 470.375 139.625 481.265 137.836C499.153 134.905 516.753 137.172 534.352 140.091C551.952 143.01 569.559 146.581 587.462 146.258C599.401 146.04 611.126 144.146 623.079 144.034C637.054 143.904 651.006 144.96 664.867 146.251C679.617 147.624 694.351 149.326 709.132 150.673C723.904 152.021 738.715 153.015 753.602 152.971C768.222 152.928 782.995 151.742 797.046 148.68C811.097 145.612 824.425 140.668 836.151 133.104C846.394 126.496 855.24 120.757 868.212 118.118C881.563 115.404 895.568 115.646 909.156 116.826C925.296 118.229 941.178 120.919 957.022 123.775C972.867 126.632 988.68 129.663 1004.68 131.731C1019.8 133.688 1035.22 134.923 1050.52 133.88C1064.49 132.93 1077.7 128.359 1091.29 127.123C1107.39 125.657 1122.22 128.166 1136.77 132.396C1151.32 136.631 1165.6 142.587 1180.13 148.028C1194.66 153.468 1209.43 158.387 1224.59 160.542C1239.02 162.592 1253.75 162.623 1268.24 161.716C1282.72 160.809 1296.95 158.965 1310.59 157.275C1325.72 155.393 1340.68 153.201 1355.72 151.083C1370.76 148.972 1385.89 146.935 1401.51 145.382C1417.24 143.817 1433.48 142.817 1450.62 142.767" stroke="url(#paint13_linear)" stroke-width="2" stroke-miterlimit="10" stroke-linecap="round" stroke-dasharray="0.1 20"/>
<path d="M-184.765 156.202C-166.762 156.09 -149.231 156.58 -131.981 157.394C-114.731 158.214 -97.7624 159.356 -80.8848 160.574C-63.9996 161.785 -47.2055 163.064 -30.3583 164.139C-13.5111 165.213 3.37416 166.083 20.3734 166.486C35.0169 166.834 49.6148 166.294 64.0455 168.561C78.461 170.827 92.4737 174.759 106.456 179.019C119.565 183.013 132.833 187.509 146.412 191.391C159.999 195.272 173.891 198.527 188.23 200.042C201.217 201.415 214.645 201.098 227.16 197.968C239.486 194.887 250.171 188.708 262.276 185.099C274.222 181.541 286.616 179.206 299.17 177.541C311.723 175.883 324.437 174.895 337.036 174.026C349.78 173.15 362.584 172.486 375.351 171.535C388.117 170.585 400.838 169.349 413.415 167.331C424.623 165.536 435.384 162.996 445.886 159.338C455.772 155.891 466.092 153.245 476.761 152.059C494.178 150.121 511.2 152.581 528.237 155.357C545.267 158.133 562.304 161.22 579.759 160.543C591.743 160.077 603.468 158.015 615.49 157.835C630.065 157.617 644.64 158.742 659.102 160.127C674.687 161.617 690.25 163.499 705.851 165.064C721.445 166.635 737.076 167.89 752.806 168.138C767.533 168.368 782.716 167.641 797.2 164.952C811.684 162.257 825.469 157.599 837.415 149.954C847.415 143.557 855.637 137.694 868.336 135.129C881.17 132.539 894.651 132.986 907.661 134.359C923.254 135.998 938.551 138.917 953.826 141.936C969.1 144.954 984.359 148.066 999.868 150.097C1014.65 152.028 1029.79 153.09 1044.71 151.674C1058.85 150.333 1071.9 145.14 1085.74 143.103C1102.52 140.632 1118.41 142.11 1134.08 145.376C1149.74 148.643 1165.2 153.692 1180.8 158.375C1196.4 163.052 1212.13 167.362 1227.98 169.132C1242.51 170.753 1257.29 170.84 1271.9 170.194C1286.52 169.548 1300.97 168.176 1315 166.877C1330.22 165.468 1345.33 163.797 1360.53 162.195C1375.73 160.592 1391.02 159.058 1406.69 157.922C1422.63 156.767 1438.98 156.096 1455.98 156.195" stroke="url(#paint14_linear)" stroke-width="2" stroke-miterlimit="10" stroke-linecap="round" stroke-dasharray="0.1 20"/>
<path d="M-188.03 169.628C-169.998 169.405 -152.299 169.622 -134.806 170.094C-117.313 170.56 -100.033 171.28 -82.8282 172.044C-65.6238 172.808 -48.503 173.622 -31.367 174.28C-14.231 174.938 2.92024 175.448 20.1246 175.609C34.9961 175.746 49.6244 175.162 64.1919 177.82C78.8506 180.497 92.9773 185.068 107.013 189.968C120.144 194.551 133.42 199.737 147.037 204.234C160.655 208.73 174.599 212.543 189.045 214.369C201.873 215.99 215.11 215.686 227.413 212.183C239.648 208.699 249.724 201.743 261.503 197.421C272.81 193.272 284.695 190.403 296.808 188.316C308.921 186.223 321.27 184.913 333.504 183.863C346.043 182.789 358.627 182.043 371.188 181.168C383.757 180.298 396.304 179.304 408.774 177.739C419.58 176.385 430.082 173.87 440.614 171.535C451.146 169.2 461.709 167.045 472.629 166.411C489.583 165.43 506.058 168.057 522.563 170.672C539.06 173.286 555.581 175.876 572.618 174.833C584.64 174.094 596.335 171.846 608.433 171.597C623.57 171.287 638.723 172.46 653.731 173.92C670.122 175.516 686.468 177.559 702.844 179.335C719.22 181.112 735.634 182.621 752.155 183.143C766.935 183.608 782.483 183.323 797.37 180.994C812.256 178.659 826.467 174.28 838.564 166.56C848.314 160.337 855.974 154.375 868.414 151.891C880.77 149.419 893.757 150.084 906.219 151.636C921.296 153.518 936.038 156.667 950.773 159.847C965.507 163.02 980.242 166.225 995.304 168.212C1009.8 170.125 1024.67 170.995 1039.26 169.218C1053.57 167.473 1066.33 161.66 1080.35 158.896C1097.74 155.462 1114.6 155.971 1131.3 158.325C1148.01 160.685 1164.58 164.896 1181.21 168.877C1197.84 172.858 1214.51 176.615 1231.07 178.056C1245.69 179.329 1260.52 179.46 1275.26 179.044C1290 178.627 1304.65 177.671 1319 176.764C1334.28 175.802 1349.5 174.628 1364.8 173.51C1380.09 172.392 1395.48 171.324 1411.15 170.579C1427.23 169.808 1443.61 169.43 1460.45 169.641" stroke="url(#paint15_linear)" stroke-width="2" stroke-miterlimit="10" stroke-linecap="round" stroke-dasharray="0.1 20"/>
<path d="M-190.613 183.056C-172.603 182.77 -154.791 182.777 -137.123 182.95C-119.455 183.118 -101.931 183.454 -84.476 183.82C-67.0208 184.186 -49.6265 184.578 -32.2473 184.876C-14.8681 185.174 2.51103 185.366 19.9054 185.335C34.982 185.304 49.6559 184.677 64.3602 187.683C79.2849 190.726 93.556 195.893 107.66 201.377C120.814 206.495 134.333 212.327 147.722 217.401C161.112 222.475 174.912 226.791 189.502 228.89C202.254 230.722 215.56 230.35 227.68 226.449C239.869 222.531 249.353 214.792 260.828 209.755C271.527 205.054 282.918 201.675 294.621 199.166C306.324 196.657 318.345 195.018 330.299 193.8C342.663 192.54 355.072 191.726 367.489 190.956C379.906 190.186 392.323 189.447 404.702 188.341C415.5 187.379 426.192 185.553 436.907 183.957C447.621 182.36 458.359 180.988 469.256 180.926C485.777 180.833 501.773 183.59 517.807 186C533.841 188.416 549.913 190.49 566.593 189.037C578.63 187.993 590.264 185.553 602.415 185.211C618.039 184.776 633.693 185.981 649.188 187.497C666.309 189.173 683.369 191.353 700.452 193.316C717.542 195.278 734.655 197.011 751.897 197.794C766.632 198.458 782.499 198.583 797.72 196.583C812.941 194.583 827.516 190.471 839.66 182.665C849.151 176.566 856.347 170.542 868.551 168.138C880.497 165.791 893.051 166.666 905.027 168.405C919.64 170.529 933.889 173.908 948.152 177.243C962.416 180.578 976.694 183.863 991.361 185.807C1005.63 187.702 1020.31 188.372 1034.61 186.242C1049.08 184.081 1061.5 177.678 1075.62 174.274C1093.47 169.97 1111.18 169.604 1128.8 171.169C1146.41 172.728 1163.99 176.218 1181.54 179.622C1199.09 183.025 1216.62 186.335 1233.87 187.552C1248.58 188.59 1263.47 188.751 1278.32 188.521C1293.17 188.292 1307.97 187.664 1322.58 187.118C1337.87 186.54 1353.15 185.814 1368.51 185.13C1383.86 184.441 1399.29 183.795 1414.9 183.373C1431.06 182.938 1447.42 182.789 1464.06 183.062" stroke="url(#paint16_linear)" stroke-width="2" stroke-miterlimit="10" stroke-linecap="round" stroke-dasharray="0.1 20"/>
<path d="M-192.414 196.477C-174.473 196.216 -156.63 196.086 -138.871 196.036C-121.112 195.98 -103.421 195.999 -85.7833 196.036C-68.1458 196.073 -50.5538 196.117 -32.9847 196.123C-15.4079 196.129 2.14602 196.086 19.7 195.937C34.9134 195.812 49.7013 195.154 64.5347 198.421C79.7482 201.768 94.1941 207.457 108.382 213.463C121.574 219.04 134.401 225.449 147.821 231.033C161.241 236.622 175.117 241.386 189.905 243.69C202.641 245.671 216.015 245.162 227.9 240.808C240.067 236.349 248.996 227.871 260.204 222.133C270.349 216.935 281.292 213.065 292.637 210.159C303.983 207.246 315.723 205.296 327.479 203.917C339.714 202.489 352.017 201.644 364.35 200.998C376.676 200.352 389.024 199.905 401.343 199.265C412.255 198.7 423.16 197.57 434.08 196.707C445 195.843 455.927 195.241 466.877 195.725C482.767 196.433 498.117 199.47 513.695 201.855C529.752 204.315 545.84 205.079 562.064 203.203C574.078 201.812 585.606 199.154 597.795 198.694C613.783 198.092 629.84 199.297 645.707 200.837C663.451 202.557 681.119 204.843 698.81 206.954C716.501 209.066 734.222 210.991 752.064 211.991C766.632 212.811 782.727 213.295 798.191 211.593C813.655 209.898 828.489 206.016 840.511 198.098C849.728 192.03 856.605 186.006 868.62 183.702C880.246 181.472 892.45 182.559 904.024 184.49C918.257 186.869 932.103 190.477 945.979 193.962C959.855 197.452 973.769 200.818 988.154 202.725C1002.3 204.6 1016.87 205.06 1030.96 202.582C1045.56 200.017 1057.67 193.061 1071.81 189.124C1089.92 184.087 1108.27 183.006 1126.62 183.938C1144.97 184.863 1163.37 187.801 1181.69 190.782C1200 193.763 1218.25 196.8 1236.06 197.93C1250.86 198.868 1265.8 199.061 1280.74 198.961C1295.68 198.856 1310.6 198.452 1325.39 198.197C1340.69 197.93 1356 197.576 1371.36 197.241C1386.72 196.905 1402.12 196.595 1417.63 196.427C1433.81 196.247 1450.1 196.241 1466.54 196.489" stroke="url(#paint17_linear)" stroke-width="2" stroke-miterlimit="10" stroke-linecap="round" stroke-dasharray="0.1 20"/>
<path d="M-193.351 209.903C-175.523 209.773 -157.726 209.612 -139.952 209.432C-122.177 209.251 -104.418 209.046 -86.6819 208.848C-68.9455 208.643 -51.2244 208.438 -33.5261 208.239C-15.8201 208.04 1.87058 207.86 19.5537 207.699C34.8279 207.562 49.8362 206.898 64.7456 210.313C80.2706 213.872 94.7849 220.002 108.714 226.424C121.61 232.373 134.559 239.28 148.009 245.291C161.46 251.309 175.389 256.439 190.344 258.849C203.08 260.905 216.53 260.16 228.127 255.266C240.255 250.142 248.713 240.975 259.731 234.547C269.397 228.902 279.952 224.579 291.002 221.294C302.051 218.008 313.594 215.754 325.236 214.251C337.417 212.68 349.705 211.835 362.015 211.351C374.333 210.866 386.674 210.736 398.977 210.574C410.118 210.431 421.288 209.997 432.444 209.854C443.607 209.711 454.755 209.848 465.857 210.854C481.443 212.264 496.611 215.443 512.06 217.505C527.904 219.617 543.748 219.592 559.562 217.251C571.5 215.481 582.891 212.549 595.08 211.928C611.289 211.108 627.612 212.27 643.707 213.785C661.937 215.499 680.076 217.853 698.23 220.064C716.385 222.275 734.562 224.355 752.876 225.536C767.101 226.448 783.333 227.25 798.926 225.809C814.52 224.362 829.475 220.673 841.147 212.611C850.053 206.457 856.831 200.519 868.709 198.327C880.145 196.222 892.099 197.526 903.384 199.637C917.358 202.246 930.907 206.084 944.518 209.73C958.128 213.375 971.798 216.841 986.009 218.704C1000.15 220.561 1014.73 220.797 1028.72 217.99C1043.44 215.033 1055.26 207.606 1069.39 203.246C1087.5 197.656 1106.26 196.066 1125.1 196.576C1143.93 197.079 1162.92 199.681 1181.77 202.457C1200.62 205.239 1219.32 208.202 1237.46 209.432C1252.3 210.444 1267.31 210.661 1282.32 210.611C1297.33 210.562 1312.34 210.251 1327.22 210.195C1342.52 210.139 1357.83 210.046 1373.16 209.966C1388.49 209.885 1403.83 209.81 1419.2 209.786C1435.37 209.761 1451.58 209.792 1467.82 209.903" stroke="url(#paint18_linear)" stroke-width="2" stroke-miterlimit="10" stroke-linecap="round" stroke-dasharray="0.1 20"/>
<path d="M-193.344 223.331C-175.547 223.269 -157.78 223.194 -140.036 223.095C-122.292 222.995 -104.579 222.865 -86.8802 222.703C-69.1819 222.542 -51.4912 222.349 -33.808 222.113C-16.1249 221.877 1.55063 221.604 19.2414 221.281C34.508 221.002 49.653 220.008 64.5853 223.206C80.1483 226.535 94.6701 232.584 108.653 238.969C121.662 244.906 134.649 251.831 148.1 257.911C161.55 263.985 175.441 269.208 190.381 271.742C203.041 273.885 216.484 273.276 228.08 268.432C240.262 263.339 248.757 254.116 259.73 247.602C269.29 241.925 279.708 237.509 290.628 234.137C301.548 230.765 312.985 228.423 324.566 226.883C336.687 225.275 348.921 224.449 361.179 224.026C373.444 223.604 385.739 223.579 397.989 223.573C409.266 223.567 420.528 223.43 431.774 223.616C443.021 223.803 454.245 224.312 465.438 225.61C481.252 227.442 496.739 230.765 512.545 232.622C528.458 234.491 544.34 234.019 560.047 231.181C571.757 229.063 582.822 225.815 594.851 224.958C611.007 223.809 627.345 224.759 643.432 226.094C661.83 227.622 680.121 229.833 698.427 231.97C716.733 234.106 735.047 236.174 753.483 237.41C767.495 238.348 783.704 239.348 799.343 238.161C814.982 236.981 830.044 233.622 841.754 225.852C850.827 219.834 858.046 214.127 869.939 212.096C881.338 210.146 893.154 211.499 904.34 213.698C917.996 216.381 931.226 220.263 944.524 223.933C957.823 227.597 971.19 231.05 985.134 232.864C999.245 234.702 1013.75 234.802 1027.67 231.938C1042.39 228.908 1054.39 221.511 1068.4 217.263C1081.35 213.338 1095.16 211.617 1108.97 211.201C1122.78 210.785 1136.67 211.68 1150.15 212.978C1164.81 214.394 1179.38 216.393 1194.06 218.263C1208.75 220.138 1223.38 221.884 1238.12 222.784C1252.84 223.691 1267.69 223.635 1282.59 223.349C1297.48 223.064 1312.4 222.554 1327.18 222.554C1342.48 222.548 1357.79 222.635 1373.1 222.753C1388.41 222.871 1403.74 223.02 1419.1 223.138C1435.31 223.262 1451.54 223.349 1467.82 223.355" stroke="url(#paint19_linear)" stroke-width="2" stroke-miterlimit="10" stroke-linecap="round" stroke-dasharray="0.1 20"/>
<path d="M-192.386 236.753C-174.649 236.647 -156.974 236.728 -139.359 236.865C-121.744 237.001 -104.198 237.194 -86.7049 237.318C-69.2118 237.442 -51.7794 237.486 -34.385 237.337C-16.9907 237.181 0.358106 236.827 17.7069 236.138C32.8063 235.536 47.7538 233.871 62.8228 236.43C78.363 239.069 93.0673 244.466 107.171 250.317C120.439 255.819 133.563 262.278 147.036 268.011C160.509 273.743 174.317 278.761 189.12 281.376C201.666 283.599 215.132 283.456 227.024 279.227C239.305 274.855 248.287 266.297 259.351 260.334C269.063 255.099 279.504 251.05 290.371 247.969C301.245 244.883 312.545 242.765 323.989 241.392C335.935 239.958 347.979 239.237 360.047 238.852C372.114 238.473 384.204 238.43 396.257 238.349C407.587 238.274 418.834 238.094 430.065 238.268C441.297 238.442 452.505 238.964 463.76 240.299C480.599 242.299 497.028 245.342 513.496 246.988C529.971 248.634 546.483 248.882 563.498 245.286C574.98 242.858 585.68 239.225 597.549 238.02C613.508 236.405 629.747 236.933 645.735 237.908C664.11 239.02 682.386 240.871 700.662 242.734C718.938 244.591 737.214 246.46 755.581 247.609C769.7 248.491 785.878 249.534 801.601 248.59C817.323 247.646 832.598 244.721 844.893 237.672C854.422 232.213 862.226 226.859 874.073 225.108C885.259 223.45 896.704 224.822 907.601 227.102C920.542 229.809 933.05 233.679 945.627 237.33C958.203 240.982 970.856 244.429 984.094 246.299C997.757 248.224 1011.8 248.404 1025.36 245.845C1039.93 243.1 1052.22 236.206 1066.43 232.505C1079.92 228.99 1093.9 227.549 1108 227.282C1122.09 227.015 1136.27 227.921 1150.05 229.101C1164.85 230.368 1179.55 232.126 1194.19 233.666C1208.84 235.206 1223.43 236.536 1238.12 236.933C1252.46 237.324 1266.7 235.983 1281.1 235.3C1295.97 234.592 1310.86 234.325 1325.73 234.318C1340.99 234.312 1356.24 234.573 1371.52 234.933C1386.79 235.293 1402.09 235.741 1417.48 236.107C1433.69 236.492 1450.02 236.759 1466.49 236.765" stroke="url(#paint20_linear)" stroke-width="2" stroke-miterlimit="10" stroke-linecap="round" stroke-dasharray="0.1 20"/>
<path d="M-190.56 250.18C-173.044 250.074 -155.604 250.36 -138.248 250.782C-120.891 251.205 -103.626 251.764 -86.475 252.211C-69.3238 252.658 -52.279 252.987 -35.333 252.956C-18.3869 252.925 -1.53972 252.528 15.2847 251.522C30.1258 250.633 44.7769 248.273 59.8611 250.05C75.3253 251.869 90.2272 256.478 104.506 261.688C118.032 266.626 131.331 272.501 144.872 277.786C158.414 283.071 172.206 287.76 186.88 290.325C199.434 292.518 212.96 292.685 225.149 288.978C237.46 285.233 246.929 277.426 258.16 272.079C267.986 267.402 278.412 263.843 289.187 261.179C299.963 258.515 311.095 256.751 322.327 255.67C334.068 254.534 345.877 254.049 357.693 253.838C369.51 253.627 381.349 253.689 393.151 253.658C404.625 253.627 415.978 253.484 427.324 253.677C438.662 253.869 449.984 254.391 461.391 255.701C479.363 257.763 497.258 260.924 515.17 262.483C533.073 264.042 550.992 263.999 568.994 259.651C580.37 256.906 590.849 252.795 602.651 251.174C618.411 249.012 634.574 249.05 650.487 249.59C668.839 250.211 687.115 251.627 705.383 253.136C723.651 254.645 741.912 256.248 760.226 257.235C774.543 258.012 790.721 258.999 806.535 258.204C822.348 257.409 837.797 254.826 850.67 248.453C860.405 243.634 868.551 238.709 880.178 237.349C890.9 236.094 901.714 237.628 912.01 240.106C923.964 242.982 935.446 246.963 947.012 250.733C958.578 254.503 970.227 258.061 982.523 260.086C995.441 262.216 1008.73 262.614 1021.69 260.471C1036.03 258.098 1048.43 251.782 1062.66 248.59C1076.77 245.429 1091.26 244.199 1105.77 244.013C1120.26 243.827 1134.77 244.677 1148.82 245.677C1163.71 246.739 1178.49 248.199 1193.2 249.348C1207.91 250.497 1222.55 251.329 1237.29 251.13C1251.38 250.938 1265.32 248.795 1279.49 247.665C1294.21 246.491 1308.96 246.056 1323.67 246.05C1338.87 246.044 1354.01 246.497 1369.19 247.1C1384.36 247.702 1399.55 248.46 1414.88 249.075C1431.03 249.72 1447.35 250.18 1463.99 250.199" stroke="url(#paint21_linear)" stroke-width="2" stroke-miterlimit="10" stroke-linecap="round" stroke-dasharray="0.1 20"/>
<path d="M-187.961 263.606C-170.795 263.538 -153.689 264.06 -136.683 264.799C-119.676 265.538 -102.783 266.494 -86.0649 267.295C-69.3393 268.097 -52.7884 268.749 -36.4048 268.873C-20.0211 268.997 -3.80456 268.6 12.3436 267.308C26.8958 266.14 41.1138 263.078 56.0764 263.973C71.3963 264.886 86.4729 268.6 100.949 273.071C114.711 277.325 128.192 282.536 141.84 287.281C155.488 292.032 169.288 296.324 183.878 298.733C196.523 300.826 210.133 301.162 222.626 297.914C234.914 294.721 244.884 287.71 256.328 283.052C266.237 279.021 276.618 276.046 287.264 273.903C297.911 271.761 308.83 270.457 319.819 269.761C331.324 269.034 342.859 268.879 354.395 268.935C365.93 268.991 377.473 269.252 389.001 269.363C400.673 269.475 412.239 269.426 423.79 269.655C435.34 269.885 446.884 270.394 458.487 271.637C477.926 273.711 497.676 276.94 517.38 278.356C537.093 279.772 556.759 279.375 576.038 274.183C587.429 271.115 597.771 266.463 609.588 264.364C625.143 261.6 641.246 261.085 657.121 261.134C675.45 261.197 693.733 262.122 712.001 263.227C730.277 264.333 748.538 265.612 766.821 266.389C781.419 267.01 797.605 267.885 813.51 267.171C829.415 266.457 845.024 264.159 858.474 258.427C868.209 254.278 876.537 249.85 887.792 248.987C897.868 248.216 907.846 250.018 917.291 252.781C928.052 255.924 938.288 260.104 948.615 264.072C958.942 268.041 969.376 271.798 980.531 274.108C992.439 276.568 1004.82 277.263 1016.97 275.611C1031.04 273.698 1043.37 267.979 1057.5 265.283C1077.78 261.426 1097.96 260.526 1118.01 260.911C1138.07 261.296 1157.94 262.973 1177.52 264.265C1197.11 265.556 1216.39 266.463 1235.74 265.327C1249.63 264.507 1263.35 261.532 1277.34 259.948C1291.9 258.309 1306.5 257.712 1321.02 257.719C1336.12 257.719 1351.12 258.358 1366.13 259.215C1381.13 260.072 1396.14 261.141 1411.36 262.004C1427.36 262.917 1443.62 263.563 1460.36 263.606" stroke="url(#paint22_linear)" stroke-width="2" stroke-miterlimit="10" stroke-linecap="round" stroke-dasharray="0.1 20"/>
<path d="M-184.677 277.034C-167.944 277.028 -151.233 277.81 -134.637 278.891C-118.04 279.972 -101.573 281.35 -85.3336 282.53C-69.0942 283.717 -53.0905 284.704 -37.33 285.008C-21.5694 285.313 -6.0672 284.94 9.3058 283.387C23.5617 281.947 37.2021 278.152 51.9444 278.121C67.0438 278.084 82.2497 280.816 96.9312 284.487C110.876 287.971 124.531 292.449 138.293 296.61C152.048 300.771 165.908 304.603 180.423 306.801C193.204 308.739 206.655 309.161 219.664 306.329C232.104 303.622 242.416 297.436 254.096 293.536C264.066 290.213 274.37 287.89 284.865 286.337C295.359 284.785 306.044 284.009 316.758 283.779C327.997 283.537 339.237 283.785 350.468 284.17C361.7 284.561 372.931 285.083 384.155 285.393C396.063 285.723 407.91 285.797 419.742 286.07C431.573 286.344 443.398 286.828 455.26 287.977C469.348 289.337 483.764 291.25 498.256 292.741C512.747 294.231 527.322 295.299 541.722 294.983C556.13 294.66 570.371 292.952 584.201 288.878C595.684 285.499 605.965 280.257 617.835 277.63C633.185 274.227 649.235 273.109 665.079 272.643C683.37 272.103 701.669 272.5 719.952 273.159C738.243 273.817 756.519 274.742 774.795 275.27C789.72 275.699 805.936 276.413 821.932 275.736C837.928 275.059 853.689 273.003 867.702 267.88C877.276 264.383 885.696 260.526 896.472 260.253C905.788 260.011 914.786 262.166 923.206 265.277C932.628 268.762 941.443 273.202 950.38 277.438C959.316 281.673 968.375 285.698 978.291 288.337C989.029 291.194 1000.33 292.262 1011.56 291.144C1025.33 289.778 1037.9 284.692 1051.45 282.437C1066.88 279.866 1082.98 278.804 1098.49 278.549C1114.01 278.295 1129.34 278.854 1144.47 279.537C1159.6 280.214 1174.51 281.021 1189.31 281.251C1204.11 281.487 1218.8 281.152 1233.65 279.556C1247.38 278.084 1260.9 274.252 1274.8 272.221C1289.18 270.122 1303.63 269.37 1317.93 269.383C1332.91 269.395 1347.72 270.227 1362.51 271.333C1377.3 272.438 1392.06 273.823 1407.1 274.947C1422.9 276.127 1439.04 276.972 1455.86 277.034" stroke="url(#paint23_linear)" stroke-width="2" stroke-miterlimit="10" stroke-linecap="round" stroke-dasharray="0.1 20"/>
<path d="M-180.788 290.454C-164.548 290.523 -148.263 291.579 -132.108 293.013C-115.952 294.448 -99.9331 296.255 -84.1953 297.839C-68.4651 299.416 -53.0237 300.764 -37.9319 301.261C-22.8401 301.764 -8.08257 301.416 6.45453 299.621C20.4217 297.895 33.3554 293.355 47.7785 292.386C62.5892 291.392 77.8406 293.088 92.7196 295.901C106.77 298.559 120.578 302.273 134.439 305.807C148.307 309.341 162.229 312.701 176.705 314.657C189.646 316.402 203.173 316.868 216.441 314.421C228.797 312.142 239.679 306.801 251.609 303.714C261.61 301.124 271.831 299.491 282.158 298.572C292.485 297.646 302.926 297.441 313.367 297.708C324.318 297.988 335.23 298.683 346.15 299.441C357.062 300.199 367.975 301.025 378.902 301.565C391.076 302.168 403.235 302.379 415.378 302.708C427.529 303.031 439.672 303.472 451.823 304.521C467.128 305.85 482.949 307.763 498.9 309.204C514.85 310.645 530.922 311.614 546.729 311.043C562.535 310.471 578.075 308.36 592.962 303.646C604.611 299.957 614.847 294.112 626.785 290.914C641.93 286.859 657.926 285.113 673.755 284.101C692.008 282.933 710.307 282.772 728.613 282.971C746.92 283.169 765.233 283.716 783.509 283.971C798.776 284.182 815.046 284.697 831.133 284.033C847.22 283.368 863.14 281.524 877.7 277.021C887.032 274.133 895.49 270.91 905.733 271.282C914.244 271.593 922.178 274.152 929.458 277.642C945.5 285.337 958.608 296.603 975.896 302.658C985.334 305.962 995.502 307.447 1005.75 306.881C1019.19 306.142 1031.8 301.689 1045.02 299.826C1061.02 297.572 1077.59 296.665 1093.55 296.417C1109.52 296.174 1125.18 296.591 1140.57 296.994C1155.96 297.398 1171.06 297.783 1186.06 297.479C1201.05 297.168 1215.94 296.168 1231.08 293.79C1244.67 291.653 1258 286.964 1271.84 284.467C1286.02 281.909 1300.32 280.996 1314.38 281.021C1329.23 281.045 1343.81 282.07 1358.34 283.437C1372.86 284.803 1387.33 286.498 1402.13 287.877C1417.67 289.324 1433.63 290.374 1450.5 290.461" stroke="url(#paint24_linear)" stroke-width="2" stroke-miterlimit="10" stroke-linecap="round" stroke-dasharray="0.1 20"/>
<path d="M-176.386 303.883C-160.648 304.026 -144.804 305.355 -129.089 307.143C-113.374 308.932 -97.7886 311.18 -82.56 313.155C-67.3314 315.13 -52.4523 316.832 -38.014 317.534C-23.5757 318.229 -9.57816 317.925 4.11543 315.882C17.7938 313.845 29.96 308.553 43.9804 306.671C58.4415 304.734 73.6549 305.386 88.6783 307.323C102.744 309.137 116.651 312.074 130.603 314.981C144.555 317.888 158.552 320.769 172.998 322.483C186.091 324.036 199.686 324.527 213.197 322.471C225.523 320.595 236.899 316.099 249.08 313.851C259.088 312.006 269.21 311.062 279.37 310.77C289.53 310.485 299.736 310.851 309.911 311.634C320.55 312.447 331.136 313.596 341.729 314.733C352.322 315.869 362.915 316.993 373.554 317.77C386.001 318.676 398.464 319.024 410.934 319.391C423.404 319.757 435.874 320.136 448.321 321.105C464.849 322.39 482.099 324.316 499.532 325.707C516.964 327.098 534.564 327.967 551.798 327.135C569.026 326.309 585.88 323.788 601.816 318.415C613.678 314.416 623.846 307.976 635.852 304.193C650.785 299.492 666.72 297.107 682.556 295.542C700.749 293.741 719.055 293.027 737.384 292.753C755.713 292.48 774.065 292.654 792.356 292.635C807.972 292.623 824.295 292.927 840.489 292.263C856.682 291.604 872.747 289.977 887.839 286.102C896.897 283.773 905.416 281.196 915.089 282.264C922.817 283.121 929.679 286.096 935.759 289.983C948.966 298.424 958.693 310.112 973.45 316.999C984.165 321.999 994.796 322.726 1005.56 321.869C1016.33 321.012 1027.23 318.577 1038.48 317.26C1055.03 315.323 1072.07 314.571 1088.49 314.341C1104.9 314.105 1120.9 314.385 1136.55 314.509C1152.2 314.633 1167.48 314.602 1182.63 313.745C1197.78 312.888 1212.81 311.205 1228.16 308.025C1241.61 305.237 1254.74 299.684 1268.55 296.71C1282.52 293.697 1296.65 292.623 1310.46 292.66C1325.14 292.697 1339.47 293.921 1353.69 295.536C1367.91 297.157 1382.04 299.175 1396.57 300.809C1411.81 302.523 1427.54 303.777 1444.44 303.883" stroke="url(#paint25_linear)" stroke-width="2" stroke-miterlimit="10" stroke-linecap="round" stroke-dasharray="0.1 20"/>
<path d="M-171.562 317.309C-155.262 317.527 -139.038 319.123 -123.049 321.272C-107.061 323.421 -91.3078 326.11 -75.9424 328.513C-62.2488 330.656 -48.6312 332.619 -35.4695 333.507C-22.3078 334.395 -9.60212 334.208 2.51846 332.047C15.8929 329.662 27.284 323.619 40.8484 320.887C54.9067 318.048 69.9986 317.676 85.1056 318.738C99.0956 319.719 113.048 321.893 127.045 324.197C141.05 326.495 155.109 328.929 169.532 330.426C182.754 331.799 196.41 332.339 210.126 330.693C222.482 329.209 234.261 325.563 246.686 324.147C256.686 323.011 266.709 322.731 276.717 323.054C286.725 323.377 296.71 324.309 306.65 325.582C316.97 326.905 327.229 328.482 337.51 329.973C347.792 331.463 358.081 332.873 368.469 333.861C381.167 335.072 393.926 335.537 406.692 335.929C419.459 336.32 432.241 336.637 444.977 337.544C459.673 338.587 474.363 339.835 489.067 340.872C503.771 341.903 518.498 342.717 533.263 342.891C546.22 343.04 559.473 342.748 572.49 341.344C585.507 339.941 598.296 337.432 610.311 333.14C622.386 328.83 632.439 321.825 644.491 317.458C659.211 312.13 675.085 309.118 690.914 307.006C709.031 304.59 727.337 303.323 745.681 302.597C764.033 301.864 782.43 301.671 800.737 301.398C816.68 301.162 833.079 301.255 849.386 300.609C865.694 299.963 881.91 298.572 897.496 295.361C914.389 291.877 929.109 291.312 941.86 302.385C952.362 311.515 958.738 323.52 971.116 331.258C980.38 337.053 990.433 338.357 1000.78 337.978C1011.13 337.593 1021.79 335.519 1032.25 334.531C1049.38 332.917 1066.91 332.283 1083.69 331.979C1100.47 331.674 1116.66 331.693 1132.41 331.395C1148.09 331.097 1163.63 330.786 1179.01 329.563C1194.39 328.339 1209.63 326.197 1225 322.241C1238.3 318.819 1251.19 312.415 1264.96 308.95C1278.71 305.491 1292.66 304.249 1306.21 304.292C1320.71 304.342 1334.75 305.758 1348.64 307.633C1362.53 309.509 1376.27 311.844 1390.49 313.732C1405.38 315.707 1420.88 317.167 1437.76 317.297" stroke="url(#paint26_linear)" stroke-width="2" stroke-miterlimit="10" stroke-linecap="round" stroke-dasharray="0.1 20"/>
<path d="M-166.397 330.73C-150.394 330.991 -134.489 332.829 -118.835 335.301C-103.18 337.773 -87.7999 340.884 -72.8296 343.691C-59.6908 346.157 -46.6127 348.43 -34.059 349.486C-21.5052 350.542 -9.46823 350.38 1.86205 347.983C14.9173 345.213 25.5865 338.437 38.6569 334.922C52.2897 331.258 67.1688 329.91 82.291 330.134C96.1214 330.339 110.043 331.792 124.048 333.537C138.053 335.276 152.15 337.307 166.558 338.655C179.871 339.897 193.557 340.536 207.441 339.356C219.873 338.301 232.009 335.487 244.646 334.866C264.632 333.885 284.359 336.177 303.851 339.636C313.851 341.412 323.798 343.362 333.784 345.157C343.769 346.952 353.792 348.591 363.944 349.74C376.84 351.206 389.842 351.765 402.86 352.169C415.877 352.579 428.917 352.833 441.889 353.697C457.611 354.74 473.334 355.97 489.071 356.957C504.809 357.945 520.57 358.69 536.361 358.746C550.062 358.795 564.151 358.429 577.966 356.858C591.781 355.286 605.323 352.517 617.937 347.759C630.187 343.145 640.066 335.605 652.11 330.693C666.609 324.774 682.408 321.166 698.237 318.539C716.262 315.539 734.553 313.756 752.913 312.601C771.28 311.446 789.715 310.912 808.052 310.415C824.291 309.974 840.773 309.887 857.21 309.285C873.64 308.682 890.016 307.571 906.042 305.068C922.365 302.521 937.335 302.826 947.465 314.974C955.55 324.668 958.795 336.835 968.986 345.399C976.76 351.939 986.312 353.802 996.358 353.858C1006.4 353.914 1016.95 352.169 1026.71 351.473C1044.43 350.219 1062.48 349.722 1079.63 349.405C1096.78 349.088 1113.19 348.952 1129.11 348.411C1144.84 347.877 1160.41 347.244 1175.78 345.567C1191.16 343.89 1206.36 341.17 1221.69 336.456C1234.83 332.419 1247.42 325.202 1261.13 321.234C1274.64 317.327 1288.4 315.911 1301.68 315.961C1315.98 316.017 1329.71 317.632 1343.23 319.756C1356.76 321.88 1370.1 324.532 1384 326.668C1398.53 328.904 1413.75 330.562 1430.62 330.717" stroke="url(#paint27_linear)" stroke-width="2" stroke-miterlimit="10" stroke-linecap="round" stroke-dasharray="0.1 20"/>
<path d="M-160.974 344.157C-145.19 344.437 -129.536 346.474 -114.163 349.244C-98.7901 352.014 -83.7134 355.51 -69.0852 358.702C-56.4326 361.466 -43.8257 364.019 -31.8039 365.217C-19.7821 366.416 -8.33785 366.255 2.30091 363.584C15.0218 360.392 25.0527 352.92 37.6444 348.71C50.8365 344.3 65.4343 342.077 80.4882 341.524C94.0906 341.027 107.913 341.841 121.865 343.095C135.817 344.356 149.914 346.058 164.284 347.337C177.635 348.53 191.321 349.337 205.326 348.703C217.865 348.132 230.343 346.145 243.14 346.225C263.11 346.356 282.556 349.598 301.767 353.833C311.471 355.97 321.129 358.212 330.856 360.224C340.583 362.236 350.371 364.031 360.326 365.267C373.358 366.888 386.527 367.497 399.727 367.907C412.927 368.316 426.149 368.54 439.273 369.385C455.877 370.453 472.481 371.695 489.1 372.664C505.719 373.633 522.361 374.328 539.034 374.303C553.32 374.285 568.1 373.869 582.577 372.155C597.053 370.44 611.21 367.435 624.258 362.23C636.591 357.311 646.204 349.287 658.18 343.884C672.459 337.437 688.174 333.276 703.98 330.171C721.899 326.643 740.16 324.395 758.527 322.855C776.894 321.315 795.367 320.489 813.727 319.818C830.217 319.216 846.806 318.98 863.379 318.477C879.945 317.967 896.489 317.179 912.888 315.458C928.906 313.781 944.492 314.763 952.35 327.836C958.421 337.94 958.953 350.07 967.229 359.33C979.988 373.614 1003.92 368.745 1022.28 367.894C1040.51 367.049 1059.04 366.739 1076.48 366.453C1093.92 366.168 1110.46 365.913 1126.44 365.168C1142.11 364.441 1157.62 363.528 1172.89 361.448C1188.16 359.361 1203.22 356.106 1218.4 350.678C1231.31 346.064 1243.54 338.059 1257.16 333.581C1270.4 329.227 1283.96 327.625 1296.97 327.687C1311.05 327.749 1324.45 329.55 1337.61 331.929C1350.76 334.307 1363.69 337.264 1377.23 339.642C1391.4 342.133 1406.33 343.99 1423.17 344.164" stroke="url(#paint28_linear)" stroke-width="2" stroke-miterlimit="10" stroke-linecap="round" stroke-dasharray="0.1 20"/>
<path d="M-155.392 357.586C-139.73 357.84 -124.243 360.039 -109.068 363.057C-93.8925 366.076 -79.0514 369.92 -64.6815 373.46C-52.4241 376.478 -40.2123 379.273 -28.6389 380.571C-17.0655 381.869 -6.11513 381.67 3.94609 378.702C16.3174 375.05 25.8315 366.933 38.0053 362.126C50.7642 357.083 65.0202 354.102 79.9372 352.878C93.2585 351.785 106.914 352.064 120.76 352.94C134.605 353.816 148.648 355.3 162.935 356.623C176.279 357.859 189.912 358.946 203.962 358.971C216.592 358.989 229.442 357.809 242.361 358.461C262.339 359.467 281.595 363.43 300.653 368.224C319.537 372.975 338.322 377.869 357.913 380.316C370.983 381.95 384.236 382.546 397.504 382.956C410.78 383.36 424.078 383.577 437.255 384.44C454.528 385.571 471.808 386.85 489.104 387.837C506.399 388.819 523.718 389.502 541.067 389.433C555.74 389.371 571.015 388.937 585.947 387.117C600.879 385.291 615.454 382.08 628.73 376.472C641.018 371.28 650.258 362.803 662.075 357.002C676.133 350.102 691.734 345.456 707.502 341.929C725.307 337.948 743.514 335.29 761.866 333.433C780.218 331.576 798.714 330.52 817.089 329.737C833.784 329.023 850.502 328.719 867.22 328.377C883.939 328.03 900.649 327.644 917.329 326.769C933.242 325.937 949.929 327.222 956.168 341.047C960.804 351.332 959.132 363.25 965.902 372.951C976.412 387.999 1001.79 383.906 1019.29 383.571C1037.9 383.21 1056.83 383.142 1074.44 382.95C1092.05 382.751 1108.61 382.422 1124.52 381.534C1140.03 380.67 1155.35 379.54 1170.39 377.112C1185.43 374.683 1200.22 370.945 1215.12 364.864C1227.74 359.71 1239.52 350.965 1252.98 345.984C1265.94 341.19 1279.29 339.389 1292.02 339.451C1305.86 339.513 1318.93 341.5 1331.71 344.127C1344.48 346.748 1356.98 350.015 1370.18 352.63C1383.97 355.362 1398.62 357.424 1415.43 357.604" stroke="url(#paint29_linear)" stroke-width="2" stroke-miterlimit="10" stroke-linecap="round" stroke-dasharray="0.1 20"/>
<path d="M-149.731 371.013C-134.077 371.193 -118.658 373.497 -103.597 376.708C-88.5353 379.919 -73.8386 384.043 -59.6435 387.869C-47.6673 391.098 -35.7594 394.073 -24.528 395.414C-13.2965 396.756 -2.72612 396.47 6.89436 393.185C18.939 389.067 28.0655 380.428 39.8973 375.137C52.2459 369.616 66.1219 366.026 80.8185 364.281C93.8206 362.734 107.248 362.604 120.927 363.231C134.605 363.858 148.527 365.243 162.676 366.746C175.952 368.15 189.493 369.64 203.506 370.442C216.212 371.174 229.404 370.796 242.436 371.839C262.445 373.441 281.64 377.826 300.699 382.881C319.195 387.788 337.676 392.582 357.016 394.744C368.278 396.004 379.494 396.184 390.84 396.352C405.924 396.576 420.985 397.613 436.016 398.656C453.692 399.88 471.375 401.234 489.081 402.265C506.787 403.289 524.516 403.991 542.275 403.917C557.025 403.855 572.58 403.463 587.74 401.588C602.9 399.718 617.673 396.365 630.858 390.378C642.887 384.918 651.702 376.124 663.275 370.075C677.129 362.834 692.6 357.816 708.3 353.965C725.976 349.624 744.115 346.661 762.436 344.568C780.75 342.482 799.239 341.271 817.606 340.451C834.461 339.699 851.323 339.383 868.193 339.265C885.063 339.147 901.933 339.227 918.803 339.258C934.624 339.289 953.143 340.296 958.622 354.71C962.49 364.896 959.375 376.435 965.226 386.185C974.383 401.432 1001.31 398.11 1018.21 398.284C1037.05 398.476 1056.23 398.718 1073.84 398.675C1091.45 398.631 1107.88 398.296 1123.59 397.333C1138.79 396.402 1153.8 395.135 1168.48 392.446C1183.16 389.75 1197.55 385.633 1212 378.994C1224.26 373.354 1235.53 363.952 1248.75 358.499C1261.39 353.282 1274.52 351.282 1286.96 351.332C1300.56 351.388 1313.28 353.549 1325.67 356.4C1338.08 359.25 1350.17 362.796 1363.02 365.635C1376.45 368.597 1390.83 370.839 1407.6 371.032" stroke="url(#paint30_linear)" stroke-width="2" stroke-miterlimit="10" stroke-linecap="round" stroke-dasharray="0.1 20"/>
<path d="M-144.075 384.433C-128.581 384.676 -113.367 386.849 -98.5413 389.862C-83.7154 392.867 -69.2999 396.706 -55.3935 400.27C-43.5617 403.301 -31.8515 406.09 -20.772 407.382C-9.69248 408.673 0.7639 408.475 10.3844 405.543C22.2846 401.916 31.4795 393.911 42.9466 388.837C55.0064 383.496 68.4112 379.844 82.6291 377.85C95.2513 376.08 108.352 375.596 121.749 375.925C135.154 376.248 148.855 377.378 162.807 378.832C175.316 380.136 188.15 381.279 201.373 382.508C214.588 383.738 228.335 385.048 241.922 386.694C251.854 387.899 261.664 389.551 271.406 391.445C281.148 393.339 290.822 395.47 300.496 397.631C319.471 401.867 338.522 405.723 358.089 407.605C371.16 408.86 384.337 409.319 397.529 409.63C410.721 409.94 423.936 410.096 437.067 410.748C454.689 411.623 472.319 412.598 489.957 413.294C507.602 413.99 525.255 414.412 542.915 414.182C557.604 413.996 572.954 413.58 588.008 411.915C603.062 410.251 617.819 407.344 631.346 402.158C643.254 397.594 652.753 390.029 664.25 384.85C678.339 378.496 693.613 374 709.062 370.429C726.479 366.398 744.261 363.485 762.195 361.293C780.129 359.107 798.207 357.641 816.217 356.523C832.966 355.48 849.737 354.815 866.523 354.356C883.302 353.896 900.096 353.648 916.89 353.449C932.757 353.256 950.448 355.244 957.021 368.764C961.733 378.447 960.16 389.731 966.611 398.917C976.984 413.673 1002.13 410.81 1019.6 410.878C1038.26 410.947 1057.25 411.182 1074.52 411.189C1091.78 411.195 1107.81 410.971 1123.06 410.127C1137.87 409.307 1152.39 408.152 1166.54 405.593C1180.7 403.034 1194.54 399.072 1208.48 392.644C1220.41 387.148 1231.57 378.018 1244.48 372.782C1256.78 367.802 1269.47 365.851 1281.54 365.851C1294.66 365.851 1306.99 367.839 1319.07 370.503C1331.16 373.168 1343.02 376.503 1355.67 379.192C1368.95 382.018 1383.22 384.166 1399.81 384.427" stroke="url(#paint31_linear)" stroke-width="2" stroke-miterlimit="10" stroke-linecap="round" stroke-dasharray="0.1 20"/>
<path d="M-138.517 397.861C-123.136 398.116 -108.09 400.128 -93.4691 402.891C-78.8484 405.655 -64.6684 409.164 -51.0204 412.418C-39.2798 415.213 -27.7292 417.772 -16.7713 418.971C-5.81333 420.169 4.56705 420.02 14.2255 417.406C25.9662 414.226 35.2751 406.916 46.4533 402.103C58.2548 397.022 71.1885 393.389 84.9125 391.234C97.1546 389.315 109.906 388.564 123.007 388.663C136.108 388.762 149.55 389.719 163.267 391.209C177.644 392.774 192.341 394.743 207.547 396.973C222.745 399.202 238.62 401.687 254.259 404.289C269.898 406.885 285.514 409.593 301.145 412.263C310.971 413.94 320.827 415.462 330.729 416.741C340.63 418.02 350.577 419.058 360.578 419.772C373.709 420.71 386.886 421.064 400.07 421.287C413.255 421.511 426.454 421.61 439.616 422.039C457.14 422.604 474.671 423.237 492.21 423.635C509.748 424.038 527.287 424.212 544.826 423.871C559.446 423.591 574.546 423.169 589.44 421.741C604.334 420.312 619.031 417.884 632.854 413.586C644.534 409.953 654.534 403.761 665.834 399.457C679.9 394.104 694.756 390.203 709.742 386.986C726.68 383.353 743.884 380.577 761.203 378.378C778.521 376.18 795.961 374.553 813.378 373.223C829.792 371.969 846.229 371.025 862.689 370.317C879.149 369.609 895.624 369.131 912.098 368.808C928.155 368.497 945.565 370.907 954.114 383.278C960.239 392.147 960.991 403.009 968.567 411.282C981.068 424.927 1004.57 422.536 1022.86 422.616C1041.26 422.691 1059.87 423.032 1076.63 423.194C1093.4 423.355 1108.9 423.343 1123.6 422.722C1137.9 422.119 1151.82 421.182 1165.36 418.871C1178.9 416.561 1192.09 412.878 1205.42 406.767C1216.94 401.494 1227.86 392.687 1240.34 387.651C1252.21 382.862 1264.45 380.912 1276.13 380.813C1288.76 380.701 1300.7 382.477 1312.49 384.906C1324.28 387.334 1335.93 390.414 1348.4 392.911C1361.56 395.544 1375.73 397.557 1392.14 397.842" stroke="url(#paint32_linear)" stroke-width="2" stroke-miterlimit="10" stroke-linecap="round" stroke-dasharray="0.1 20"/>
<path d="M-133.15 411.288C-117.845 411.524 -102.936 413.338 -88.4899 415.816C-74.044 418.294 -60.0768 421.443 -46.6492 424.349C-34.977 426.877 -23.5555 429.169 -12.6812 430.243C-1.80685 431.317 8.52794 431.181 18.2472 428.858C29.8207 426.088 39.2664 419.53 50.2243 415.015C61.7749 410.257 74.2679 406.699 87.4903 404.457C99.3677 402.444 111.762 401.482 124.544 401.426C137.325 401.364 150.487 402.208 163.937 403.805C176.339 405.27 188.862 407.531 201.743 410.028C214.623 412.524 228.104 415.263 241.699 417.698C251.76 419.499 261.844 421.194 271.966 422.728C282.088 424.262 292.248 425.635 302.446 426.79C318.047 428.56 333.664 429.715 349.295 430.504C364.926 431.293 380.58 431.702 396.25 431.988C411.919 432.274 427.611 432.423 443.319 432.69C460.706 432.982 478.108 433.299 495.502 433.435C512.896 433.572 530.298 433.528 547.685 433.112C562.23 432.764 577.056 432.33 591.767 431.156C606.479 429.982 621.07 428.063 635.128 424.74C646.496 422.051 656.816 417.344 667.865 413.94C681.688 409.686 695.959 406.425 710.321 403.637C726.598 400.476 743.043 397.905 759.579 395.762C776.114 393.613 792.734 391.893 809.353 390.427C825.243 389.023 841.17 387.862 857.113 386.968C873.064 386.073 889.037 385.44 905.01 385.098C921.576 384.738 939.054 387.247 950.157 398.172C958.128 406.009 961.875 416.219 970.948 423.38C986.108 435.348 1008.21 433.504 1027.58 433.696C1045.64 433.876 1063.67 434.404 1079.82 434.808C1095.97 435.211 1110.86 435.491 1124.94 435.18C1138.64 434.876 1151.91 434.255 1164.77 432.28C1177.64 430.311 1190.12 426.989 1202.77 421.294C1213.82 416.313 1224.39 407.866 1236.36 403.003C1247.76 398.37 1259.51 396.389 1270.82 396.147C1282.95 395.886 1294.52 397.414 1306.03 399.569C1317.54 401.724 1329.02 404.513 1341.33 406.779C1354.38 409.189 1368.47 411.021 1384.7 411.288" stroke="url(#paint33_linear)" stroke-width="2" stroke-miterlimit="10" stroke-linecap="round" stroke-dasharray="0.1 20"/>
<path d="M-128.039 424.715C-112.764 424.907 -97.9537 426.497 -83.6598 428.671C-69.3582 430.845 -55.5886 433.602 -42.3586 436.142C-30.7319 438.372 -19.4093 440.378 -8.59574 441.31C2.2178 442.241 12.5374 442.098 22.3403 440.036C33.7313 437.639 43.3366 431.876 54.1197 427.696C65.4424 423.311 77.5022 419.877 90.2459 417.597C101.766 415.536 113.818 414.412 126.281 414.244C138.743 414.07 151.609 414.846 164.778 416.585C177.225 418.225 189.566 421.138 202.242 424.317C214.917 427.497 228.215 430.944 241.901 433.658C252.137 435.689 262.48 437.304 272.891 438.552C283.301 439.8 293.773 440.689 304.282 441.26C320.18 442.129 336.138 442.589 352.111 442.813C368.085 443.042 384.081 443.036 400.062 442.986C416.043 442.937 432.008 442.837 447.936 442.875C465.171 442.918 482.406 442.937 499.64 442.831C516.875 442.726 534.102 442.49 551.33 442.011C565.776 441.608 580.351 441.167 594.857 440.254C609.364 439.341 623.825 437.956 638.043 435.677C649.054 433.913 659.526 430.801 670.301 428.317C683.699 425.23 697.278 422.653 710.903 420.33C726.383 417.691 741.946 415.38 757.57 413.337C773.186 411.294 788.863 409.524 804.555 407.971C819.783 406.462 835.058 405.133 850.362 404.102C865.667 403.071 881.002 402.344 896.337 402.034C913.8 401.68 931.627 404.102 945.526 413.306C955.656 420.013 962.875 429.199 973.726 435.242C982.64 440.198 992.435 442.353 1002.57 443.316C1012.71 444.278 1023.19 444.055 1033.46 444.26C1051.12 444.614 1068.36 445.396 1083.82 446.104C1099.29 446.812 1113.5 447.446 1126.91 447.501C1139.96 447.557 1152.54 447.309 1164.7 445.744C1176.87 444.179 1188.63 441.291 1200.54 436.062C1211.1 431.429 1221.24 423.367 1232.64 418.666C1243.54 414.169 1254.79 412.12 1265.74 411.716C1277.38 411.281 1288.6 412.53 1299.86 414.387C1311.12 416.244 1322.45 418.709 1334.61 420.721C1347.59 422.87 1361.62 424.497 1377.68 424.721" stroke="url(#paint34_linear)" stroke-width="2" stroke-miterlimit="10" stroke-linecap="round" stroke-dasharray="0.1 20"/>
<path d="M-123.296 438.136C-104.223 438.304 -85.6732 440.651 -68.0356 443.415C-50.3981 446.179 -33.6952 449.365 -18.0183 451.216C-2.3413 453.066 12.3326 453.582 26.3681 451.011C37.5692 448.961 47.3341 444.011 57.9805 440.192C69.0828 436.211 80.7398 432.925 93.0276 430.64C104.221 428.559 115.939 427.305 128.082 427.044C140.226 426.789 152.795 427.528 165.683 429.435C178.578 431.348 191.725 434.397 204.955 438.515C216.999 442.266 229.059 446.943 242.206 449.756C252.685 451.998 263.331 453.489 274.061 454.408C284.791 455.327 295.597 455.681 306.411 455.656C317.604 455.631 328.782 455.265 339.953 454.818C351.131 454.371 362.302 453.849 373.48 453.513C386.733 453.116 400.001 452.998 413.262 452.942C426.53 452.886 439.798 452.892 453.058 452.743C468.72 452.563 484.42 452.402 500.127 452.178C515.835 451.955 531.557 451.675 547.272 451.253C562.987 450.831 578.694 450.278 594.371 449.501C610.048 448.725 625.695 447.738 641.296 446.458C653.067 445.489 664.777 443.962 676.449 442.266C688.129 440.564 699.771 438.695 711.421 437.037C726.011 434.956 740.609 432.938 755.237 431.031C769.865 429.125 784.509 427.336 799.19 425.721C813.667 424.131 828.211 422.659 842.786 421.529C857.362 420.399 871.975 419.61 886.595 419.38C905.266 419.088 923.823 421.231 940.397 428.597C952.928 434.161 963.726 441.993 976.69 446.961C986.774 450.824 997.17 452.526 1007.76 453.358C1018.36 454.19 1029.14 454.147 1039.98 454.507C1057.22 455.079 1073.48 456.159 1088.21 457.209C1102.95 458.258 1116.48 459.283 1129.2 459.749C1141.58 460.202 1153.48 460.382 1164.96 459.258C1176.43 458.14 1187.49 455.724 1198.68 450.998C1208.74 446.75 1218.38 439.086 1229.19 434.528C1239.57 430.149 1250.34 428.019 1260.93 427.429C1272.08 426.808 1282.97 427.752 1294.01 429.292C1305.06 430.832 1316.26 432.963 1328.3 434.702C1341.22 436.571 1355.2 437.981 1371.12 438.136" stroke="url(#paint35_linear)" stroke-width="2" stroke-miterlimit="10" stroke-linecap="round" stroke-dasharray="0.1 20"/>
<path d="M-118.999 451.564C-99.7049 451.651 -81.2238 453.576 -63.7079 455.849C-46.1995 458.122 -29.6867 460.749 -14.1161 462.259C1.44689 463.761 16.0828 464.147 30.1943 461.923C41.1978 460.19 51.1223 456.073 61.6623 452.638C72.5518 449.086 83.8364 445.95 95.6986 443.67C106.588 441.577 117.987 440.198 129.834 439.876C141.681 439.546 153.961 440.267 166.568 442.354C179.41 444.484 192.466 448.005 205.453 452.818C217.459 457.271 229.116 462.886 242.559 465.948C253.319 468.401 264.308 469.736 275.38 470.307C286.452 470.879 297.599 470.68 308.679 470.065C320.374 469.419 332.016 468.37 343.658 467.295C355.299 466.221 366.941 465.122 378.621 464.364C391.882 463.501 405.188 463.209 418.501 463.047C431.815 462.886 445.136 462.855 458.427 462.519C473.944 462.128 489.469 461.613 504.987 461.054C520.512 460.495 536.029 459.898 551.554 459.346C567.079 458.793 582.604 458.284 598.129 457.899C613.654 457.514 629.187 457.259 644.712 457.216C656.05 457.184 667.228 456.948 678.383 456.408C689.539 455.868 700.679 455.029 711.941 453.787C725.589 452.284 739.199 450.564 752.801 448.8C766.404 447.043 779.999 445.242 793.616 443.59C808.89 441.739 824.719 439.702 840.693 438.298C856.666 436.894 872.791 436.118 888.651 436.795C904.518 437.472 920.126 439.59 935.074 443.975C950.196 448.409 964.391 454.694 979.741 458.644C990.752 461.476 1001.83 462.706 1012.99 463.358C1024.16 464.01 1035.42 464.091 1046.8 464.637C1063.6 465.445 1078.74 466.829 1092.76 468.239C1106.77 469.649 1119.62 471.078 1131.69 471.978C1143.43 472.854 1154.69 473.469 1165.52 472.81C1176.35 472.152 1186.75 470.227 1197.23 466.022C1206.8 462.178 1215.93 454.924 1226.16 450.502C1236.03 446.235 1246.31 444.018 1256.55 443.235C1267.26 442.416 1277.85 443.062 1288.68 444.273C1299.52 445.484 1310.62 447.266 1322.57 448.732C1335.45 450.309 1349.41 451.496 1365.19 451.576" stroke="url(#paint36_linear)" stroke-width="2" stroke-miterlimit="10" stroke-linecap="round" stroke-dasharray="0.1 20"/>
<path d="M-115.239 464.991C-95.7015 465.003 -77.2432 466.506 -59.826 468.295C-42.4089 470.083 -26.0556 472.158 -10.5762 473.325C4.9032 474.487 19.5087 474.735 33.6962 472.872C44.5858 471.437 55.0042 468.525 65.5669 465.401C76.1297 462.283 86.8292 458.954 98.1139 456.712C108.722 454.6 119.84 453.104 131.413 452.7C142.979 452.296 155.001 452.986 167.342 455.246C180.162 457.594 193.141 461.6 205.892 467.077C217.868 472.22 229.107 478.766 242.869 482.101C253.911 484.778 265.256 485.958 276.67 486.169C288.084 486.38 299.559 485.635 310.866 484.461C323.048 483.2 335.145 481.486 347.243 479.797C359.341 478.107 371.446 476.431 383.643 475.244C396.911 473.953 410.255 473.487 423.614 473.213C436.974 472.94 450.348 472.853 463.684 472.332C480.38 471.673 497.06 470.872 513.747 470.083C530.435 469.295 547.123 468.518 563.818 467.91C577.8 467.4 591.881 466.879 605.955 466.755C620.029 466.63 634.102 466.904 648.062 467.984C658.222 468.773 668.154 470.68 678.352 471.195C689.72 471.773 701.134 471.344 712.464 470.512C725.17 469.58 737.8 468.152 750.399 466.531C762.998 464.91 775.567 463.096 788.136 461.401C803.783 459.289 819.528 457.377 835.304 456.085C851.08 454.793 866.893 454.135 882.669 454.526C898.445 454.917 914.19 456.37 929.837 459.302C947.588 462.631 964.891 467.369 982.757 470.319C994.513 472.263 1006.26 473.009 1018.04 473.456C1029.82 473.903 1041.95 474.046 1053.48 474.791C1069.38 475.816 1083.82 477.505 1097.15 479.263C1110.49 481.026 1122.71 482.859 1134.18 484.181C1145.32 485.467 1156.01 486.523 1166.26 486.324C1176.51 486.125 1186.34 484.684 1196.18 480.977C1205.32 477.536 1213.92 470.686 1223.6 466.394C1232.97 462.239 1242.79 459.942 1252.7 458.966C1262.98 457.96 1273.29 458.302 1283.95 459.19C1294.6 460.078 1305.62 461.519 1317.5 462.705C1330.36 463.991 1344.31 464.96 1359.98 464.972" stroke="url(#paint37_linear)" stroke-width="2" stroke-miterlimit="10" stroke-linecap="round" stroke-dasharray="0.1 20"/>
<path d="M-112.09 478.412C-92.2942 478.356 -73.8283 479.456 -56.4643 480.778C-39.108 482.101 -22.8763 483.642 -7.46526 484.48C7.93814 485.318 22.5284 485.449 36.7844 483.946C50.6072 482.486 63.9284 479.102 77.5992 475.617C91.27 472.127 105.283 468.537 120.192 466.674C135.109 464.805 150.9 464.662 167.975 468.059C180.81 470.612 193.729 475.102 206.275 481.195C218.221 486.995 229.065 494.473 243.123 498.131C254.415 501.068 266.11 502.099 277.843 501.975C289.576 501.851 301.363 500.578 312.845 498.901C325.482 497.056 338.006 494.715 350.537 492.429C363.067 490.144 375.614 487.921 388.312 486.318C401.572 484.641 414.947 484.014 428.351 483.629C441.756 483.238 455.184 483.089 468.551 482.362C485.071 481.462 501.584 480.375 518.089 479.35C534.602 478.325 551.115 477.356 567.658 476.692C581.451 476.139 595.502 475.605 609.514 475.748C623.527 475.891 637.502 476.704 651.142 478.853C661.302 480.455 670.74 483.915 680.878 485.542C691.448 487.237 702.277 487.573 713.014 487.225C724.816 486.846 736.533 485.685 748.206 484.176C759.87 482.673 771.482 480.822 783.063 479.064C795.305 477.207 807.6 475.357 819.957 473.953C832.313 472.549 844.737 471.593 857.23 471.525C868.598 471.463 879.891 471.574 891.16 472.028C902.43 472.475 913.676 473.257 924.953 474.531C935.091 475.673 945.175 477.071 955.266 478.431C965.358 479.791 975.457 481.12 985.617 482.132C997.958 483.362 1010.31 483.666 1022.66 483.896C1035 484.126 1047.69 484.287 1059.43 485.219C1074.65 486.43 1088.44 488.386 1101.17 490.467C1113.9 492.554 1125.57 494.765 1136.52 496.485C1157.81 499.839 1176.97 502.329 1195.56 495.845C1204.32 492.79 1212.44 486.324 1221.62 482.176C1230.51 478.145 1239.91 475.779 1249.51 474.63C1259.41 473.444 1269.46 473.5 1279.95 474.077C1290.45 474.655 1301.4 475.766 1313.22 476.692C1326.07 477.698 1340.03 478.462 1355.64 478.425" stroke="url(#paint38_linear)" stroke-width="2" stroke-miterlimit="10" stroke-linecap="round" stroke-dasharray="0.1 20"/>
<path d="M-109.641 491.839C-89.579 491.746 -71.0675 492.472 -53.734 493.348C-36.4004 494.23 -20.2674 495.267 -4.91723 495.801C10.433 496.342 25.0005 496.379 39.302 495.261C52.7524 494.211 65.9293 491.081 79.4937 487.771C93.0505 484.455 106.995 480.952 121.714 479.151C136.434 477.35 151.921 477.244 168.381 480.728C181.261 483.455 194.149 488.398 206.536 495.056C218.436 501.447 228.961 509.887 243.232 513.93C254.722 517.184 266.721 518.103 278.742 517.687C290.772 517.265 302.816 515.507 314.413 513.396C327.46 511.017 340.356 508.098 353.275 505.272C366.193 502.447 379.134 499.72 392.296 497.733C405.541 495.733 418.946 494.969 432.381 494.472C445.817 493.975 459.297 493.739 472.687 492.789C489.056 491.634 505.401 490.243 521.762 488.957C538.123 487.672 554.484 486.498 570.898 485.765C584.531 485.156 598.612 484.622 612.594 485.026C626.577 485.43 640.468 486.765 653.728 489.895C664.056 492.336 672.962 497.199 683.114 499.962C692.94 502.639 703.282 503.769 713.617 503.881C724.605 503.999 735.533 503.061 746.384 501.627C757.236 500.192 768.011 498.267 778.703 496.41C790.36 494.385 802.055 492.342 813.834 490.789C825.613 489.237 837.467 488.168 849.436 488.094C861.351 488.019 873.221 488.013 885.091 488.206C896.961 488.398 908.823 488.796 920.708 489.516C931.962 490.199 943.209 491.05 954.448 491.876C965.687 492.702 976.934 493.503 988.203 494.1C1000.98 494.776 1013.8 494.721 1026.62 494.77C1039.44 494.82 1052.55 494.963 1064.45 496.05C1079.1 497.385 1092.36 499.552 1104.61 501.906C1116.85 504.26 1128.07 506.8 1138.61 508.874C1159.15 512.911 1177.69 516.153 1195.39 510.471C1203.85 507.757 1211.54 501.664 1220.28 497.658C1228.75 493.777 1237.74 491.361 1247.07 490.056C1256.61 488.721 1266.44 488.51 1276.79 488.802C1287.15 489.094 1298.05 489.889 1309.83 490.578C1322.71 491.33 1336.7 491.913 1352.28 491.845" stroke="url(#paint39_linear)" stroke-width="2" stroke-miterlimit="10" stroke-linecap="round" stroke-dasharray="0.1 20"/>
<path d="M-108.001 505.266C-87.6738 505.173 -69.094 505.564 -51.7604 506.043C-34.4269 506.521 -18.3623 507.098 -3.05773 507.378C12.2469 507.657 26.7764 507.645 41.0931 506.949C51.5951 506.44 61.6867 505.03 71.8315 503.124C81.9763 501.217 92.1667 498.807 102.843 496.298C112.836 493.944 123.315 491.876 134.266 491.05C145.216 490.218 156.645 490.628 168.469 493.218C181.441 496.062 194.337 501.422 206.609 508.564C218.464 515.47 228.746 524.91 243.108 529.357C254.689 532.941 266.931 533.76 279.196 533.102C291.453 532.444 303.726 530.295 315.353 527.879C328.742 525.097 341.942 521.718 355.18 518.42C368.417 515.122 381.7 511.955 395.265 509.651C408.48 507.403 421.907 506.533 435.381 505.931C448.854 505.328 462.373 504.987 475.762 503.794C492.002 502.347 508.218 500.633 524.442 499.068C540.674 497.503 556.921 496.087 573.236 495.255C586.778 494.565 600.92 494.038 614.902 494.69C628.884 495.342 642.7 497.174 655.588 501.198C666.211 504.515 674.677 510.626 684.913 514.514C694.146 518.023 704.116 519.948 714.26 520.482C724.595 521.029 734.892 520.246 745.09 518.824C755.288 517.402 765.387 515.346 775.342 513.334C786.566 511.067 797.82 508.769 809.181 507.005C820.542 505.241 832.001 504.005 843.628 503.869C855.923 503.726 868.203 503.651 880.491 503.689C892.779 503.726 905.059 503.881 917.347 504.198C929.52 504.515 941.687 504.918 953.853 505.31C966.019 505.701 978.185 506.08 990.359 506.347C1003.39 506.633 1016.55 506.341 1029.68 506.266C1042.81 506.192 1056.16 506.341 1068.18 507.49C1082.46 508.856 1095.34 511.16 1107.24 513.713C1119.14 516.265 1130.06 519.06 1140.32 521.408C1160.38 526.003 1178.47 529.81 1195.6 524.774C1203.89 522.333 1211.23 516.576 1219.62 512.737C1227.72 509.03 1236.37 506.608 1245.45 505.179C1254.69 503.726 1264.31 503.285 1274.55 503.322C1284.79 503.36 1295.65 503.881 1307.41 504.359C1320.33 504.887 1334.39 505.328 1350.01 505.266" stroke="url(#paint40_linear)" stroke-width="2" stroke-miterlimit="10" stroke-linecap="round" stroke-dasharray="0.1 20"/>
<path d="M-107.237 518.693C-86.6736 518.65 -68.0026 518.756 -50.6462 518.892C-33.2899 519.029 -17.2633 519.19 -2.00432 519.259C13.2547 519.333 27.7462 519.314 42.0325 519.085C52.2989 518.923 62.4438 518.898 72.619 517.116C82.7334 515.346 92.787 512.458 103.167 509.781C113.054 507.229 123.404 504.85 134.24 503.751C145.084 502.652 156.407 502.838 168.185 505.428C181.294 508.309 194.235 514.023 206.462 521.588C218.317 528.922 228.393 539.313 242.702 544.312C254.23 548.349 266.639 549.2 279.056 548.392C291.473 547.585 303.913 545.107 315.502 542.43C329.15 539.275 342.57 535.487 356.051 531.854C369.524 528.22 383.065 524.761 396.941 522.215C409.419 519.923 421.699 519.01 434.458 518.762C448.851 518.482 463.198 517.104 477.454 515.545C493.602 513.781 509.712 511.7 525.845 509.812C541.986 507.931 558.149 506.247 574.419 505.279C587.945 504.471 602.186 503.95 616.191 504.838C630.196 505.726 643.951 508.017 656.504 512.837C667.485 517.054 675.707 524.283 686.133 529.438C695.001 533.822 704.774 536.729 714.964 537.698C734.783 539.58 754.449 534.574 773.295 529.904C784.291 527.177 795.31 524.457 806.458 522.395C817.606 520.333 828.89 518.861 840.426 518.6C852.865 518.315 865.328 518.252 877.783 518.284C890.245 518.308 902.708 518.42 915.148 518.482C927.952 518.544 940.757 518.638 953.561 518.724C966.366 518.811 979.17 518.892 991.975 518.942C1005.08 518.992 1018.34 518.631 1031.57 518.544C1044.81 518.451 1058.27 518.625 1070.35 519.737C1088.72 521.426 1104.93 525.078 1119.56 528.854C1134.18 532.63 1147.41 536.617 1160.01 538.965C1172.6 541.312 1184.52 542.002 1196.06 538.896C1204.42 536.648 1211.68 531.071 1219.77 527.382C1227.53 523.836 1235.8 521.432 1244.67 519.929C1253.64 518.408 1263.1 517.774 1273.26 517.6C1283.41 517.426 1294.24 517.712 1306.03 518.023C1319.03 518.371 1333.21 518.718 1348.95 518.706" stroke="url(#paint41_linear)" stroke-width="2" stroke-miterlimit="10" stroke-linecap="round" stroke-dasharray="0.1 20"/>
<defs>
<linearGradient id="paint0_linear" x1="1358.79" y1="-46.6135" x2="1340.99" y2="132.214" gradientUnits="userSpaceOnUse">
<stop stop-color="#DA2EEF"/>
<stop offset="0.489658" stop-color="#2B6AFF"/>
<stop offset="1" stop-color="#39D0D8"/>
</linearGradient>
<linearGradient id="paint1_linear" x1="1364.02" y1="-33.2463" x2="1345.51" y2="149.605" gradientUnits="userSpaceOnUse">
<stop stop-color="#DA2EEF"/>
<stop offset="0.489658" stop-color="#2B6AFF"/>
<stop offset="1" stop-color="#39D0D8"/>
</linearGradient>
<linearGradient id="paint2_linear" x1="1369.95" y1="-20.9892" x2="1349.86" y2="170.154" gradientUnits="userSpaceOnUse">
<stop stop-color="#DA2EEF"/>
<stop offset="0.489658" stop-color="#2B6AFF"/>
<stop offset="1" stop-color="#39D0D8"/>
</linearGradient>
<linearGradient id="paint3_linear" x1="1376.46" y1="-8.79071" x2="1354.68" y2="190.871" gradientUnits="userSpaceOnUse">
<stop stop-color="#DA2EEF"/>
<stop offset="0.489658" stop-color="#2B6AFF"/>
<stop offset="1" stop-color="#39D0D8"/>
</linearGradient>
<linearGradient id="paint4_linear" x1="1383.53" y1="3.3759" x2="1360.08" y2="211.315" gradientUnits="userSpaceOnUse">
<stop stop-color="#DA2EEF"/>
<stop offset="0.489658" stop-color="#2B6AFF"/>
<stop offset="1" stop-color="#39D0D8"/>
</linearGradient>
<linearGradient id="paint5_linear" x1="1390.95" y1="15.5488" x2="1365.98" y2="230.925" gradientUnits="userSpaceOnUse">
<stop stop-color="#DA2EEF"/>
<stop offset="0.489658" stop-color="#2B6AFF"/>
<stop offset="1" stop-color="#39D0D8"/>
</linearGradient>
<linearGradient id="paint6_linear" x1="1398.63" y1="27.6677" x2="1372.43" y2="249.191" gradientUnits="userSpaceOnUse">
<stop stop-color="#DA2EEF"/>
<stop offset="0.489658" stop-color="#2B6AFF"/>
<stop offset="1" stop-color="#39D0D8"/>
</linearGradient>
<linearGradient id="paint7_linear" x1="1406.42" y1="39.74" x2="1379.45" y2="265.43" gradientUnits="userSpaceOnUse">
<stop stop-color="#DA2EEF"/>
<stop offset="0.489658" stop-color="#2B6AFF"/>
<stop offset="1" stop-color="#39D0D8"/>
</linearGradient>
<linearGradient id="paint8_linear" x1="1414.22" y1="53.4849" x2="1389.27" y2="271.643" gradientUnits="userSpaceOnUse">
<stop stop-color="#DA2EEF"/>
<stop offset="0.489658" stop-color="#2B6AFF"/>
<stop offset="1" stop-color="#39D0D8"/>
</linearGradient>
<linearGradient id="paint9_linear" x1="1421.93" y1="68.2907" x2="1398.85" y2="279.073" gradientUnits="userSpaceOnUse">
<stop stop-color="#DA2EEF"/>
<stop offset="0.489658" stop-color="#2B6AFF"/>
<stop offset="1" stop-color="#39D0D8"/>
</linearGradient>
<linearGradient id="paint10_linear" x1="1429.38" y1="84.1949" x2="1407.37" y2="290.948" gradientUnits="userSpaceOnUse">
<stop stop-color="#DA2EEF"/>
<stop offset="0.489658" stop-color="#2B6AFF"/>
<stop offset="1" stop-color="#39D0D8"/>
</linearGradient>
<linearGradient id="paint11_linear" x1="1436.49" y1="100.493" x2="1415.91" y2="301.274" gradientUnits="userSpaceOnUse">
<stop stop-color="#DA2EEF"/>
<stop offset="0.489658" stop-color="#2B6AFF"/>
<stop offset="1" stop-color="#39D0D8"/>
</linearGradient>
<linearGradient id="paint12_linear" x1="1443.12" y1="116.99" x2="1424.13" y2="310.616" gradientUnits="userSpaceOnUse">
<stop stop-color="#DA2EEF"/>
<stop offset="0.489658" stop-color="#2B6AFF"/>
<stop offset="1" stop-color="#39D0D8"/>
</linearGradient>
<linearGradient id="paint13_linear" x1="1449.18" y1="133.611" x2="1431.8" y2="319.546" gradientUnits="userSpaceOnUse">
<stop stop-color="#DA2EEF"/>
<stop offset="0.489658" stop-color="#2B6AFF"/>
<stop offset="1" stop-color="#39D0D8"/>
</linearGradient>
<linearGradient id="paint14_linear" x1="1454.53" y1="150.168" x2="1438.61" y2="328.699" gradientUnits="userSpaceOnUse">
<stop stop-color="#DA2EEF"/>
<stop offset="0.489658" stop-color="#2B6AFF"/>
<stop offset="1" stop-color="#39D0D8"/>
</linearGradient>
<linearGradient id="paint15_linear" x1="1458.99" y1="166.538" x2="1444.29" y2="338.581" gradientUnits="userSpaceOnUse">
<stop stop-color="#DA2EEF"/>
<stop offset="0.489658" stop-color="#2B6AFF"/>
<stop offset="1" stop-color="#39D0D8"/>
</linearGradient>
<linearGradient id="paint16_linear" x1="1462.6" y1="182.541" x2="1448.75" y2="349.844" gradientUnits="userSpaceOnUse">
<stop stop-color="#DA2EEF"/>
<stop offset="0.489658" stop-color="#2B6AFF"/>
<stop offset="1" stop-color="#39D0D8"/>
</linearGradient>
<linearGradient id="paint17_linear" x1="1465.07" y1="198.065" x2="1451.65" y2="363.016" gradientUnits="userSpaceOnUse">
<stop stop-color="#DA2EEF"/>
<stop offset="0.489658" stop-color="#2B6AFF"/>
<stop offset="1" stop-color="#39D0D8"/>
</linearGradient>
<linearGradient id="paint18_linear" x1="1466.35" y1="212.366" x2="1452.47" y2="380.184" gradientUnits="userSpaceOnUse">
<stop stop-color="#DA2EEF"/>
<stop offset="0.489658" stop-color="#2B6AFF"/>
<stop offset="1" stop-color="#39D0D8"/>
</linearGradient>
<linearGradient id="paint19_linear" x1="1466.35" y1="226.573" x2="1453.17" y2="390.171" gradientUnits="userSpaceOnUse">
<stop stop-color="#DA2EEF"/>
<stop offset="0.489658" stop-color="#2B6AFF"/>
<stop offset="1" stop-color="#39D0D8"/>
</linearGradient>
<linearGradient id="paint20_linear" x1="1465.02" y1="239.001" x2="1453.22" y2="393.715" gradientUnits="userSpaceOnUse">
<stop stop-color="#DA2EEF"/>
<stop offset="0.489658" stop-color="#2B6AFF"/>
<stop offset="1" stop-color="#39D0D8"/>
</linearGradient>
<linearGradient id="paint21_linear" x1="1462.52" y1="250.666" x2="1452.04" y2="396.367" gradientUnits="userSpaceOnUse">
<stop stop-color="#DA2EEF"/>
<stop offset="0.489658" stop-color="#2B6AFF"/>
<stop offset="1" stop-color="#39D0D8"/>
</linearGradient>
<linearGradient id="paint22_linear" x1="1458.9" y1="261.705" x2="1449.65" y2="398.315" gradientUnits="userSpaceOnUse">
<stop stop-color="#DA2EEF"/>
<stop offset="0.489658" stop-color="#2B6AFF"/>
<stop offset="1" stop-color="#39D0D8"/>
</linearGradient>
<linearGradient id="paint23_linear" x1="1454.41" y1="272.28" x2="1446.3" y2="399.935" gradientUnits="userSpaceOnUse">
<stop stop-color="#DA2EEF"/>
<stop offset="0.489658" stop-color="#2B6AFF"/>
<stop offset="1" stop-color="#39D0D8"/>
</linearGradient>
<linearGradient id="paint24_linear" x1="1449.05" y1="282.482" x2="1441.96" y2="401.547" gradientUnits="userSpaceOnUse">
<stop stop-color="#DA2EEF"/>
<stop offset="0.489658" stop-color="#2B6AFF"/>
<stop offset="1" stop-color="#39D0D8"/>
</linearGradient>
<linearGradient id="paint25_linear" x1="1443" y1="293.391" x2="1435.68" y2="413.994" gradientUnits="userSpaceOnUse">
<stop stop-color="#DA2EEF"/>
<stop offset="0.489658" stop-color="#2B6AFF"/>
<stop offset="1" stop-color="#39D0D8"/>
</linearGradient>
<linearGradient id="paint26_linear" x1="1436.34" y1="305.597" x2="1427.49" y2="437.634" gradientUnits="userSpaceOnUse">
<stop stop-color="#DA2EEF"/>
<stop offset="0.489658" stop-color="#2B6AFF"/>
<stop offset="1" stop-color="#39D0D8"/>
</linearGradient>
<linearGradient id="paint27_linear" x1="1429.2" y1="317.547" x2="1418.35" y2="463.133" gradientUnits="userSpaceOnUse">
<stop stop-color="#DA2EEF"/>
<stop offset="0.489658" stop-color="#2B6AFF"/>
<stop offset="1" stop-color="#39D0D8"/>
</linearGradient>
<linearGradient id="paint28_linear" x1="1421.77" y1="329.724" x2="1408.97" y2="487.078" gradientUnits="userSpaceOnUse">
<stop stop-color="#DA2EEF"/>
<stop offset="0.489658" stop-color="#2B6AFF"/>
<stop offset="1" stop-color="#39D0D8"/>
</linearGradient>
<linearGradient id="paint29_linear" x1="1414.04" y1="342.309" x2="1399.63" y2="508.51" gradientUnits="userSpaceOnUse">
<stop stop-color="#DA2EEF"/>
<stop offset="0.489658" stop-color="#2B6AFF"/>
<stop offset="1" stop-color="#39D0D8"/>
</linearGradient>
<linearGradient id="paint30_linear" x1="1406.22" y1="355.404" x2="1390.83" y2="526.405" gradientUnits="userSpaceOnUse">
<stop stop-color="#DA2EEF"/>
<stop offset="0.489658" stop-color="#2B6AFF"/>
<stop offset="1" stop-color="#39D0D8"/>
</linearGradient>
<linearGradient id="paint31_linear" x1="1398.45" y1="368.659" x2="1384.73" y2="529.457" gradientUnits="userSpaceOnUse">
<stop stop-color="#DA2EEF"/>
<stop offset="0.489658" stop-color="#2B6AFF"/>
<stop offset="1" stop-color="#39D0D8"/>
</linearGradient>
<linearGradient id="paint32_linear" x1="1390.79" y1="382.618" x2="1379.34" y2="528.94" gradientUnits="userSpaceOnUse">
<stop stop-color="#DA2EEF"/>
<stop offset="0.489658" stop-color="#2B6AFF"/>
<stop offset="1" stop-color="#39D0D8"/>
</linearGradient>
<linearGradient id="paint33_linear" x1="1383.36" y1="397.644" x2="1373.81" y2="530.798" gradientUnits="userSpaceOnUse">
<stop stop-color="#DA2EEF"/>
<stop offset="0.489658" stop-color="#2B6AFF"/>
<stop offset="1" stop-color="#39D0D8"/>
</linearGradient>
<linearGradient id="paint34_linear" x1="1376.35" y1="413.393" x2="1368.45" y2="534.089" gradientUnits="userSpaceOnUse">
<stop stop-color="#DA2EEF"/>
<stop offset="0.489658" stop-color="#2B6AFF"/>
<stop offset="1" stop-color="#39D0D8"/>
</linearGradient>
<linearGradient id="paint35_linear" x1="1369.8" y1="429.554" x2="1363.41" y2="537.709" gradientUnits="userSpaceOnUse">
<stop stop-color="#DA2EEF"/>
<stop offset="0.489658" stop-color="#2B6AFF"/>
<stop offset="1" stop-color="#39D0D8"/>
</linearGradient>
<linearGradient id="paint36_linear" x1="1363.88" y1="445.694" x2="1358.7" y2="542.744" gradientUnits="userSpaceOnUse">
<stop stop-color="#DA2EEF"/>
<stop offset="0.489658" stop-color="#2B6AFF"/>
<stop offset="1" stop-color="#39D0D8"/>
</linearGradient>
<linearGradient id="paint37_linear" x1="1358.68" y1="461.041" x2="1354.23" y2="550.736" gradientUnits="userSpaceOnUse">
<stop stop-color="#DA2EEF"/>
<stop offset="0.489658" stop-color="#2B6AFF"/>
<stop offset="1" stop-color="#39D0D8"/>
</linearGradient>
<linearGradient id="paint38_linear" x1="1354.34" y1="474.531" x2="1349.09" y2="571.791" gradientUnits="userSpaceOnUse">
<stop stop-color="#DA2EEF"/>
<stop offset="0.489658" stop-color="#2B6AFF"/>
<stop offset="1" stop-color="#39D0D8"/>
</linearGradient>
<linearGradient id="paint39_linear" x1="1350.99" y1="487.897" x2="1344.74" y2="593.706" gradientUnits="userSpaceOnUse">
<stop stop-color="#DA2EEF"/>
<stop offset="0.489658" stop-color="#2B6AFF"/>
<stop offset="1" stop-color="#39D0D8"/>
</linearGradient>
<linearGradient id="paint40_linear" x1="1348.72" y1="501.338" x2="1341.55" y2="614.479" gradientUnits="userSpaceOnUse">
<stop stop-color="#DA2EEF"/>
<stop offset="0.489658" stop-color="#2B6AFF"/>
<stop offset="1" stop-color="#39D0D8"/>
</linearGradient>
<linearGradient id="paint41_linear" x1="1347.66" y1="514.518" x2="1339.48" y2="635.299" gradientUnits="userSpaceOnUse">
<stop stop-color="#DA2EEF"/>
<stop offset="0.489658" stop-color="#2B6AFF"/>
<stop offset="1" stop-color="#39D0D8"/>
</linearGradient>
</defs>
</svg>
