<svg width="592" height="766" viewBox="0 0 592 766" fill="none" xmlns="http://www.w3.org/2000/svg">
<g filter="url(#filter0_b)">
<path fill-rule="evenodd" clip-rule="evenodd" d="M209 243.566V242.986V81.3183V80.7387L208.497 80.4506L68.5641 0.284643L68.0672 0L67.5703 0.284438L-72.4967 80.4504L-73 80.7384V81.3183V242.986V243.566L-72.4967 243.854L-21.3007 273.156L-62.4998 296.932L-63 297.22V297.798V371.507V372.085L-62.4998 372.373L1.00018 409.018L1.5 409.307L1.99982 409.018L65.4998 372.373L66 372.085V371.507V335.851L86.1241 347.408L86.622 347.693L87.12 347.408L121.382 327.733L121.884 327.444V326.866V293.474L208.497 243.854L209 243.566ZM65 371.507V335.277L51.8618 327.733L51.3598 327.444V326.866V314.742L-20.2962 273.731L-62 297.798V371.507L1.5 408.152L65 371.507ZM52.3598 326.866V315.315L65 322.549V334.124L52.3598 326.866ZM-19.2938 273.152L51.3598 313.59V289.926L1.5 261.152L-19.2938 273.152ZM52.3598 314.162V290.503L65 297.798V321.397L52.3598 314.162ZM1.99982 260.286L51.3598 288.771V287.291V286.712L51.8618 286.424L86.1241 266.749L86.622 266.463L87.12 266.749L121.382 286.424L121.884 286.712V287.291V292.321L208 242.986V81.3183L68.067 1.15234L-72 81.3183V242.986L-20.2983 272.577L1.00018 260.286L1.5 259.998L1.99982 260.286ZM120.884 287.291V292.894L68.067 323.152L66 321.969V297.798V297.22L65.4998 296.932L52.3598 289.349V287.291L86.622 267.616L120.884 287.291ZM68.5641 324.02L120.884 294.046V326.866L86.622 346.54L66 334.698V323.122L67.5703 324.02L68.0672 324.305L68.5641 324.02ZM176.957 165.868L148.85 182.114L120.743 165.868V133.376L148.85 117.131L176.957 133.376V165.868ZM368.637 231.093V231.667L368.141 231.956L352.402 241.147L351.9 241.44L351.397 241.149L335.685 232.071L335.186 231.782V231.205V212.908V212.333L335.682 212.044L350.897 203.17V172.827V172.25L351.397 171.961L385.462 152.286L385.963 151.997L386.463 152.287L420.5 171.961L421 172.25V172.827V212.177V212.754L420.5 213.042L386.463 232.717L385.963 233.006L385.462 232.717L368.637 223V231.093ZM368.637 221.845L385.963 231.851L420 212.177V172.827L385.963 153.152L351.897 172.827V202.59L352.397 202.878L368.137 211.957L368.637 212.246V212.823V221.845ZM367.637 222.422V231.093L351.897 240.284L336.186 231.205V212.908L350.897 204.328V212.177V212.754L351.397 213.043L367.637 222.422ZM351.897 203.745V212.177L367.637 221.268V212.823L351.897 203.745L351.897 203.745ZM169 483.026L139.656 499.89L110.285 483.026V449.016L139.656 432.152L169 449.016V483.026ZM246 747.026V747.604L245.498 747.893L216.155 764.757L215.657 765.043L215.159 764.757L185.787 747.893L185.285 747.605V747.026V713.016V712.438L185.787 712.149L215.159 695.285L215.657 694.999L216.155 695.285L245.498 712.149L246 712.438V713.016V747.026ZM215.656 763.89L186.285 747.026V713.016L215.656 696.152L245 713.016V747.026L215.656 763.89ZM330 295.479V294.902V276.402V275.826L329.501 275.537L313.507 266.287L313.007 265.997L312.506 266.287L296.5 275.537L296 275.825V276.402V294.902V295.479L296.5 295.768L312.506 305.018L313.007 305.307L313.507 305.018L329.501 295.768L330 295.479ZM297 294.902L313.007 304.152L329 294.902V276.402L313.007 267.152L297 276.402V294.902ZM408 554.902V555.479L407.501 555.768L391.507 565.018L391.007 565.307L390.506 565.018L374.5 555.768L374 555.479V554.902V536.402V535.825L374.5 535.536L390.506 526.286L391.007 525.997L391.507 526.287L407.501 535.537L408 535.826V536.402V554.902ZM391.007 564.152L375 554.902V536.402L391.007 527.152L407 536.402V554.902L391.007 564.152ZM356 631.479V630.902V612.402V611.826L355.501 611.537L339.507 602.287L339.007 601.997L338.506 602.286L322.5 611.536L322 611.825V612.402V630.902V631.479L322.5 631.768L338.506 641.018L339.007 641.307L339.507 641.018L355.501 631.768L356 631.479ZM323 630.902L339.007 640.152L355 630.902V612.402L339.007 603.152L323 612.402V630.902ZM239 592.902V593.478L238.502 593.767L210.514 610.017L210.012 610.309L209.51 610.017L206 607.981V647.902V648.479L205.501 648.768L155.022 678.018L154.521 678.308L154.02 678.018L103.499 648.768L103 648.479V647.902V589.402V588.826L103.499 588.537L154.02 559.287L154.521 558.997L155.022 559.287L181 574.34V560.402V559.826L181.498 559.537L209.51 543.287L210.012 542.996L210.514 543.288L238.502 559.538L239 559.827V560.402V592.902ZM210.012 609.152L206 606.825V589.402V588.826L205.501 588.537L182 574.919V560.402L210.012 544.152L238 560.402V592.902L210.012 609.152ZM205 589.402V606.245L182 592.902V576.075L205 589.402ZM181.498 593.767L205 607.401V647.902L154.521 677.152L104 647.902V589.402L154.521 560.152L181 575.496V592.902V593.478L181.498 593.767ZM340 196.902V197.479L339.501 197.768L289.022 227.018L288.521 227.308L288.02 227.018L237.499 197.768L237 197.479V196.902V138.402V137.826L237.499 137.537L288.02 108.287L288.521 107.997L289.022 108.287L339.501 137.537L340 137.826V138.402V196.902ZM288.521 226.152L238 196.902V138.402L288.521 109.152L339 138.402V196.902L288.521 226.152ZM592 106.75V107.326L591.501 107.615L541.022 136.865L540.521 137.156L540.02 136.865L489.499 107.615L489 107.327V106.75V48.25V47.6734L489.499 47.3846L540.02 18.1346L540.521 17.8444L541.022 18.1348L591.501 47.3848L592 47.6737V48.25V106.75ZM540.521 136L490 106.75V48.25L540.521 19L591 48.25V106.75L540.521 136Z" fill="url(#paint0_linear)"/>
</g>
<defs>
<filter id="filter0_b" x="-93" y="-20" width="705" height="805.043" filterUnits="userSpaceOnUse" color-interpolation-filters="sRGB">
<feFlood flood-opacity="0" result="BackgroundImageFix"/>
<feGaussianBlur in="BackgroundImage" stdDeviation="10"/>
<feComposite in2="SourceAlpha" operator="in" result="effect1_backgroundBlur"/>
<feBlend mode="normal" in="SourceGraphic" in2="effect1_backgroundBlur" result="shape"/>
</filter>
<linearGradient id="paint0_linear" x1="40.0911" y1="145.145" x2="767.123" y2="488.606" gradientUnits="userSpaceOnUse">
<stop stop-color="#C200FB"/>
<stop offset="0.619792" stop-color="#3772FF"/>
<stop offset="1" stop-color="#5AC4BE"/>
</linearGradient>
</defs>
</svg>
