<svg width="886" height="728" viewBox="0 0 886 728" fill="none" xmlns="http://www.w3.org/2000/svg">
<path d="M293 410.75L690.336 641L1088 410.75V-49.75L690.336 -280L293 -49.75V410.75Z" fill="url(#paint0_radial)" fill-opacity="0.2"/>
<g filter="url(#filter0_b)">
<path fill-rule="evenodd" clip-rule="evenodd" d="M715 157.414V156.834V-4.83405V-5.41364L715.503 -5.70175L855.436 -85.8677L855.933 -86.1523L856.43 -85.8679L996.497 -5.70196L997 -5.41392V-4.83405V156.834V157.414L996.497 157.702L945.301 187.004L986.5 210.779L987 211.068V211.645V285.355V285.932L986.5 286.221L923 322.866L922.5 323.155L922 322.866L858.5 286.221L858 285.932V285.355V249.699L837.876 261.255L837.378 261.541L836.88 261.255L802.618 241.58L802.116 241.292V240.713V207.321L715.503 157.702L715 157.414ZM859 285.355V249.125L872.138 241.58L872.64 241.292V240.713V228.59L944.296 187.578L986 211.645V285.355L922.5 322L859 285.355ZM871.64 240.713V229.162L859 236.397V247.972L871.64 240.713ZM943.294 187L872.64 227.438V203.774L922.5 175L943.294 187ZM871.64 228.01V204.351L859 211.645V235.245L871.64 228.01ZM922 174.134L872.64 202.619V201.139V200.56L872.138 200.272L837.876 180.597L837.378 180.311L836.88 180.597L802.618 200.272L802.116 200.56V201.139V206.169L716 156.834V-4.83405L855.933 -85L996 -4.83405V156.834L944.298 186.425L923 174.134L922.5 173.845L922 174.134ZM803.116 201.139V206.742L855.933 237L858 235.817V211.645V211.068L858.5 210.779L871.64 203.196V201.139L837.378 181.464L803.116 201.139ZM855.436 237.868L803.116 207.894V240.713L837.378 260.388L858 248.546V236.969L856.43 237.868L855.933 238.152L855.436 237.868ZM775.15 83.9614L747.043 67.7156V35.2241L775.15 18.9784L803.257 35.2241V67.7156L775.15 83.9614ZM505.363 123.514V122.94V114.848L488.538 124.565L488.037 124.854L487.537 124.565L453.5 104.89L453 104.601V104.024V64.6748V64.0978L453.5 63.809L487.537 44.1342L488.037 43.8451L488.538 44.134L522.603 63.8088L523.103 64.0975V64.6748V95.018L538.318 103.891L538.814 104.181V104.755V123.053V123.63L538.315 123.919L522.603 132.997L522.1 133.288L521.598 132.995L505.859 123.804L505.363 123.514ZM522.103 94.4378V64.6748L488.037 45L454 64.6748V104.024L488.037 123.699L505.363 113.693V104.671V104.093L505.863 103.805L521.603 94.7261L522.103 94.4378ZM506.363 113.115V104.671L522.103 95.5923L522.103 104.024L506.363 113.115ZM506.363 114.27L522.603 104.89L523.103 104.602V104.024V96.1757L537.814 104.755V123.053L522.103 132.131L506.363 122.94V114.27ZM814.344 445.737L785 428.873V394.864L814.344 378L843.715 394.864V428.873L814.344 445.737ZM594 197.327V196.75V178.25V177.673L594.499 177.384L610.493 168.134L610.993 167.845L611.494 168.134L627.5 177.384L628 177.673V178.25V196.75V197.327L627.5 197.616L611.494 206.866L610.993 207.155L610.493 206.866L594.499 197.616L594 197.327ZM627 196.75L610.993 206L595 196.75V178.25L610.993 169L627 178.25V196.75ZM526 516.75V517.327L526.499 517.616L542.493 526.866L542.993 527.155L543.494 526.866L559.5 517.616L560 517.327V516.75V498.25V497.673L559.5 497.384L543.494 488.134L542.993 487.845L542.493 488.134L526.499 497.384L526 497.673V498.25V516.75ZM542.993 526L559 516.75V498.25L542.993 489L527 498.25V516.75L542.993 526ZM668 583.327V582.75V564.25V563.673L668.499 563.384L684.493 554.134L684.993 553.845L685.494 554.134L701.5 563.384L702 563.673V564.25V582.75V583.327L701.5 583.616L685.494 592.866L684.993 593.155L684.493 592.866L668.499 583.616L668 583.327ZM701 582.75L684.993 592L669 582.75V564.25L684.993 555L701 564.25V582.75ZM685 534.75V535.326L685.498 535.615L713.486 551.865L713.988 552.156L714.49 551.865L718 549.829V589.75V590.326L718.499 590.615L768.978 619.865L769.479 620.156L769.98 619.865L820.501 590.615L821 590.327V589.75V531.25V530.673L820.501 530.385L769.98 501.135L769.479 500.844L768.978 501.135L743 516.188V502.25V501.674L742.502 501.385L714.49 485.135L713.988 484.844L713.486 485.135L685.498 501.385L685 501.674V502.25V534.75ZM713.988 551L718 548.673V531.25V530.674L718.499 530.385L742 516.767V502.25L713.988 486L686 502.25V534.75L713.988 551ZM719 589.75V549.249L742.502 535.615L743 535.326V534.75V517.343L769.479 502L820 531.25V589.75L769.479 619L719 589.75ZM742 534.75V517.923L719 531.25V548.093L742 534.75ZM178 70.75L205.988 87L210 84.6728V125.75V126.326L210.499 126.615L260.978 155.865L261.479 156.156L261.98 155.865L312.501 126.615L313 126.327V125.75V67.25V66.6734L312.501 66.3846L261.98 37.1346L261.479 36.8444L260.978 37.1348L234 52.767V38.25L205.988 22L178 38.25V70.75ZM234 53.9227L261.479 38L312 67.25V125.75L261.479 155L211 125.75V84.0927L234 70.75V53.9227ZM0 171.75V172.326L0.497896 172.615L28.4863 188.865L28.9882 189.156L29.4902 188.865L57.5018 172.615L58 172.326V171.75V139.25V138.674L57.5018 138.385L29.4902 122.135L28.9882 121.844L28.4863 122.135L0.497896 138.385L0 138.674V139.25V171.75ZM28.9884 188L57 171.75V139.25L28.9884 123L1 139.25V171.75L28.9884 188ZM584 42.75V43.3263L584.499 43.6152L634.978 72.8652L635.479 73.1556L635.98 72.8654L686.501 43.6154L687 43.3265V42.75V-15.75V-16.3266L686.501 -16.6154L635.98 -45.8654L635.479 -46.1557L634.978 -45.8653L584.499 -16.6153L584 -16.3263V-15.75V42.75ZM635.479 72L686 42.75V-15.75L635.479 -45L585 -15.75V42.75L635.479 72Z" fill="url(#paint1_linear)"/>
</g>
<g filter="url(#filter1_b)">
<path d="M863 716.75L878.993 726L895 716.75V698.25L878.993 689L863 698.25V716.75Z" fill="url(#paint2_radial)" fill-opacity="0.2"/>
<path d="M862.5 716.75V717.038L862.75 717.183L878.743 726.433L878.993 726.578L879.244 726.433L895.25 717.183L895.5 717.039V716.75V698.25V697.961L895.25 697.817L879.244 688.567L878.993 688.422L878.743 688.567L862.75 697.817L862.5 697.962V698.25V716.75Z" stroke="#3772FF"/>
</g>
<defs>
<filter id="filter0_b" x="-20" y="-106.152" width="1037" height="746.308" filterUnits="userSpaceOnUse" color-interpolation-filters="sRGB">
<feFlood flood-opacity="0" result="BackgroundImageFix"/>
<feGaussianBlur in="BackgroundImage" stdDeviation="10"/>
<feComposite in2="SourceAlpha" operator="in" result="effect1_backgroundBlur"/>
<feBlend mode="normal" in="SourceGraphic" in2="effect1_backgroundBlur" result="shape"/>
</filter>
<filter id="filter1_b" x="842" y="667.845" width="74" height="79.3102" filterUnits="userSpaceOnUse" color-interpolation-filters="sRGB">
<feFlood flood-opacity="0" result="BackgroundImageFix"/>
<feGaussianBlur in="BackgroundImage" stdDeviation="10"/>
<feComposite in2="SourceAlpha" operator="in" result="effect1_backgroundBlur"/>
<feBlend mode="normal" in="SourceGraphic" in2="effect1_backgroundBlur" result="shape"/>
</filter>
<radialGradient id="paint0_radial" cx="0" cy="0" r="1" gradientUnits="userSpaceOnUse" gradientTransform="translate(268.5 -330) rotate(66.3987) scale(877.936 603.482)">
<stop stop-color="#364C99" stop-opacity="0.4"/>
<stop offset="1" stop-color="#1C274F"/>
</radialGradient>
<linearGradient id="paint1_linear" x1="850.5" y1="26.1976" x2="95.5795" y2="573.704" gradientUnits="userSpaceOnUse">
<stop stop-color="#C200FB"/>
<stop offset="0.619792" stop-color="#3772FF"/>
<stop offset="1" stop-color="#5AC4BE"/>
</linearGradient>
<radialGradient id="paint2_radial" cx="0" cy="0" r="1" gradientUnits="userSpaceOnUse" gradientTransform="translate(863 689) rotate(49.1446) scale(48.9183 33.6353)">
<stop stop-color="#4966CF"/>
<stop offset="1" stop-color="#1C274F"/>
</radialGradient>
</defs>
</svg>
