<svg width="272" height="35" viewBox="0 0 272 35" fill="none" xmlns="http://www.w3.org/2000/svg">
<path fill-rule="evenodd" clip-rule="evenodd" d="M43.7456 21.4186L42.1766 18.7083H39.8793V21.4186H38.528V13.2806H42.5969C43.093 13.2767 43.5805 13.4089 44.0066 13.6629C44.4326 13.9171 44.7807 14.2832 45.0131 14.7214C45.2454 15.1597 45.3529 15.6533 45.3241 16.1485C45.2951 16.6437 45.1309 17.1215 44.8492 17.5297C44.555 17.9627 44.1399 18.2996 43.6555 18.4982L45.3297 21.4186H43.7456ZM42.5969 14.6619H39.8793V17.3646H42.5969C42.7746 17.3644 42.9502 17.3278 43.113 17.2567C43.2757 17.1857 43.4221 17.0818 43.5429 16.9517C43.73 16.7617 43.857 16.521 43.9083 16.2593C43.9595 15.9976 43.9327 15.7267 43.831 15.4802C43.7293 15.2337 43.5575 15.0225 43.3367 14.873C43.116 14.7235 42.856 14.6423 42.5895 14.6394L42.5969 14.6619ZM57.0638 13.2806L52.9873 21.4186H54.5038L57.0638 16.321L59.6164 21.4186H61.1328L57.0638 13.2806ZM74.2406 13.2806H72.514L70.1941 16.2835L67.8819 13.2806H66.1477L69.5485 17.6198V21.4186H70.8998V17.5523L74.2406 13.2806ZM81.1624 13.2806H83.8725C84.9493 13.2884 85.9796 13.7197 86.741 14.4811C87.5025 15.2424 87.9337 16.2729 87.9415 17.3496C87.9356 18.427 87.505 19.4584 86.7432 20.2202C85.9814 20.9821 84.9499 21.4127 83.8725 21.4186H81.1624V13.2806ZM83.8725 20.0372C84.5907 20.0353 85.2789 19.749 85.7867 19.2412C86.2945 18.7334 86.5807 18.0453 86.5827 17.327C86.5749 16.6107 86.2868 15.9258 85.7802 15.4193C85.2737 14.9128 84.5889 14.6247 83.8725 14.6168H82.5061V20.0372H83.8725ZM96.973 13.2806H95.6217V21.4186H96.973V13.2806ZM111.433 18.0177C111.44 18.4654 111.355 18.9098 111.183 19.3232C111.012 19.7365 110.757 20.11 110.434 20.4201C109.959 20.8944 109.356 21.2172 108.698 21.3478C108.04 21.4782 107.359 21.4106 106.739 21.1533C106.12 20.896 105.591 20.4606 105.22 19.9024C104.849 19.3442 104.651 18.6882 104.653 18.0177V13.2806H106.004V18.0177C106.004 18.5573 106.219 19.0748 106.6 19.4564C106.981 19.8379 107.499 20.0522 108.039 20.0522C108.579 20.0522 109.096 19.8379 109.478 19.4564C109.859 19.0748 110.073 18.5573 110.073 18.0177V13.2806H111.433V18.0177ZM120.464 21.4186V16.5538L123.188 19.2714L125.899 16.5538V21.4186H127.273V13.2806L123.188 17.3496L119.12 13.2806V21.4186H120.464Z" fill="#F1F1F2"/>
<path d="M28.4905 13.0253V25.1272L15.0297 32.8973L1.56154 25.1272V9.57943L15.0297 1.80177L25.375 7.77766L26.9365 6.87677L15.0297 0L0 8.67854V26.0281L15.0297 34.7066L30.0596 26.0281V12.1244L28.4905 13.0253Z" fill="url(#paint0_linear_1_41)"/>
<path d="M11.2611 25.1348H9.00885V17.5823H16.5163C17.2266 17.5745 17.9051 17.2872 18.4053 16.7828C18.9055 16.2785 19.187 15.5975 19.1889 14.8871C19.1929 14.5359 19.1252 14.1875 18.9896 13.8635C18.854 13.5394 18.6536 13.2465 18.4005 13.0028C18.1558 12.7512 17.8627 12.5517 17.5389 12.4163C17.2151 12.2808 16.8672 12.2121 16.5163 12.2145H9.00885V9.91725H16.5237C17.8394 9.92513 19.099 10.4513 20.0293 11.3816C20.9596 12.3119 21.4857 13.5715 21.4936 14.8871C21.5017 15.8942 21.1946 16.8786 20.6153 17.7024C20.0821 18.4906 19.3308 19.1063 18.4532 19.4741C17.5841 19.7498 16.6772 19.8866 15.7655 19.8796H11.2611V25.1348Z" fill="url(#paint1_linear_1_41)"/>
<path d="M21.4411 24.947H18.8135L16.7865 21.4111C17.5885 21.362 18.3795 21.2002 19.1363 20.9306L21.4411 24.947Z" fill="url(#paint2_linear_1_41)"/>
<path d="M26.9215 10.5103L28.4755 11.3737L30.0296 10.5103V8.68605L28.4755 7.78516L26.9215 8.68605V10.5103Z" fill="url(#paint3_linear_1_41)"/>
<path d="M227.861 17.4664C227.861 18.6377 227.679 19.7456 227.299 20.7665C226.919 21.8072 226.393 22.6976 225.681 23.4732C224.973 24.2487 224.114 24.8581 223.073 25.3211C222.032 25.7841 220.861 25.9977 219.54 25.9977C218.218 25.9977 217.047 25.7682 216.006 25.3211C214.965 24.8581 214.107 24.2487 213.398 23.4732C212.69 22.6976 212.144 21.7875 211.78 20.7665C211.416 19.7258 211.234 18.6377 211.234 17.4664C211.234 16.3109 211.416 15.2029 211.78 14.1662C212.144 13.1295 212.686 12.2193 213.398 11.4438C214.107 10.6682 214.985 10.0588 216.006 9.59583C217.047 9.13285 218.218 8.91917 219.54 8.91917C220.861 8.91917 222.032 9.14868 223.073 9.59583C224.114 10.0588 224.973 10.6682 225.681 11.4438C226.389 12.2193 226.919 13.1295 227.299 14.1662C227.679 15.2029 227.861 16.3109 227.861 17.4664ZM219.555 23.2951C220.363 23.2951 221.075 23.1447 221.668 22.8479C222.278 22.5512 222.776 22.1396 223.188 21.6252C223.599 21.095 223.896 20.4856 224.094 19.7773C224.292 19.069 224.391 18.2894 224.391 17.4664C224.391 16.6433 224.292 15.8638 224.094 15.1555C223.896 14.4472 223.599 13.8338 223.188 13.3075C222.776 12.7773 222.282 12.3816 221.668 12.0848C221.059 11.788 220.363 11.6377 219.555 11.6377C218.748 11.6377 218.036 11.788 217.442 12.0848C216.833 12.3816 216.334 12.7931 215.923 13.3075C215.511 13.8378 215.215 14.4472 215.017 15.1555C214.819 15.8638 214.72 16.6433 214.72 17.4664C214.72 18.2894 214.819 19.069 215.017 19.7773C215.215 20.4856 215.511 21.0989 215.923 21.6252C216.334 22.1555 216.829 22.5512 217.442 22.8479C218.036 23.1447 218.748 23.2951 219.555 23.2951ZM230.042 25.7208V9.212H233.508V17.1379L239.238 9.212H243.25L237.176 17.3674L243.666 25.7208H239.372L233.496 17.6128V25.7208H230.042ZM245.047 9.212H254.971V11.97H248.533V15.9667H254.674V18.7089H248.533V22.9667H255.054V25.7208H245.066V9.212H245.047ZM267.337 9.212H271.1L265.667 17.4189L271.199 25.7208H267.4L263.835 20.0899L260.269 25.7208H256.471L262.003 17.4149L256.57 9.20804H260.333L263.835 14.7875L267.337 9.212Z" fill="white"/>
<path d="M189.775 15.8519C194.152 15.8519 197.701 12.3033 197.701 7.92595C197.701 3.54857 194.152 0 189.775 0C185.397 0 181.849 3.54857 181.849 7.92595C181.849 12.3033 185.397 15.8519 189.775 15.8519Z" fill="#88BDF3"/>
<path d="M189.775 35C194.152 35 197.701 31.4514 197.701 27.074C197.701 22.6967 194.152 19.1481 189.775 19.1481C185.397 19.1481 181.849 22.6967 181.849 27.074C181.849 31.4514 185.397 35 189.775 35Z" fill="#3075EE"/>
<path d="M199.347 25.4279C203.724 25.4279 207.273 21.8794 207.273 17.502C207.273 13.1246 203.724 9.57603 199.347 9.57603C194.969 9.57603 191.421 13.1246 191.421 17.502C191.421 21.8794 194.969 25.4279 199.347 25.4279Z" fill="#5795F1"/>
<path d="M180.199 25.4279C184.576 25.4279 188.125 21.8794 188.125 17.502C188.125 13.1246 184.576 9.57603 180.199 9.57603C175.821 9.57603 172.273 13.1246 172.273 17.502C172.273 21.8794 175.821 25.4279 180.199 25.4279Z" fill="#205FEC"/>
<path d="M187.907 15.6343C185.034 14.9418 182.771 12.6784 182.078 9.80554C184.935 10.502 187.199 12.7614 187.907 15.6343Z" fill="#134BEF"/>
<path d="M182.062 25.2103C182.755 22.3375 185.018 20.0741 187.891 19.3816C187.199 22.2386 184.935 24.502 182.062 25.2103V25.2103Z" fill="#0932E8"/>
<path d="M191.638 19.3657C194.511 20.0582 196.775 22.3216 197.467 25.1945C194.61 24.502 192.347 22.2385 191.638 19.3657V19.3657Z" fill="#164BEA"/>
<path d="M197.483 9.78972C196.791 12.6625 194.527 14.9259 191.654 15.6184C192.347 12.7615 194.61 10.502 197.483 9.78972V9.78972Z" fill="#3170F1"/>
<path d="M148.361 17.424L143.921 11.136H146.321L149.633 15.984L152.921 11.136H155.297L150.857 17.424L155.537 24H153.137L149.633 18.864L146.081 24H143.705L148.361 17.424Z" fill="white"/>
<defs>
<linearGradient id="paint0_linear_1_41" x1="30.033" y1="8.68808" x2="-1.83841" y2="21.4334" gradientUnits="userSpaceOnUse">
<stop stop-color="#C200FB"/>
<stop offset="0.489658" stop-color="#3772FF"/>
<stop offset="0.489758" stop-color="#3773FE"/>
<stop offset="1" stop-color="#5AC4BE"/>
</linearGradient>
<linearGradient id="paint1_linear_1_41" x1="30.033" y1="8.68808" x2="-1.83842" y2="21.4334" gradientUnits="userSpaceOnUse">
<stop stop-color="#C200FB"/>
<stop offset="0.489658" stop-color="#3772FF"/>
<stop offset="0.489758" stop-color="#3773FE"/>
<stop offset="1" stop-color="#5AC4BE"/>
</linearGradient>
<linearGradient id="paint2_linear_1_41" x1="30.033" y1="8.68807" x2="-1.83842" y2="21.4333" gradientUnits="userSpaceOnUse">
<stop stop-color="#C200FB"/>
<stop offset="0.489658" stop-color="#3772FF"/>
<stop offset="0.489758" stop-color="#3773FE"/>
<stop offset="1" stop-color="#5AC4BE"/>
</linearGradient>
<linearGradient id="paint3_linear_1_41" x1="30.033" y1="8.68808" x2="-1.83841" y2="21.4334" gradientUnits="userSpaceOnUse">
<stop stop-color="#C200FB"/>
<stop offset="0.489658" stop-color="#3772FF"/>
<stop offset="0.489758" stop-color="#3773FE"/>
<stop offset="1" stop-color="#5AC4BE"/>
</linearGradient>
</defs>
</svg>
